<svg width="601" height="525" viewBox="0 0 601 525" fill="none" xmlns="http://www.w3.org/2000/svg">
<rect x="125" width="2" height="525" fill="url(#paint0_linear_1468_768)"/>
<rect x="74" width="2" height="525" fill="url(#paint1_linear_1468_768)"/>
<rect x="175" width="2" height="525" fill="url(#paint2_linear_1468_768)"/>
<rect x="225" width="2" height="525" fill="url(#paint3_linear_1468_768)"/>
<rect x="275" width="2" height="525" fill="url(#paint4_linear_1468_768)"/>
<rect x="325" width="2" height="525" fill="url(#paint5_linear_1468_768)"/>
<rect x="375" width="2" height="525" fill="url(#paint6_linear_1468_768)"/>
<rect x="425" width="2" height="525" fill="url(#paint7_linear_1468_768)"/>
<rect x="475" width="2" height="525" fill="url(#paint8_linear_1468_768)"/>
<rect x="525" width="2" height="525" fill="url(#paint9_linear_1468_768)"/>
<rect x="601" y="87" width="2" height="601" transform="rotate(90 601 87)" fill="url(#paint10_linear_1468_768)"/>
<rect x="601" y="36" width="2" height="601" transform="rotate(90 601 36)" fill="url(#paint11_linear_1468_768)"/>
<rect x="601" y="137" width="2" height="601" transform="rotate(90 601 137)" fill="url(#paint12_linear_1468_768)"/>
<rect x="601" y="187" width="2" height="601" transform="rotate(90 601 187)" fill="url(#paint13_linear_1468_768)"/>
<rect x="601" y="237" width="2" height="601" transform="rotate(90 601 237)" fill="url(#paint14_linear_1468_768)"/>
<rect x="601" y="287" width="2" height="601" transform="rotate(90 601 287)" fill="url(#paint15_linear_1468_768)"/>
<rect x="601" y="337" width="2" height="601" transform="rotate(90 601 337)" fill="url(#paint16_linear_1468_768)"/>
<rect x="601" y="387" width="2" height="601" transform="rotate(90 601 387)" fill="url(#paint17_linear_1468_768)"/>
<rect x="601" y="437" width="2" height="601" transform="rotate(90 601 437)" fill="url(#paint18_linear_1468_768)"/>
<rect x="601" y="487" width="2" height="601" transform="rotate(90 601 487)" fill="url(#paint19_linear_1468_768)"/>
<g filter="url(#filter0_b_1468_768)">
<rect x="88.002" y="58" width="179.002" height="179.002" rx="3" fill="white" fill-opacity="0.05"/>
</g>
<path d="M112.732 88.12C112.084 88.12 111.456 88.028 110.848 87.844C110.248 87.66 109.772 87.416 109.42 87.112L109.96 85.9C110.304 86.172 110.724 86.396 111.22 86.572C111.724 86.74 112.228 86.824 112.732 86.824C113.356 86.824 113.82 86.724 114.124 86.524C114.436 86.324 114.592 86.06 114.592 85.732C114.592 85.492 114.504 85.296 114.328 85.144C114.16 84.984 113.944 84.86 113.68 84.772C113.416 84.684 113.056 84.584 112.6 84.472C111.96 84.32 111.44 84.168 111.04 84.016C110.648 83.864 110.308 83.628 110.02 83.308C109.74 82.98 109.6 82.54 109.6 81.988C109.6 81.524 109.724 81.104 109.972 80.728C110.228 80.344 110.608 80.04 111.112 79.816C111.624 79.592 112.248 79.48 112.984 79.48C113.496 79.48 114 79.544 114.496 79.672C114.992 79.8 115.42 79.984 115.78 80.224L115.288 81.436C114.92 81.22 114.536 81.056 114.136 80.944C113.736 80.832 113.348 80.776 112.972 80.776C112.356 80.776 111.896 80.88 111.592 81.088C111.296 81.296 111.148 81.572 111.148 81.916C111.148 82.156 111.232 82.352 111.4 82.504C111.576 82.656 111.796 82.776 112.06 82.864C112.324 82.952 112.684 83.052 113.14 83.164C113.764 83.308 114.276 83.46 114.676 83.62C115.076 83.772 115.416 84.008 115.696 84.328C115.984 84.648 116.128 85.08 116.128 85.624C116.128 86.088 116 86.508 115.744 86.884C115.496 87.26 115.116 87.56 114.604 87.784C114.092 88.008 113.468 88.12 112.732 88.12ZM123.735 81.592V88H122.307V87.184C122.067 87.472 121.767 87.696 121.407 87.856C121.047 88.008 120.659 88.084 120.243 88.084C119.387 88.084 118.711 87.848 118.215 87.376C117.727 86.896 117.483 86.188 117.483 85.252V81.592H118.983V85.048C118.983 85.624 119.111 86.056 119.367 86.344C119.631 86.624 120.003 86.764 120.483 86.764C121.019 86.764 121.443 86.6 121.755 86.272C122.075 85.936 122.235 85.456 122.235 84.832V81.592H123.735ZM129.251 81.52C129.875 81.52 130.431 81.656 130.919 81.928C131.415 82.2 131.803 82.584 132.083 83.08C132.363 83.576 132.503 84.148 132.503 84.796C132.503 85.444 132.363 86.02 132.083 86.524C131.803 87.02 131.415 87.404 130.919 87.676C130.431 87.948 129.875 88.084 129.251 88.084C128.811 88.084 128.407 88.008 128.039 87.856C127.679 87.704 127.375 87.476 127.127 87.172V88H125.699V79.096H127.199V82.372C127.455 82.092 127.755 81.88 128.099 81.736C128.451 81.592 128.835 81.52 129.251 81.52ZM129.083 86.8C129.635 86.8 130.087 86.616 130.439 86.248C130.799 85.88 130.979 85.396 130.979 84.796C130.979 84.196 130.799 83.712 130.439 83.344C130.087 82.976 129.635 82.792 129.083 82.792C128.723 82.792 128.399 82.876 128.111 83.044C127.823 83.204 127.595 83.436 127.427 83.74C127.259 84.044 127.175 84.396 127.175 84.796C127.175 85.196 127.259 85.548 127.427 85.852C127.595 86.156 127.823 86.392 128.111 86.56C128.399 86.72 128.723 86.8 129.083 86.8ZM133.719 84.04H137.019V85.288H133.719V84.04ZM141.108 81.52C142.052 81.52 142.772 81.748 143.268 82.204C143.772 82.652 144.024 83.332 144.024 84.244V88H142.608V87.22C142.424 87.5 142.16 87.716 141.816 87.868C141.48 88.012 141.072 88.084 140.592 88.084C140.112 88.084 139.692 88.004 139.332 87.844C138.972 87.676 138.692 87.448 138.492 87.16C138.3 86.864 138.204 86.532 138.204 86.164C138.204 85.588 138.416 85.128 138.84 84.784C139.272 84.432 139.948 84.256 140.868 84.256H142.524V84.16C142.524 83.712 142.388 83.368 142.116 83.128C141.852 82.888 141.456 82.768 140.928 82.768C140.568 82.768 140.212 82.824 139.86 82.936C139.516 83.048 139.224 83.204 138.984 83.404L138.396 82.312C138.732 82.056 139.136 81.86 139.608 81.724C140.08 81.588 140.58 81.52 141.108 81.52ZM140.904 86.992C141.28 86.992 141.612 86.908 141.9 86.74C142.196 86.564 142.404 86.316 142.524 85.996V85.252H140.976C140.112 85.252 139.68 85.536 139.68 86.104C139.68 86.376 139.788 86.592 140.004 86.752C140.22 86.912 140.52 86.992 140.904 86.992ZM152.283 79.096V88H150.843V87.172C150.595 87.476 150.287 87.704 149.919 87.856C149.559 88.008 149.159 88.084 148.719 88.084C148.103 88.084 147.547 87.948 147.051 87.676C146.563 87.404 146.179 87.02 145.899 86.524C145.619 86.02 145.479 85.444 145.479 84.796C145.479 84.148 145.619 83.576 145.899 83.08C146.179 82.584 146.563 82.2 147.051 81.928C147.547 81.656 148.103 81.52 148.719 81.52C149.143 81.52 149.531 81.592 149.883 81.736C150.235 81.88 150.535 82.096 150.783 82.384V79.096H152.283ZM148.899 86.8C149.259 86.8 149.583 86.72 149.871 86.56C150.159 86.392 150.387 86.156 150.555 85.852C150.723 85.548 150.807 85.196 150.807 84.796C150.807 84.396 150.723 84.044 150.555 83.74C150.387 83.436 150.159 83.204 149.871 83.044C149.583 82.876 149.259 82.792 148.899 82.792C148.539 82.792 148.215 82.876 147.927 83.044C147.639 83.204 147.411 83.436 147.243 83.74C147.075 84.044 146.991 84.396 146.991 84.796C146.991 85.196 147.075 85.548 147.243 85.852C147.411 86.156 147.639 86.392 147.927 86.56C148.215 86.72 148.539 86.8 148.899 86.8ZM162.334 81.52C163.142 81.52 163.782 81.756 164.254 82.228C164.726 82.692 164.962 83.392 164.962 84.328V88H163.462V84.52C163.462 83.96 163.338 83.54 163.09 83.26C162.842 82.972 162.486 82.828 162.022 82.828C161.518 82.828 161.114 82.996 160.81 83.332C160.506 83.66 160.354 84.132 160.354 84.748V88H158.854V84.52C158.854 83.96 158.73 83.54 158.482 83.26C158.234 82.972 157.878 82.828 157.414 82.828C156.902 82.828 156.494 82.992 156.19 83.32C155.894 83.648 155.746 84.124 155.746 84.748V88H154.246V81.592H155.674V82.408C155.914 82.12 156.214 81.9 156.574 81.748C156.934 81.596 157.334 81.52 157.774 81.52C158.254 81.52 158.678 81.612 159.046 81.796C159.422 81.972 159.718 82.236 159.934 82.588C160.198 82.252 160.538 81.992 160.954 81.808C161.37 81.616 161.83 81.52 162.334 81.52ZM166.879 81.592H168.379V88H166.879V81.592ZM167.635 80.536C167.363 80.536 167.135 80.452 166.951 80.284C166.767 80.108 166.675 79.892 166.675 79.636C166.675 79.38 166.767 79.168 166.951 79C167.135 78.824 167.363 78.736 167.635 78.736C167.907 78.736 168.135 78.82 168.319 78.988C168.503 79.148 168.595 79.352 168.595 79.6C168.595 79.864 168.503 80.088 168.319 80.272C168.143 80.448 167.915 80.536 167.635 80.536ZM173.983 81.52C174.791 81.52 175.439 81.756 175.927 82.228C176.415 82.7 176.659 83.4 176.659 84.328V88H175.159V84.52C175.159 83.96 175.027 83.54 174.763 83.26C174.499 82.972 174.123 82.828 173.635 82.828C173.083 82.828 172.647 82.996 172.327 83.332C172.007 83.66 171.847 84.136 171.847 84.76V88H170.347V81.592H171.775V82.42C172.023 82.124 172.335 81.9 172.711 81.748C173.087 81.596 173.511 81.52 173.983 81.52Z" fill="white"/>
<rect x="108.967" y="107.185" width="21.5622" height="12.0947" rx="3" fill="white" fill-opacity="0.05"/>
<rect x="108.967" y="131.375" width="21.5622" height="12.0947" rx="3" fill="white" fill-opacity="0.05"/>
<rect x="108.967" y="155.564" width="21.5622" height="12.0947" rx="3" fill="white" fill-opacity="0.05"/>
<rect x="108.967" y="179.754" width="21.5622" height="12.0947" rx="3" fill="white" fill-opacity="0.05"/>
<rect x="108.967" y="203.943" width="21.5622" height="12.0947" rx="3" fill="white" fill-opacity="0.05"/>
<rect x="145.93" y="107.185" width="48.5149" height="12.0947" rx="3" fill="white" fill-opacity="0.05"/>
<rect x="146.057" y="131.375" width="54.8295" height="12.0947" rx="3" fill="white" fill-opacity="0.05"/>
<rect x="146.057" y="155.564" width="35.4779" height="12.0947" rx="3" fill="white" fill-opacity="0.05"/>
<rect x="146.057" y="179.754" width="54.8295" height="12.0947" rx="3" fill="white" fill-opacity="0.05"/>
<rect x="145.93" y="203.943" width="48.5149" height="12.0947" rx="3" fill="white" fill-opacity="0.05"/>
<rect x="209.846" y="107.185" width="36.1936" height="12.0947" rx="3" fill="white" fill-opacity="0.05"/>
<rect x="216.207" y="131.375" width="29.8337" height="12.0947" rx="3" fill="white" fill-opacity="0.05"/>
<rect x="196.855" y="155.564" width="49.1853" height="12.0947" rx="3" fill="white" fill-opacity="0.05"/>
<rect x="216.207" y="179.754" width="29.8337" height="12.0947" rx="3" fill="white" fill-opacity="0.05"/>
<rect x="209.846" y="203.943" width="36.1936" height="12.0947" rx="3" fill="white" fill-opacity="0.05"/>
<g filter="url(#filter1_b_1468_768)">
<rect x="104.936" y="292.638" width="179.002" height="151.587" rx="3" fill="white" fill-opacity="0.05"/>
</g>
<path d="M130.732 323.12C130.084 323.12 129.456 323.028 128.848 322.844C128.248 322.66 127.772 322.416 127.42 322.112L127.96 320.9C128.304 321.172 128.724 321.396 129.22 321.572C129.724 321.74 130.228 321.824 130.732 321.824C131.356 321.824 131.82 321.724 132.124 321.524C132.436 321.324 132.592 321.06 132.592 320.732C132.592 320.492 132.504 320.296 132.328 320.144C132.16 319.984 131.944 319.86 131.68 319.772C131.416 319.684 131.056 319.584 130.6 319.472C129.96 319.32 129.44 319.168 129.04 319.016C128.648 318.864 128.308 318.628 128.02 318.308C127.74 317.98 127.6 317.54 127.6 316.988C127.6 316.524 127.724 316.104 127.972 315.728C128.228 315.344 128.608 315.04 129.112 314.816C129.624 314.592 130.248 314.48 130.984 314.48C131.496 314.48 132 314.544 132.496 314.672C132.992 314.8 133.42 314.984 133.78 315.224L133.288 316.436C132.92 316.22 132.536 316.056 132.136 315.944C131.736 315.832 131.348 315.776 130.972 315.776C130.356 315.776 129.896 315.88 129.592 316.088C129.296 316.296 129.148 316.572 129.148 316.916C129.148 317.156 129.232 317.352 129.4 317.504C129.576 317.656 129.796 317.776 130.06 317.864C130.324 317.952 130.684 318.052 131.14 318.164C131.764 318.308 132.276 318.46 132.676 318.62C133.076 318.772 133.416 319.008 133.696 319.328C133.984 319.648 134.128 320.08 134.128 320.624C134.128 321.088 134 321.508 133.744 321.884C133.496 322.26 133.116 322.56 132.604 322.784C132.092 323.008 131.468 323.12 130.732 323.12ZM141.735 316.592V323H140.307V322.184C140.067 322.472 139.767 322.696 139.407 322.856C139.047 323.008 138.659 323.084 138.243 323.084C137.387 323.084 136.711 322.848 136.215 322.376C135.727 321.896 135.483 321.188 135.483 320.252V316.592H136.983V320.048C136.983 320.624 137.111 321.056 137.367 321.344C137.631 321.624 138.003 321.764 138.483 321.764C139.019 321.764 139.443 321.6 139.755 321.272C140.075 320.936 140.235 320.456 140.235 319.832V316.592H141.735ZM147.251 316.52C147.875 316.52 148.431 316.656 148.919 316.928C149.415 317.2 149.803 317.584 150.083 318.08C150.363 318.576 150.503 319.148 150.503 319.796C150.503 320.444 150.363 321.02 150.083 321.524C149.803 322.02 149.415 322.404 148.919 322.676C148.431 322.948 147.875 323.084 147.251 323.084C146.811 323.084 146.407 323.008 146.039 322.856C145.679 322.704 145.375 322.476 145.127 322.172V323H143.699V314.096H145.199V317.372C145.455 317.092 145.755 316.88 146.099 316.736C146.451 316.592 146.835 316.52 147.251 316.52ZM147.083 321.8C147.635 321.8 148.087 321.616 148.439 321.248C148.799 320.88 148.979 320.396 148.979 319.796C148.979 319.196 148.799 318.712 148.439 318.344C148.087 317.976 147.635 317.792 147.083 317.792C146.723 317.792 146.399 317.876 146.111 318.044C145.823 318.204 145.595 318.436 145.427 318.74C145.259 319.044 145.175 319.396 145.175 319.796C145.175 320.196 145.259 320.548 145.427 320.852C145.595 321.156 145.823 321.392 146.111 321.56C146.399 321.72 146.723 321.8 147.083 321.8ZM151.719 319.04H155.019V320.288H151.719V319.04ZM159.108 316.52C160.052 316.52 160.772 316.748 161.268 317.204C161.772 317.652 162.024 318.332 162.024 319.244V323H160.608V322.22C160.424 322.5 160.16 322.716 159.816 322.868C159.48 323.012 159.072 323.084 158.592 323.084C158.112 323.084 157.692 323.004 157.332 322.844C156.972 322.676 156.692 322.448 156.492 322.16C156.3 321.864 156.204 321.532 156.204 321.164C156.204 320.588 156.416 320.128 156.84 319.784C157.272 319.432 157.948 319.256 158.868 319.256H160.524V319.16C160.524 318.712 160.388 318.368 160.116 318.128C159.852 317.888 159.456 317.768 158.928 317.768C158.568 317.768 158.212 317.824 157.86 317.936C157.516 318.048 157.224 318.204 156.984 318.404L156.396 317.312C156.732 317.056 157.136 316.86 157.608 316.724C158.08 316.588 158.58 316.52 159.108 316.52ZM158.904 321.992C159.28 321.992 159.612 321.908 159.9 321.74C160.196 321.564 160.404 321.316 160.524 320.996V320.252H158.976C158.112 320.252 157.68 320.536 157.68 321.104C157.68 321.376 157.788 321.592 158.004 321.752C158.22 321.912 158.52 321.992 158.904 321.992ZM170.283 314.096V323H168.843V322.172C168.595 322.476 168.287 322.704 167.919 322.856C167.559 323.008 167.159 323.084 166.719 323.084C166.103 323.084 165.547 322.948 165.051 322.676C164.563 322.404 164.179 322.02 163.899 321.524C163.619 321.02 163.479 320.444 163.479 319.796C163.479 319.148 163.619 318.576 163.899 318.08C164.179 317.584 164.563 317.2 165.051 316.928C165.547 316.656 166.103 316.52 166.719 316.52C167.143 316.52 167.531 316.592 167.883 316.736C168.235 316.88 168.535 317.096 168.783 317.384V314.096H170.283ZM166.899 321.8C167.259 321.8 167.583 321.72 167.871 321.56C168.159 321.392 168.387 321.156 168.555 320.852C168.723 320.548 168.807 320.196 168.807 319.796C168.807 319.396 168.723 319.044 168.555 318.74C168.387 318.436 168.159 318.204 167.871 318.044C167.583 317.876 167.259 317.792 166.899 317.792C166.539 317.792 166.215 317.876 165.927 318.044C165.639 318.204 165.411 318.436 165.243 318.74C165.075 319.044 164.991 319.396 164.991 319.796C164.991 320.196 165.075 320.548 165.243 320.852C165.411 321.156 165.639 321.392 165.927 321.56C166.215 321.72 166.539 321.8 166.899 321.8ZM180.334 316.52C181.142 316.52 181.782 316.756 182.254 317.228C182.726 317.692 182.962 318.392 182.962 319.328V323H181.462V319.52C181.462 318.96 181.338 318.54 181.09 318.26C180.842 317.972 180.486 317.828 180.022 317.828C179.518 317.828 179.114 317.996 178.81 318.332C178.506 318.66 178.354 319.132 178.354 319.748V323H176.854V319.52C176.854 318.96 176.73 318.54 176.482 318.26C176.234 317.972 175.878 317.828 175.414 317.828C174.902 317.828 174.494 317.992 174.19 318.32C173.894 318.648 173.746 319.124 173.746 319.748V323H172.246V316.592H173.674V317.408C173.914 317.12 174.214 316.9 174.574 316.748C174.934 316.596 175.334 316.52 175.774 316.52C176.254 316.52 176.678 316.612 177.046 316.796C177.422 316.972 177.718 317.236 177.934 317.588C178.198 317.252 178.538 316.992 178.954 316.808C179.37 316.616 179.83 316.52 180.334 316.52ZM184.879 316.592H186.379V323H184.879V316.592ZM185.635 315.536C185.363 315.536 185.135 315.452 184.951 315.284C184.767 315.108 184.675 314.892 184.675 314.636C184.675 314.38 184.767 314.168 184.951 314C185.135 313.824 185.363 313.736 185.635 313.736C185.907 313.736 186.135 313.82 186.319 313.988C186.503 314.148 186.595 314.352 186.595 314.6C186.595 314.864 186.503 315.088 186.319 315.272C186.143 315.448 185.915 315.536 185.635 315.536ZM191.983 316.52C192.791 316.52 193.439 316.756 193.927 317.228C194.415 317.7 194.659 318.4 194.659 319.328V323H193.159V319.52C193.159 318.96 193.027 318.54 192.763 318.26C192.499 317.972 192.123 317.828 191.635 317.828C191.083 317.828 190.647 317.996 190.327 318.332C190.007 318.66 189.847 319.136 189.847 319.76V323H188.347V316.592H189.775V317.42C190.023 317.124 190.335 316.9 190.711 316.748C191.087 316.596 191.511 316.52 191.983 316.52Z" fill="white"/>
<rect x="125.9" y="341.823" width="21.5622" height="12.0947" rx="3" fill="white" fill-opacity="0.05"/>
<rect x="125.9" y="366.013" width="21.5622" height="12.0947" rx="3" fill="white" fill-opacity="0.05"/>
<rect x="125.9" y="390.202" width="21.5622" height="12.0947" rx="3" fill="white" fill-opacity="0.05"/>
<rect x="125.9" y="414.392" width="21.5622" height="12.0947" rx="3" fill="white" fill-opacity="0.05"/>
<rect x="162.863" y="341.823" width="48.5149" height="12.0947" rx="3" fill="white" fill-opacity="0.05"/>
<rect x="162.99" y="366.013" width="54.8295" height="12.0947" rx="3" fill="white" fill-opacity="0.05"/>
<rect x="162.99" y="390.202" width="35.4779" height="12.0947" rx="3" fill="white" fill-opacity="0.05"/>
<rect x="162.99" y="414.392" width="54.8295" height="12.0947" rx="3" fill="white" fill-opacity="0.05"/>
<rect x="226.779" y="341.823" width="36.1936" height="12.0947" rx="3" fill="white" fill-opacity="0.05"/>
<rect x="233.141" y="366.013" width="29.8337" height="12.0947" rx="3" fill="white" fill-opacity="0.05"/>
<rect x="213.789" y="390.202" width="49.1853" height="12.0947" rx="3" fill="white" fill-opacity="0.05"/>
<rect x="233.141" y="414.392" width="29.8337" height="12.0947" rx="3" fill="white" fill-opacity="0.05"/>
<g filter="url(#filter2_b_1468_768)">
<rect x="316.996" y="169" width="179.002" height="226.575" rx="3" fill="#181818"/>
<rect x="317.496" y="169.5" width="178.002" height="225.575" rx="2.5" stroke="white" stroke-opacity="0.1"/>
</g>
<path d="M344.576 198.056H340.376L339.548 200H337.94L341.72 191.6H343.256L347.048 200H345.416L344.576 198.056ZM344.06 196.832L342.476 193.16L340.904 196.832H344.06ZM354.19 191.096V200H352.75V199.172C352.502 199.476 352.194 199.704 351.826 199.856C351.466 200.008 351.066 200.084 350.626 200.084C350.01 200.084 349.454 199.948 348.958 199.676C348.47 199.404 348.086 199.02 347.806 198.524C347.526 198.02 347.386 197.444 347.386 196.796C347.386 196.148 347.526 195.576 347.806 195.08C348.086 194.584 348.47 194.2 348.958 193.928C349.454 193.656 350.01 193.52 350.626 193.52C351.05 193.52 351.438 193.592 351.79 193.736C352.142 193.88 352.442 194.096 352.69 194.384V191.096H354.19ZM350.806 198.8C351.166 198.8 351.49 198.72 351.778 198.56C352.066 198.392 352.294 198.156 352.462 197.852C352.63 197.548 352.714 197.196 352.714 196.796C352.714 196.396 352.63 196.044 352.462 195.74C352.294 195.436 352.066 195.204 351.778 195.044C351.49 194.876 351.166 194.792 350.806 194.792C350.446 194.792 350.122 194.876 349.834 195.044C349.546 195.204 349.318 195.436 349.15 195.74C348.982 196.044 348.898 196.396 348.898 196.796C348.898 197.196 348.982 197.548 349.15 197.852C349.318 198.156 349.546 198.392 349.834 198.56C350.122 198.72 350.446 198.8 350.806 198.8ZM364.24 193.52C365.048 193.52 365.688 193.756 366.16 194.228C366.632 194.692 366.868 195.392 366.868 196.328V200H365.368V196.52C365.368 195.96 365.244 195.54 364.996 195.26C364.748 194.972 364.392 194.828 363.928 194.828C363.424 194.828 363.02 194.996 362.716 195.332C362.412 195.66 362.26 196.132 362.26 196.748V200H360.76V196.52C360.76 195.96 360.636 195.54 360.388 195.26C360.14 194.972 359.784 194.828 359.32 194.828C358.808 194.828 358.4 194.992 358.096 195.32C357.8 195.648 357.652 196.124 357.652 196.748V200H356.152V193.592H357.58V194.408C357.82 194.12 358.12 193.9 358.48 193.748C358.84 193.596 359.24 193.52 359.68 193.52C360.16 193.52 360.584 193.612 360.952 193.796C361.328 193.972 361.624 194.236 361.84 194.588C362.104 194.252 362.444 193.992 362.86 193.808C363.276 193.616 363.736 193.52 364.24 193.52ZM368.785 193.592H370.285V200H368.785V193.592ZM369.541 192.536C369.269 192.536 369.041 192.452 368.857 192.284C368.673 192.108 368.581 191.892 368.581 191.636C368.581 191.38 368.673 191.168 368.857 191C369.041 190.824 369.269 190.736 369.541 190.736C369.813 190.736 370.041 190.82 370.225 190.988C370.409 191.148 370.501 191.352 370.501 191.6C370.501 191.864 370.409 192.088 370.225 192.272C370.049 192.448 369.821 192.536 369.541 192.536ZM375.89 193.52C376.698 193.52 377.346 193.756 377.834 194.228C378.322 194.7 378.566 195.4 378.566 196.328V200H377.066V196.52C377.066 195.96 376.934 195.54 376.67 195.26C376.406 194.972 376.03 194.828 375.542 194.828C374.99 194.828 374.554 194.996 374.234 195.332C373.914 195.66 373.754 196.136 373.754 196.76V200H372.254V193.592H373.682V194.42C373.93 194.124 374.242 193.9 374.618 193.748C374.994 193.596 375.418 193.52 375.89 193.52Z" fill="white"/>
<rect x="337.961" y="266.564" width="21.5622" height="12.0947" rx="3" fill="white" fill-opacity="0.05"/>
<rect x="374.924" y="266.564" width="48.5149" height="12.0947" rx="3" fill="white" fill-opacity="0.05"/>
<rect x="438.842" y="266.564" width="36.1936" height="12.0947" rx="3" fill="white" fill-opacity="0.05"/>
<rect x="337.961" y="290.754" width="21.5622" height="12.0947" rx="3" fill="white" fill-opacity="0.05"/>
<rect x="375.051" y="290.754" width="54.8295" height="12.0947" rx="3" fill="white" fill-opacity="0.05"/>
<rect x="445.201" y="290.754" width="29.8337" height="12.0947" rx="3" fill="white" fill-opacity="0.05"/>
<rect x="337.961" y="339.133" width="21.5622" height="12.0947" rx="3" fill="white" fill-opacity="0.05"/>
<rect x="375.051" y="339.133" width="54.8295" height="12.0947" rx="3" fill="white" fill-opacity="0.05"/>
<rect x="445.201" y="339.133" width="29.8337" height="12.0947" rx="3" fill="white" fill-opacity="0.05"/>
<rect x="337.961" y="314.943" width="21.5622" height="12.0947" rx="3" fill="white" fill-opacity="0.05"/>
<rect x="375.051" y="314.943" width="35.4779" height="12.0947" rx="3" fill="white" fill-opacity="0.05"/>
<rect x="425.85" y="314.943" width="49.1853" height="12.0947" rx="3" fill="white" fill-opacity="0.05"/>
<rect x="337.961" y="242.375" width="21.5622" height="12.0947" rx="3" fill="white" fill-opacity="0.05"/>
<rect x="375.051" y="242.375" width="54.8295" height="12.0947" rx="3" fill="white" fill-opacity="0.05"/>
<rect x="445.201" y="242.375" width="29.8337" height="12.0947" rx="3" fill="white" fill-opacity="0.05"/>
<rect x="337.961" y="218.185" width="21.5622" height="12.0947" rx="3" fill="white" fill-opacity="0.05"/>
<rect x="374.924" y="218.185" width="48.5149" height="12.0947" rx="3" fill="white" fill-opacity="0.05"/>
<rect x="438.842" y="218.185" width="36.1936" height="12.0947" rx="3" fill="white" fill-opacity="0.05"/>
<rect x="337.961" y="363.322" width="21.5622" height="12.0947" rx="3" fill="white" fill-opacity="0.05"/>
<rect x="374.924" y="363.322" width="48.5149" height="12.0947" rx="3" fill="white" fill-opacity="0.05"/>
<rect x="438.842" y="363.322" width="36.1936" height="12.0947" rx="3" fill="white" fill-opacity="0.05"/>
<path d="M267.004 143.001C264.504 143.001 262.504 145.001 262.504 147.501C262.504 150.001 264.504 152.001 267.004 152.001C269.504 152.001 271.504 150.001 271.504 147.501C271.504 145.001 269.504 143.001 267.004 143.001Z" fill="#6016FC"/>
<path d="M264.004 147.501C264.004 145.829 265.332 144.501 267.004 144.501V141.501C263.675 141.501 261.004 144.173 261.004 147.501H264.004ZM267.004 144.501C268.675 144.501 270.004 145.829 270.004 147.501H273.004C273.004 144.173 270.332 141.501 267.004 141.501V144.501ZM270.004 147.501C270.004 149.173 268.675 150.501 267.004 150.501V153.501C270.332 153.501 273.004 150.829 273.004 147.501H270.004ZM267.004 150.501C265.332 150.501 264.004 149.173 264.004 147.501H261.004C261.004 150.829 263.675 153.501 267.004 153.501V150.501ZM271.504 149.001H386.497V146.001H271.504V149.001ZM404.997 167.501V169H407.997V167.501H404.997ZM386.497 149.001C396.714 149.001 404.997 157.284 404.997 167.501H407.997C407.997 155.627 398.371 146.001 386.497 146.001V149.001Z" fill="#222234"/>
<path d="M283.938 363.932C281.438 363.932 279.438 365.932 279.438 368.432C279.438 370.932 281.438 372.932 283.938 372.932C286.438 372.932 288.438 370.932 288.438 368.432C288.438 365.932 286.438 363.932 283.938 363.932Z" fill="#6016FC"/>
<path d="M280.938 368.432C280.938 366.76 282.266 365.432 283.938 365.432V362.432C280.609 362.432 277.938 365.103 277.938 368.432H280.938ZM283.938 365.432C285.609 365.432 286.938 366.76 286.938 368.432H289.938C289.938 365.103 287.266 362.432 283.938 362.432V365.432ZM286.938 368.432C286.938 370.103 285.609 371.432 283.938 371.432V374.432C287.266 374.432 289.938 371.76 289.938 368.432H286.938ZM283.938 371.432C282.266 371.432 280.938 370.103 280.938 368.432H277.938C277.938 371.76 280.609 374.432 283.938 374.432V371.432ZM301.967 356.402V298.817H298.967V356.402H301.967ZM301.967 298.817C301.967 290.516 308.696 283.787 316.996 283.787V280.787C307.039 280.787 298.967 288.859 298.967 298.817H301.967ZM288.438 369.932C295.91 369.932 301.967 363.874 301.967 356.402H298.967C298.967 362.217 294.253 366.932 288.438 366.932V369.932Z" fill="#222234"/>
<defs>
<filter id="filter0_b_1468_768" x="14.002" y="-16" width="327.002" height="327.002" filterUnits="userSpaceOnUse" color-interpolation-filters="sRGB">
<feFlood flood-opacity="0" result="BackgroundImageFix"/>
<feGaussianBlur in="BackgroundImage" stdDeviation="37"/>
<feComposite in2="SourceAlpha" operator="in" result="effect1_backgroundBlur_1468_768"/>
<feBlend mode="normal" in="SourceGraphic" in2="effect1_backgroundBlur_1468_768" result="shape"/>
</filter>
<filter id="filter1_b_1468_768" x="30.9355" y="218.638" width="327.002" height="299.587" filterUnits="userSpaceOnUse" color-interpolation-filters="sRGB">
<feFlood flood-opacity="0" result="BackgroundImageFix"/>
<feGaussianBlur in="BackgroundImage" stdDeviation="37"/>
<feComposite in2="SourceAlpha" operator="in" result="effect1_backgroundBlur_1468_768"/>
<feBlend mode="normal" in="SourceGraphic" in2="effect1_backgroundBlur_1468_768" result="shape"/>
</filter>
<filter id="filter2_b_1468_768" x="242.996" y="95" width="327.002" height="374.575" filterUnits="userSpaceOnUse" color-interpolation-filters="sRGB">
<feFlood flood-opacity="0" result="BackgroundImageFix"/>
<feGaussianBlur in="BackgroundImage" stdDeviation="37"/>
<feComposite in2="SourceAlpha" operator="in" result="effect1_backgroundBlur_1468_768"/>
<feBlend mode="normal" in="SourceGraphic" in2="effect1_backgroundBlur_1468_768" result="shape"/>
</filter>
<linearGradient id="paint0_linear_1468_768" x1="126" y1="0" x2="126" y2="525" gradientUnits="userSpaceOnUse">
<stop stop-color="white" stop-opacity="0"/>
<stop offset="0.479167" stop-color="white" stop-opacity="0.02"/>
<stop offset="0.994792" stop-color="white" stop-opacity="0"/>
</linearGradient>
<linearGradient id="paint1_linear_1468_768" x1="75" y1="0" x2="75" y2="525" gradientUnits="userSpaceOnUse">
<stop stop-color="white" stop-opacity="0"/>
<stop offset="0.479167" stop-color="white" stop-opacity="0.02"/>
<stop offset="0.994792" stop-color="white" stop-opacity="0"/>
</linearGradient>
<linearGradient id="paint2_linear_1468_768" x1="176" y1="0" x2="176" y2="525" gradientUnits="userSpaceOnUse">
<stop stop-color="white" stop-opacity="0"/>
<stop offset="0.479167" stop-color="white" stop-opacity="0.02"/>
<stop offset="0.994792" stop-color="white" stop-opacity="0"/>
</linearGradient>
<linearGradient id="paint3_linear_1468_768" x1="226" y1="0" x2="226" y2="525" gradientUnits="userSpaceOnUse">
<stop stop-color="white" stop-opacity="0"/>
<stop offset="0.479167" stop-color="white" stop-opacity="0.02"/>
<stop offset="0.994792" stop-color="white" stop-opacity="0"/>
</linearGradient>
<linearGradient id="paint4_linear_1468_768" x1="276" y1="0" x2="276" y2="525" gradientUnits="userSpaceOnUse">
<stop stop-color="white" stop-opacity="0"/>
<stop offset="0.479167" stop-color="white" stop-opacity="0.02"/>
<stop offset="0.994792" stop-color="white" stop-opacity="0"/>
</linearGradient>
<linearGradient id="paint5_linear_1468_768" x1="326" y1="0" x2="326" y2="525" gradientUnits="userSpaceOnUse">
<stop stop-color="white" stop-opacity="0"/>
<stop offset="0.479167" stop-color="white" stop-opacity="0.02"/>
<stop offset="0.994792" stop-color="white" stop-opacity="0"/>
</linearGradient>
<linearGradient id="paint6_linear_1468_768" x1="376" y1="0" x2="376" y2="525" gradientUnits="userSpaceOnUse">
<stop stop-color="white" stop-opacity="0"/>
<stop offset="0.479167" stop-color="white" stop-opacity="0.02"/>
<stop offset="0.994792" stop-color="white" stop-opacity="0"/>
</linearGradient>
<linearGradient id="paint7_linear_1468_768" x1="426" y1="0" x2="426" y2="525" gradientUnits="userSpaceOnUse">
<stop stop-color="white" stop-opacity="0"/>
<stop offset="0.479167" stop-color="white" stop-opacity="0.02"/>
<stop offset="0.994792" stop-color="white" stop-opacity="0"/>
</linearGradient>
<linearGradient id="paint8_linear_1468_768" x1="476" y1="0" x2="476" y2="525" gradientUnits="userSpaceOnUse">
<stop stop-color="white" stop-opacity="0"/>
<stop offset="0.479167" stop-color="white" stop-opacity="0.02"/>
<stop offset="0.994792" stop-color="white" stop-opacity="0"/>
</linearGradient>
<linearGradient id="paint9_linear_1468_768" x1="526" y1="0" x2="526" y2="525" gradientUnits="userSpaceOnUse">
<stop stop-color="white" stop-opacity="0"/>
<stop offset="0.479167" stop-color="white" stop-opacity="0.02"/>
<stop offset="0.994792" stop-color="white" stop-opacity="0"/>
</linearGradient>
<linearGradient id="paint10_linear_1468_768" x1="602" y1="87" x2="602" y2="688" gradientUnits="userSpaceOnUse">
<stop stop-color="white" stop-opacity="0"/>
<stop offset="0.479167" stop-color="white" stop-opacity="0.02"/>
<stop offset="0.994792" stop-color="white" stop-opacity="0"/>
</linearGradient>
<linearGradient id="paint11_linear_1468_768" x1="602" y1="36" x2="602" y2="637" gradientUnits="userSpaceOnUse">
<stop stop-color="white" stop-opacity="0"/>
<stop offset="0.479167" stop-color="white" stop-opacity="0.02"/>
<stop offset="0.994792" stop-color="white" stop-opacity="0"/>
</linearGradient>
<linearGradient id="paint12_linear_1468_768" x1="602" y1="137" x2="602" y2="738" gradientUnits="userSpaceOnUse">
<stop stop-color="white" stop-opacity="0"/>
<stop offset="0.479167" stop-color="white" stop-opacity="0.02"/>
<stop offset="0.994792" stop-color="white" stop-opacity="0"/>
</linearGradient>
<linearGradient id="paint13_linear_1468_768" x1="602" y1="187" x2="602" y2="788" gradientUnits="userSpaceOnUse">
<stop stop-color="white" stop-opacity="0"/>
<stop offset="0.479167" stop-color="white" stop-opacity="0.02"/>
<stop offset="0.994792" stop-color="white" stop-opacity="0"/>
</linearGradient>
<linearGradient id="paint14_linear_1468_768" x1="602" y1="237" x2="602" y2="838" gradientUnits="userSpaceOnUse">
<stop stop-color="white" stop-opacity="0"/>
<stop offset="0.479167" stop-color="white" stop-opacity="0.02"/>
<stop offset="0.994792" stop-color="white" stop-opacity="0"/>
</linearGradient>
<linearGradient id="paint15_linear_1468_768" x1="602" y1="287" x2="602" y2="888" gradientUnits="userSpaceOnUse">
<stop stop-color="white" stop-opacity="0"/>
<stop offset="0.479167" stop-color="white" stop-opacity="0.02"/>
<stop offset="0.994792" stop-color="white" stop-opacity="0"/>
</linearGradient>
<linearGradient id="paint16_linear_1468_768" x1="602" y1="337" x2="602" y2="938" gradientUnits="userSpaceOnUse">
<stop stop-color="white" stop-opacity="0"/>
<stop offset="0.479167" stop-color="white" stop-opacity="0.02"/>
<stop offset="0.994792" stop-color="white" stop-opacity="0"/>
</linearGradient>
<linearGradient id="paint17_linear_1468_768" x1="602" y1="387" x2="602" y2="988" gradientUnits="userSpaceOnUse">
<stop stop-color="white" stop-opacity="0"/>
<stop offset="0.479167" stop-color="white" stop-opacity="0.02"/>
<stop offset="0.994792" stop-color="white" stop-opacity="0"/>
</linearGradient>
<linearGradient id="paint18_linear_1468_768" x1="602" y1="437" x2="602" y2="1038" gradientUnits="userSpaceOnUse">
<stop stop-color="white" stop-opacity="0"/>
<stop offset="0.479167" stop-color="white" stop-opacity="0.02"/>
<stop offset="0.994792" stop-color="white" stop-opacity="0"/>
</linearGradient>
<linearGradient id="paint19_linear_1468_768" x1="602" y1="487" x2="602" y2="1088" gradientUnits="userSpaceOnUse">
<stop stop-color="white" stop-opacity="0"/>
<stop offset="0.479167" stop-color="white" stop-opacity="0.02"/>
<stop offset="0.994792" stop-color="white" stop-opacity="0"/>
</linearGradient>
</defs>
</svg>
