<svg width="48" height="48" viewBox="0 0 48 48" fill="none" xmlns="http://www.w3.org/2000/svg">
<path d="M34 22C34.68 22 35.34 22.08 36 22.18V15.16C36 13.56 35.06 12.12 33.6 11.5L22.6 6.7C21.58 6.26 20.42 6.26 19.4 6.7L8.4 11.5C6.94 12.14 6 13.58 6 15.16V22.36C6 31.44 12.4 39.94 21 42C22.1 41.74 23.16 41.36 24.2 40.9C22.82 38.94 22 36.56 22 34C22 27.38 27.38 22 34 22Z" fill="white"/>
<path d="M34 26C29.58 26 26 29.58 26 34C26 38.42 29.58 42 34 42C38.42 42 42 38.42 42 34C42 29.58 38.42 26 34 26ZM34 28.76C35.24 28.76 36.24 29.78 36.24 31C36.24 32.22 35.22 33.24 34 33.24C32.78 33.24 31.76 32.22 31.76 31C31.76 29.78 32.76 28.76 34 28.76ZM34 39.5C32.14 39.5 30.52 38.58 29.52 37.16C29.62 35.72 32.54 35 34 35C35.46 35 38.38 35.72 38.48 37.16C37.48 38.58 35.86 39.5 34 39.5Z" fill="white"/>
</svg>
