<svg width="559" height="543" viewBox="0 0 559 543" fill="none" xmlns="http://www.w3.org/2000/svg">
<rect x="78.0001" y="361" width="294" height="182" rx="10" fill="white" fill-opacity="0.1"/>
<circle cx="110" cy="391" r="6" fill="#FC165B"/>
<circle cx="129" cy="391" r="6" fill="#FCA016"/>
<circle cx="148" cy="391" r="6" fill="#16FCA9"/>
<path d="M113.568 416.96L114.192 428H112.496L112.232 422.624C112.216 422.219 112.203 421.827 112.192 421.448C112.187 421.069 112.184 420.707 112.184 420.36C112.184 420.013 112.187 419.693 112.192 419.4C112.203 419.101 112.213 418.832 112.224 418.592L110.6 426.056H108.984L107.24 418.592C107.256 418.821 107.269 419.091 107.28 419.4C107.291 419.704 107.299 420.032 107.304 420.384C107.309 420.736 107.309 421.104 107.304 421.488C107.304 421.872 107.299 422.256 107.288 422.64L107.072 428H105.408L106.032 416.96H108.256L109.832 424.36L111.336 416.96H113.568ZM123.41 419.552L120.498 428.032C120.279 428.672 119.999 429.235 119.658 429.72C119.316 430.211 118.879 430.605 118.346 430.904C117.812 431.203 117.151 431.387 116.362 431.456L116.13 430.112C116.7 430.021 117.154 429.888 117.49 429.712C117.831 429.541 118.1 429.315 118.298 429.032C118.5 428.749 118.679 428.405 118.834 428H118.226L115.378 419.552H117.282L119.41 426.752L121.57 419.552H123.41ZM135.205 428V419.552H136.749L136.885 420.648C137.237 420.216 137.653 419.888 138.133 419.664C138.613 419.44 139.107 419.328 139.613 419.328C140.403 419.328 140.992 419.549 141.381 419.992C141.776 420.429 141.973 421.045 141.973 421.84V428H140.181V422.728C140.181 422.237 140.152 421.843 140.093 421.544C140.035 421.245 139.917 421.029 139.741 420.896C139.571 420.763 139.315 420.696 138.973 420.696C138.701 420.696 138.443 420.755 138.197 420.872C137.952 420.989 137.728 421.144 137.525 421.336C137.323 421.523 137.147 421.723 136.997 421.936V428H135.205ZM146.287 424.352C146.324 424.928 146.447 425.4 146.655 425.768C146.863 426.131 147.135 426.397 147.471 426.568C147.812 426.739 148.186 426.824 148.591 426.824C149.007 426.824 149.391 426.76 149.743 426.632C150.095 426.504 150.45 426.323 150.807 426.088L151.583 427.16C151.188 427.48 150.727 427.736 150.199 427.928C149.671 428.12 149.106 428.216 148.503 428.216C147.628 428.216 146.887 428.029 146.279 427.656C145.676 427.283 145.218 426.763 144.903 426.096C144.588 425.429 144.431 424.659 144.431 423.784C144.431 422.936 144.586 422.179 144.895 421.512C145.204 420.84 145.647 420.309 146.223 419.92C146.799 419.525 147.487 419.328 148.287 419.328C149.039 419.328 149.684 419.499 150.223 419.84C150.767 420.181 151.186 420.667 151.479 421.296C151.778 421.92 151.927 422.672 151.927 423.552C151.927 423.696 151.922 423.84 151.911 423.984C151.906 424.123 151.898 424.245 151.887 424.352H146.287ZM148.303 420.656C147.743 420.656 147.279 420.856 146.911 421.256C146.548 421.656 146.338 422.28 146.279 423.128H150.191C150.175 422.333 150.004 421.723 149.679 421.296C149.359 420.869 148.9 420.656 148.303 420.656ZM161.449 427.552C161.139 427.749 160.769 427.909 160.337 428.032C159.905 428.155 159.454 428.216 158.985 428.216C158.003 428.216 157.257 427.963 156.745 427.456C156.238 426.944 155.985 426.272 155.985 425.44V420.856H154.105V419.552H155.985V417.664L157.777 417.448V419.552H160.625L160.425 420.856H157.777V425.424C157.777 425.877 157.889 426.216 158.113 426.44C158.342 426.659 158.715 426.768 159.233 426.768C159.542 426.768 159.827 426.731 160.089 426.656C160.35 426.581 160.587 426.485 160.801 426.368L161.449 427.552ZM170.595 428H168.355L167.403 422L166.379 428H164.187L162.755 419.552H164.483L165.363 426.888L166.539 420.624H168.331L169.427 426.888L170.307 419.552H171.971L170.595 428ZM176.964 419.328C177.791 419.328 178.487 419.512 179.052 419.88C179.618 420.248 180.044 420.763 180.332 421.424C180.626 422.085 180.772 422.864 180.772 423.76C180.772 424.651 180.623 425.432 180.324 426.104C180.031 426.771 179.599 427.291 179.028 427.664C178.463 428.032 177.772 428.216 176.956 428.216C176.14 428.216 175.447 428.037 174.876 427.68C174.311 427.317 173.879 426.803 173.58 426.136C173.287 425.469 173.14 424.683 173.14 423.776C173.14 422.896 173.287 422.123 173.58 421.456C173.879 420.789 174.314 420.269 174.884 419.896C175.455 419.517 176.148 419.328 176.964 419.328ZM176.964 420.72C176.319 420.72 175.834 420.968 175.508 421.464C175.183 421.955 175.02 422.725 175.02 423.776C175.02 424.821 175.18 425.592 175.5 426.088C175.826 426.584 176.311 426.832 176.956 426.832C177.602 426.832 178.084 426.584 178.404 426.088C178.73 425.592 178.892 424.816 178.892 423.76C178.892 422.72 178.732 421.955 178.412 421.464C178.092 420.968 177.61 420.72 176.964 420.72ZM183.254 428V426.72H184.494V420.824H183.254V419.552H185.862L186.19 421.512C186.505 420.803 186.894 420.264 187.358 419.896C187.827 419.523 188.43 419.336 189.166 419.336C189.417 419.336 189.641 419.357 189.838 419.4C190.041 419.437 190.241 419.488 190.438 419.552L189.902 421.088C189.731 421.04 189.571 421.005 189.422 420.984C189.273 420.957 189.107 420.944 188.926 420.944C188.313 420.944 187.782 421.173 187.334 421.632C186.891 422.091 186.542 422.741 186.286 423.584V426.72H187.99V428H183.254ZM188.854 422.664V420.584L189.078 419.552H190.438L190.134 422.664H188.854ZM200.208 419.552L196.792 423.328L200.568 428H198.376L194.744 423.376L198.12 419.552H200.208ZM194.616 415.96V428H192.824V416.16L194.616 415.96Z" fill="white"/>
<path d="M112.385 476H109.615C107.066 476 105 478.066 105 480.615V483.385C105 485.934 107.066 488 109.615 488H112.385C114.934 488 117 485.934 117 483.385V480.615C117 478.066 114.934 476 112.385 476Z" fill="white" fill-opacity="0.05"/>
<path d="M176.328 476H128.672C126.092 476 124 478.066 124 480.615V483.385C124 485.934 126.092 488 128.672 488H176.328C178.908 488 181 485.934 181 483.385V480.615C181 478.066 178.908 476 176.328 476Z" fill="white" fill-opacity="0.05"/>
<path d="M229.306 476H192.694C190.102 476 188 478.066 188 480.615V483.385C188 485.934 190.102 488 192.694 488H229.306C231.899 488 234 485.934 234 483.385V480.615C234 478.066 231.899 476 229.306 476Z" fill="white" fill-opacity="0.05"/>
<path d="M163.368 500H109.632C107.074 500 105 502.066 105 504.615V507.385C105 509.934 107.074 512 109.632 512H163.368C165.926 512 168 509.934 168 507.385V504.615C168 502.066 165.926 500 163.368 500Z" fill="white" fill-opacity="0.05"/>
<path d="M222.357 500H179.643C177.079 500 175 502.066 175 504.615V507.385C175 509.934 177.079 512 179.643 512H222.357C224.921 512 227 509.934 227 507.385V504.615C227 502.066 224.921 500 222.357 500Z" fill="white" fill-opacity="0.05"/>
<path d="M300.395 500H239.605C237.062 500 235 502.066 235 504.615V507.385C235 509.934 237.062 512 239.605 512H300.395C302.938 512 305 509.934 305 507.385V504.615C305 502.066 302.938 500 300.395 500Z" fill="white" fill-opacity="0.05"/>
<path d="M144.417 452H109.583C107.052 452 105 454.066 105 456.615V459.385C105 461.934 107.052 464 109.583 464H144.417C146.948 464 149 461.934 149 459.385V456.615C149 454.066 146.948 452 144.417 452Z" fill="white" fill-opacity="0.05"/>
<path d="M218.417 452H161.583C159.052 452 157 454.066 157 456.615V459.385C157 461.934 159.052 464 161.583 464H218.417C220.948 464 223 461.934 223 459.385V456.615C223 454.066 220.948 452 218.417 452Z" fill="white" fill-opacity="0.05"/>
<path d="M292.352 452H235.648C233.081 452 231 454.066 231 456.615V459.385C231 461.934 233.081 464 235.648 464H292.352C294.919 464 297 461.934 297 459.385V456.615C297 454.066 294.919 452 292.352 452Z" fill="white" fill-opacity="0.05"/>
<rect x="116.264" y="12" width="1.86023" height="488.311" fill="url(#paint0_linear_1468_866)"/>
<rect x="68.8281" y="12" width="1.86023" height="488.311" fill="url(#paint1_linear_1468_866)"/>
<rect x="162.77" y="12" width="1.86023" height="488.311" fill="url(#paint2_linear_1468_866)"/>
<rect x="209.275" y="12" width="1.86023" height="488.311" fill="url(#paint3_linear_1468_866)"/>
<rect x="255.781" y="12" width="1.86023" height="488.311" fill="url(#paint4_linear_1468_866)"/>
<rect x="302.287" y="12" width="1.86023" height="488.311" fill="url(#paint5_linear_1468_866)"/>
<rect x="348.793" y="12" width="1.86023" height="488.311" fill="url(#paint6_linear_1468_866)"/>
<rect x="395.299" y="12" width="1.86023" height="488.311" fill="url(#paint7_linear_1468_866)"/>
<rect x="441.805" y="12" width="1.86023" height="488.311" fill="url(#paint8_linear_1468_866)"/>
<rect x="488.311" y="12" width="1.86023" height="488.311" fill="url(#paint9_linear_1468_866)"/>
<rect x="559" y="92.92" width="1.86023" height="559" transform="rotate(90 559 92.92)" fill="url(#paint10_linear_1468_866)"/>
<rect x="559" y="45.4841" width="1.86023" height="559" transform="rotate(90 559 45.4841)" fill="url(#paint11_linear_1468_866)"/>
<rect x="559" y="139.426" width="1.86023" height="559" transform="rotate(90 559 139.426)" fill="url(#paint12_linear_1468_866)"/>
<rect x="559" y="185.932" width="1.86023" height="559" transform="rotate(90 559 185.932)" fill="url(#paint13_linear_1468_866)"/>
<rect x="559" y="232.438" width="1.86023" height="559" transform="rotate(90 559 232.438)" fill="url(#paint14_linear_1468_866)"/>
<rect x="559" y="278.943" width="1.86023" height="559" transform="rotate(90 559 278.943)" fill="url(#paint15_linear_1468_866)"/>
<rect x="559" y="325.449" width="1.86023" height="559" transform="rotate(90 559 325.449)" fill="url(#paint16_linear_1468_866)"/>
<rect x="559" y="371.955" width="1.86023" height="559" transform="rotate(90 559 371.955)" fill="url(#paint17_linear_1468_866)"/>
<rect x="559" y="418.461" width="1.86023" height="559" transform="rotate(90 559 418.461)" fill="url(#paint18_linear_1468_866)"/>
<rect x="559" y="464.967" width="1.86023" height="559" transform="rotate(90 559 464.967)" fill="url(#paint19_linear_1468_866)"/>
<circle cx="273" cy="228" r="65" fill="white" fill-opacity="0.05"/>
<circle cx="273" cy="228" r="53" fill="white" fill-opacity="0.1"/>
<circle cx="273" cy="228" r="37" fill="white" fill-opacity="0.15"/>
<path d="M273.001 244.667C282.205 244.667 289.667 237.205 289.667 228C289.667 218.795 282.205 211.333 273.001 211.333C263.796 211.333 256.334 218.795 256.334 228C256.334 237.205 263.796 244.667 273.001 244.667Z" stroke="white" stroke-width="2" stroke-linecap="round" stroke-linejoin="round"/>
<path d="M256.334 228H289.667" stroke="white" stroke-width="2" stroke-linecap="round" stroke-linejoin="round"/>
<path d="M273.001 211.333C277.17 215.897 279.539 221.82 279.667 228C279.539 234.18 277.17 240.103 273.001 244.667C268.832 240.103 266.463 234.18 266.334 228C266.463 221.82 268.832 215.897 273.001 211.333V211.333Z" stroke="white" stroke-width="2" stroke-linecap="round" stroke-linejoin="round"/>
<path d="M310 10C310 4.47715 314.477 0 320 0H498C503.523 0 508 4.47715 508 10V50C508 55.5228 503.523 60 498 60H320C314.477 60 310 55.5228 310 50V10Z" fill="white" fill-opacity="0.05"/>
<path d="M310.5 10C310.5 4.7533 314.753 0.5 320 0.5H498C503.247 0.5 507.5 4.7533 507.5 10V50C507.5 55.2467 503.247 59.5 498 59.5H320C314.753 59.5 310.5 55.2467 310.5 50V10Z" stroke="white" stroke-opacity="0.1"/>
<path d="M363.868 33.152V35H356.462V33.53L360.242 29.96C360.643 29.5773 360.914 29.2507 361.054 28.98C361.194 28.7 361.264 28.4247 361.264 28.154C361.264 27.762 361.129 27.4633 360.858 27.258C360.597 27.0433 360.209 26.936 359.696 26.936C359.267 26.936 358.879 27.02 358.534 27.188C358.189 27.3467 357.899 27.5893 357.666 27.916L356.014 26.852C356.397 26.2827 356.924 25.8393 357.596 25.522C358.268 25.1953 359.038 25.032 359.906 25.032C360.634 25.032 361.269 25.1533 361.81 25.396C362.361 25.6293 362.785 25.9653 363.084 26.404C363.392 26.8333 363.546 27.342 363.546 27.93C363.546 28.462 363.434 28.9613 363.21 29.428C362.986 29.8947 362.552 30.4267 361.908 31.024L359.654 33.152H363.868ZM368.977 35.168C368.165 35.168 367.441 34.9673 366.807 34.566C366.172 34.1647 365.673 33.586 365.309 32.83C364.954 32.0647 364.777 31.1547 364.777 30.1C364.777 29.0453 364.954 28.14 365.309 27.384C365.673 26.6187 366.172 26.0353 366.807 25.634C367.441 25.2327 368.165 25.032 368.977 25.032C369.789 25.032 370.512 25.2327 371.147 25.634C371.781 26.0353 372.276 26.6187 372.631 27.384C372.995 28.14 373.177 29.0453 373.177 30.1C373.177 31.1547 372.995 32.0647 372.631 32.83C372.276 33.586 371.781 34.1647 371.147 34.566C370.512 34.9673 369.789 35.168 368.977 35.168ZM368.977 33.25C369.574 33.25 370.041 32.9933 370.377 32.48C370.722 31.9667 370.895 31.1733 370.895 30.1C370.895 29.0267 370.722 28.2333 370.377 27.72C370.041 27.2067 369.574 26.95 368.977 26.95C368.389 26.95 367.922 27.2067 367.577 27.72C367.241 28.2333 367.073 29.0267 367.073 30.1C367.073 31.1733 367.241 31.9667 367.577 32.48C367.922 32.9933 368.389 33.25 368.977 33.25ZM376.547 30.492C375.828 30.492 375.24 30.2493 374.783 29.764C374.335 29.2693 374.111 28.6113 374.111 27.79C374.111 26.9687 374.335 26.3153 374.783 25.83C375.24 25.3353 375.828 25.088 376.547 25.088C377.265 25.088 377.849 25.3353 378.297 25.83C378.745 26.3153 378.969 26.9687 378.969 27.79C378.969 28.6113 378.745 29.2693 378.297 29.764C377.849 30.2493 377.265 30.492 376.547 30.492ZM382.385 25.2H384.051L377.359 35H375.693L382.385 25.2ZM376.547 29.344C376.864 29.344 377.111 29.2133 377.289 28.952C377.475 28.6907 377.569 28.3033 377.569 27.79C377.569 27.2767 377.475 26.8893 377.289 26.628C377.111 26.3667 376.864 26.236 376.547 26.236C376.239 26.236 375.991 26.3713 375.805 26.642C375.618 26.9033 375.525 27.286 375.525 27.79C375.525 28.294 375.618 28.6813 375.805 28.952C375.991 29.2133 376.239 29.344 376.547 29.344ZM383.197 35.112C382.73 35.112 382.31 35.0047 381.937 34.79C381.573 34.566 381.288 34.2487 381.083 33.838C380.877 33.4273 380.775 32.9513 380.775 32.41C380.775 31.8687 380.877 31.3927 381.083 30.982C381.288 30.5713 381.573 30.2587 381.937 30.044C382.31 29.82 382.73 29.708 383.197 29.708C383.915 29.708 384.499 29.9553 384.947 30.45C385.404 30.9353 385.633 31.5887 385.633 32.41C385.633 33.2313 385.404 33.8893 384.947 34.384C384.499 34.8693 383.915 35.112 383.197 35.112ZM383.197 33.964C383.514 33.964 383.761 33.8333 383.939 33.572C384.125 33.3013 384.219 32.914 384.219 32.41C384.219 31.906 384.125 31.5233 383.939 31.262C383.761 30.9913 383.514 30.856 383.197 30.856C382.889 30.856 382.641 30.9867 382.455 31.248C382.268 31.5093 382.175 31.8967 382.175 32.41C382.175 32.9233 382.268 33.3107 382.455 33.572C382.641 33.8333 382.889 33.964 383.197 33.964ZM390.983 27.468H393.167V35H390.983V27.468ZM392.075 26.418C391.673 26.418 391.347 26.3013 391.095 26.068C390.843 25.8347 390.717 25.5453 390.717 25.2C390.717 24.8547 390.843 24.5653 391.095 24.332C391.347 24.0987 391.673 23.982 392.075 23.982C392.476 23.982 392.803 24.094 393.055 24.318C393.307 24.542 393.433 24.822 393.433 25.158C393.433 25.522 393.307 25.8253 393.055 26.068C392.803 26.3013 392.476 26.418 392.075 26.418ZM399.772 27.356C400.705 27.356 401.456 27.636 402.026 28.196C402.604 28.756 402.894 29.5867 402.894 30.688V35H400.71V31.024C400.71 30.4267 400.579 29.9833 400.318 29.694C400.056 29.3953 399.678 29.246 399.184 29.246C398.633 29.246 398.194 29.4187 397.868 29.764C397.541 30.1 397.378 30.604 397.378 31.276V35H395.194V27.468H397.28V28.35C397.569 28.0327 397.928 27.79 398.358 27.622C398.787 27.4447 399.258 27.356 399.772 27.356ZM408.595 35.112C407.793 35.112 407.069 34.9487 406.425 34.622C405.791 34.286 405.291 33.824 404.927 33.236C404.573 32.648 404.395 31.9807 404.395 31.234C404.395 30.4873 404.573 29.82 404.927 29.232C405.291 28.644 405.791 28.1867 406.425 27.86C407.069 27.524 407.793 27.356 408.595 27.356C409.389 27.356 410.079 27.524 410.667 27.86C411.265 28.1867 411.699 28.658 411.969 29.274L410.275 30.184C409.883 29.4933 409.319 29.148 408.581 29.148C408.012 29.148 407.541 29.3347 407.167 29.708C406.794 30.0813 406.607 30.59 406.607 31.234C406.607 31.878 406.794 32.3867 407.167 32.76C407.541 33.1333 408.012 33.32 408.581 33.32C409.328 33.32 409.893 32.9747 410.275 32.284L411.969 33.208C411.699 33.8053 411.265 34.272 410.667 34.608C410.079 34.944 409.389 35.112 408.595 35.112ZM415.313 28.462C415.574 28.098 415.924 27.8227 416.363 27.636C416.811 27.4493 417.324 27.356 417.903 27.356V29.372C417.66 29.3533 417.497 29.344 417.413 29.344C416.788 29.344 416.298 29.5213 415.943 29.876C415.588 30.2213 415.411 30.744 415.411 31.444V35H413.227V27.468H415.313V28.462ZM426.511 31.262C426.511 31.29 426.497 31.486 426.469 31.85H420.771C420.874 32.3167 421.116 32.6853 421.499 32.956C421.882 33.2267 422.358 33.362 422.927 33.362C423.319 33.362 423.664 33.306 423.963 33.194C424.271 33.0727 424.556 32.886 424.817 32.634L425.979 33.894C425.27 34.706 424.234 35.112 422.871 35.112C422.022 35.112 421.27 34.9487 420.617 34.622C419.964 34.286 419.46 33.824 419.105 33.236C418.75 32.648 418.573 31.9807 418.573 31.234C418.573 30.4967 418.746 29.834 419.091 29.246C419.446 28.6487 419.926 28.1867 420.533 27.86C421.149 27.524 421.835 27.356 422.591 27.356C423.328 27.356 423.996 27.5147 424.593 27.832C425.19 28.1493 425.657 28.6067 425.993 29.204C426.338 29.792 426.511 30.478 426.511 31.262ZM422.605 29.008C422.11 29.008 421.695 29.148 421.359 29.428C421.023 29.708 420.818 30.0907 420.743 30.576H424.453C424.378 30.1 424.173 29.722 423.837 29.442C423.501 29.1527 423.09 29.008 422.605 29.008ZM430.798 27.356C431.965 27.356 432.861 27.636 433.486 28.196C434.111 28.7467 434.424 29.582 434.424 30.702V35H432.38V34.062C431.969 34.762 431.204 35.112 430.084 35.112C429.505 35.112 429.001 35.014 428.572 34.818C428.152 34.622 427.83 34.3513 427.606 34.006C427.382 33.6607 427.27 33.2687 427.27 32.83C427.27 32.13 427.531 31.5793 428.054 31.178C428.586 30.7767 429.403 30.576 430.504 30.576H432.24C432.24 30.1 432.095 29.736 431.806 29.484C431.517 29.2227 431.083 29.092 430.504 29.092C430.103 29.092 429.706 29.1573 429.314 29.288C428.931 29.4093 428.605 29.5773 428.334 29.792L427.55 28.266C427.961 27.9767 428.451 27.7527 429.02 27.594C429.599 27.4353 430.191 27.356 430.798 27.356ZM430.63 33.642C431.003 33.642 431.335 33.558 431.624 33.39C431.913 33.2127 432.119 32.956 432.24 32.62V31.85H430.742C429.846 31.85 429.398 32.144 429.398 32.732C429.398 33.012 429.505 33.236 429.72 33.404C429.944 33.5627 430.247 33.642 430.63 33.642ZM438.935 35.112C438.309 35.112 437.698 35.0373 437.101 34.888C436.503 34.7293 436.027 34.5333 435.673 34.3L436.401 32.732C436.737 32.9467 437.143 33.124 437.619 33.264C438.095 33.3947 438.561 33.46 439.019 33.46C439.943 33.46 440.405 33.2313 440.405 32.774C440.405 32.5593 440.279 32.4053 440.027 32.312C439.775 32.2187 439.387 32.1393 438.865 32.074C438.249 31.9807 437.74 31.8733 437.339 31.752C436.937 31.6307 436.587 31.416 436.289 31.108C435.999 30.8 435.855 30.3613 435.855 29.792C435.855 29.316 435.99 28.896 436.261 28.532C436.541 28.1587 436.942 27.8693 437.465 27.664C437.997 27.4587 438.622 27.356 439.341 27.356C439.873 27.356 440.4 27.4167 440.923 27.538C441.455 27.65 441.893 27.8087 442.239 28.014L441.511 29.568C440.848 29.1947 440.125 29.008 439.341 29.008C438.874 29.008 438.524 29.0733 438.291 29.204C438.057 29.3347 437.941 29.5027 437.941 29.708C437.941 29.9413 438.067 30.1047 438.319 30.198C438.571 30.2913 438.972 30.38 439.523 30.464C440.139 30.5667 440.643 30.6787 441.035 30.8C441.427 30.912 441.767 31.122 442.057 31.43C442.346 31.738 442.491 32.1673 442.491 32.718C442.491 33.1847 442.351 33.6 442.071 33.964C441.791 34.328 441.38 34.6127 440.839 34.818C440.307 35.014 439.672 35.112 438.935 35.112ZM451.216 31.262C451.216 31.29 451.202 31.486 451.174 31.85H445.476C445.579 32.3167 445.822 32.6853 446.204 32.956C446.587 33.2267 447.063 33.362 447.632 33.362C448.024 33.362 448.37 33.306 448.668 33.194C448.976 33.0727 449.261 32.886 449.522 32.634L450.684 33.894C449.975 34.706 448.939 35.112 447.576 35.112C446.727 35.112 445.976 34.9487 445.322 34.622C444.669 34.286 444.165 33.824 443.81 33.236C443.456 32.648 443.278 31.9807 443.278 31.234C443.278 30.4967 443.451 29.834 443.796 29.246C444.151 28.6487 444.632 28.1867 445.238 27.86C445.854 27.524 446.54 27.356 447.296 27.356C448.034 27.356 448.701 27.5147 449.298 27.832C449.896 28.1493 450.362 28.6067 450.698 29.204C451.044 29.792 451.216 30.478 451.216 31.262ZM447.31 29.008C446.816 29.008 446.4 29.148 446.064 29.428C445.728 29.708 445.523 30.0907 445.448 30.576H449.158C449.084 30.1 448.878 29.722 448.542 29.442C448.206 29.1527 447.796 29.008 447.31 29.008Z" fill="white"/>
<rect x="310" y="80" width="198" height="60" rx="10" fill="white" fill-opacity="0.05"/>
<rect x="310.5" y="80.5" width="197" height="59" rx="9.5" stroke="white" stroke-opacity="0.1"/>
<path d="M360.326 105.2V115H358.058V107.02H356.098V105.2H360.326ZM363.331 112.396C363.723 112.396 364.045 112.522 364.297 112.774C364.549 113.017 364.675 113.339 364.675 113.74C364.675 113.927 364.651 114.113 364.605 114.3C364.558 114.487 364.455 114.767 364.297 115.14L363.499 117.156H362.113L362.729 114.93C362.495 114.837 362.309 114.687 362.169 114.482C362.038 114.267 361.973 114.02 361.973 113.74C361.973 113.339 362.099 113.017 362.351 112.774C362.612 112.522 362.939 112.396 363.331 112.396ZM369.137 105.032C370.509 105.032 371.582 105.452 372.357 106.292C373.131 107.123 373.519 108.322 373.519 109.89C373.519 111.001 373.309 111.953 372.889 112.746C372.478 113.539 371.895 114.141 371.139 114.552C370.383 114.963 369.51 115.168 368.521 115.168C367.998 115.168 367.499 115.112 367.023 115C366.547 114.879 366.141 114.711 365.805 114.496L366.645 112.83C367.121 113.157 367.732 113.32 368.479 113.32C369.309 113.32 369.967 113.077 370.453 112.592C370.938 112.097 371.199 111.388 371.237 110.464C370.649 111.052 369.837 111.346 368.801 111.346C368.175 111.346 367.606 111.22 367.093 110.968C366.579 110.716 366.173 110.361 365.875 109.904C365.576 109.437 365.427 108.901 365.427 108.294C365.427 107.641 365.59 107.067 365.917 106.572C366.243 106.077 366.687 105.699 367.247 105.438C367.816 105.167 368.446 105.032 369.137 105.032ZM369.305 109.652C369.799 109.652 370.201 109.517 370.509 109.246C370.826 108.966 370.985 108.611 370.985 108.182C370.985 107.753 370.831 107.403 370.523 107.132C370.224 106.861 369.809 106.726 369.277 106.726C368.791 106.726 368.395 106.857 368.087 107.118C367.788 107.379 367.639 107.734 367.639 108.182C367.639 108.63 367.788 108.989 368.087 109.26C368.395 109.521 368.801 109.652 369.305 109.652ZM381.847 113.152V115H374.441V113.53L378.221 109.96C378.622 109.577 378.893 109.251 379.033 108.98C379.173 108.7 379.243 108.425 379.243 108.154C379.243 107.762 379.107 107.463 378.837 107.258C378.575 107.043 378.188 106.936 377.675 106.936C377.245 106.936 376.858 107.02 376.513 107.188C376.167 107.347 375.878 107.589 375.645 107.916L373.993 106.852C374.375 106.283 374.903 105.839 375.575 105.522C376.247 105.195 377.017 105.032 377.885 105.032C378.613 105.032 379.247 105.153 379.789 105.396C380.339 105.629 380.764 105.965 381.063 106.404C381.371 106.833 381.525 107.342 381.525 107.93C381.525 108.462 381.413 108.961 381.189 109.428C380.965 109.895 380.531 110.427 379.887 111.024L377.633 113.152H381.847ZM387.36 109.19C388.219 109.33 388.877 109.652 389.334 110.156C389.792 110.651 390.02 111.267 390.02 112.004C390.02 112.573 389.871 113.101 389.572 113.586C389.274 114.062 388.816 114.445 388.2 114.734C387.594 115.023 386.847 115.168 385.96 115.168C385.27 115.168 384.588 115.079 383.916 114.902C383.254 114.715 382.689 114.454 382.222 114.118L383.104 112.382C383.478 112.662 383.907 112.881 384.392 113.04C384.887 113.189 385.391 113.264 385.904 113.264C386.474 113.264 386.922 113.157 387.248 112.942C387.575 112.718 387.738 112.405 387.738 112.004C387.738 111.201 387.127 110.8 385.904 110.8H384.868V109.302L386.884 107.02H382.712V105.2H389.572V106.67L387.36 109.19ZM392.37 112.396C392.762 112.396 393.084 112.522 393.336 112.774C393.588 113.017 393.714 113.339 393.714 113.74C393.714 113.927 393.69 114.113 393.644 114.3C393.597 114.487 393.494 114.767 393.336 115.14L392.538 117.156H391.152L391.768 114.93C391.534 114.837 391.348 114.687 391.208 114.482C391.077 114.267 391.012 114.02 391.012 113.74C391.012 113.339 391.138 113.017 391.39 112.774C391.651 112.522 391.978 112.396 392.37 112.396ZM402.19 113.152V115H394.784V113.53L398.564 109.96C398.966 109.577 399.236 109.251 399.376 108.98C399.516 108.7 399.586 108.425 399.586 108.154C399.586 107.762 399.451 107.463 399.18 107.258C398.919 107.043 398.532 106.936 398.018 106.936C397.589 106.936 397.202 107.02 396.856 107.188C396.511 107.347 396.222 107.589 395.988 107.916L394.336 106.852C394.719 106.283 395.246 105.839 395.918 105.522C396.59 105.195 397.36 105.032 398.228 105.032C398.956 105.032 399.591 105.153 400.132 105.396C400.683 105.629 401.108 105.965 401.406 106.404C401.714 106.833 401.868 107.342 401.868 107.93C401.868 108.462 401.756 108.961 401.532 109.428C401.308 109.895 400.874 110.427 400.23 111.024L397.976 113.152H402.19ZM410.771 105.2V106.67L407.131 115H404.667L408.181 107.048H404.933V108.644H402.917V105.2H410.771ZM416.263 109.19C417.121 109.33 417.779 109.652 418.237 110.156C418.694 110.651 418.923 111.267 418.923 112.004C418.923 112.573 418.773 113.101 418.475 113.586C418.176 114.062 417.719 114.445 417.103 114.734C416.496 115.023 415.749 115.168 414.863 115.168C414.172 115.168 413.491 115.079 412.819 114.902C412.156 114.715 411.591 114.454 411.125 114.118L412.007 112.382C412.38 112.662 412.809 112.881 413.295 113.04C413.789 113.189 414.293 113.264 414.807 113.264C415.376 113.264 415.824 113.157 416.151 112.942C416.477 112.718 416.641 112.405 416.641 112.004C416.641 111.201 416.029 110.8 414.807 110.8H413.771V109.302L415.787 107.02H411.615V105.2H418.475V106.67L416.263 109.19ZM427.435 107.356C428.601 107.356 429.497 107.636 430.123 108.196C430.748 108.747 431.061 109.582 431.061 110.702V115H429.017V114.062C428.606 114.762 427.841 115.112 426.721 115.112C426.142 115.112 425.638 115.014 425.209 114.818C424.789 114.622 424.467 114.351 424.243 114.006C424.019 113.661 423.907 113.269 423.907 112.83C423.907 112.13 424.168 111.579 424.691 111.178C425.223 110.777 426.039 110.576 427.141 110.576H428.877C428.877 110.1 428.732 109.736 428.443 109.484C428.153 109.223 427.719 109.092 427.141 109.092C426.739 109.092 426.343 109.157 425.951 109.288C425.568 109.409 425.241 109.577 424.971 109.792L424.187 108.266C424.597 107.977 425.087 107.753 425.657 107.594C426.235 107.435 426.828 107.356 427.435 107.356ZM427.267 113.642C427.64 113.642 427.971 113.558 428.261 113.39C428.55 113.213 428.755 112.956 428.877 112.62V111.85H427.379C426.483 111.85 426.035 112.144 426.035 112.732C426.035 113.012 426.142 113.236 426.357 113.404C426.581 113.563 426.884 113.642 427.267 113.642ZM440.625 107.468V115H438.553V114.104C438.264 114.431 437.919 114.683 437.517 114.86C437.116 115.028 436.682 115.112 436.215 115.112C435.226 115.112 434.442 114.827 433.863 114.258C433.285 113.689 432.995 112.844 432.995 111.724V107.468H435.179V111.402C435.179 112.615 435.688 113.222 436.705 113.222C437.228 113.222 437.648 113.054 437.965 112.718C438.283 112.373 438.441 111.864 438.441 111.192V107.468H440.625ZM450.321 104.612V115H448.235V114.132C447.693 114.785 446.909 115.112 445.883 115.112C445.173 115.112 444.529 114.953 443.951 114.636C443.381 114.319 442.933 113.866 442.607 113.278C442.28 112.69 442.117 112.009 442.117 111.234C442.117 110.459 442.28 109.778 442.607 109.19C442.933 108.602 443.381 108.149 443.951 107.832C444.529 107.515 445.173 107.356 445.883 107.356C446.844 107.356 447.595 107.659 448.137 108.266V104.612H450.321ZM446.261 113.32C446.811 113.32 447.269 113.133 447.633 112.76C447.997 112.377 448.179 111.869 448.179 111.234C448.179 110.599 447.997 110.095 447.633 109.722C447.269 109.339 446.811 109.148 446.261 109.148C445.701 109.148 445.239 109.339 444.875 109.722C444.511 110.095 444.329 110.599 444.329 111.234C444.329 111.869 444.511 112.377 444.875 112.76C445.239 113.133 445.701 113.32 446.261 113.32ZM452.342 107.468H454.526V115H452.342V107.468ZM453.434 106.418C453.033 106.418 452.706 106.301 452.454 106.068C452.202 105.835 452.076 105.545 452.076 105.2C452.076 104.855 452.202 104.565 452.454 104.332C452.706 104.099 453.033 103.982 453.434 103.982C453.835 103.982 454.162 104.094 454.414 104.318C454.666 104.542 454.792 104.822 454.792 105.158C454.792 105.522 454.666 105.825 454.414 106.068C454.162 106.301 453.835 106.418 453.434 106.418ZM463.931 111.262C463.931 111.29 463.917 111.486 463.889 111.85H458.191C458.294 112.317 458.536 112.685 458.919 112.956C459.302 113.227 459.778 113.362 460.347 113.362C460.739 113.362 461.084 113.306 461.383 113.194C461.691 113.073 461.976 112.886 462.237 112.634L463.399 113.894C462.69 114.706 461.654 115.112 460.291 115.112C459.442 115.112 458.69 114.949 458.037 114.622C457.384 114.286 456.88 113.824 456.525 113.236C456.17 112.648 455.993 111.981 455.993 111.234C455.993 110.497 456.166 109.834 456.511 109.246C456.866 108.649 457.346 108.187 457.953 107.86C458.569 107.524 459.255 107.356 460.011 107.356C460.748 107.356 461.416 107.515 462.013 107.832C462.61 108.149 463.077 108.607 463.413 109.204C463.758 109.792 463.931 110.478 463.931 111.262ZM460.025 109.008C459.53 109.008 459.115 109.148 458.779 109.428C458.443 109.708 458.238 110.091 458.163 110.576H461.873C461.798 110.1 461.593 109.722 461.257 109.442C460.921 109.153 460.51 109.008 460.025 109.008ZM469.963 107.356C470.896 107.356 471.648 107.636 472.217 108.196C472.796 108.756 473.085 109.587 473.085 110.688V115H470.901V111.024C470.901 110.427 470.77 109.983 470.509 109.694C470.248 109.395 469.87 109.246 469.375 109.246C468.824 109.246 468.386 109.419 468.059 109.764C467.732 110.1 467.569 110.604 467.569 111.276V115H465.385V107.468H467.471V108.35C467.76 108.033 468.12 107.79 468.549 107.622C468.978 107.445 469.45 107.356 469.963 107.356ZM478.787 115.112C477.984 115.112 477.261 114.949 476.617 114.622C475.982 114.286 475.483 113.824 475.119 113.236C474.764 112.648 474.587 111.981 474.587 111.234C474.587 110.487 474.764 109.82 475.119 109.232C475.483 108.644 475.982 108.187 476.617 107.86C477.261 107.524 477.984 107.356 478.787 107.356C479.58 107.356 480.271 107.524 480.859 107.86C481.456 108.187 481.89 108.658 482.161 109.274L480.467 110.184C480.075 109.493 479.51 109.148 478.773 109.148C478.203 109.148 477.732 109.335 477.359 109.708C476.985 110.081 476.799 110.59 476.799 111.234C476.799 111.878 476.985 112.387 477.359 112.76C477.732 113.133 478.203 113.32 478.773 113.32C479.519 113.32 480.084 112.975 480.467 112.284L482.161 113.208C481.89 113.805 481.456 114.272 480.859 114.608C480.271 114.944 479.58 115.112 478.787 115.112ZM490.701 111.262C490.701 111.29 490.687 111.486 490.659 111.85H484.961C485.063 112.317 485.306 112.685 485.689 112.956C486.071 113.227 486.547 113.362 487.117 113.362C487.509 113.362 487.854 113.306 488.153 113.194C488.461 113.073 488.745 112.886 489.007 112.634L490.169 113.894C489.459 114.706 488.423 115.112 487.061 115.112C486.211 115.112 485.46 114.949 484.807 114.622C484.153 114.286 483.649 113.824 483.295 113.236C482.94 112.648 482.763 111.981 482.763 111.234C482.763 110.497 482.935 109.834 483.281 109.246C483.635 108.649 484.116 108.187 484.723 107.86C485.339 107.524 486.025 107.356 486.781 107.356C487.518 107.356 488.185 107.515 488.783 107.832C489.38 108.149 489.847 108.607 490.183 109.204C490.528 109.792 490.701 110.478 490.701 111.262ZM486.795 109.008C486.3 109.008 485.885 109.148 485.549 109.428C485.213 109.708 485.007 110.091 484.933 110.576H488.643C488.568 110.1 488.363 109.722 488.027 109.442C487.691 109.153 487.28 109.008 486.795 109.008Z" fill="white"/>
<circle r="8" transform="matrix(1 0 0 -1 338 30)" fill="#66FFA3"/>
<circle r="8" transform="matrix(1 0 0 -1 338 110)" fill="white" fill-opacity="0.4"/>
<path d="M216.5 356.5C214 356.5 212 358.5 212 361C212 363.5 214 365.5 216.5 365.5C219 365.5 221 363.5 221 361C221 358.5 219 356.5 216.5 356.5Z" fill="#6016FC"/>
<path d="M213.5 361C213.5 359.328 214.828 358 216.5 358V355C213.172 355 210.5 357.672 210.5 361H213.5ZM216.5 358C218.172 358 219.5 359.328 219.5 361H222.5C222.5 357.672 219.828 355 216.5 355V358ZM219.5 361C219.5 362.672 218.172 364 216.5 364V367C219.828 367 222.5 364.328 222.5 361H219.5ZM216.5 364C214.828 364 213.5 362.672 213.5 361H210.5C210.5 364.328 213.172 367 216.5 367V364ZM218 356.5V347H215V356.5H218ZM236.5 328.5H253V325.5H236.5V328.5ZM274.5 307V293H271.5V307H274.5ZM253 328.5C264.874 328.5 274.5 318.874 274.5 307H271.5C271.5 317.217 263.217 325.5 253 325.5V328.5ZM218 347C218 336.783 226.283 328.5 236.5 328.5V325.5C224.626 325.5 215 335.126 215 347H218Z" fill="white" fill-opacity="0.1"/>
<path d="M310 105.5C307.5 105.5 305.5 107.5 305.5 110C305.5 112.5 307.5 114.5 310 114.5C312.5 114.5 314.5 112.5 314.5 110C314.5 107.5 312.5 105.5 310 105.5Z" fill="#6016FC"/>
<path d="M307 110C307 108.328 308.329 107 310 107V104C306.672 104 304 106.672 304 110H307ZM310 107C311.672 107 313 108.328 313 110H316C316 106.672 313.329 104 310 104V107ZM313 110C313 111.672 311.672 113 310 113V116C313.329 116 316 113.328 316 110H313ZM310 113C308.329 113 307 111.672 307 110H304C304 113.328 306.672 116 310 116V113ZM305.5 108.5H293V111.5H305.5V108.5ZM271.5 130V163H274.5V130H271.5ZM293 108.5C281.126 108.5 271.5 118.126 271.5 130H274.5C274.5 119.783 282.783 111.5 293 111.5V108.5Z" fill="white" fill-opacity="0.1"/>
<defs>
<linearGradient id="paint0_linear_1468_866" x1="117.194" y1="12" x2="117.194" y2="500.311" gradientUnits="userSpaceOnUse">
<stop stop-color="white" stop-opacity="0"/>
<stop offset="0.479167" stop-color="white" stop-opacity="0.02"/>
<stop offset="0.994792" stop-color="white" stop-opacity="0"/>
</linearGradient>
<linearGradient id="paint1_linear_1468_866" x1="69.7582" y1="12" x2="69.7582" y2="500.311" gradientUnits="userSpaceOnUse">
<stop stop-color="white" stop-opacity="0"/>
<stop offset="0.479167" stop-color="white" stop-opacity="0.02"/>
<stop offset="0.994792" stop-color="white" stop-opacity="0"/>
</linearGradient>
<linearGradient id="paint2_linear_1468_866" x1="163.7" y1="12" x2="163.7" y2="500.311" gradientUnits="userSpaceOnUse">
<stop stop-color="white" stop-opacity="0"/>
<stop offset="0.479167" stop-color="white" stop-opacity="0.02"/>
<stop offset="0.994792" stop-color="white" stop-opacity="0"/>
</linearGradient>
<linearGradient id="paint3_linear_1468_866" x1="210.206" y1="12" x2="210.206" y2="500.311" gradientUnits="userSpaceOnUse">
<stop stop-color="white" stop-opacity="0"/>
<stop offset="0.479167" stop-color="white" stop-opacity="0.02"/>
<stop offset="0.994792" stop-color="white" stop-opacity="0"/>
</linearGradient>
<linearGradient id="paint4_linear_1468_866" x1="256.711" y1="12" x2="256.711" y2="500.311" gradientUnits="userSpaceOnUse">
<stop stop-color="white" stop-opacity="0"/>
<stop offset="0.479167" stop-color="white" stop-opacity="0.02"/>
<stop offset="0.994792" stop-color="white" stop-opacity="0"/>
</linearGradient>
<linearGradient id="paint5_linear_1468_866" x1="303.217" y1="12" x2="303.217" y2="500.311" gradientUnits="userSpaceOnUse">
<stop stop-color="white" stop-opacity="0"/>
<stop offset="0.479167" stop-color="white" stop-opacity="0.02"/>
<stop offset="0.994792" stop-color="white" stop-opacity="0"/>
</linearGradient>
<linearGradient id="paint6_linear_1468_866" x1="349.723" y1="12" x2="349.723" y2="500.311" gradientUnits="userSpaceOnUse">
<stop stop-color="white" stop-opacity="0"/>
<stop offset="0.479167" stop-color="white" stop-opacity="0.02"/>
<stop offset="0.994792" stop-color="white" stop-opacity="0"/>
</linearGradient>
<linearGradient id="paint7_linear_1468_866" x1="396.229" y1="12" x2="396.229" y2="500.311" gradientUnits="userSpaceOnUse">
<stop stop-color="white" stop-opacity="0"/>
<stop offset="0.479167" stop-color="white" stop-opacity="0.02"/>
<stop offset="0.994792" stop-color="white" stop-opacity="0"/>
</linearGradient>
<linearGradient id="paint8_linear_1468_866" x1="442.735" y1="12" x2="442.735" y2="500.311" gradientUnits="userSpaceOnUse">
<stop stop-color="white" stop-opacity="0"/>
<stop offset="0.479167" stop-color="white" stop-opacity="0.02"/>
<stop offset="0.994792" stop-color="white" stop-opacity="0"/>
</linearGradient>
<linearGradient id="paint9_linear_1468_866" x1="489.241" y1="12" x2="489.241" y2="500.311" gradientUnits="userSpaceOnUse">
<stop stop-color="white" stop-opacity="0"/>
<stop offset="0.479167" stop-color="white" stop-opacity="0.02"/>
<stop offset="0.994792" stop-color="white" stop-opacity="0"/>
</linearGradient>
<linearGradient id="paint10_linear_1468_866" x1="559.93" y1="92.92" x2="559.93" y2="651.92" gradientUnits="userSpaceOnUse">
<stop stop-color="white" stop-opacity="0"/>
<stop offset="0.479167" stop-color="white" stop-opacity="0.02"/>
<stop offset="0.994792" stop-color="white" stop-opacity="0"/>
</linearGradient>
<linearGradient id="paint11_linear_1468_866" x1="559.93" y1="45.4841" x2="559.93" y2="604.484" gradientUnits="userSpaceOnUse">
<stop stop-color="white" stop-opacity="0"/>
<stop offset="0.479167" stop-color="white" stop-opacity="0.02"/>
<stop offset="0.994792" stop-color="white" stop-opacity="0"/>
</linearGradient>
<linearGradient id="paint12_linear_1468_866" x1="559.93" y1="139.426" x2="559.93" y2="698.426" gradientUnits="userSpaceOnUse">
<stop stop-color="white" stop-opacity="0"/>
<stop offset="0.479167" stop-color="white" stop-opacity="0.02"/>
<stop offset="0.994792" stop-color="white" stop-opacity="0"/>
</linearGradient>
<linearGradient id="paint13_linear_1468_866" x1="559.93" y1="185.932" x2="559.93" y2="744.932" gradientUnits="userSpaceOnUse">
<stop stop-color="white" stop-opacity="0"/>
<stop offset="0.479167" stop-color="white" stop-opacity="0.02"/>
<stop offset="0.994792" stop-color="white" stop-opacity="0"/>
</linearGradient>
<linearGradient id="paint14_linear_1468_866" x1="559.93" y1="232.438" x2="559.93" y2="791.438" gradientUnits="userSpaceOnUse">
<stop stop-color="white" stop-opacity="0"/>
<stop offset="0.479167" stop-color="white" stop-opacity="0.02"/>
<stop offset="0.994792" stop-color="white" stop-opacity="0"/>
</linearGradient>
<linearGradient id="paint15_linear_1468_866" x1="559.93" y1="278.943" x2="559.93" y2="837.943" gradientUnits="userSpaceOnUse">
<stop stop-color="white" stop-opacity="0"/>
<stop offset="0.479167" stop-color="white" stop-opacity="0.02"/>
<stop offset="0.994792" stop-color="white" stop-opacity="0"/>
</linearGradient>
<linearGradient id="paint16_linear_1468_866" x1="559.93" y1="325.449" x2="559.93" y2="884.449" gradientUnits="userSpaceOnUse">
<stop stop-color="white" stop-opacity="0"/>
<stop offset="0.479167" stop-color="white" stop-opacity="0.02"/>
<stop offset="0.994792" stop-color="white" stop-opacity="0"/>
</linearGradient>
<linearGradient id="paint17_linear_1468_866" x1="559.93" y1="371.955" x2="559.93" y2="930.955" gradientUnits="userSpaceOnUse">
<stop stop-color="white" stop-opacity="0"/>
<stop offset="0.479167" stop-color="white" stop-opacity="0.02"/>
<stop offset="0.994792" stop-color="white" stop-opacity="0"/>
</linearGradient>
<linearGradient id="paint18_linear_1468_866" x1="559.93" y1="418.461" x2="559.93" y2="977.461" gradientUnits="userSpaceOnUse">
<stop stop-color="white" stop-opacity="0"/>
<stop offset="0.479167" stop-color="white" stop-opacity="0.02"/>
<stop offset="0.994792" stop-color="white" stop-opacity="0"/>
</linearGradient>
<linearGradient id="paint19_linear_1468_866" x1="559.93" y1="464.967" x2="559.93" y2="1023.97" gradientUnits="userSpaceOnUse">
<stop stop-color="white" stop-opacity="0"/>
<stop offset="0.479167" stop-color="white" stop-opacity="0.02"/>
<stop offset="0.994792" stop-color="white" stop-opacity="0"/>
</linearGradient>
</defs>
</svg>
