<svg width="203" height="98" viewBox="0 0 203 98" fill="none" xmlns="http://www.w3.org/2000/svg">
<g filter="url(#filter0_d_1468_371)">
<rect x="25" y="21" width="153" height="48" rx="8" fill="white"/>
<g clip-path="url(#clip0_1468_371)">
<path d="M59.6763 34.5105C59.6317 34.4606 58.0238 34.5302 56.6247 36.0488C55.2256 37.566 55.4408 39.3064 55.4723 39.351C55.5038 39.3956 57.4673 39.4652 58.7208 37.6999C59.9742 35.9346 59.7209 34.5617 59.6763 34.5105ZM64.0259 49.9101C63.9629 49.7841 60.9743 48.2904 61.2526 45.4187C61.5308 42.5456 63.451 41.7581 63.4812 41.6728C63.5114 41.5875 62.6977 40.6359 61.8353 40.1543C61.2022 39.8147 60.5015 39.6201 59.7839 39.5846C59.6422 39.5807 59.15 39.4599 58.138 39.7369C57.4713 39.9193 55.9685 40.5099 55.555 40.5336C55.1403 40.5572 53.9065 39.8484 52.5796 39.6608C51.7304 39.4967 50.83 39.8327 50.1856 40.0913C49.5425 40.3485 48.3192 41.0809 47.4635 43.0273C46.6077 44.9724 47.0553 48.0542 47.3755 49.0123C47.6958 49.9691 48.1958 51.5376 49.0463 52.6821C49.8023 53.9736 50.8051 54.87 51.2238 55.1745C51.6425 55.479 52.8237 55.6811 53.6427 55.2624C54.3016 54.8582 55.4907 54.6259 55.9606 54.6429C56.4292 54.66 57.3532 54.8451 58.2995 55.3504C59.0489 55.6089 59.7577 55.5013 60.4677 55.2126C61.1778 54.9225 62.2055 53.8226 63.4051 51.5927C63.8605 50.5558 64.0679 49.9954 64.0259 49.9101Z" fill="black"/>
<path d="M59.6763 34.5105C59.6317 34.4606 58.0238 34.5302 56.6247 36.0488C55.2256 37.566 55.4408 39.3064 55.4723 39.351C55.5038 39.3956 57.4673 39.4652 58.7208 37.6999C59.9742 35.9346 59.7209 34.5617 59.6763 34.5105ZM64.0259 49.9101C63.9629 49.7841 60.9743 48.2904 61.2526 45.4187C61.5308 42.5456 63.451 41.7581 63.4812 41.6728C63.5114 41.5875 62.6977 40.6359 61.8353 40.1543C61.2022 39.8147 60.5015 39.6201 59.7839 39.5846C59.6422 39.5807 59.15 39.4599 58.138 39.7369C57.4713 39.9193 55.9685 40.5099 55.555 40.5336C55.1403 40.5572 53.9065 39.8484 52.5796 39.6608C51.7304 39.4967 50.83 39.8327 50.1856 40.0913C49.5425 40.3485 48.3192 41.0809 47.4635 43.0273C46.6077 44.9724 47.0553 48.0542 47.3755 49.0123C47.6958 49.9691 48.1958 51.5376 49.0463 52.6821C49.8023 53.9736 50.8051 54.87 51.2238 55.1745C51.6425 55.479 52.8237 55.6811 53.6427 55.2624C54.3016 54.8582 55.4907 54.6259 55.9606 54.6429C56.4292 54.66 57.3532 54.8451 58.2995 55.3504C59.0489 55.6089 59.7577 55.5013 60.4677 55.2126C61.1778 54.9225 62.2055 53.8226 63.4051 51.5927C63.8605 50.5558 64.0679 49.9954 64.0259 49.9101Z" fill="black"/>
</g>
<path d="M84.768 48.408H79.168L78.064 51H75.92L80.96 39.8H83.008L88.064 51H85.888L84.768 48.408ZM84.08 46.776L81.968 41.88L79.872 46.776H84.08ZM94.0324 42.36C94.8644 42.36 95.6057 42.5413 96.2564 42.904C96.9177 43.2667 97.435 43.7787 97.8084 44.44C98.1817 45.1013 98.3684 45.864 98.3684 46.728C98.3684 47.592 98.1817 48.36 97.8084 49.032C97.435 49.6933 96.9177 50.2053 96.2564 50.568C95.6057 50.9307 94.8644 51.112 94.0324 51.112C92.8804 51.112 91.9684 50.728 91.2964 49.96V54.104H89.2964V42.456H91.2004V43.576C91.531 43.1707 91.9364 42.8667 92.4164 42.664C92.907 42.4613 93.4457 42.36 94.0324 42.36ZM93.8084 49.4C94.5444 49.4 95.147 49.1547 95.6164 48.664C96.0964 48.1733 96.3364 47.528 96.3364 46.728C96.3364 45.928 96.0964 45.2827 95.6164 44.792C95.147 44.3013 94.5444 44.056 93.8084 44.056C93.3284 44.056 92.8964 44.168 92.5124 44.392C92.1284 44.6053 91.8244 44.9147 91.6004 45.32C91.3764 45.7253 91.2644 46.1947 91.2644 46.728C91.2644 47.2613 91.3764 47.7307 91.6004 48.136C91.8244 48.5413 92.1284 48.856 92.5124 49.08C92.8964 49.2933 93.3284 49.4 93.8084 49.4ZM105.001 42.36C105.833 42.36 106.574 42.5413 107.225 42.904C107.886 43.2667 108.404 43.7787 108.777 44.44C109.15 45.1013 109.337 45.864 109.337 46.728C109.337 47.592 109.15 48.36 108.777 49.032C108.404 49.6933 107.886 50.2053 107.225 50.568C106.574 50.9307 105.833 51.112 105.001 51.112C103.849 51.112 102.937 50.728 102.265 49.96V54.104H100.265V42.456H102.169V43.576C102.5 43.1707 102.905 42.8667 103.385 42.664C103.876 42.4613 104.414 42.36 105.001 42.36ZM104.777 49.4C105.513 49.4 106.116 49.1547 106.585 48.664C107.065 48.1733 107.305 47.528 107.305 46.728C107.305 45.928 107.065 45.2827 106.585 44.792C106.116 44.3013 105.513 44.056 104.777 44.056C104.297 44.056 103.865 44.168 103.481 44.392C103.097 44.6053 102.793 44.9147 102.569 45.32C102.345 45.7253 102.233 46.1947 102.233 46.728C102.233 47.2613 102.345 47.7307 102.569 48.136C102.793 48.5413 103.097 48.856 103.481 49.08C103.865 49.2933 104.297 49.4 104.777 49.4ZM119.32 51.16C118.456 51.16 117.618 51.0373 116.808 50.792C116.008 50.5467 115.373 50.2213 114.904 49.816L115.624 48.2C116.082 48.5627 116.642 48.8613 117.304 49.096C117.976 49.32 118.648 49.432 119.32 49.432C120.152 49.432 120.77 49.2987 121.176 49.032C121.592 48.7653 121.8 48.4133 121.8 47.976C121.8 47.656 121.682 47.3947 121.448 47.192C121.224 46.9787 120.936 46.8133 120.584 46.696C120.232 46.5787 119.752 46.4453 119.144 46.296C118.29 46.0933 117.597 45.8907 117.064 45.688C116.541 45.4853 116.088 45.1707 115.704 44.744C115.33 44.3067 115.144 43.72 115.144 42.984C115.144 42.3653 115.309 41.8053 115.64 41.304C115.981 40.792 116.488 40.3867 117.16 40.088C117.842 39.7893 118.674 39.64 119.656 39.64C120.338 39.64 121.01 39.7253 121.672 39.896C122.333 40.0667 122.904 40.312 123.384 40.632L122.728 42.248C122.237 41.96 121.725 41.7413 121.192 41.592C120.658 41.4427 120.141 41.368 119.64 41.368C118.818 41.368 118.205 41.5067 117.8 41.784C117.405 42.0613 117.208 42.4293 117.208 42.888C117.208 43.208 117.32 43.4693 117.544 43.672C117.778 43.8747 118.072 44.0347 118.424 44.152C118.776 44.2693 119.256 44.4027 119.864 44.552C120.696 44.744 121.378 44.9467 121.912 45.16C122.445 45.3627 122.898 45.6773 123.272 46.104C123.656 46.5307 123.848 47.1067 123.848 47.832C123.848 48.4507 123.677 49.0107 123.336 49.512C123.005 50.0133 122.498 50.4133 121.816 50.712C121.133 51.0107 120.301 51.16 119.32 51.16ZM130.854 50.536C130.62 50.728 130.332 50.872 129.99 50.968C129.66 51.064 129.308 51.112 128.934 51.112C127.996 51.112 127.27 50.8667 126.758 50.376C126.246 49.8853 125.99 49.1707 125.99 48.232V44.12H124.582V42.52H125.99V40.568H127.99V42.52H130.278V44.12H127.99V48.184C127.99 48.6 128.092 48.92 128.294 49.144C128.497 49.3573 128.79 49.464 129.174 49.464C129.622 49.464 129.996 49.3467 130.294 49.112L130.854 50.536ZM136.058 51.112C135.194 51.112 134.416 50.9253 133.722 50.552C133.029 50.1787 132.485 49.6613 132.09 49C131.706 48.328 131.514 47.5707 131.514 46.728C131.514 45.8853 131.706 45.1333 132.09 44.472C132.485 43.8107 133.029 43.2933 133.722 42.92C134.416 42.5467 135.194 42.36 136.058 42.36C136.933 42.36 137.717 42.5467 138.41 42.92C139.104 43.2933 139.642 43.8107 140.026 44.472C140.421 45.1333 140.618 45.8853 140.618 46.728C140.618 47.5707 140.421 48.328 140.026 49C139.642 49.6613 139.104 50.1787 138.41 50.552C137.717 50.9253 136.933 51.112 136.058 51.112ZM136.058 49.4C136.794 49.4 137.402 49.1547 137.882 48.664C138.362 48.1733 138.602 47.528 138.602 46.728C138.602 45.928 138.362 45.2827 137.882 44.792C137.402 44.3013 136.794 44.056 136.058 44.056C135.322 44.056 134.714 44.3013 134.234 44.792C133.765 45.2827 133.53 45.928 133.53 46.728C133.53 47.528 133.765 48.1733 134.234 48.664C134.714 49.1547 135.322 49.4 136.058 49.4ZM144.435 43.704C145.011 42.808 146.024 42.36 147.475 42.36V44.264C147.304 44.232 147.149 44.216 147.011 44.216C146.232 44.216 145.624 44.4453 145.187 44.904C144.749 45.352 144.531 46.0027 144.531 46.856V51H142.531V42.456H144.435V43.704ZM157.125 46.776C157.125 46.9147 157.115 47.112 157.093 47.368H150.389C150.507 47.9973 150.811 48.4987 151.301 48.872C151.803 49.2347 152.421 49.416 153.157 49.416C154.096 49.416 154.869 49.1067 155.477 48.488L156.549 49.72C156.165 50.1787 155.68 50.5253 155.093 50.76C154.507 50.9947 153.845 51.112 153.109 51.112C152.171 51.112 151.344 50.9253 150.629 50.552C149.915 50.1787 149.36 49.6613 148.965 49C148.581 48.328 148.389 47.5707 148.389 46.728C148.389 45.896 148.576 45.1493 148.949 44.488C149.333 43.816 149.861 43.2933 150.533 42.92C151.205 42.5467 151.963 42.36 152.805 42.36C153.637 42.36 154.379 42.5467 155.029 42.92C155.691 43.2827 156.203 43.8 156.565 44.472C156.939 45.1333 157.125 45.9013 157.125 46.776ZM152.805 43.96C152.165 43.96 151.621 44.152 151.173 44.536C150.736 44.9093 150.469 45.4107 150.373 46.04H155.221C155.136 45.4213 154.875 44.92 154.437 44.536C154 44.152 153.456 43.96 152.805 43.96Z" fill="#181818"/>
</g>
<defs>
<filter id="filter0_d_1468_371" x="0" y="0" width="203" height="98" filterUnits="userSpaceOnUse" color-interpolation-filters="sRGB">
<feFlood flood-opacity="0" result="BackgroundImageFix"/>
<feColorMatrix in="SourceAlpha" type="matrix" values="0 0 0 0 0 0 0 0 0 0 0 0 0 0 0 0 0 0 127 0" result="hardAlpha"/>
<feOffset dy="4"/>
<feGaussianBlur stdDeviation="12.5"/>
<feComposite in2="hardAlpha" operator="out"/>
<feColorMatrix type="matrix" values="0 0 0 0 1 0 0 0 0 1 0 0 0 0 1 0 0 0 0.16 0"/>
<feBlend mode="normal" in2="BackgroundImageFix" result="effect1_dropShadow_1468_371"/>
<feBlend mode="normal" in="SourceGraphic" in2="effect1_dropShadow_1468_371" result="shape"/>
</filter>
<clipPath id="clip0_1468_371">
<rect width="21" height="21" fill="white" transform="translate(45 34.5)"/>
</clipPath>
</defs>
</svg>
