<svg width="356" height="405" viewBox="0 0 356 405" fill="none" xmlns="http://www.w3.org/2000/svg">
<g filter="url(#filter0_b_1605_26)">
<rect x="58" width="239" height="267" rx="10" fill="white" fill-opacity="0.05"/>
</g>
<path d="M116.358 47.904C116.918 48.0813 117.357 48.38 117.674 48.8C117.991 49.2107 118.15 49.7193 118.15 50.326C118.15 51.1847 117.814 51.8473 117.142 52.314C116.479 52.7713 115.509 53 114.23 53H109.162V43.2H113.95C115.145 43.2 116.059 43.4287 116.694 43.886C117.338 44.3433 117.66 44.964 117.66 45.748C117.66 46.224 117.543 46.6487 117.31 47.022C117.086 47.3953 116.769 47.6893 116.358 47.904ZM111.416 44.908V47.218H113.67C114.23 47.218 114.655 47.12 114.944 46.924C115.233 46.728 115.378 46.4387 115.378 46.056C115.378 45.6733 115.233 45.3887 114.944 45.202C114.655 45.006 114.23 44.908 113.67 44.908H111.416ZM114.062 51.292C114.659 51.292 115.107 51.194 115.406 50.998C115.714 50.802 115.868 50.4987 115.868 50.088C115.868 49.276 115.266 48.87 114.062 48.87H111.416V51.292H114.062ZM121.799 46.462C122.06 46.098 122.41 45.8227 122.849 45.636C123.297 45.4493 123.81 45.356 124.389 45.356V47.372C124.146 47.3533 123.983 47.344 123.899 47.344C123.274 47.344 122.784 47.5213 122.429 47.876C122.074 48.2213 121.897 48.744 121.897 49.444V53H119.713V45.468H121.799V46.462ZM129.203 53.112C128.41 53.112 127.696 52.9487 127.061 52.622C126.436 52.286 125.946 51.824 125.591 51.236C125.237 50.648 125.059 49.9807 125.059 49.234C125.059 48.4873 125.237 47.82 125.591 47.232C125.946 46.644 126.436 46.1867 127.061 45.86C127.696 45.524 128.41 45.356 129.203 45.356C129.997 45.356 130.706 45.524 131.331 45.86C131.957 46.1867 132.447 46.644 132.801 47.232C133.156 47.82 133.333 48.4873 133.333 49.234C133.333 49.9807 133.156 50.648 132.801 51.236C132.447 51.824 131.957 52.286 131.331 52.622C130.706 52.9487 129.997 53.112 129.203 53.112ZM129.203 51.32C129.763 51.32 130.221 51.1333 130.575 50.76C130.939 50.3773 131.121 49.8687 131.121 49.234C131.121 48.5993 130.939 48.0953 130.575 47.722C130.221 47.3393 129.763 47.148 129.203 47.148C128.643 47.148 128.181 47.3393 127.817 47.722C127.453 48.0953 127.271 48.5993 127.271 49.234C127.271 49.8687 127.453 50.3773 127.817 50.76C128.181 51.1333 128.643 51.32 129.203 51.32ZM137.708 45.356C138.875 45.356 139.771 45.636 140.396 46.196C141.021 46.7467 141.334 47.582 141.334 48.702V53H139.29V52.062C138.879 52.762 138.114 53.112 136.994 53.112C136.415 53.112 135.911 53.014 135.482 52.818C135.062 52.622 134.74 52.3513 134.516 52.006C134.292 51.6607 134.18 51.2687 134.18 50.83C134.18 50.13 134.441 49.5793 134.964 49.178C135.496 48.7767 136.313 48.576 137.414 48.576H139.15C139.15 48.1 139.005 47.736 138.716 47.484C138.427 47.2227 137.993 47.092 137.414 47.092C137.013 47.092 136.616 47.1573 136.224 47.288C135.841 47.4093 135.515 47.5773 135.244 47.792L134.46 46.266C134.871 45.9767 135.361 45.7527 135.93 45.594C136.509 45.4353 137.101 45.356 137.708 45.356ZM137.54 51.642C137.913 51.642 138.245 51.558 138.534 51.39C138.823 51.2127 139.029 50.956 139.15 50.62V49.85H137.652C136.756 49.85 136.308 50.144 136.308 50.732C136.308 51.012 136.415 51.236 136.63 51.404C136.854 51.5627 137.157 51.642 137.54 51.642ZM151.065 42.612V53H148.979V52.132C148.437 52.7853 147.653 53.112 146.627 53.112C145.917 53.112 145.273 52.9533 144.695 52.636C144.125 52.3187 143.677 51.866 143.351 51.278C143.024 50.69 142.861 50.0087 142.861 49.234C142.861 48.4593 143.024 47.778 143.351 47.19C143.677 46.602 144.125 46.1493 144.695 45.832C145.273 45.5147 145.917 45.356 146.627 45.356C147.588 45.356 148.339 45.6593 148.881 46.266V42.612H151.065ZM147.005 51.32C147.555 51.32 148.013 51.1333 148.377 50.76C148.741 50.3773 148.923 49.8687 148.923 49.234C148.923 48.5993 148.741 48.0953 148.377 47.722C148.013 47.3393 147.555 47.148 147.005 47.148C146.445 47.148 145.983 47.3393 145.619 47.722C145.255 48.0953 145.073 48.5993 145.073 49.234C145.073 49.8687 145.255 50.3773 145.619 50.76C145.983 51.1333 146.445 51.32 147.005 51.32ZM156.726 53.112C155.923 53.112 155.2 52.9487 154.556 52.622C153.921 52.286 153.422 51.824 153.058 51.236C152.703 50.648 152.526 49.9807 152.526 49.234C152.526 48.4873 152.703 47.82 153.058 47.232C153.422 46.644 153.921 46.1867 154.556 45.86C155.2 45.524 155.923 45.356 156.726 45.356C157.519 45.356 158.21 45.524 158.798 45.86C159.395 46.1867 159.829 46.658 160.1 47.274L158.406 48.184C158.014 47.4933 157.449 47.148 156.712 47.148C156.143 47.148 155.671 47.3347 155.298 47.708C154.925 48.0813 154.738 48.59 154.738 49.234C154.738 49.878 154.925 50.3867 155.298 50.76C155.671 51.1333 156.143 51.32 156.712 51.32C157.459 51.32 158.023 50.9747 158.406 50.284L160.1 51.208C159.829 51.8053 159.395 52.272 158.798 52.608C158.21 52.944 157.519 53.112 156.726 53.112ZM164.396 45.356C165.562 45.356 166.458 45.636 167.084 46.196C167.709 46.7467 168.022 47.582 168.022 48.702V53H165.978V52.062C165.567 52.762 164.802 53.112 163.682 53.112C163.103 53.112 162.599 53.014 162.17 52.818C161.75 52.622 161.428 52.3513 161.204 52.006C160.98 51.6607 160.868 51.2687 160.868 50.83C160.868 50.13 161.129 49.5793 161.652 49.178C162.184 48.7767 163 48.576 164.102 48.576H165.838C165.838 48.1 165.693 47.736 165.404 47.484C165.114 47.2227 164.68 47.092 164.102 47.092C163.7 47.092 163.304 47.1573 162.912 47.288C162.529 47.4093 162.202 47.5773 161.932 47.792L161.148 46.266C161.558 45.9767 162.048 45.7527 162.618 45.594C163.196 45.4353 163.789 45.356 164.396 45.356ZM164.228 51.642C164.601 51.642 164.932 51.558 165.222 51.39C165.511 51.2127 165.716 50.956 165.838 50.62V49.85H164.34C163.444 49.85 162.996 50.144 162.996 50.732C162.996 51.012 163.103 51.236 163.318 51.404C163.542 51.5627 163.845 51.642 164.228 51.642ZM172.532 53.112C171.907 53.112 171.296 53.0373 170.698 52.888C170.101 52.7293 169.625 52.5333 169.27 52.3L169.998 50.732C170.334 50.9467 170.74 51.124 171.216 51.264C171.692 51.3947 172.159 51.46 172.616 51.46C173.54 51.46 174.002 51.2313 174.002 50.774C174.002 50.5593 173.876 50.4053 173.624 50.312C173.372 50.2187 172.985 50.1393 172.462 50.074C171.846 49.9807 171.338 49.8733 170.936 49.752C170.535 49.6307 170.185 49.416 169.886 49.108C169.597 48.8 169.452 48.3613 169.452 47.792C169.452 47.316 169.588 46.896 169.858 46.532C170.138 46.1587 170.54 45.8693 171.062 45.664C171.594 45.4587 172.22 45.356 172.938 45.356C173.47 45.356 173.998 45.4167 174.52 45.538C175.052 45.65 175.491 45.8087 175.836 46.014L175.108 47.568C174.446 47.1947 173.722 47.008 172.938 47.008C172.472 47.008 172.122 47.0733 171.888 47.204C171.655 47.3347 171.538 47.5027 171.538 47.708C171.538 47.9413 171.664 48.1047 171.916 48.198C172.168 48.2913 172.57 48.38 173.12 48.464C173.736 48.5667 174.24 48.6787 174.632 48.8C175.024 48.912 175.365 49.122 175.654 49.43C175.944 49.738 176.088 50.1673 176.088 50.718C176.088 51.1847 175.948 51.6 175.668 51.964C175.388 52.328 174.978 52.6127 174.436 52.818C173.904 53.014 173.27 53.112 172.532 53.112ZM182.294 52.636C182.079 52.7947 181.813 52.916 181.496 53C181.188 53.0747 180.861 53.112 180.516 53.112C179.62 53.112 178.924 52.8833 178.43 52.426C177.944 51.9687 177.702 51.2967 177.702 50.41V47.316H176.54V45.636H177.702V43.802H179.886V45.636H181.762V47.316H179.886V50.382C179.886 50.6993 179.965 50.9467 180.124 51.124C180.292 51.292 180.525 51.376 180.824 51.376C181.169 51.376 181.463 51.2827 181.706 51.096L182.294 52.636Z" fill="white"/>
<g filter="url(#filter1_b_1605_26)">
<rect y="325" width="80" height="80" rx="10" fill="white" fill-opacity="0.05"/>
</g>
<g filter="url(#filter2_b_1605_26)">
<rect x="136" y="325" width="80" height="80" rx="10" fill="white" fill-opacity="0.05"/>
</g>
<g filter="url(#filter3_b_1605_26)">
<rect x="276" y="325" width="80" height="80" rx="10" fill="white" fill-opacity="0.05"/>
</g>
<path opacity="0.3" d="M172.5 267C172.5 265.328 173.828 264 175.5 264V261C172.172 261 169.5 263.672 169.5 267H172.5ZM175.5 264C177.172 264 178.5 265.328 178.5 267H181.5C181.5 263.672 178.828 261 175.5 261V264ZM178.5 267C178.5 268.672 177.172 270 175.5 270V273C178.828 273 181.5 270.328 181.5 267H178.5ZM175.5 270C173.828 270 172.5 268.672 172.5 267H169.5C169.5 270.328 172.172 273 175.5 273V270ZM174 271.5V296H177V271.5H174ZM174 296V325H177V296H174Z" fill="white" fill-opacity="0.1"/>
<path d="M175.5 262.5C173 262.5 171 264.5 171 267C171 269.5 173 271.5 175.5 271.5C178 271.5 180 269.5 180 267C180 264.5 178 262.5 175.5 262.5Z" fill="#6016FC"/>
<path d="M172.5 267C172.5 265.328 173.828 264 175.5 264V261C172.172 261 169.5 263.672 169.5 267H172.5ZM175.5 264C177.172 264 178.5 265.328 178.5 267H181.5C181.5 263.672 178.828 261 175.5 261V264ZM178.5 267C178.5 268.672 177.172 270 175.5 270V273C178.828 273 181.5 270.328 181.5 267H178.5ZM175.5 270C173.828 270 172.5 268.672 172.5 267H169.5C169.5 270.328 172.172 273 175.5 273V270ZM174 271.5V281H177V271.5H174ZM155.5 299.5H50V302.5H155.5V299.5ZM38.5 311V325H41.5V311H38.5ZM50 299.5C43.6487 299.5 38.5 304.649 38.5 311H41.5C41.5 306.306 45.3056 302.5 50 302.5V299.5ZM174 281C174 291.217 165.717 299.5 155.5 299.5V302.5C167.374 302.5 177 292.874 177 281H174Z" fill="white" fill-opacity="0.1"/>
<path opacity="0.3" d="M172.5 267C172.5 265.328 173.828 264 175.5 264V261C172.172 261 169.5 263.672 169.5 267H172.5ZM175.5 264C177.172 264 178.5 265.328 178.5 267H181.5C181.5 263.672 178.828 261 175.5 261V264ZM178.5 267C178.5 268.672 177.172 270 175.5 270V273C178.828 273 181.5 270.328 181.5 267H178.5ZM175.5 270C173.828 270 172.5 268.672 172.5 267H169.5C169.5 270.328 172.172 273 175.5 273V270ZM174 271.5V281H177V271.5H174ZM195.5 302.5H305.5V299.5H195.5V302.5ZM314 311V325H317V311H314ZM305.5 302.5C310.194 302.5 314 306.306 314 311H317C317 304.649 311.851 299.5 305.5 299.5V302.5ZM174 281C174 292.874 183.626 302.5 195.5 302.5V299.5C185.283 299.5 177 291.217 177 281H174Z" fill="white" fill-opacity="0.1"/>
<rect x="78" y="116" width="199" height="105" rx="3" fill="white" fill-opacity="0.05"/>
<path d="M96.4948 39.1438C96.5522 38.9637 96.5363 38.7683 96.4506 38.5999C96.3649 38.4314 96.2164 38.3035 96.0371 38.2438C95.8578 38.1841 95.6622 38.1973 95.4927 38.2808C95.3231 38.3642 95.1932 38.511 95.1311 38.6895L94.4124 40.8448C94.355 41.0249 94.3709 41.2203 94.4566 41.3887C94.5422 41.5572 94.6908 41.6851 94.8701 41.7448C95.0494 41.8045 95.245 41.7913 95.4145 41.7078C95.5841 41.6244 95.714 41.4776 95.7761 41.2991L96.4948 39.1438ZM100.872 39.1275C101.007 39.2623 101.083 39.4449 101.083 39.6354C101.083 39.8259 101.007 40.0086 100.872 40.1433L98.4767 42.5392C98.4109 42.6098 98.3315 42.6664 98.2433 42.7057C98.1552 42.745 98.06 42.7661 97.9635 42.7678C97.867 42.7695 97.7711 42.7518 97.6816 42.7156C97.5921 42.6795 97.5108 42.6257 97.4426 42.5574C97.3743 42.4891 97.3205 42.4079 97.2844 42.3184C97.2482 42.2289 97.2305 42.133 97.2322 42.0365C97.2339 41.94 97.255 41.8448 97.2943 41.7566C97.3336 41.6685 97.3902 41.5891 97.4608 41.5233L99.8567 39.1275C99.9914 38.9929 100.174 38.9173 100.365 38.9173C100.555 38.9173 100.738 38.9929 100.872 39.1275ZM92.3337 40.5842C92.0865 40.3193 91.7785 40.1188 91.4363 39.9999C91.0941 39.881 90.7281 39.8473 90.3699 39.9018C90.0118 39.9562 89.6723 40.0972 89.381 40.3125C89.0896 40.5277 88.8551 40.8108 88.6978 41.1371L83.0456 52.87C82.8868 53.2 82.8371 53.5719 82.9038 53.932C82.9705 54.2921 83.15 54.6217 83.4164 54.8729L84.7955 56.1743C85.0427 56.4074 85.3531 56.5622 85.688 56.6195C86.0228 56.6768 86.3671 56.6339 86.6777 56.4963L88.0356 55.8945C88.4546 56.8128 89.2188 57.5287 90.1624 57.887C91.106 58.2453 92.1528 58.2169 93.0757 57.8081C93.9985 57.3993 94.7229 56.643 95.0916 55.7035C95.4602 54.7639 95.4434 53.7168 95.0449 52.7895L98.3224 51.3367C98.6472 51.1927 98.933 50.9732 99.1557 50.6964C99.3785 50.4195 99.5318 50.0934 99.6029 49.7453C99.674 49.3972 99.6608 49.0371 99.5644 48.6951C99.468 48.3531 99.2912 48.0391 99.0488 47.7793L92.3337 40.5851V40.5842ZM93.73 53.3702C93.9628 53.9466 93.9623 54.5909 93.7289 55.167C93.4954 55.7432 93.0472 56.206 92.4788 56.4577C91.9105 56.7095 91.2665 56.7305 90.683 56.5163C90.0994 56.3022 89.6219 55.8696 89.3514 55.3099L93.73 53.3702ZM98.2083 44.9053C98.2083 44.7147 98.284 44.5318 98.4188 44.397C98.5536 44.2623 98.7364 44.1865 98.9271 44.1865H100.844C101.034 44.1865 101.217 44.2623 101.352 44.397C101.487 44.5318 101.562 44.7147 101.562 44.9053C101.562 45.0959 101.487 45.2787 101.352 45.4135C101.217 45.5483 101.034 45.624 100.844 45.624H98.9271C98.7364 45.624 98.5536 45.5483 98.4188 45.4135C98.284 45.2787 98.2083 45.0959 98.2083 44.9053Z" fill="white"/>
<rect width="161" height="8" rx="4" transform="matrix(-1 0 0 1 254 135)" fill="white" fill-opacity="0.05"/>
<rect width="110" height="8" rx="4" transform="matrix(-1 0 0 1 203 151)" fill="white" fill-opacity="0.05"/>
<rect width="80" height="8" rx="4" transform="matrix(-1 0 0 1 173 167)" fill="white" fill-opacity="0.05"/>
<rect width="40" height="8" rx="4" transform="matrix(-1 0 0 1 133 183)" fill="white" fill-opacity="0.05"/>
<circle cx="40" cy="365" r="4" fill="white" fill-opacity="0.3"/>
<circle cx="176" cy="365" r="4" fill="white" fill-opacity="0.3"/>
<circle cx="316" cy="365" r="4" fill="white" fill-opacity="0.3"/>
<defs>
<filter id="filter0_b_1605_26" x="-16" y="-74" width="387" height="415" filterUnits="userSpaceOnUse" color-interpolation-filters="sRGB">
<feFlood flood-opacity="0" result="BackgroundImageFix"/>
<feGaussianBlur in="BackgroundImage" stdDeviation="37"/>
<feComposite in2="SourceAlpha" operator="in" result="effect1_backgroundBlur_1605_26"/>
<feBlend mode="normal" in="SourceGraphic" in2="effect1_backgroundBlur_1605_26" result="shape"/>
</filter>
<filter id="filter1_b_1605_26" x="-74" y="251" width="228" height="228" filterUnits="userSpaceOnUse" color-interpolation-filters="sRGB">
<feFlood flood-opacity="0" result="BackgroundImageFix"/>
<feGaussianBlur in="BackgroundImage" stdDeviation="37"/>
<feComposite in2="SourceAlpha" operator="in" result="effect1_backgroundBlur_1605_26"/>
<feBlend mode="normal" in="SourceGraphic" in2="effect1_backgroundBlur_1605_26" result="shape"/>
</filter>
<filter id="filter2_b_1605_26" x="62" y="251" width="228" height="228" filterUnits="userSpaceOnUse" color-interpolation-filters="sRGB">
<feFlood flood-opacity="0" result="BackgroundImageFix"/>
<feGaussianBlur in="BackgroundImage" stdDeviation="37"/>
<feComposite in2="SourceAlpha" operator="in" result="effect1_backgroundBlur_1605_26"/>
<feBlend mode="normal" in="SourceGraphic" in2="effect1_backgroundBlur_1605_26" result="shape"/>
</filter>
<filter id="filter3_b_1605_26" x="202" y="251" width="228" height="228" filterUnits="userSpaceOnUse" color-interpolation-filters="sRGB">
<feFlood flood-opacity="0" result="BackgroundImageFix"/>
<feGaussianBlur in="BackgroundImage" stdDeviation="37"/>
<feComposite in2="SourceAlpha" operator="in" result="effect1_backgroundBlur_1605_26"/>
<feBlend mode="normal" in="SourceGraphic" in2="effect1_backgroundBlur_1605_26" result="shape"/>
</filter>
</defs>
</svg>
