<svg width="48" height="48" viewBox="0 0 48 48" fill="none" xmlns="http://www.w3.org/2000/svg">
<path d="M34.424 4.47394C34.5437 4.09816 34.5105 3.69036 34.3317 3.33882C34.153 2.98729 33.8429 2.72031 33.4688 2.59568C33.0946 2.47104 32.6864 2.49878 32.3325 2.67288C31.9787 2.84699 31.7076 3.15346 31.578 3.52594L30.078 8.02394C29.9583 8.39973 29.9915 8.80753 30.1703 9.15906C30.349 9.5106 30.6591 9.77758 31.0332 9.90221C31.4074 10.0268 31.8156 9.99911 32.1695 9.825C32.5234 9.6509 32.7944 9.34443 32.924 8.97194L34.424 4.47394ZM43.56 4.43994C43.8409 4.72119 43.9987 5.10244 43.9987 5.49994C43.9987 5.89745 43.8409 6.27869 43.56 6.55994L38.56 11.5599C38.4227 11.7073 38.2571 11.8255 38.0731 11.9075C37.8891 11.9895 37.6905 12.0336 37.489 12.0371C37.2876 12.0407 37.0876 12.0036 36.9008 11.9282C36.714 11.8527 36.5444 11.7405 36.4019 11.598C36.2595 11.4556 36.1472 11.2859 36.0718 11.0991C35.9963 10.9124 35.9593 10.7123 35.9628 10.5109C35.9664 10.3095 36.0105 10.1109 36.0924 9.92687C36.1744 9.74287 36.2926 9.57727 36.44 9.43994L41.44 4.43994C41.7213 4.15904 42.1025 4.00126 42.5 4.00126C42.8975 4.00126 43.2788 4.15904 43.56 4.43994ZM25.74 7.47994C25.2241 6.92728 24.5813 6.50874 23.8671 6.26059C23.153 6.01243 22.3891 5.94214 21.6417 6.05581C20.8942 6.16948 20.1858 6.46369 19.5777 6.91293C18.9696 7.36217 18.4803 7.9529 18.152 8.63394L6.356 33.1199C6.02461 33.8086 5.921 34.5849 6.06015 35.3364C6.1993 36.0879 6.574 36.7756 7.13 37.2999L10.008 40.0159C10.5238 40.5023 11.1718 40.8255 11.8705 40.945C12.5693 41.0646 13.2878 40.9751 13.936 40.6879L16.77 39.4319C17.6444 41.3483 19.2393 42.8425 21.2085 43.5902C23.1778 44.3379 25.3625 44.2788 27.2884 43.4256C29.2143 42.5725 30.7261 40.9941 31.4955 39.0333C32.2649 37.0724 32.2298 34.8872 31.398 32.9519L38.238 29.9199C38.916 29.6196 39.5123 29.1614 39.9772 28.5837C40.4421 28.0059 40.762 27.3254 40.9104 26.5989C41.0588 25.8723 41.0312 25.1208 40.83 24.4071C40.6289 23.6934 40.2599 23.0381 39.754 22.4959L25.74 7.48194V7.47994ZM28.654 34.1639C29.1397 35.3669 29.1388 36.7115 28.6516 37.9138C28.1643 39.1161 27.2289 40.082 26.0428 40.6074C24.8566 41.1328 23.5127 41.1767 22.2949 40.7297C21.077 40.2827 20.0806 39.3799 19.516 38.2119L28.654 34.1639ZM38 16.4979C38 16.1001 38.158 15.7186 38.4393 15.4373C38.7206 15.156 39.1022 14.9979 39.5 14.9979H43.5C43.8978 14.9979 44.2794 15.156 44.5607 15.4373C44.842 15.7186 45 16.1001 45 16.4979C45 16.8958 44.842 17.2773 44.5607 17.5586C44.2794 17.8399 43.8978 17.9979 43.5 17.9979H39.5C39.1022 17.9979 38.7206 17.8399 38.4393 17.5586C38.158 17.2773 38 16.8958 38 16.4979Z" fill="white"/>
</svg>
