<svg width="712" height="571" viewBox="0 0 712 571" fill="none" xmlns="http://www.w3.org/2000/svg">
<path d="M0 0H704C708.418 0 712 3.58172 712 8V571H0V0Z" fill="white"/>
<path fill-rule="evenodd" clip-rule="evenodd" d="M232.595 250C229.844 250 228.544 253.393 230.59 255.232L245.661 268.774C246.257 269.309 246.555 269.577 246.768 269.899C246.948 270.173 247.083 270.474 247.166 270.791C247.263 271.165 247.263 271.565 247.263 272.366V291.166C247.263 292.176 247.771 293.118 248.614 293.673L265.707 304.918C267.702 306.23 270.356 304.8 270.356 302.412V275.957C270.356 274.248 270.356 273.394 270.694 272.744C270.978 272.196 271.425 271.749 271.973 271.464C272.623 271.127 273.477 271.127 275.186 271.127H287.604C289.261 271.127 290.604 269.784 290.604 268.127V253C290.604 251.343 289.261 250 287.604 250H232.595Z" fill="black"/>
<path d="M223 259.124C223 256.538 226.054 255.164 227.99 256.879L238.704 266.376C240.77 268.207 239.474 271.621 236.714 271.621H226C224.343 271.621 223 270.278 223 268.621V259.124Z" fill="black"/>
<circle cx="286.115" cy="301.586" r="4.4225" fill="#FF9F1C"/>
<path d="M309.656 282.064C311.672 278.928 315.219 277.36 320.296 277.36V284.024C319.699 283.912 319.157 283.856 318.672 283.856C315.947 283.856 313.819 284.659 312.288 286.264C310.757 287.832 309.992 290.109 309.992 293.096V307.6H302.992V277.696H309.656V282.064ZM337.494 277.36C341.899 277.36 345.259 278.424 347.574 280.552C349.926 282.643 351.102 285.816 351.102 290.072V307.6H344.494V303.96C343.635 305.267 342.403 306.275 340.798 306.984C339.23 307.656 337.326 307.992 335.086 307.992C332.846 307.992 330.886 307.619 329.206 306.872C327.526 306.088 326.219 305.024 325.286 303.68C324.39 302.299 323.942 300.749 323.942 299.032C323.942 296.344 324.931 294.197 326.91 292.592C328.926 290.949 332.081 290.128 336.374 290.128H344.102V289.68C344.102 287.589 343.467 285.984 342.198 284.864C340.966 283.744 339.118 283.184 336.654 283.184C334.974 283.184 333.313 283.445 331.67 283.968C330.065 284.491 328.702 285.219 327.582 286.152L324.838 281.056C326.406 279.861 328.291 278.947 330.494 278.312C332.697 277.677 335.03 277.36 337.494 277.36ZM336.542 302.896C338.297 302.896 339.846 302.504 341.19 301.72C342.571 300.899 343.542 299.741 344.102 298.248V294.776H336.878C332.846 294.776 330.83 296.101 330.83 298.752C330.83 300.021 331.334 301.029 332.342 301.776C333.35 302.523 334.75 302.896 336.542 302.896ZM389.647 266.048V307.6H382.927V303.736C381.77 305.155 380.332 306.219 378.615 306.928C376.935 307.637 375.068 307.992 373.015 307.992C370.14 307.992 367.546 307.357 365.231 306.088C362.954 304.819 361.162 303.027 359.855 300.712C358.548 298.36 357.895 295.672 357.895 292.648C357.895 289.624 358.548 286.955 359.855 284.64C361.162 282.325 362.954 280.533 365.231 279.264C367.546 277.995 370.14 277.36 373.015 277.36C374.994 277.36 376.804 277.696 378.447 278.368C380.09 279.04 381.49 280.048 382.647 281.392V266.048H389.647ZM373.855 302C375.535 302 377.047 301.627 378.391 300.88C379.735 300.096 380.799 298.995 381.583 297.576C382.367 296.157 382.759 294.515 382.759 292.648C382.759 290.781 382.367 289.139 381.583 287.72C380.799 286.301 379.735 285.219 378.391 284.472C377.047 283.688 375.535 283.296 373.855 283.296C372.175 283.296 370.663 283.688 369.319 284.472C367.975 285.219 366.911 286.301 366.127 287.72C365.343 289.139 364.951 290.781 364.951 292.648C364.951 294.515 365.343 296.157 366.127 297.576C366.911 298.995 367.975 300.096 369.319 300.88C370.663 301.627 372.175 302 373.855 302ZM426.916 292.816C426.916 293.301 426.879 293.992 426.804 294.888H403.34C403.751 297.091 404.815 298.845 406.532 300.152C408.287 301.421 410.452 302.056 413.028 302.056C416.314 302.056 419.02 300.973 421.148 298.808L424.9 303.12C423.556 304.725 421.858 305.939 419.804 306.76C417.751 307.581 415.436 307.992 412.86 307.992C409.575 307.992 406.682 307.339 404.18 306.032C401.679 304.725 399.738 302.915 398.356 300.6C397.012 298.248 396.34 295.597 396.34 292.648C396.34 289.736 396.994 287.123 398.3 284.808C399.644 282.456 401.492 280.627 403.844 279.32C406.196 278.013 408.847 277.36 411.796 277.36C414.708 277.36 417.303 278.013 419.58 279.32C421.895 280.589 423.687 282.4 424.956 284.752C426.263 287.067 426.916 289.755 426.916 292.816ZM411.796 282.96C409.556 282.96 407.652 283.632 406.084 284.976C404.554 286.283 403.62 288.037 403.284 290.24H420.252C419.954 288.075 419.039 286.32 417.508 284.976C415.978 283.632 414.074 282.96 411.796 282.96ZM432.675 289.12H448.075V294.944H432.675V289.12ZM480.008 307.6L469.368 292.704L458.84 307.6H450.552L465.112 287.608L451.336 268.4H459.568L469.592 282.344L479.504 268.4H487.4L473.68 287.328L488.408 307.6H480.008Z" fill="black"/>
</svg>
