<svg width="1366" height="114" viewBox="0 0 1366 114" fill="none" xmlns="http://www.w3.org/2000/svg">
<rect width="1366" height="114" rx="3" fill="white" fill-opacity="0.05"/>
<rect x="208" y="30" width="55" height="55" rx="3" fill="white" fill-opacity="0.05"/>
<path d="M230.5 59.375C230.5 59.375 231.125 58.75 233 58.75C234.875 58.75 236.125 60 238 60C239.875 60 240.5 59.375 240.5 59.375V51.875C240.5 51.875 239.875 52.5 238 52.5C236.125 52.5 234.875 51.25 233 51.25C231.125 51.25 230.5 51.875 230.5 51.875V59.375Z" stroke="white" stroke-width="2" stroke-linecap="round" stroke-linejoin="round"/>
<path d="M230.5 63.75V59.375" stroke="white" stroke-width="2" stroke-linecap="round" stroke-linejoin="round"/>
<rect x="1009" y="30" width="55" height="55" rx="3" fill="white" fill-opacity="0.05"/>
<g clip-path="url(#clip0_1468_495)">
<path d="M1036.5 50.625V64.375" stroke="white" stroke-width="2" stroke-linecap="round" stroke-linejoin="round"/>
<path d="M1039.62 53.125H1034.94C1034.36 53.125 1033.8 53.3555 1033.39 53.7657C1032.98 54.1759 1032.75 54.7323 1032.75 55.3125C1032.75 55.8927 1032.98 56.4491 1033.39 56.8593C1033.8 57.2695 1034.36 57.5 1034.94 57.5H1038.06C1038.64 57.5 1039.2 57.7305 1039.61 58.1407C1040.02 58.5509 1040.25 59.1073 1040.25 59.6875C1040.25 60.2677 1040.02 60.8241 1039.61 61.2343C1039.2 61.6445 1038.64 61.875 1038.06 61.875H1032.75" stroke="white" stroke-width="2" stroke-linecap="round" stroke-linejoin="round"/>
</g>
<path d="M288.52 39.152V49.232C288.52 50.24 288.768 51.016 289.264 51.56C289.76 52.104 290.488 52.376 291.448 52.376C292.408 52.376 293.144 52.104 293.656 51.56C294.168 51.016 294.424 50.24 294.424 49.232V39.152H298.528V49.208C298.528 50.712 298.208 51.984 297.568 53.024C296.928 54.064 296.064 54.848 294.976 55.376C293.904 55.904 292.704 56.168 291.376 56.168C290.048 56.168 288.856 55.912 287.8 55.4C286.76 54.872 285.936 54.088 285.328 53.048C284.72 51.992 284.416 50.712 284.416 49.208V39.152H288.52ZM307.506 56.168C306.274 56.168 305.17 55.968 304.194 55.568C303.218 55.168 302.434 54.576 301.842 53.792C301.266 53.008 300.962 52.064 300.93 50.96H305.298C305.362 51.584 305.578 52.064 305.946 52.4C306.314 52.72 306.794 52.88 307.386 52.88C307.994 52.88 308.474 52.744 308.826 52.472C309.178 52.184 309.354 51.792 309.354 51.296C309.354 50.88 309.21 50.536 308.922 50.264C308.65 49.992 308.306 49.768 307.89 49.592C307.49 49.416 306.914 49.216 306.162 48.992C305.074 48.656 304.186 48.32 303.498 47.984C302.81 47.648 302.218 47.152 301.722 46.496C301.226 45.84 300.978 44.984 300.978 43.928C300.978 42.36 301.546 41.136 302.682 40.256C303.818 39.36 305.298 38.912 307.122 38.912C308.978 38.912 310.474 39.36 311.61 40.256C312.746 41.136 313.354 42.368 313.434 43.952H308.994C308.962 43.408 308.762 42.984 308.394 42.68C308.026 42.36 307.554 42.2 306.978 42.2C306.482 42.2 306.082 42.336 305.778 42.608C305.474 42.864 305.322 43.24 305.322 43.736C305.322 44.28 305.578 44.704 306.09 45.008C306.602 45.312 307.402 45.64 308.49 45.992C309.578 46.36 310.458 46.712 311.13 47.048C311.818 47.384 312.41 47.872 312.906 48.512C313.402 49.152 313.65 49.976 313.65 50.984C313.65 51.944 313.402 52.816 312.906 53.6C312.426 54.384 311.722 55.008 310.794 55.472C309.866 55.936 308.77 56.168 307.506 56.168ZM326.664 53.024H320.376L319.368 56H315.072L321.168 39.152H325.92L332.016 56H327.672L326.664 53.024ZM325.608 49.856L323.52 43.688L321.456 49.856H325.608Z" fill="white"/>
<path d="M292.45 81H290.336V76.688H286.374V81H284.26V71.004H286.374V74.924H290.336V71.004H292.45V81ZM305.437 75.988C305.437 76.7347 305.348 77.416 305.171 78.032C304.994 78.648 304.723 79.1847 304.359 79.642C303.995 80.09 303.533 80.44 302.973 80.692L305.381 83.38H302.665L300.831 81.14C300.803 81.14 300.775 81.14 300.747 81.14C300.728 81.14 300.705 81.14 300.677 81.14C299.865 81.14 299.156 81.0187 298.549 80.776C297.952 80.524 297.457 80.174 297.065 79.726C296.682 79.2687 296.393 78.7227 296.197 78.088C296.01 77.4533 295.917 76.7487 295.917 75.974C295.917 74.938 296.085 74.0373 296.421 73.272C296.766 72.5067 297.289 71.914 297.989 71.494C298.698 71.0647 299.599 70.85 300.691 70.85C301.774 70.85 302.665 71.0647 303.365 71.494C304.065 71.914 304.583 72.5113 304.919 73.286C305.264 74.0513 305.437 74.952 305.437 75.988ZM298.143 75.988C298.143 76.688 298.232 77.29 298.409 77.794C298.586 78.298 298.862 78.6853 299.235 78.956C299.608 79.2267 300.089 79.362 300.677 79.362C301.284 79.362 301.769 79.2267 302.133 78.956C302.506 78.6853 302.777 78.298 302.945 77.794C303.122 77.29 303.211 76.688 303.211 75.988C303.211 74.9333 303.015 74.1073 302.623 73.51C302.231 72.9127 301.587 72.614 300.691 72.614C300.094 72.614 299.608 72.7493 299.235 73.02C298.862 73.2907 298.586 73.678 298.409 74.182C298.232 74.686 298.143 75.288 298.143 75.988ZM310.49 77.682H308.824L308.474 71.004H310.84L310.49 77.682ZM308.446 80.02C308.446 79.5907 308.562 79.292 308.796 79.124C309.029 78.9467 309.314 78.858 309.65 78.858C309.976 78.858 310.256 78.9467 310.49 79.124C310.723 79.292 310.84 79.5907 310.84 80.02C310.84 80.4307 310.723 80.7293 310.49 80.916C310.256 81.0933 309.976 81.182 309.65 81.182C309.314 81.182 309.029 81.0933 308.796 80.916C308.562 80.7293 308.446 80.4307 308.446 80.02Z" fill="white" fill-opacity="0.6"/>
<rect x="602" y="30" width="55" height="55" rx="3" fill="white" fill-opacity="0.05"/>
<path d="M634.5 63.125V61.875C634.5 61.212 634.237 60.5761 633.768 60.1072C633.299 59.6384 632.663 59.375 632 59.375H627C626.337 59.375 625.701 59.6384 625.232 60.1072C624.763 60.5761 624.5 61.212 624.5 61.875V63.125" stroke="white" stroke-width="2" stroke-linecap="round" stroke-linejoin="round"/>
<path d="M629.5 56.875C630.881 56.875 632 55.7557 632 54.375C632 52.9943 630.881 51.875 629.5 51.875C628.119 51.875 627 52.9943 627 54.375C627 55.7557 628.119 56.875 629.5 56.875Z" stroke="white" stroke-width="2" stroke-linecap="round" stroke-linejoin="round"/>
<path d="M677.648 42.296V38.48H684.296V56H680.024V42.296H677.648ZM699.439 42.056H691.951V45.368C692.271 45.016 692.719 44.728 693.295 44.504C693.871 44.28 694.495 44.168 695.167 44.168C696.367 44.168 697.359 44.44 698.143 44.984C698.943 45.528 699.527 46.232 699.895 47.096C700.263 47.96 700.447 48.896 700.447 49.904C700.447 51.776 699.919 53.264 698.863 54.368C697.807 55.456 696.319 56 694.399 56C693.119 56 692.007 55.784 691.063 55.352C690.119 54.904 689.391 54.288 688.879 53.504C688.367 52.72 688.087 51.816 688.039 50.792H692.047C692.143 51.288 692.375 51.704 692.743 52.04C693.111 52.36 693.615 52.52 694.255 52.52C695.007 52.52 695.567 52.28 695.935 51.8C696.303 51.32 696.487 50.68 696.487 49.88C696.487 49.096 696.295 48.496 695.911 48.08C695.527 47.664 694.967 47.456 694.231 47.456C693.687 47.456 693.239 47.592 692.887 47.864C692.535 48.12 692.303 48.464 692.191 48.896H688.231V38.456H699.439V42.056ZM702.713 47C702.713 44.248 703.241 42.08 704.297 40.496C705.369 38.912 707.089 38.12 709.457 38.12C711.825 38.12 713.537 38.912 714.593 40.496C715.665 42.08 716.201 44.248 716.201 47C716.201 49.784 715.665 51.968 714.593 53.552C713.537 55.136 711.825 55.928 709.457 55.928C707.089 55.928 705.369 55.136 704.297 53.552C703.241 51.968 702.713 49.784 702.713 47ZM712.169 47C712.169 45.384 711.993 44.144 711.641 43.28C711.289 42.4 710.561 41.96 709.457 41.96C708.353 41.96 707.625 42.4 707.273 43.28C706.921 44.144 706.745 45.384 706.745 47C706.745 48.088 706.809 48.992 706.937 49.712C707.065 50.416 707.321 50.992 707.705 51.44C708.105 51.872 708.689 52.088 709.457 52.088C710.225 52.088 710.801 51.872 711.185 51.44C711.585 50.992 711.849 50.416 711.977 49.712C712.105 48.992 712.169 48.088 712.169 47Z" fill="white"/>
<path d="M682.11 81H679.996V72.768H677.28V71.004H684.826V72.768H682.11V81ZM689.614 73.202C690.641 73.202 691.425 73.426 691.966 73.874C692.517 74.3127 692.792 74.9893 692.792 75.904V81H691.336L690.93 79.964H690.874C690.66 80.2347 690.436 80.4587 690.202 80.636C689.978 80.8133 689.717 80.9393 689.418 81.014C689.129 81.098 688.77 81.14 688.34 81.14C687.892 81.14 687.486 81.056 687.122 80.888C686.768 80.7107 686.488 80.4447 686.282 80.09C686.077 79.726 685.974 79.2687 685.974 78.718C685.974 77.906 686.259 77.3087 686.828 76.926C687.398 76.534 688.252 76.3193 689.39 76.282L690.72 76.24V75.904C690.72 75.5027 690.613 75.2087 690.398 75.022C690.193 74.8353 689.904 74.742 689.53 74.742C689.157 74.742 688.793 74.798 688.438 74.91C688.084 75.0127 687.729 75.1433 687.374 75.302L686.688 73.888C687.099 73.6733 687.552 73.5053 688.046 73.384C688.55 73.2627 689.073 73.202 689.614 73.202ZM689.908 77.486C689.236 77.5047 688.77 77.626 688.508 77.85C688.247 78.074 688.116 78.368 688.116 78.732C688.116 79.0493 688.21 79.278 688.396 79.418C688.583 79.5487 688.826 79.614 689.124 79.614C689.572 79.614 689.95 79.4833 690.258 79.222C690.566 78.9513 690.72 78.5733 690.72 78.088V77.458L689.908 77.486ZM700.598 73.216C700.7 73.216 700.822 73.2207 700.962 73.23C701.102 73.2393 701.214 73.2533 701.298 73.272L701.144 75.232C701.078 75.2133 700.98 75.1993 700.85 75.19C700.728 75.1713 700.621 75.162 700.528 75.162C700.257 75.162 699.996 75.1993 699.744 75.274C699.492 75.3393 699.263 75.4467 699.058 75.596C698.862 75.7453 698.703 75.946 698.582 76.198C698.47 76.4407 698.414 76.744 698.414 77.108V81H696.328V73.356H697.91L698.218 74.644H698.316C698.465 74.3827 698.652 74.1447 698.876 73.93C699.1 73.7153 699.356 73.5427 699.646 73.412C699.944 73.2813 700.262 73.216 700.598 73.216ZM706.426 73.216C706.893 73.216 707.313 73.3093 707.686 73.496C708.06 73.6827 708.377 73.9627 708.638 74.336H708.694L708.862 73.356H710.626V81.014C710.626 81.742 710.482 82.3533 710.192 82.848C709.912 83.3427 709.488 83.716 708.918 83.968C708.349 84.2293 707.644 84.36 706.804 84.36C706.263 84.36 705.759 84.3273 705.292 84.262C704.835 84.1967 704.387 84.08 703.948 83.912V82.246C704.266 82.3767 704.583 82.484 704.9 82.568C705.227 82.6613 705.558 82.7267 705.894 82.764C706.24 82.8107 706.585 82.834 706.93 82.834C707.472 82.834 707.873 82.6893 708.134 82.4C708.405 82.1107 708.54 81.6767 708.54 81.098V80.944C708.54 80.7853 708.545 80.622 708.554 80.454C708.573 80.286 708.587 80.1367 708.596 80.006H708.54C708.279 80.4073 707.966 80.6967 707.602 80.874C707.238 81.0513 706.828 81.14 706.37 81.14C705.465 81.14 704.756 80.7947 704.242 80.104C703.738 79.404 703.486 78.4333 703.486 77.192C703.486 76.352 703.603 75.638 703.836 75.05C704.07 74.4527 704.406 74 704.844 73.692C705.292 73.3747 705.82 73.216 706.426 73.216ZM707.084 74.91C706.758 74.91 706.482 74.9987 706.258 75.176C706.044 75.344 705.88 75.6007 705.768 75.946C705.666 76.282 705.614 76.7067 705.614 77.22C705.614 77.9853 705.736 78.5593 705.978 78.942C706.221 79.3153 706.599 79.502 707.112 79.502C707.383 79.502 707.616 79.4693 707.812 79.404C708.008 79.3293 708.167 79.2127 708.288 79.054C708.419 78.886 708.517 78.6713 708.582 78.41C708.648 78.1487 708.68 77.8313 708.68 77.458V77.206C708.68 76.6553 708.624 76.212 708.512 75.876C708.4 75.54 708.228 75.2973 707.994 75.148C707.761 74.9893 707.458 74.91 707.084 74.91ZM717.358 73.216C718.067 73.216 718.674 73.3513 719.178 73.622C719.691 73.8927 720.088 74.2847 720.368 74.798C720.648 75.3113 720.788 75.9413 720.788 76.688V77.696H715.86C715.878 78.284 716.051 78.746 716.378 79.082C716.714 79.418 717.176 79.586 717.764 79.586C718.258 79.586 718.706 79.5393 719.108 79.446C719.509 79.3433 719.924 79.1893 720.354 78.984V80.594C719.98 80.7807 719.584 80.916 719.164 81C718.753 81.0933 718.254 81.14 717.666 81.14C716.9 81.14 716.224 81 715.636 80.72C715.048 80.4307 714.586 79.9967 714.25 79.418C713.914 78.8393 713.746 78.1113 713.746 77.234C713.746 76.338 713.895 75.596 714.194 75.008C714.502 74.4107 714.926 73.9627 715.468 73.664C716.009 73.3653 716.639 73.216 717.358 73.216ZM717.372 74.7C716.97 74.7 716.634 74.8307 716.364 75.092C716.102 75.3533 715.948 75.7593 715.902 76.31H718.828C718.828 76.002 718.772 75.7267 718.66 75.484C718.557 75.2413 718.398 75.05 718.184 74.91C717.969 74.77 717.698 74.7 717.372 74.7ZM727.099 79.474C727.332 79.474 727.556 79.4507 727.771 79.404C727.986 79.3573 728.2 79.3013 728.415 79.236V80.79C728.191 80.8833 727.911 80.9627 727.575 81.028C727.248 81.1027 726.889 81.14 726.497 81.14C726.04 81.14 725.629 81.0653 725.265 80.916C724.91 80.7667 724.626 80.51 724.411 80.146C724.206 79.7727 724.103 79.2593 724.103 78.606V74.924H723.109V74.042L724.257 73.342L724.859 71.732H726.189V73.356H728.331V74.924H726.189V78.606C726.189 78.8953 726.273 79.1147 726.441 79.264C726.609 79.404 726.828 79.474 727.099 79.474ZM740.796 72.628C740.395 72.628 740.035 72.7073 739.718 72.866C739.41 73.0247 739.149 73.2533 738.934 73.552C738.719 73.8413 738.556 74.196 738.444 74.616C738.341 75.036 738.29 75.5073 738.29 76.03C738.29 76.7393 738.374 77.346 738.542 77.85C738.719 78.3447 738.995 78.7227 739.368 78.984C739.741 79.2453 740.217 79.376 740.796 79.376C741.207 79.376 741.613 79.3293 742.014 79.236C742.425 79.1427 742.868 79.012 743.344 78.844V80.622C742.905 80.7993 742.471 80.93 742.042 81.014C741.613 81.098 741.132 81.14 740.6 81.14C739.573 81.14 738.724 80.93 738.052 80.51C737.389 80.0807 736.899 79.4833 736.582 78.718C736.265 77.9433 736.106 77.0427 736.106 76.016C736.106 75.26 736.209 74.5693 736.414 73.944C736.619 73.3093 736.918 72.7633 737.31 72.306C737.711 71.8487 738.201 71.494 738.78 71.242C739.368 70.99 740.04 70.864 740.796 70.864C741.291 70.864 741.785 70.9293 742.28 71.06C742.784 71.1813 743.265 71.3493 743.722 71.564L743.036 73.286C742.663 73.1087 742.285 72.9547 741.902 72.824C741.529 72.6933 741.16 72.628 740.796 72.628ZM753.714 73.356V81H752.118L751.838 80.02H751.726C751.568 80.2813 751.362 80.496 751.11 80.664C750.868 80.8227 750.597 80.9393 750.298 81.014C750 81.098 749.692 81.14 749.374 81.14C748.833 81.14 748.357 81.042 747.946 80.846C747.536 80.65 747.218 80.3467 746.994 79.936C746.77 79.5253 746.658 78.9933 746.658 78.34V73.356H748.744V77.822C748.744 78.3633 748.842 78.774 749.038 79.054C749.234 79.334 749.547 79.474 749.976 79.474C750.406 79.474 750.737 79.376 750.97 79.18C751.213 78.984 751.381 78.6993 751.474 78.326C751.577 77.9527 751.628 77.4953 751.628 76.954V73.356H753.714ZM762.635 78.732C762.635 79.2453 762.514 79.684 762.271 80.048C762.029 80.4027 761.665 80.6733 761.179 80.86C760.694 81.0467 760.092 81.14 759.373 81.14C758.841 81.14 758.384 81.1027 758.001 81.028C757.619 80.9627 757.236 80.8507 756.853 80.692V78.97C757.264 79.1567 757.707 79.3107 758.183 79.432C758.659 79.5533 759.079 79.614 759.443 79.614C759.854 79.614 760.143 79.5533 760.311 79.432C760.489 79.3107 760.577 79.152 760.577 78.956C760.577 78.8253 760.54 78.7087 760.465 78.606C760.4 78.5033 760.251 78.3867 760.017 78.256C759.784 78.1253 759.42 77.9573 758.925 77.752C758.449 77.5467 758.057 77.346 757.749 77.15C757.441 76.9447 757.213 76.702 757.063 76.422C756.914 76.1327 756.839 75.7733 756.839 75.344C756.839 74.6347 757.115 74.1027 757.665 73.748C758.216 73.3933 758.949 73.216 759.863 73.216C760.339 73.216 760.792 73.2627 761.221 73.356C761.651 73.4493 762.094 73.6033 762.551 73.818L761.921 75.316C761.669 75.204 761.427 75.106 761.193 75.022C760.96 74.938 760.731 74.8727 760.507 74.826C760.293 74.7793 760.069 74.756 759.835 74.756C759.527 74.756 759.294 74.798 759.135 74.882C758.986 74.966 758.911 75.092 758.911 75.26C758.911 75.3813 758.949 75.4933 759.023 75.596C759.107 75.6893 759.261 75.792 759.485 75.904C759.719 76.016 760.059 76.1653 760.507 76.352C760.946 76.5293 761.324 76.716 761.641 76.912C761.959 77.0987 762.201 77.3367 762.369 77.626C762.547 77.906 762.635 78.2747 762.635 78.732ZM768.88 79.474C769.114 79.474 769.338 79.4507 769.552 79.404C769.767 79.3573 769.982 79.3013 770.196 79.236V80.79C769.972 80.8833 769.692 80.9627 769.356 81.028C769.03 81.1027 768.67 81.14 768.278 81.14C767.821 81.14 767.41 81.0653 767.046 80.916C766.692 80.7667 766.407 80.51 766.192 80.146C765.987 79.7727 765.884 79.2593 765.884 78.606V74.924H764.89V74.042L766.038 73.342L766.64 71.732H767.97V73.356H770.112V74.924H767.97V78.606C767.97 78.8953 768.054 79.1147 768.222 79.264C768.39 79.404 768.61 79.474 768.88 79.474ZM780.075 77.164C780.075 77.7987 779.986 78.3633 779.809 78.858C779.641 79.3527 779.393 79.7727 779.067 80.118C778.749 80.454 778.362 80.7107 777.905 80.888C777.447 81.056 776.929 81.14 776.351 81.14C775.819 81.14 775.324 81.056 774.867 80.888C774.419 80.7107 774.031 80.454 773.705 80.118C773.378 79.7727 773.121 79.3527 772.935 78.858C772.757 78.3633 772.669 77.7987 772.669 77.164C772.669 76.3147 772.818 75.6007 773.117 75.022C773.415 74.434 773.845 73.986 774.405 73.678C774.965 73.37 775.627 73.216 776.393 73.216C777.111 73.216 777.746 73.37 778.297 73.678C778.847 73.986 779.281 74.434 779.599 75.022C779.916 75.6007 780.075 76.3147 780.075 77.164ZM774.797 77.164C774.797 77.668 774.848 78.0927 774.951 78.438C775.063 78.774 775.235 79.0307 775.469 79.208C775.702 79.376 776.005 79.46 776.379 79.46C776.752 79.46 777.051 79.376 777.275 79.208C777.508 79.0307 777.676 78.774 777.779 78.438C777.891 78.0927 777.947 77.668 777.947 77.164C777.947 76.66 777.891 76.24 777.779 75.904C777.676 75.568 777.508 75.316 777.275 75.148C777.041 74.98 776.738 74.896 776.365 74.896C775.814 74.896 775.413 75.0873 775.161 75.47C774.918 75.8433 774.797 76.408 774.797 77.164ZM792.173 73.216C793.041 73.216 793.694 73.44 794.133 73.888C794.581 74.3267 794.805 75.036 794.805 76.016V81H792.719V76.534C792.719 75.9833 792.625 75.5727 792.439 75.302C792.252 75.022 791.963 74.882 791.571 74.882C791.02 74.882 790.628 75.078 790.395 75.47C790.161 75.862 790.045 76.4267 790.045 77.164V81H787.959V76.534C787.959 76.17 787.917 75.8667 787.833 75.624C787.749 75.3813 787.623 75.1993 787.455 75.078C787.287 74.9473 787.072 74.882 786.811 74.882C786.428 74.882 786.125 74.98 785.901 75.176C785.677 75.372 785.518 75.6567 785.425 76.03C785.331 76.4033 785.285 76.8607 785.285 77.402V81H783.199V73.356H784.795L785.075 74.336H785.187C785.345 74.0747 785.541 73.8647 785.775 73.706C786.008 73.538 786.265 73.4167 786.545 73.342C786.834 73.258 787.123 73.216 787.413 73.216C787.973 73.216 788.449 73.3093 788.841 73.496C789.233 73.6733 789.531 73.9533 789.737 74.336H789.919C790.152 73.944 790.474 73.6593 790.885 73.482C791.305 73.3047 791.734 73.216 792.173 73.216ZM801.503 73.216C802.212 73.216 802.819 73.3513 803.323 73.622C803.836 73.8927 804.233 74.2847 804.513 74.798C804.793 75.3113 804.933 75.9413 804.933 76.688V77.696H800.005C800.023 78.284 800.196 78.746 800.523 79.082C800.859 79.418 801.321 79.586 801.909 79.586C802.403 79.586 802.851 79.5393 803.253 79.446C803.654 79.3433 804.069 79.1893 804.499 78.984V80.594C804.125 80.7807 803.729 80.916 803.309 81C802.898 81.0933 802.399 81.14 801.811 81.14C801.045 81.14 800.369 81 799.781 80.72C799.193 80.4307 798.731 79.9967 798.395 79.418C798.059 78.8393 797.891 78.1113 797.891 77.234C797.891 76.338 798.04 75.596 798.339 75.008C798.647 74.4107 799.071 73.9627 799.613 73.664C800.154 73.3653 800.784 73.216 801.503 73.216ZM801.517 74.7C801.115 74.7 800.779 74.8307 800.509 75.092C800.247 75.3533 800.093 75.7593 800.047 76.31H802.973C802.973 76.002 802.917 75.7267 802.805 75.484C802.702 75.2413 802.543 75.05 802.329 74.91C802.114 74.77 801.843 74.7 801.517 74.7ZM812.294 73.216C812.397 73.216 812.518 73.2207 812.658 73.23C812.798 73.2393 812.91 73.2533 812.994 73.272L812.84 75.232C812.775 75.2133 812.677 75.1993 812.546 75.19C812.425 75.1713 812.317 75.162 812.224 75.162C811.953 75.162 811.692 75.1993 811.44 75.274C811.188 75.3393 810.959 75.4467 810.754 75.596C810.558 75.7453 810.399 75.946 810.278 76.198C810.166 76.4407 810.11 76.744 810.11 77.108V81H808.024V73.356H809.606L809.914 74.644H810.012C810.161 74.3827 810.348 74.1447 810.572 73.93C810.796 73.7153 811.053 73.5427 811.342 73.412C811.641 73.2813 811.958 73.216 812.294 73.216ZM821.115 78.732C821.115 79.2453 820.994 79.684 820.751 80.048C820.509 80.4027 820.145 80.6733 819.659 80.86C819.174 81.0467 818.572 81.14 817.853 81.14C817.321 81.14 816.864 81.1027 816.481 81.028C816.099 80.9627 815.716 80.8507 815.333 80.692V78.97C815.744 79.1567 816.187 79.3107 816.663 79.432C817.139 79.5533 817.559 79.614 817.923 79.614C818.334 79.614 818.623 79.5533 818.791 79.432C818.969 79.3107 819.057 79.152 819.057 78.956C819.057 78.8253 819.02 78.7087 818.945 78.606C818.88 78.5033 818.731 78.3867 818.497 78.256C818.264 78.1253 817.9 77.9573 817.405 77.752C816.929 77.5467 816.537 77.346 816.229 77.15C815.921 76.9447 815.693 76.702 815.543 76.422C815.394 76.1327 815.319 75.7733 815.319 75.344C815.319 74.6347 815.595 74.1027 816.145 73.748C816.696 73.3933 817.429 73.216 818.343 73.216C818.819 73.216 819.272 73.2627 819.701 73.356C820.131 73.4493 820.574 73.6033 821.031 73.818L820.401 75.316C820.149 75.204 819.907 75.106 819.673 75.022C819.44 74.938 819.211 74.8727 818.987 74.826C818.773 74.7793 818.549 74.756 818.315 74.756C818.007 74.756 817.774 74.798 817.615 74.882C817.466 74.966 817.391 75.092 817.391 75.26C817.391 75.3813 817.429 75.4933 817.503 75.596C817.587 75.6893 817.741 75.792 817.965 75.904C818.199 76.016 818.539 76.1653 818.987 76.352C819.426 76.5293 819.804 76.716 820.121 76.912C820.439 77.0987 820.681 77.3367 820.849 77.626C821.027 77.906 821.115 78.2747 821.115 78.732Z" fill="white" fill-opacity="0.6"/>
<path d="M1096.67 44.48C1096.37 43.92 1095.93 43.496 1095.35 43.208C1094.79 42.904 1094.13 42.752 1093.36 42.752C1092.03 42.752 1090.97 43.192 1090.17 44.072C1089.37 44.936 1088.97 46.096 1088.97 47.552C1088.97 49.104 1089.38 50.32 1090.22 51.2C1091.06 52.064 1092.22 52.496 1093.7 52.496C1094.7 52.496 1095.55 52.24 1096.24 51.728C1096.94 51.216 1097.46 50.48 1097.78 49.52H1092.57V46.496H1101.5V50.312C1101.19 51.336 1100.67 52.288 1099.94 53.168C1099.22 54.048 1098.3 54.76 1097.18 55.304C1096.06 55.848 1094.79 56.12 1093.38 56.12C1091.72 56.12 1090.23 55.76 1088.92 55.04C1087.62 54.304 1086.61 53.288 1085.87 51.992C1085.15 50.696 1084.79 49.216 1084.79 47.552C1084.79 45.888 1085.15 44.408 1085.87 43.112C1086.61 41.8 1087.62 40.784 1088.92 40.064C1090.22 39.328 1091.7 38.96 1093.36 38.96C1095.38 38.96 1097.07 39.448 1098.45 40.424C1099.84 41.4 1100.76 42.752 1101.21 44.48H1096.67ZM1107.87 44.84C1108.35 44.104 1108.95 43.528 1109.67 43.112C1110.39 42.68 1111.19 42.464 1112.07 42.464V46.808H1110.95C1109.92 46.808 1109.15 47.032 1108.64 47.48C1108.13 47.912 1107.87 48.68 1107.87 49.784V56H1103.77V42.608H1107.87V44.84ZM1120.13 56.192C1118.82 56.192 1117.63 55.912 1116.58 55.352C1115.54 54.792 1114.71 53.992 1114.11 52.952C1113.51 51.912 1113.22 50.696 1113.22 49.304C1113.22 47.928 1113.52 46.72 1114.13 45.68C1114.74 44.624 1115.57 43.816 1116.63 43.256C1117.68 42.696 1118.87 42.416 1120.18 42.416C1121.49 42.416 1122.67 42.696 1123.73 43.256C1124.79 43.816 1125.62 44.624 1126.23 45.68C1126.83 46.72 1127.14 47.928 1127.14 49.304C1127.14 50.68 1126.83 51.896 1126.2 52.952C1125.59 53.992 1124.75 54.792 1123.68 55.352C1122.63 55.912 1121.44 56.192 1120.13 56.192ZM1120.13 52.64C1120.91 52.64 1121.58 52.352 1122.12 51.776C1122.68 51.2 1122.96 50.376 1122.96 49.304C1122.96 48.232 1122.69 47.408 1122.15 46.832C1121.62 46.256 1120.96 45.968 1120.18 45.968C1119.38 45.968 1118.71 46.256 1118.19 46.832C1117.66 47.392 1117.39 48.216 1117.39 49.304C1117.39 50.376 1117.65 51.2 1118.16 51.776C1118.69 52.352 1119.35 52.64 1120.13 52.64ZM1148.54 42.608L1144.92 56H1140.38L1138.27 47.312L1136.08 56H1131.57L1127.92 42.608H1132.03L1133.92 52.184L1136.18 42.608H1140.52L1142.8 52.136L1144.68 42.608H1148.54ZM1152.17 41.216C1151.45 41.216 1150.86 41.008 1150.39 40.592C1149.95 40.16 1149.72 39.632 1149.72 39.008C1149.72 38.368 1149.95 37.84 1150.39 37.424C1150.86 36.992 1151.45 36.776 1152.17 36.776C1152.87 36.776 1153.45 36.992 1153.9 37.424C1154.36 37.84 1154.59 38.368 1154.59 39.008C1154.59 39.632 1154.36 40.16 1153.9 40.592C1153.45 41.008 1152.87 41.216 1152.17 41.216ZM1154.21 42.608V56H1150.11V42.608H1154.21ZM1165.34 42.464C1166.91 42.464 1168.16 42.976 1169.09 44C1170.03 45.008 1170.5 46.4 1170.5 48.176V56H1166.42V48.728C1166.42 47.832 1166.19 47.136 1165.73 46.64C1165.26 46.144 1164.64 45.896 1163.86 45.896C1163.07 45.896 1162.45 46.144 1161.98 46.64C1161.52 47.136 1161.29 47.832 1161.29 48.728V56H1157.18V42.608H1161.29V44.384C1161.7 43.792 1162.26 43.328 1162.97 42.992C1163.67 42.64 1164.46 42.464 1165.34 42.464ZM1178.44 42.416C1179.39 42.416 1180.21 42.608 1180.92 42.992C1181.64 43.376 1182.19 43.88 1182.57 44.504V42.608H1186.68V55.976C1186.68 57.208 1186.43 58.32 1185.93 59.312C1185.45 60.32 1184.71 61.12 1183.7 61.712C1182.71 62.304 1181.47 62.6 1179.98 62.6C1178 62.6 1176.39 62.128 1175.16 61.184C1173.92 60.256 1173.22 58.992 1173.04 57.392H1177.1C1177.23 57.904 1177.53 58.304 1178.01 58.592C1178.49 58.896 1179.08 59.048 1179.79 59.048C1180.64 59.048 1181.31 58.8 1181.8 58.304C1182.32 57.824 1182.57 57.048 1182.57 55.976V54.08C1182.17 54.704 1181.62 55.216 1180.92 55.616C1180.21 56 1179.39 56.192 1178.44 56.192C1177.34 56.192 1176.34 55.912 1175.44 55.352C1174.55 54.776 1173.84 53.968 1173.31 52.928C1172.8 51.872 1172.54 50.656 1172.54 49.28C1172.54 47.904 1172.8 46.696 1173.31 45.656C1173.84 44.616 1174.55 43.816 1175.44 43.256C1176.34 42.696 1177.34 42.416 1178.44 42.416ZM1182.57 49.304C1182.57 48.28 1182.28 47.472 1181.71 46.88C1181.15 46.288 1180.46 45.992 1179.64 45.992C1178.83 45.992 1178.13 46.288 1177.56 46.88C1177 47.456 1176.72 48.256 1176.72 49.28C1176.72 50.304 1177 51.12 1177.56 51.728C1178.13 52.32 1178.83 52.616 1179.64 52.616C1180.46 52.616 1181.15 52.32 1181.71 51.728C1182.28 51.136 1182.57 50.328 1182.57 49.304ZM1191.56 56.192C1190.84 56.192 1190.25 55.984 1189.79 55.568C1189.34 55.136 1189.12 54.608 1189.12 53.984C1189.12 53.344 1189.34 52.808 1189.79 52.376C1190.25 51.944 1190.84 51.728 1191.56 51.728C1192.27 51.728 1192.84 51.944 1193.29 52.376C1193.76 52.808 1193.99 53.344 1193.99 53.984C1193.99 54.608 1193.76 55.136 1193.29 55.568C1192.84 55.984 1192.27 56.192 1191.56 56.192ZM1198.34 56.192C1197.62 56.192 1197.03 55.984 1196.56 55.568C1196.11 55.136 1195.89 54.608 1195.89 53.984C1195.89 53.344 1196.11 52.808 1196.56 52.376C1197.03 51.944 1197.62 51.728 1198.34 51.728C1199.04 51.728 1199.62 51.944 1200.07 52.376C1200.53 52.808 1200.76 53.344 1200.76 53.984C1200.76 54.608 1200.53 55.136 1200.07 55.568C1199.62 55.984 1199.04 56.192 1198.34 56.192ZM1205.11 56.192C1204.39 56.192 1203.8 55.984 1203.34 55.568C1202.89 55.136 1202.66 54.608 1202.66 53.984C1202.66 53.344 1202.89 52.808 1203.34 52.376C1203.8 51.944 1204.39 51.728 1205.11 51.728C1205.82 51.728 1206.39 51.944 1206.84 52.376C1207.3 52.808 1207.54 53.344 1207.54 53.984C1207.54 54.608 1207.3 55.136 1206.84 55.568C1206.39 55.984 1205.82 56.192 1205.11 56.192Z" fill="white"/>
<path d="M1093.39 77.472C1093.39 78.1627 1093.24 78.788 1092.93 79.348C1092.63 79.8987 1092.18 80.3373 1091.56 80.664C1090.95 80.9813 1090.18 81.14 1089.25 81.14C1087.92 81.14 1086.92 80.804 1086.23 80.132C1085.54 79.4507 1085.19 78.5547 1085.19 77.444V71.004H1087.3V77.122C1087.3 77.9433 1087.47 78.522 1087.81 78.858C1088.14 79.194 1088.64 79.362 1089.31 79.362C1089.77 79.362 1090.15 79.2827 1090.44 79.124C1090.73 78.9653 1090.94 78.718 1091.07 78.382C1091.21 78.046 1091.28 77.6213 1091.28 77.108V71.004H1093.39V77.472ZM1102.41 78.732C1102.41 79.2453 1102.29 79.684 1102.04 80.048C1101.8 80.4027 1101.44 80.6733 1100.95 80.86C1100.47 81.0467 1099.86 81.14 1099.15 81.14C1098.61 81.14 1098.16 81.1027 1097.77 81.028C1097.39 80.9627 1097.01 80.8507 1096.63 80.692V78.97C1097.04 79.1567 1097.48 79.3107 1097.96 79.432C1098.43 79.5533 1098.85 79.614 1099.22 79.614C1099.63 79.614 1099.92 79.5533 1100.08 79.432C1100.26 79.3107 1100.35 79.152 1100.35 78.956C1100.35 78.8253 1100.31 78.7087 1100.24 78.606C1100.17 78.5033 1100.02 78.3867 1099.79 78.256C1099.56 78.1253 1099.19 77.9573 1098.7 77.752C1098.22 77.5467 1097.83 77.346 1097.52 77.15C1097.21 76.9447 1096.99 76.702 1096.84 76.422C1096.69 76.1327 1096.61 75.7733 1096.61 75.344C1096.61 74.6347 1096.89 74.1027 1097.44 73.748C1097.99 73.3933 1098.72 73.216 1099.64 73.216C1100.11 73.216 1100.56 73.2627 1100.99 73.356C1101.42 73.4493 1101.87 73.6033 1102.32 73.818L1101.69 75.316C1101.44 75.204 1101.2 75.106 1100.97 75.022C1100.73 74.938 1100.5 74.8727 1100.28 74.826C1100.07 74.7793 1099.84 74.756 1099.61 74.756C1099.3 74.756 1099.07 74.798 1098.91 74.882C1098.76 74.966 1098.68 75.092 1098.68 75.26C1098.68 75.3813 1098.72 75.4933 1098.8 75.596C1098.88 75.6893 1099.03 75.792 1099.26 75.904C1099.49 76.016 1099.83 76.1653 1100.28 76.352C1100.72 76.5293 1101.1 76.716 1101.41 76.912C1101.73 77.0987 1101.97 77.3367 1102.14 77.626C1102.32 77.906 1102.41 78.2747 1102.41 78.732ZM1108.58 73.216C1109.29 73.216 1109.9 73.3513 1110.4 73.622C1110.92 73.8927 1111.31 74.2847 1111.59 74.798C1111.87 75.3113 1112.01 75.9413 1112.01 76.688V77.696H1107.09C1107.1 78.284 1107.28 78.746 1107.6 79.082C1107.94 79.418 1108.4 79.586 1108.99 79.586C1109.48 79.586 1109.93 79.5393 1110.33 79.446C1110.73 79.3433 1111.15 79.1893 1111.58 78.984V80.594C1111.21 80.7807 1110.81 80.916 1110.39 81C1109.98 81.0933 1109.48 81.14 1108.89 81.14C1108.13 81.14 1107.45 81 1106.86 80.72C1106.27 80.4307 1105.81 79.9967 1105.48 79.418C1105.14 78.8393 1104.97 78.1113 1104.97 77.234C1104.97 76.338 1105.12 75.596 1105.42 75.008C1105.73 74.4107 1106.15 73.9627 1106.69 73.664C1107.23 73.3653 1107.86 73.216 1108.58 73.216ZM1108.6 74.7C1108.2 74.7 1107.86 74.8307 1107.59 75.092C1107.33 75.3533 1107.17 75.7593 1107.13 76.31H1110.05C1110.05 76.002 1110 75.7267 1109.89 75.484C1109.78 75.2413 1109.62 75.05 1109.41 74.91C1109.19 74.77 1108.92 74.7 1108.6 74.7ZM1119.37 73.216C1119.48 73.216 1119.6 73.2207 1119.74 73.23C1119.88 73.2393 1119.99 73.2533 1120.07 73.272L1119.92 75.232C1119.86 75.2133 1119.76 75.1993 1119.63 75.19C1119.51 75.1713 1119.4 75.162 1119.3 75.162C1119.03 75.162 1118.77 75.1993 1118.52 75.274C1118.27 75.3393 1118.04 75.4467 1117.83 75.596C1117.64 75.7453 1117.48 75.946 1117.36 76.198C1117.25 76.4407 1117.19 76.744 1117.19 77.108V81H1115.1V73.356H1116.69L1116.99 74.644H1117.09C1117.24 74.3827 1117.43 74.1447 1117.65 73.93C1117.88 73.7153 1118.13 73.5427 1118.42 73.412C1118.72 73.2813 1119.04 73.216 1119.37 73.216ZM1128.2 78.732C1128.2 79.2453 1128.07 79.684 1127.83 80.048C1127.59 80.4027 1127.23 80.6733 1126.74 80.86C1126.25 81.0467 1125.65 81.14 1124.93 81.14C1124.4 81.14 1123.94 81.1027 1123.56 81.028C1123.18 80.9627 1122.8 80.8507 1122.41 80.692V78.97C1122.82 79.1567 1123.27 79.3107 1123.74 79.432C1124.22 79.5533 1124.64 79.614 1125 79.614C1125.41 79.614 1125.7 79.5533 1125.87 79.432C1126.05 79.3107 1126.14 79.152 1126.14 78.956C1126.14 78.8253 1126.1 78.7087 1126.03 78.606C1125.96 78.5033 1125.81 78.3867 1125.58 78.256C1125.34 78.1253 1124.98 77.9573 1124.49 77.752C1124.01 77.5467 1123.62 77.346 1123.31 77.15C1123 76.9447 1122.77 76.702 1122.62 76.422C1122.47 76.1327 1122.4 75.7733 1122.4 75.344C1122.4 74.6347 1122.68 74.1027 1123.23 73.748C1123.78 73.3933 1124.51 73.216 1125.42 73.216C1125.9 73.216 1126.35 73.2627 1126.78 73.356C1127.21 73.4493 1127.65 73.6033 1128.11 73.818L1127.48 75.316C1127.23 75.204 1126.99 75.106 1126.75 75.022C1126.52 74.938 1126.29 74.8727 1126.07 74.826C1125.85 74.7793 1125.63 74.756 1125.4 74.756C1125.09 74.756 1124.85 74.798 1124.7 74.882C1124.55 74.966 1124.47 75.092 1124.47 75.26C1124.47 75.3813 1124.51 75.4933 1124.58 75.596C1124.67 75.6893 1124.82 75.792 1125.05 75.904C1125.28 76.016 1125.62 76.1653 1126.07 76.352C1126.51 76.5293 1126.88 76.716 1127.2 76.912C1127.52 77.0987 1127.76 77.3367 1127.93 77.626C1128.11 77.906 1128.2 78.2747 1128.2 78.732ZM1143.2 77.164C1143.2 77.7987 1143.11 78.3633 1142.94 78.858C1142.77 79.3527 1142.52 79.7727 1142.19 80.118C1141.88 80.454 1141.49 80.7107 1141.03 80.888C1140.57 81.056 1140.06 81.14 1139.48 81.14C1138.95 81.14 1138.45 81.056 1137.99 80.888C1137.55 80.7107 1137.16 80.454 1136.83 80.118C1136.5 79.7727 1136.25 79.3527 1136.06 78.858C1135.88 78.3633 1135.8 77.7987 1135.8 77.164C1135.8 76.3147 1135.94 75.6007 1136.24 75.022C1136.54 74.434 1136.97 73.986 1137.53 73.678C1138.09 73.37 1138.75 73.216 1139.52 73.216C1140.24 73.216 1140.87 73.37 1141.42 73.678C1141.97 73.986 1142.41 74.434 1142.73 75.022C1143.04 75.6007 1143.2 76.3147 1143.2 77.164ZM1137.92 77.164C1137.92 77.668 1137.97 78.0927 1138.08 78.438C1138.19 78.774 1138.36 79.0307 1138.6 79.208C1138.83 79.376 1139.13 79.46 1139.51 79.46C1139.88 79.46 1140.18 79.376 1140.4 79.208C1140.63 79.0307 1140.8 78.774 1140.91 78.438C1141.02 78.0927 1141.07 77.668 1141.07 77.164C1141.07 76.66 1141.02 76.24 1140.91 75.904C1140.8 75.568 1140.63 75.316 1140.4 75.148C1140.17 74.98 1139.86 74.896 1139.49 74.896C1138.94 74.896 1138.54 75.0873 1138.29 75.47C1138.04 75.8433 1137.92 76.408 1137.92 77.164ZM1150.67 73.216C1151.49 73.216 1152.14 73.44 1152.64 73.888C1153.13 74.3267 1153.38 75.036 1153.38 76.016V81H1151.3V76.534C1151.3 75.9833 1151.2 75.5727 1151 75.302C1150.81 75.022 1150.49 74.882 1150.06 74.882C1149.43 74.882 1148.99 75.1013 1148.76 75.54C1148.53 75.9693 1148.41 76.59 1148.41 77.402V81H1146.33V73.356H1147.92L1148.2 74.336H1148.31C1148.48 74.0747 1148.69 73.8647 1148.93 73.706C1149.17 73.538 1149.44 73.4167 1149.74 73.342C1150.04 73.258 1150.35 73.216 1150.67 73.216ZM1174.41 71.004L1171.86 81H1169.45L1168.1 75.75C1168.07 75.6473 1168.03 75.4933 1167.98 75.288C1167.95 75.0827 1167.9 74.8587 1167.84 74.616C1167.8 74.3733 1167.75 74.1447 1167.72 73.93C1167.68 73.706 1167.65 73.5333 1167.63 73.412C1167.62 73.5333 1167.6 73.706 1167.55 73.93C1167.51 74.1447 1167.47 74.3733 1167.42 74.616C1167.38 74.8493 1167.33 75.0733 1167.28 75.288C1167.24 75.4933 1167.2 75.652 1167.17 75.764L1165.83 81H1163.42L1160.87 71.004H1162.96L1164.23 76.464C1164.27 76.6227 1164.31 76.8187 1164.36 77.052C1164.4 77.276 1164.45 77.514 1164.5 77.766C1164.54 78.0087 1164.59 78.2467 1164.62 78.48C1164.67 78.7133 1164.7 78.914 1164.72 79.082C1164.74 78.9047 1164.77 78.704 1164.81 78.48C1164.84 78.2467 1164.88 78.0133 1164.93 77.78C1164.98 77.5373 1165.02 77.3133 1165.06 77.108C1165.1 76.8933 1165.15 76.7253 1165.18 76.604L1166.64 71.004H1168.64L1170.1 76.604C1170.13 76.7253 1170.16 76.8933 1170.21 77.108C1170.26 77.3133 1170.3 77.5373 1170.35 77.78C1170.4 78.0227 1170.44 78.2607 1170.48 78.494C1170.51 78.718 1170.54 78.914 1170.56 79.082C1170.59 78.8487 1170.63 78.5733 1170.69 78.256C1170.74 77.9293 1170.8 77.6027 1170.87 77.276C1170.94 76.9493 1171 76.6787 1171.05 76.464L1172.32 71.004H1174.41ZM1179.76 73.202C1180.79 73.202 1181.57 73.426 1182.11 73.874C1182.66 74.3127 1182.94 74.9893 1182.94 75.904V81H1181.48L1181.08 79.964H1181.02C1180.81 80.2347 1180.58 80.4587 1180.35 80.636C1180.13 80.8133 1179.86 80.9393 1179.57 81.014C1179.28 81.098 1178.92 81.14 1178.49 81.14C1178.04 81.14 1177.63 81.056 1177.27 80.888C1176.91 80.7107 1176.63 80.4447 1176.43 80.09C1176.22 79.726 1176.12 79.2687 1176.12 78.718C1176.12 77.906 1176.41 77.3087 1176.98 76.926C1177.54 76.534 1178.4 76.3193 1179.54 76.282L1180.87 76.24V75.904C1180.87 75.5027 1180.76 75.2087 1180.55 75.022C1180.34 74.8353 1180.05 74.742 1179.68 74.742C1179.3 74.742 1178.94 74.798 1178.59 74.91C1178.23 75.0127 1177.88 75.1433 1177.52 75.302L1176.84 73.888C1177.25 73.6733 1177.7 73.5053 1178.19 73.384C1178.7 73.2627 1179.22 73.202 1179.76 73.202ZM1180.06 77.486C1179.38 77.5047 1178.92 77.626 1178.66 77.85C1178.39 78.074 1178.26 78.368 1178.26 78.732C1178.26 79.0493 1178.36 79.278 1178.54 79.418C1178.73 79.5487 1178.97 79.614 1179.27 79.614C1179.72 79.614 1180.1 79.4833 1180.41 79.222C1180.71 78.9513 1180.87 78.5733 1180.87 78.088V77.458L1180.06 77.486ZM1188.56 73.356V81H1186.47V73.356H1188.56ZM1187.52 70.36C1187.83 70.36 1188.1 70.4347 1188.32 70.584C1188.55 70.724 1188.66 70.99 1188.66 71.382C1188.66 71.7647 1188.55 72.0307 1188.32 72.18C1188.1 72.3293 1187.83 72.404 1187.52 72.404C1187.21 72.404 1186.94 72.3293 1186.71 72.18C1186.5 72.0307 1186.39 71.7647 1186.39 71.382C1186.39 70.99 1186.5 70.724 1186.71 70.584C1186.94 70.4347 1187.21 70.36 1187.52 70.36ZM1195.36 79.474C1195.59 79.474 1195.82 79.4507 1196.03 79.404C1196.25 79.3573 1196.46 79.3013 1196.68 79.236V80.79C1196.45 80.8833 1196.17 80.9627 1195.84 81.028C1195.51 81.1027 1195.15 81.14 1194.76 81.14C1194.3 81.14 1193.89 81.0653 1193.53 80.916C1193.17 80.7667 1192.89 80.51 1192.67 80.146C1192.47 79.7727 1192.36 79.2593 1192.36 78.606V74.924H1191.37V74.042L1192.52 73.342L1193.12 71.732H1194.45V73.356H1196.59V74.924H1194.45V78.606C1194.45 78.8953 1194.53 79.1147 1194.7 79.264C1194.87 79.404 1195.09 79.474 1195.36 79.474ZM1201.7 81H1199.61V70.36H1201.7V81ZM1207.36 73.356V81H1205.28V73.356H1207.36ZM1206.33 70.36C1206.63 70.36 1206.9 70.4347 1207.12 70.584C1207.35 70.724 1207.46 70.99 1207.46 71.382C1207.46 71.7647 1207.35 72.0307 1207.12 72.18C1206.9 72.3293 1206.63 72.404 1206.33 72.404C1206.01 72.404 1205.74 72.3293 1205.51 72.18C1205.3 72.0307 1205.19 71.7647 1205.19 71.382C1205.19 70.99 1205.3 70.724 1205.51 70.584C1205.74 70.4347 1206.01 70.36 1206.33 70.36ZM1216.28 78.732C1216.28 79.2453 1216.15 79.684 1215.91 80.048C1215.67 80.4027 1215.3 80.6733 1214.82 80.86C1214.33 81.0467 1213.73 81.14 1213.01 81.14C1212.48 81.14 1212.02 81.1027 1211.64 81.028C1211.26 80.9627 1210.88 80.8507 1210.49 80.692V78.97C1210.9 79.1567 1211.35 79.3107 1211.82 79.432C1212.3 79.5533 1212.72 79.614 1213.08 79.614C1213.49 79.614 1213.78 79.5533 1213.95 79.432C1214.13 79.3107 1214.22 79.152 1214.22 78.956C1214.22 78.8253 1214.18 78.7087 1214.11 78.606C1214.04 78.5033 1213.89 78.3867 1213.66 78.256C1213.42 78.1253 1213.06 77.9573 1212.57 77.752C1212.09 77.5467 1211.7 77.346 1211.39 77.15C1211.08 76.9447 1210.85 76.702 1210.7 76.422C1210.55 76.1327 1210.48 75.7733 1210.48 75.344C1210.48 74.6347 1210.75 74.1027 1211.31 73.748C1211.86 73.3933 1212.59 73.216 1213.5 73.216C1213.98 73.216 1214.43 73.2627 1214.86 73.356C1215.29 73.4493 1215.73 73.6033 1216.19 73.818L1215.56 75.316C1215.31 75.204 1215.07 75.106 1214.83 75.022C1214.6 74.938 1214.37 74.8727 1214.15 74.826C1213.93 74.7793 1213.71 74.756 1213.48 74.756C1213.17 74.756 1212.93 74.798 1212.78 74.882C1212.63 74.966 1212.55 75.092 1212.55 75.26C1212.55 75.3813 1212.59 75.4933 1212.66 75.596C1212.75 75.6893 1212.9 75.792 1213.13 75.904C1213.36 76.016 1213.7 76.1653 1214.15 76.352C1214.59 76.5293 1214.96 76.716 1215.28 76.912C1215.6 77.0987 1215.84 77.3367 1216.01 77.626C1216.19 77.906 1216.28 78.2747 1216.28 78.732ZM1222.52 79.474C1222.75 79.474 1222.98 79.4507 1223.19 79.404C1223.41 79.3573 1223.62 79.3013 1223.84 79.236V80.79C1223.61 80.8833 1223.33 80.9627 1223 81.028C1222.67 81.1027 1222.31 81.14 1221.92 81.14C1221.46 81.14 1221.05 81.0653 1220.69 80.916C1220.33 80.7667 1220.05 80.51 1219.83 80.146C1219.63 79.7727 1219.52 79.2593 1219.52 78.606V74.924H1218.53V74.042L1219.68 73.342L1220.28 71.732H1221.61V73.356H1223.75V74.924H1221.61V78.606C1221.61 78.8953 1221.69 79.1147 1221.86 79.264C1222.03 79.404 1222.25 79.474 1222.52 79.474Z" fill="white" fill-opacity="0.6"/>
<rect x="481" y="23" width="1" height="68" fill="white" fill-opacity="0.05"/>
<rect x="888" y="23" width="1" height="68" fill="white" fill-opacity="0.05"/>
<defs>
<clipPath id="clip0_1468_495">
<rect width="15" height="15" fill="white" transform="translate(1029 50)"/>
</clipPath>
</defs>
</svg>
