<svg width="950" height="247" viewBox="0 0 950 247" fill="none" xmlns="http://www.w3.org/2000/svg">
<rect width="285" height="51" rx="3" fill="white" fill-opacity="0.05"/>
<rect x="0.5" y="0.5" width="284" height="50" rx="2.5" stroke="white" stroke-opacity="0.1"/>
<path d="M114.042 27.326C114.042 28.606 113.797 29.678 113.306 30.542C112.826 31.406 112.127 32.0567 111.21 32.494C110.303 32.9314 109.205 33.15 107.914 33.15H104.698V21.726H108.25C109.434 21.726 110.458 21.9394 111.322 22.366C112.186 22.7927 112.853 23.422 113.322 24.254C113.802 25.0754 114.042 26.0994 114.042 27.326ZM111.898 27.39C111.898 26.4834 111.759 25.7367 111.482 25.15C111.205 24.5634 110.794 24.1314 110.25 23.854C109.706 23.566 109.039 23.422 108.25 23.422H106.746V31.438H107.978C109.301 31.438 110.282 31.102 110.922 30.43C111.573 29.7474 111.898 28.734 111.898 27.39ZM118.303 24.478V33.15H116.287V24.478H118.303ZM117.295 21.134C117.594 21.134 117.855 21.214 118.079 21.374C118.303 21.5234 118.415 21.7954 118.415 22.19C118.415 22.574 118.303 22.8514 118.079 23.022C117.855 23.182 117.594 23.262 117.295 23.262C116.986 23.262 116.719 23.182 116.495 23.022C116.282 22.8514 116.175 22.574 116.175 22.19C116.175 21.7954 116.282 21.5234 116.495 21.374C116.719 21.214 116.986 21.134 117.295 21.134ZM126.785 30.638C126.785 31.214 126.646 31.7047 126.369 32.11C126.092 32.5047 125.681 32.8034 125.137 33.006C124.604 33.2087 123.948 33.31 123.169 33.31C122.561 33.31 122.038 33.2674 121.601 33.182C121.164 33.0967 120.748 32.9634 120.353 32.782V31.07C120.78 31.2727 121.254 31.4434 121.777 31.582C122.3 31.7207 122.785 31.79 123.233 31.79C123.788 31.79 124.188 31.7047 124.433 31.534C124.678 31.3634 124.801 31.134 124.801 30.846C124.801 30.6754 124.753 30.5207 124.657 30.382C124.561 30.2434 124.374 30.0994 124.097 29.95C123.82 29.79 123.398 29.5927 122.833 29.358C122.278 29.134 121.814 28.91 121.441 28.686C121.078 28.462 120.801 28.1954 120.609 27.886C120.428 27.566 120.337 27.166 120.337 26.686C120.337 25.9074 120.646 25.3207 121.265 24.926C121.884 24.5207 122.7 24.318 123.713 24.318C124.246 24.318 124.748 24.3714 125.217 24.478C125.697 24.574 126.177 24.734 126.657 24.958L126.017 26.446C125.75 26.3287 125.484 26.2274 125.217 26.142C124.961 26.046 124.7 25.9714 124.433 25.918C124.177 25.8647 123.916 25.838 123.649 25.838C123.212 25.838 122.881 25.9074 122.657 26.046C122.433 26.174 122.321 26.3554 122.321 26.59C122.321 26.7714 122.374 26.9314 122.481 27.07C122.598 27.198 122.796 27.3314 123.073 27.47C123.361 27.598 123.766 27.7687 124.289 27.982C124.812 28.1847 125.254 28.398 125.617 28.622C125.99 28.8354 126.278 29.102 126.481 29.422C126.684 29.742 126.785 30.1474 126.785 30.638ZM132.229 33.31C131.407 33.31 130.693 33.1554 130.085 32.846C129.487 32.526 129.023 32.0407 128.693 31.39C128.373 30.7287 128.213 29.886 128.213 28.862C128.213 27.7954 128.389 26.9314 128.741 26.27C129.103 25.598 129.599 25.1074 130.229 24.798C130.858 24.478 131.578 24.318 132.389 24.318C132.933 24.318 133.418 24.3714 133.845 24.478C134.271 24.5847 134.634 24.7127 134.933 24.862L134.341 26.446C134.01 26.318 133.679 26.2114 133.349 26.126C133.018 26.03 132.698 25.982 132.389 25.982C131.909 25.982 131.509 26.0887 131.189 26.302C130.879 26.5154 130.65 26.8354 130.501 27.262C130.351 27.678 130.277 28.206 130.277 28.846C130.277 29.4647 130.351 29.982 130.501 30.398C130.661 30.814 130.895 31.1287 131.205 31.342C131.514 31.5447 131.898 31.646 132.357 31.646C132.847 31.646 133.279 31.5874 133.653 31.47C134.026 31.3527 134.378 31.1927 134.709 30.99V32.734C134.378 32.9367 134.021 33.0807 133.637 33.166C133.263 33.262 132.794 33.31 132.229 33.31ZM144.484 28.798C144.484 29.5234 144.388 30.1634 144.196 30.718C144.004 31.2727 143.727 31.7474 143.364 32.142C143.012 32.526 142.575 32.8194 142.052 33.022C141.54 33.214 140.97 33.31 140.34 33.31C139.743 33.31 139.194 33.214 138.692 33.022C138.191 32.8194 137.754 32.526 137.38 32.142C137.018 31.7474 136.735 31.2727 136.532 30.718C136.33 30.1634 136.228 29.5234 136.228 28.798C136.228 27.838 136.394 27.0274 136.724 26.366C137.055 25.694 137.53 25.1874 138.148 24.846C138.778 24.494 139.519 24.318 140.372 24.318C141.183 24.318 141.892 24.494 142.5 24.846C143.119 25.1874 143.604 25.694 143.956 26.366C144.308 27.0274 144.484 27.838 144.484 28.798ZM138.292 28.798C138.292 29.406 138.362 29.9287 138.5 30.366C138.65 30.7927 138.874 31.118 139.172 31.342C139.482 31.566 139.876 31.678 140.356 31.678C140.847 31.678 141.242 31.566 141.54 31.342C141.85 31.118 142.074 30.7927 142.212 30.366C142.351 29.9287 142.42 29.406 142.42 28.798C142.42 28.1794 142.346 27.662 142.196 27.246C142.058 26.8194 141.834 26.4994 141.524 26.286C141.226 26.062 140.836 25.95 140.356 25.95C139.631 25.95 139.103 26.1954 138.772 26.686C138.452 27.1767 138.292 27.8807 138.292 28.798ZM148.256 33.15L144.96 24.478H147.088L148.816 29.486C148.891 29.6887 148.96 29.9127 149.024 30.158C149.088 30.3927 149.141 30.6274 149.184 30.862C149.237 31.086 149.269 31.2834 149.28 31.454H149.344C149.365 31.2727 149.403 31.07 149.456 30.846C149.509 30.6114 149.568 30.3767 149.632 30.142C149.707 29.9074 149.776 29.6887 149.84 29.486L151.568 24.478H153.696L150.4 33.15H148.256ZM158.478 24.318C159.257 24.318 159.924 24.478 160.478 24.798C161.044 25.1074 161.481 25.5554 161.79 26.142C162.1 26.718 162.254 27.422 162.254 28.254V29.278H156.526C156.548 30.0674 156.766 30.6807 157.182 31.118C157.598 31.5447 158.174 31.758 158.91 31.758C159.476 31.758 159.977 31.7047 160.414 31.598C160.862 31.4807 161.321 31.3154 161.79 31.102V32.718C161.364 32.9207 160.921 33.07 160.462 33.166C160.004 33.262 159.454 33.31 158.814 33.31C157.972 33.31 157.22 33.15 156.558 32.83C155.908 32.4994 155.396 32.0034 155.022 31.342C154.66 30.6807 154.478 29.8594 154.478 28.878C154.478 27.886 154.644 27.054 154.974 26.382C155.316 25.6994 155.785 25.1874 156.382 24.846C156.98 24.494 157.678 24.318 158.478 24.318ZM158.478 25.806C157.945 25.806 157.508 25.982 157.166 26.334C156.836 26.6754 156.638 27.1874 156.574 27.87H160.302C160.302 27.4647 160.233 27.1074 160.094 26.798C159.966 26.4887 159.769 26.2487 159.502 26.078C159.236 25.8967 158.894 25.806 158.478 25.806ZM168.831 24.318C168.959 24.318 169.109 24.3234 169.279 24.334C169.45 24.3447 169.594 24.366 169.711 24.398L169.535 26.27C169.439 26.2487 169.311 26.2327 169.151 26.222C169.002 26.2007 168.869 26.19 168.751 26.19C168.431 26.19 168.122 26.2434 167.823 26.35C167.535 26.446 167.274 26.5954 167.039 26.798C166.815 26.99 166.634 27.2407 166.495 27.55C166.367 27.8594 166.303 28.2274 166.303 28.654V33.15H164.287V24.478H165.839L166.127 25.982H166.223C166.394 25.6727 166.607 25.3954 166.863 25.15C167.119 24.894 167.413 24.6914 167.743 24.542C168.085 24.3927 168.447 24.318 168.831 24.318Z" fill="white"/>
<path d="M113.306 30.542L112.436 30.0482L112.432 30.0564L113.306 30.542ZM111.21 32.494L110.78 31.5913L110.776 31.5933L111.21 32.494ZM104.698 33.15H103.698V34.15H104.698V33.15ZM104.698 21.726V20.726H103.698V21.726H104.698ZM111.322 22.366L111.765 21.4694L111.322 22.366ZM113.322 24.254L112.451 24.7453L112.455 24.752L112.459 24.7586L113.322 24.254ZM111.482 25.15L110.578 25.5774L111.482 25.15ZM110.25 23.854L109.782 24.7378L109.789 24.7414L109.796 24.7449L110.25 23.854ZM106.746 23.422V22.422H105.746V23.422H106.746ZM106.746 31.438H105.746V32.438H106.746V31.438ZM110.922 30.43L110.198 29.7401L110.198 29.7404L110.922 30.43ZM113.042 27.326C113.042 28.4816 112.82 29.3721 112.436 30.0482L114.176 31.0358C114.773 29.9839 115.042 28.7304 115.042 27.326H113.042ZM112.432 30.0564C112.056 30.7332 111.515 31.2408 110.78 31.5914L111.64 33.3967C112.74 32.8726 113.596 32.0788 114.18 31.0277L112.432 30.0564ZM110.776 31.5933C110.037 31.9496 109.095 32.15 107.914 32.15V34.15C109.314 34.15 110.57 33.9132 111.644 33.3947L110.776 31.5933ZM107.914 32.15H104.698V34.15H107.914V32.15ZM105.698 33.15V21.726H103.698V33.15H105.698ZM104.698 22.726H108.25V20.726H104.698V22.726ZM108.25 22.726C109.315 22.726 110.181 22.9178 110.879 23.2627L111.765 21.4694C110.735 20.961 109.553 20.726 108.25 20.726V22.726ZM110.879 23.2627C111.565 23.6012 112.081 24.09 112.451 24.7453L114.193 23.7627C113.624 22.754 112.807 21.9842 111.765 21.4694L110.879 23.2627ZM112.459 24.7586C112.827 25.3886 113.042 26.2264 113.042 27.326H115.042C115.042 25.9723 114.777 24.7621 114.185 23.7495L112.459 24.7586ZM112.898 27.39C112.898 26.3906 112.746 25.485 112.386 24.7226L110.578 25.5774C110.772 25.9883 110.898 26.5762 110.898 27.39H112.898ZM112.386 24.7226C112.02 23.9494 111.458 23.3475 110.704 22.9631L109.796 24.7449C110.13 24.9152 110.389 25.1773 110.578 25.5774L112.386 24.7226ZM110.718 22.9702C109.995 22.5874 109.158 22.422 108.25 22.422V24.422C108.921 24.422 109.417 24.5446 109.782 24.7378L110.718 22.9702ZM108.25 22.422H106.746V24.422H108.25V22.422ZM105.746 23.422V31.438H107.746V23.422H105.746ZM106.746 32.438H107.978V30.438H106.746V32.438ZM107.978 32.438C109.456 32.438 110.749 32.0617 111.646 31.1197L110.198 29.7404C109.815 30.1424 109.145 30.438 107.978 30.438V32.438ZM111.646 31.12C112.537 30.1849 112.898 28.8816 112.898 27.39H110.898C110.898 28.5864 110.608 29.3098 110.198 29.7401L111.646 31.12ZM118.303 24.478H119.303V23.478H118.303V24.478ZM118.303 33.15V34.15H119.303V33.15H118.303ZM116.287 33.15H115.287V34.15H116.287V33.15ZM116.287 24.478V23.478H115.287V24.478H116.287ZM118.079 21.374L117.498 22.1878L117.511 22.1971L117.525 22.2061L118.079 21.374ZM118.079 23.022L118.66 23.8358L118.673 23.8268L118.685 23.8175L118.079 23.022ZM116.495 23.022L115.871 23.8029L115.892 23.8199L115.914 23.8358L116.495 23.022ZM116.495 21.374L117.069 22.1933L117.076 22.1878L116.495 21.374ZM117.303 24.478V33.15H119.303V24.478H117.303ZM118.303 32.15H116.287V34.15H118.303V32.15ZM117.287 33.15V24.478H115.287V33.15H117.287ZM116.287 25.478H118.303V23.478H116.287V25.478ZM117.295 22.134C117.404 22.134 117.458 22.1593 117.498 22.1878L118.66 20.5603C118.252 20.2687 117.784 20.134 117.295 20.134V22.134ZM117.525 22.2061C117.494 22.186 117.467 22.1606 117.444 22.1325C117.422 22.105 117.411 22.0821 117.407 22.0708C117.402 22.0603 117.405 22.0624 117.408 22.0827C117.411 22.1031 117.415 22.1379 117.415 22.19H119.415C119.415 21.6275 119.251 20.9532 118.634 20.542L117.525 22.2061ZM117.415 22.19C117.415 22.2885 117.4 22.3204 117.404 22.3116C117.406 22.306 117.413 22.2919 117.426 22.274C117.44 22.2558 117.456 22.2395 117.473 22.2266L118.685 23.8175C119.241 23.3944 119.415 22.7644 119.415 22.19H117.415ZM117.498 22.2083C117.458 22.2367 117.404 22.262 117.295 22.262V24.262C117.784 24.262 118.252 24.1273 118.66 23.8358L117.498 22.2083ZM117.295 22.262C117.167 22.262 117.11 22.2324 117.076 22.2083L115.914 23.8358C116.328 24.1316 116.804 24.262 117.295 24.262V22.262ZM117.12 22.2412C117.139 22.2565 117.156 22.2744 117.169 22.2928C117.182 22.3107 117.187 22.3237 117.189 22.327C117.19 22.3298 117.186 22.3217 117.182 22.2988C117.179 22.2758 117.175 22.2403 117.175 22.19H115.175C115.175 22.7483 115.335 23.3741 115.871 23.8029L117.12 22.2412ZM117.175 22.19C117.175 22.1357 117.179 22.0982 117.183 22.075C117.186 22.0519 117.189 22.0469 117.186 22.0551C117.183 22.064 117.173 22.086 117.152 22.1139C117.13 22.1424 117.102 22.1702 117.069 22.1933L115.922 20.5548C115.324 20.9734 115.175 21.6448 115.175 22.19H117.175ZM117.076 22.1878C117.11 22.1636 117.167 22.134 117.295 22.134V20.134C116.804 20.134 116.328 20.2644 115.914 20.5603L117.076 22.1878ZM126.369 32.11L127.187 32.685L127.194 32.6747L126.369 32.11ZM125.137 33.006L124.788 32.0689L124.782 32.0712L125.137 33.006ZM121.601 33.182L121.409 34.1635L121.601 33.182ZM120.353 32.782H119.353V33.4231L119.935 33.6907L120.353 32.782ZM120.353 31.07L120.782 30.1667L119.353 29.4879V31.07H120.353ZM121.777 31.582L122.033 30.6155L121.777 31.582ZM124.657 30.382L123.835 30.9512V30.9512L124.657 30.382ZM124.097 29.95L123.597 30.8162L123.61 30.8235L123.623 30.8305L124.097 29.95ZM122.833 29.358L123.216 28.4344L123.207 28.4308L122.833 29.358ZM121.441 28.686L120.915 29.5369L120.926 29.5435L121.441 28.686ZM120.609 27.886L119.739 28.379L119.749 28.3964L119.759 28.4134L120.609 27.886ZM121.265 24.926L121.803 25.7691L121.813 25.7625L121.265 24.926ZM125.217 24.478L124.995 25.4532L125.008 25.456L125.021 25.4586L125.217 24.478ZM126.657 24.958L127.576 25.3531L127.959 24.462L127.08 24.0518L126.657 24.958ZM126.017 26.446L125.614 27.3613L126.537 27.7674L126.936 26.8411L126.017 26.446ZM125.217 26.142L124.866 27.0784L124.889 27.087L124.912 27.0944L125.217 26.142ZM124.433 25.918L124.229 26.897L124.237 26.8986L124.433 25.918ZM122.657 26.046L123.153 26.9143L123.168 26.9055L123.183 26.8963L122.657 26.046ZM122.481 27.07L121.688 27.6797L121.715 27.7139L121.744 27.7457L122.481 27.07ZM123.073 27.47L122.626 28.3645L122.646 28.3746L122.667 28.3838L123.073 27.47ZM124.289 27.982L123.911 28.9079L123.919 28.9112L123.927 28.9144L124.289 27.982ZM125.617 28.622L125.091 29.4728L125.106 29.4818L125.121 29.4903L125.617 28.622ZM126.481 29.422L127.326 28.887L126.481 29.422ZM125.785 30.638C125.785 31.0482 125.689 31.3335 125.544 31.5453L127.194 32.6747C127.604 32.0758 127.785 31.3799 127.785 30.638H125.785ZM125.551 31.5351C125.412 31.7332 125.182 31.9222 124.788 32.0689L125.486 33.9431C126.18 33.6845 126.772 33.2762 127.187 32.685L125.551 31.5351ZM124.782 32.0712C124.395 32.2182 123.868 32.31 123.169 32.31V34.31C124.028 34.31 124.812 34.1992 125.492 33.9408L124.782 32.0712ZM123.169 32.31C122.604 32.31 122.149 32.27 121.792 32.2005L121.409 34.1635C121.928 34.2647 122.518 34.31 123.169 34.31V32.31ZM121.792 32.2005C121.431 32.13 121.091 32.0207 120.77 31.8733L119.935 33.6907C120.404 33.906 120.896 34.0634 121.409 34.1635L121.792 32.2005ZM121.353 32.782V31.07H119.353V32.782H121.353ZM119.924 31.9733C120.413 32.2058 120.947 32.3964 121.521 32.5486L122.033 30.6155C121.562 30.4903 121.146 30.3396 120.782 30.1667L119.924 31.9733ZM121.521 32.5486C122.11 32.705 122.683 32.79 123.233 32.79V30.79C122.887 30.79 122.489 30.7363 122.033 30.6155L121.521 32.5486ZM123.233 32.79C123.841 32.79 124.5 32.7057 125.004 32.3549L123.862 30.7131C123.881 30.7001 123.855 30.7235 123.74 30.748C123.628 30.7719 123.463 30.79 123.233 30.79V32.79ZM125.004 32.3549C125.506 32.0057 125.801 31.4758 125.801 30.846H123.801C123.801 30.8467 123.801 30.8372 123.805 30.8203C123.809 30.8029 123.816 30.7828 123.827 30.7624C123.851 30.7182 123.874 30.7045 123.862 30.7131L125.004 32.3549ZM125.801 30.846C125.801 30.4745 125.692 30.1208 125.479 29.8128L123.835 30.9512C123.827 30.9404 123.817 30.9222 123.81 30.8984C123.803 30.8747 123.801 30.8558 123.801 30.846H125.801ZM125.479 29.8128C125.245 29.475 124.887 29.2395 124.571 29.0696L123.623 30.8305C123.728 30.8874 123.795 30.932 123.834 30.9618C123.876 30.9939 123.864 30.9927 123.835 30.9512L125.479 29.8128ZM124.597 29.0838C124.262 28.8907 123.793 28.6736 123.216 28.4344L122.45 30.2816C123.004 30.5117 123.377 30.6893 123.597 30.8162L124.597 29.0838ZM123.207 28.4308C122.685 28.2197 122.271 28.0178 121.955 27.8285L120.926 29.5435C121.358 29.8022 121.872 30.0484 122.458 30.2853L123.207 28.4308ZM121.966 27.8352C121.713 27.6787 121.556 27.5159 121.459 27.3587L119.759 28.4134C120.046 28.8748 120.444 29.2454 120.915 29.5368L121.966 27.8352ZM121.479 27.393C121.405 27.2624 121.337 27.0445 121.337 26.686H119.337C119.337 27.2876 119.45 27.8696 119.739 28.379L121.479 27.393ZM121.337 26.686C121.337 26.2238 121.493 25.967 121.803 25.7691L120.727 24.083C119.8 24.6744 119.337 25.5909 119.337 26.686H121.337ZM121.813 25.7625C122.219 25.4966 122.825 25.318 123.713 25.318V23.318C122.575 23.318 121.548 23.5448 120.717 24.0896L121.813 25.7625ZM123.713 25.318C124.18 25.318 124.606 25.3647 124.995 25.4532L125.439 23.5029C124.889 23.378 124.313 23.318 123.713 23.318V25.318ZM125.021 25.4586C125.416 25.5377 125.821 25.6712 126.234 25.8642L127.08 24.0518C126.533 23.7968 125.977 23.6103 125.413 23.4974L125.021 25.4586ZM125.738 24.5629L125.098 26.0509L126.936 26.8411L127.576 25.3531L125.738 24.5629ZM126.42 25.5307C126.122 25.3999 125.823 25.286 125.522 25.1896L124.912 27.0944C125.144 27.1687 125.378 27.2575 125.614 27.3613L126.42 25.5307ZM125.568 25.2057C125.262 25.0909 124.949 25.0014 124.629 24.9374L124.237 26.8986C124.45 26.9413 124.66 27.0011 124.866 27.0784L125.568 25.2057ZM124.637 24.939C124.313 24.8715 123.983 24.838 123.649 24.838V26.838C123.848 26.838 124.041 26.8579 124.229 26.897L124.637 24.939ZM123.649 24.838C123.135 24.838 122.585 24.9142 122.131 25.1958L123.183 26.8963C123.173 26.9026 123.196 26.886 123.278 26.8687C123.36 26.8517 123.48 26.838 123.649 26.838V24.838ZM122.161 25.1778C121.663 25.4623 121.321 25.9552 121.321 26.59H123.321C123.321 26.6389 123.307 26.7205 123.256 26.8035C123.207 26.8819 123.156 26.9127 123.153 26.9143L122.161 25.1778ZM121.321 26.59C121.321 26.9832 121.442 27.3595 121.688 27.6797L123.274 26.4603C123.286 26.4761 123.3 26.5 123.31 26.5298C123.319 26.5592 123.321 26.5813 123.321 26.59H121.321ZM121.744 27.7457C121.985 28.0084 122.311 28.2072 122.626 28.3645L123.52 26.5756C123.41 26.5203 123.331 26.4737 123.277 26.4374C123.221 26.3996 123.208 26.3837 123.218 26.3943L121.744 27.7457ZM122.667 28.3838C122.969 28.518 123.385 28.6932 123.911 28.9079L124.667 27.0562C124.148 26.8442 123.753 26.678 123.479 26.5562L122.667 28.3838ZM123.927 28.9144C124.41 29.1014 124.794 29.2892 125.091 29.4728L126.142 27.7712C125.714 27.5069 125.214 27.268 124.65 27.0497L123.927 28.9144ZM125.121 29.4903C125.372 29.6337 125.532 29.7926 125.636 29.9571L127.326 28.887C127.025 28.4114 126.609 28.037 126.113 27.7538L125.121 29.4903ZM125.636 29.9571C125.712 30.0761 125.785 30.2817 125.785 30.638H127.785C127.785 30.013 127.656 29.408 127.326 28.887L125.636 29.9571ZM130.085 32.846L129.612 33.7275L129.622 33.7325L129.631 33.7373L130.085 32.846ZM128.693 31.39L127.793 31.8256L127.797 31.8344L127.801 31.8431L128.693 31.39ZM128.741 26.27L127.861 25.7951L127.858 25.8002L128.741 26.27ZM130.229 24.798L130.67 25.6956L130.682 25.6894L130.229 24.798ZM133.845 24.478L134.087 23.5079H134.087L133.845 24.478ZM134.933 24.862L135.869 25.2121L136.184 24.3698L135.38 23.9676L134.933 24.862ZM134.341 26.446L133.98 27.3786L134.923 27.7438L135.277 26.7961L134.341 26.446ZM133.349 26.126L133.07 27.0864L133.084 27.0906L133.099 27.0943L133.349 26.126ZM131.189 26.302L130.634 25.47L130.627 25.4743L130.621 25.4788L131.189 26.302ZM130.501 27.262L131.442 27.5999L131.445 27.5924L130.501 27.262ZM130.501 30.398L129.56 30.7359L129.563 30.7465L129.567 30.757L130.501 30.398ZM131.205 31.342L130.637 32.1652L130.647 32.172L130.657 32.1785L131.205 31.342ZM133.653 31.47L133.953 32.424L133.653 31.47ZM134.709 30.99H135.709V29.2042L134.186 30.1374L134.709 30.99ZM134.709 32.734L135.231 33.5866L135.709 33.294V32.734H134.709ZM133.637 33.166L133.42 32.1898L133.404 32.1934L133.388 32.1975L133.637 33.166ZM132.229 32.31C131.533 32.31 130.98 32.1795 130.538 31.9547L129.631 33.7373C130.406 34.1313 131.282 34.31 132.229 34.31V32.31ZM130.557 31.9645C130.154 31.7487 129.83 31.4201 129.584 30.937L127.801 31.8431C128.217 32.6613 128.821 33.3034 129.612 33.7275L130.557 31.9645ZM129.593 30.9545C129.359 30.4715 129.213 29.7909 129.213 28.862H127.213C127.213 29.9811 127.386 30.9859 127.793 31.8256L129.593 30.9545ZM129.213 28.862C129.213 27.8941 129.374 27.2083 129.623 26.7399L127.858 25.8002C127.403 26.6544 127.213 27.6966 127.213 28.862H129.213ZM129.621 26.745C129.894 26.2389 130.244 25.9048 130.67 25.6955L129.788 23.9006C128.955 24.3099 128.313 24.9572 127.861 25.7951L129.621 26.745ZM130.682 25.6894C131.151 25.4507 131.712 25.318 132.389 25.318V23.318C131.444 23.318 130.565 23.5053 129.775 23.9066L130.682 25.6894ZM132.389 25.318C132.869 25.318 133.271 25.3654 133.602 25.4482L134.087 23.5079C133.565 23.3774 132.996 23.318 132.389 23.318V25.318ZM133.602 25.4482C133.979 25.5424 134.269 25.6481 134.485 25.7565L135.38 23.9676C134.999 23.7772 134.564 23.627 134.087 23.5079L133.602 25.4482ZM133.996 24.5119L133.404 26.0959L135.277 26.7961L135.869 25.2121L133.996 24.5119ZM134.702 25.5135C134.336 25.3719 133.968 25.2532 133.599 25.1577L133.099 27.0943C133.39 27.1695 133.684 27.2641 133.98 27.3786L134.702 25.5135ZM133.628 25.1657C133.216 25.0463 132.802 24.982 132.389 24.982V26.982C132.594 26.982 132.82 27.0137 133.07 27.0864L133.628 25.1657ZM132.389 24.982C131.76 24.982 131.155 25.1227 130.634 25.47L131.743 27.1341C131.863 27.0546 132.057 26.982 132.389 26.982V24.982ZM130.621 25.4788C130.104 25.8352 129.762 26.3466 129.557 26.9317L131.445 27.5924C131.538 27.3241 131.655 27.1955 131.756 27.1252L130.621 25.4788ZM129.56 26.9242C129.358 27.4854 129.277 28.1379 129.277 28.846H131.277C131.277 28.2742 131.345 27.8707 131.442 27.5999L129.56 26.9242ZM129.277 28.846C129.277 29.5374 129.359 30.1777 129.56 30.7359L131.442 30.0602C131.344 29.7864 131.277 29.392 131.277 28.846H129.277ZM129.567 30.757C129.786 31.3253 130.133 31.8176 130.637 32.1652L131.772 30.5188C131.658 30.4398 131.535 30.3028 131.434 30.039L129.567 30.757ZM130.657 32.1785C131.164 32.5109 131.75 32.646 132.357 32.646V30.646C132.046 30.646 131.864 30.5784 131.753 30.5056L130.657 32.1785ZM132.357 32.646C132.924 32.646 133.461 32.5784 133.953 32.424L133.353 30.516C133.098 30.5963 132.77 30.646 132.357 30.646V32.646ZM133.953 32.424C134.403 32.2824 134.83 32.0885 135.231 31.8426L134.186 30.1374C133.926 30.2969 133.649 30.423 133.353 30.516L133.953 32.424ZM133.709 30.99V32.734H135.709V30.99H133.709ZM134.186 31.8814C133.951 32.0254 133.697 32.1282 133.42 32.1898L133.854 34.1422C134.344 34.0332 134.805 33.8479 135.231 33.5866L134.186 31.8814ZM133.388 32.1975C133.124 32.2654 132.745 32.31 132.229 32.31V34.31C132.843 34.31 133.403 34.2587 133.886 34.1345L133.388 32.1975ZM144.196 30.718L145.141 31.0451V31.0451L144.196 30.718ZM143.364 32.142L142.628 31.4654L142.627 31.4663L143.364 32.142ZM142.052 33.022L142.403 33.9584L142.414 33.9544L142.052 33.022ZM138.692 33.022L138.318 33.9491L138.326 33.9526L138.335 33.9559L138.692 33.022ZM137.38 32.142L136.644 32.8186L136.654 32.829L136.663 32.8391L137.38 32.142ZM136.532 30.718L137.472 30.3748L136.532 30.718ZM136.724 26.366L137.619 26.8132L137.622 26.8075L136.724 26.366ZM138.148 24.846L138.631 25.7216L138.636 25.7188L138.148 24.846ZM142.5 24.846L141.999 25.7114L142.008 25.7166L142.017 25.7216L142.5 24.846ZM143.956 26.366L143.07 26.83L143.074 26.8359L143.956 26.366ZM138.5 30.366L137.547 30.6683L137.552 30.6824L137.556 30.6964L138.5 30.366ZM139.172 31.342L138.572 32.142L138.579 32.1471L138.586 32.152L139.172 31.342ZM141.54 31.342L140.954 30.5321L140.947 30.537L140.94 30.542L141.54 31.342ZM142.212 30.366L143.163 30.6751L143.166 30.6683L142.212 30.366ZM142.196 27.246L141.245 27.5551L141.25 27.5696L141.255 27.5839L142.196 27.246ZM141.524 26.286L140.924 27.086L140.94 27.098L140.957 27.1092L141.524 26.286ZM138.772 26.686L137.943 26.1272L137.939 26.1334L137.935 26.1398L138.772 26.686ZM143.484 28.798C143.484 29.4373 143.4 29.9629 143.251 30.3909L145.141 31.0451C145.377 30.3638 145.484 29.6095 145.484 28.798H143.484ZM143.251 30.3909C143.1 30.8284 142.889 31.1809 142.628 31.4654L144.101 32.8186C144.565 32.3138 144.909 31.717 145.141 31.0451L143.251 30.3909ZM142.627 31.4663C142.387 31.7285 142.081 31.9382 141.691 32.0897L142.414 33.9544C143.069 33.7005 143.638 33.3235 144.101 32.8177L142.627 31.4663ZM141.701 32.0857C141.317 32.2298 140.868 32.31 140.34 32.31V34.31C141.072 34.31 141.764 34.1983 142.403 33.9584L141.701 32.0857ZM140.34 32.31C139.852 32.31 139.425 32.2318 139.05 32.0882L138.335 33.9559C138.962 34.1963 139.634 34.31 140.34 34.31V32.31ZM139.067 32.0949C138.693 31.9438 138.373 31.7283 138.097 31.4449L136.663 32.8391C137.134 33.3237 137.689 33.6949 138.318 33.9491L139.067 32.0949ZM138.117 31.4654C137.852 31.1769 137.634 30.8187 137.472 30.3748L135.593 31.0612C135.836 31.7267 136.184 32.3178 136.644 32.8186L138.117 31.4654ZM137.472 30.3748C137.317 29.952 137.228 29.4321 137.228 28.798H135.228C135.228 29.6146 135.342 30.3747 135.593 31.0612L137.472 30.3748ZM137.228 28.798C137.228 27.9486 137.375 27.3006 137.619 26.8132L135.83 25.9188C135.412 26.7541 135.228 27.7275 135.228 28.798H137.228ZM137.622 26.8075C137.868 26.3076 138.203 25.958 138.631 25.7216L137.665 23.9704C136.856 24.4168 136.242 25.0805 135.827 25.9245L137.622 26.8075ZM138.636 25.7188C139.091 25.4643 139.658 25.318 140.372 25.318V23.318C139.38 23.318 138.464 23.5237 137.66 23.9733L138.636 25.7188ZM140.372 25.318C141.034 25.318 141.566 25.4604 141.999 25.7114L143.001 23.9806C142.219 23.5276 141.332 23.318 140.372 23.318V25.318ZM142.017 25.7216C142.451 25.9612 142.802 26.3183 143.071 26.83L144.842 25.902C144.406 25.0697 143.787 24.4136 142.983 23.9704L142.017 25.7216ZM143.074 26.8359C143.33 27.3175 143.484 27.957 143.484 28.798H145.484C145.484 27.7191 145.287 26.7372 144.839 25.8962L143.074 26.8359ZM137.292 28.798C137.292 29.4773 137.369 30.1073 137.547 30.6683L139.454 30.0638C139.354 29.7501 139.292 29.3347 139.292 28.798H137.292ZM137.556 30.6964C137.757 31.2703 138.084 31.7759 138.572 32.142L139.772 30.542C139.663 30.4601 139.542 30.3151 139.444 30.0357L137.556 30.6964ZM138.586 32.152C139.105 32.5281 139.72 32.678 140.356 32.678V30.678C140.032 30.678 139.858 30.604 139.759 30.5321L138.586 32.152ZM140.356 32.678C140.996 32.678 141.621 32.5314 142.14 32.142L140.94 30.542C140.862 30.6007 140.699 30.678 140.356 30.678V32.678ZM142.127 32.152C142.636 31.7832 142.971 31.2668 143.163 30.6751L141.261 30.0569C141.176 30.3186 141.063 30.4529 140.954 30.5321L142.127 32.152ZM143.166 30.6683C143.343 30.1073 143.42 29.4773 143.42 28.798H141.42C141.42 29.3347 141.359 29.7501 141.259 30.0638L143.166 30.6683ZM143.42 28.798C143.42 28.1067 143.338 27.4664 143.138 26.9082L141.255 27.5839C141.353 27.8577 141.42 28.252 141.42 28.798H143.42ZM143.147 26.9369C142.954 26.3433 142.615 25.8236 142.092 25.4628L140.957 27.1092C141.052 27.1751 141.161 27.2954 141.245 27.5551L143.147 26.9369ZM142.124 25.486C141.609 25.0993 140.991 24.95 140.356 24.95V26.95C140.682 26.95 140.843 27.0248 140.924 27.086L142.124 25.486ZM140.356 24.95C139.384 24.95 138.503 25.2966 137.943 26.1272L139.602 27.2449C139.703 27.0941 139.878 26.95 140.356 26.95V24.95ZM137.935 26.1398C137.465 26.8607 137.292 27.7877 137.292 28.798H139.292C139.292 27.9736 139.44 27.4926 139.61 27.2323L137.935 26.1398ZM148.256 33.15L147.321 33.5053L147.566 34.15H148.256V33.15ZM144.96 24.478V23.478H143.51L144.025 24.8333L144.96 24.478ZM147.088 24.478L148.033 24.1518L147.801 23.478H147.088V24.478ZM148.816 29.486L147.871 29.8122L147.874 29.822L147.878 29.8317L148.816 29.486ZM149.024 30.158L148.056 30.4105L148.059 30.4211L149.024 30.158ZM149.184 30.862L148.2 31.0409L148.205 31.0674L148.211 31.0936L149.184 30.862ZM149.28 31.454L148.282 31.5164L148.341 32.454H149.28V31.454ZM149.344 31.454V32.454H150.233L150.337 31.5709L149.344 31.454ZM149.456 30.846L150.429 31.0777L150.431 31.0676L149.456 30.846ZM149.632 30.142L148.679 29.8388L148.673 29.8587L148.667 29.8789L149.632 30.142ZM149.84 29.486L148.895 29.1598L148.89 29.1723L148.886 29.1849L149.84 29.486ZM151.568 24.478V23.478H150.855L150.623 24.1518L151.568 24.478ZM153.696 24.478L154.631 24.8333L155.146 23.478H153.696V24.478ZM150.4 33.15V34.15H151.09L151.335 33.5053L150.4 33.15ZM149.191 32.7947L145.895 24.1227L144.025 24.8333L147.321 33.5053L149.191 32.7947ZM144.96 25.478H147.088V23.478H144.96V25.478ZM146.143 24.8042L147.871 29.8122L149.761 29.1598L148.033 24.1518L146.143 24.8042ZM147.878 29.8317C147.939 29.9991 147.999 30.1914 148.056 30.4104L149.992 29.9056C149.921 29.634 149.842 29.3783 149.754 29.1403L147.878 29.8317ZM148.059 30.4211C148.116 30.6286 148.163 30.8351 148.2 31.0409L150.168 30.6831C150.12 30.4196 150.06 30.1568 149.989 29.8949L148.059 30.4211ZM148.211 31.0936C148.255 31.2798 148.276 31.4185 148.282 31.5164L150.278 31.3916C150.263 31.1483 150.219 30.8923 150.157 30.6304L148.211 31.0936ZM149.28 32.454H149.344V30.454H149.28V32.454ZM150.337 31.5709C150.353 31.4366 150.382 31.2731 150.429 31.0776L148.483 30.6144C148.423 30.867 148.378 31.1088 148.351 31.3372L150.337 31.5709ZM150.431 31.0676C150.481 30.847 150.536 30.6262 150.597 30.4051L148.667 29.8789C148.599 30.1272 148.537 30.3757 148.481 30.6244L150.431 31.0676ZM150.585 30.4452C150.66 30.21 150.729 29.9906 150.794 29.7872L148.886 29.1849C148.823 29.3868 148.754 29.6047 148.679 29.8388L150.585 30.4452ZM150.785 29.8122L152.513 24.8042L150.623 24.1518L148.895 29.1598L150.785 29.8122ZM151.568 25.478H153.696V23.478H151.568V25.478ZM152.761 24.1227L149.465 32.7947L151.335 33.5053L154.631 24.8333L152.761 24.1227ZM150.4 32.15H148.256V34.15H150.4V32.15ZM160.478 24.798L159.979 25.6642L159.988 25.6699L159.998 25.6753L160.478 24.798ZM161.79 26.142L160.906 26.6084L160.909 26.6152L161.79 26.142ZM162.254 29.278V30.278H163.254V29.278H162.254ZM156.526 29.278V28.278H155.499L155.527 29.305L156.526 29.278ZM157.182 31.118L156.458 31.8073L156.466 31.8161L157.182 31.118ZM160.414 31.598L160.651 32.5695L160.66 32.5675L160.668 32.5654L160.414 31.598ZM161.79 31.102H162.79V29.549L161.377 30.1917L161.79 31.102ZM161.79 32.718L162.219 33.6213L162.79 33.3501V32.718H161.79ZM160.462 33.166L160.257 32.1872L160.462 33.166ZM156.558 32.83L156.105 33.7215L156.114 33.7259L156.123 33.7302L156.558 32.83ZM155.022 31.342L154.145 31.8229L154.152 31.8336L155.022 31.342ZM154.974 26.382L154.08 25.9348L154.077 25.9405L154.974 26.382ZM156.382 24.846L156.879 25.7143L156.89 25.7076L156.382 24.846ZM157.166 26.334L156.448 25.6379L156.448 25.6382L157.166 26.334ZM156.574 27.87L155.579 27.7767L155.476 28.87H156.574V27.87ZM160.302 27.87V28.87H161.302V27.87H160.302ZM160.094 26.798L159.17 27.1804L159.176 27.1938L159.182 27.2071L160.094 26.798ZM159.502 26.078L158.94 26.905L158.952 26.9128L158.963 26.9203L159.502 26.078ZM158.478 25.318C159.119 25.318 159.606 25.449 159.979 25.6642L160.978 23.9318C160.242 23.5071 159.395 23.318 158.478 23.318V25.318ZM159.998 25.6753C160.386 25.8875 160.685 26.1901 160.906 26.6084L162.675 25.6756C162.277 24.9206 161.701 24.3272 160.958 23.9208L159.998 25.6753ZM160.909 26.6152C161.122 27.0114 161.254 27.5432 161.254 28.254H163.254C163.254 27.3008 163.077 26.4247 162.671 25.6689L160.909 26.6152ZM161.254 28.254V29.278H163.254V28.254H161.254ZM162.254 28.278H156.526V30.278H162.254V28.278ZM155.527 29.305C155.553 30.2635 155.824 31.1413 156.458 31.8072L157.907 30.4288C157.708 30.2201 157.543 29.8712 157.526 29.251L155.527 29.305ZM156.466 31.8161C157.113 32.4793 157.972 32.758 158.91 32.758V30.758C158.376 30.758 158.084 30.6101 157.898 30.4199L156.466 31.8161ZM158.91 32.758C159.536 32.758 160.12 32.6992 160.651 32.5695L160.177 30.6265C159.834 30.7102 159.415 30.758 158.91 30.758V32.758ZM160.668 32.5654C161.176 32.4321 161.689 32.2467 162.204 32.0124L161.377 30.1917C160.953 30.3841 160.548 30.5292 160.161 30.6307L160.668 32.5654ZM160.79 31.102V32.718H162.79V31.102H160.79ZM161.361 31.8147C161.006 31.9837 160.638 32.1076 160.257 32.1872L160.667 34.1448C161.204 34.0325 161.722 33.8576 162.219 33.6213L161.361 31.8147ZM160.257 32.1872C159.886 32.2651 159.409 32.31 158.814 32.31V34.31C159.5 34.31 160.122 34.259 160.667 34.1448L160.257 32.1872ZM158.814 32.31C158.1 32.31 157.501 32.1751 156.994 31.9299L156.123 33.7302C156.939 34.1249 157.843 34.31 158.814 34.31V32.31ZM157.011 31.9385C156.544 31.7009 156.174 31.3476 155.893 30.8504L154.152 31.8336C154.618 32.6591 155.272 33.2979 156.105 33.7215L157.011 31.9385ZM155.899 30.8612C155.638 30.385 155.478 29.7404 155.478 28.878H153.478C153.478 29.9783 153.681 30.9764 154.146 31.8229L155.899 30.8612ZM155.478 28.878C155.478 27.9916 155.627 27.3211 155.872 26.8235L154.077 25.9405C153.661 26.787 153.478 27.7805 153.478 28.878H155.478ZM155.869 26.8292C156.132 26.3031 156.471 25.9471 156.878 25.7143L155.886 23.9778C155.099 24.4276 154.499 25.0956 154.08 25.9348L155.869 26.8292ZM156.89 25.7076C157.311 25.4594 157.829 25.318 158.478 25.318V23.318C157.528 23.318 156.648 23.5287 155.875 23.9845L156.89 25.7076ZM158.478 24.806C157.701 24.806 156.996 25.0736 156.448 25.6379L157.884 27.0302C158.02 26.8905 158.189 26.806 158.478 26.806V24.806ZM156.448 25.6382C155.902 26.2017 155.655 26.9651 155.579 27.7767L157.57 27.9634C157.622 27.4096 157.769 27.149 157.885 27.0298L156.448 25.6382ZM156.574 28.87H160.302V26.87H156.574V28.87ZM161.302 27.87C161.302 27.3508 161.213 26.8496 161.007 26.389L159.182 27.2071C159.253 27.3651 159.302 27.5785 159.302 27.87H161.302ZM161.018 26.4157C160.817 25.9287 160.491 25.5232 160.041 25.2358L158.963 26.9203C159.047 26.9741 159.116 27.0486 159.17 27.1804L161.018 26.4157ZM160.065 25.2511C159.59 24.9284 159.037 24.806 158.478 24.806V26.806C158.752 26.806 158.881 26.865 158.94 26.905L160.065 25.2511ZM169.279 24.334L169.217 25.3321H169.217L169.279 24.334ZM169.711 24.398L170.707 24.4916L170.786 23.6545L169.974 23.4333L169.711 24.398ZM169.535 26.27L169.318 27.2462L170.425 27.4921L170.531 26.3636L169.535 26.27ZM169.151 26.222L169.01 27.212L169.047 27.2173L169.085 27.2198L169.151 26.222ZM167.823 26.35L168.139 27.2987L168.15 27.2953L168.16 27.2918L167.823 26.35ZM167.039 26.798L167.69 27.5573L167.693 27.5548L167.039 26.798ZM166.495 27.55L165.583 27.141L165.577 27.1542L165.571 27.1677L166.495 27.55ZM166.303 33.15V34.15H167.303V33.15H166.303ZM164.287 33.15H163.287V34.15H164.287V33.15ZM164.287 24.478V23.478H163.287V24.478H164.287ZM165.839 24.478L166.821 24.29L166.666 23.478H165.839V24.478ZM166.127 25.982L165.145 26.1701L165.301 26.982H166.127V25.982ZM166.223 25.982V26.982H166.814L167.099 26.4651L166.223 25.982ZM166.863 25.15L167.555 25.872L167.563 25.8647L167.57 25.8571L166.863 25.15ZM167.743 24.542L167.342 23.6258L167.332 23.6307L167.743 24.542ZM168.831 25.318C168.933 25.318 169.061 25.3223 169.217 25.3321L169.342 23.336C169.157 23.3244 168.986 23.318 168.831 23.318V25.318ZM169.217 25.3321C169.345 25.3401 169.417 25.3543 169.448 25.3628L169.974 23.4333C169.771 23.3778 169.555 23.3493 169.342 23.336L169.217 25.3321ZM168.716 24.3044L168.54 26.1764L170.531 26.3636L170.707 24.4916L168.716 24.3044ZM169.752 25.2938C169.586 25.2568 169.401 25.2365 169.218 25.2242L169.085 27.2198C169.221 27.2289 169.293 27.2405 169.318 27.2462L169.752 25.2938ZM169.293 25.2321C169.109 25.2058 168.927 25.19 168.751 25.19V27.19C168.81 27.19 168.895 27.1955 169.01 27.212L169.293 25.2321ZM168.751 25.19C168.318 25.19 167.894 25.2627 167.487 25.4083L168.16 27.2918C168.349 27.224 168.545 27.19 168.751 27.19V25.19ZM167.507 25.4013C167.092 25.5395 166.717 25.755 166.386 26.0412L167.693 27.5548C167.831 27.4357 167.978 27.3525 168.139 27.2987L167.507 25.4013ZM166.388 26.0388C166.037 26.3401 165.773 26.7171 165.583 27.141L167.408 27.9591C167.495 27.7643 167.594 27.6399 167.69 27.5573L166.388 26.0388ZM165.571 27.1677C165.381 27.6265 165.303 28.1307 165.303 28.654H167.303C167.303 28.324 167.353 28.0922 167.419 27.9324L165.571 27.1677ZM165.303 28.654V33.15H167.303V28.654H165.303ZM166.303 32.15H164.287V34.15H166.303V32.15ZM165.287 33.15V24.478H163.287V33.15H165.287ZM164.287 25.478H165.839V23.478H164.287V25.478ZM164.857 24.6661L165.145 26.1701L167.109 25.794L166.821 24.29L164.857 24.6661ZM166.127 26.982H166.223V24.982H166.127V26.982ZM167.099 26.4651C167.22 26.2446 167.372 26.0477 167.555 25.872L166.171 24.428C165.843 24.743 165.567 25.1008 165.348 25.4989L167.099 26.4651ZM167.57 25.8571C167.741 25.6867 167.934 25.5531 168.155 25.4534L167.332 23.6307C166.891 23.8296 166.498 24.1014 166.156 24.4429L167.57 25.8571ZM168.144 25.4582C168.355 25.3659 168.581 25.318 168.831 25.318V23.318C168.314 23.318 167.814 23.4195 167.342 23.6259L168.144 25.4582Z" fill="white" fill-opacity="0.1"/>
<rect x="332" y="98" width="286" height="51" rx="3" fill="white" fill-opacity="0.05"/>
<rect x="332.5" y="98.5" width="285" height="50" rx="2.5" stroke="white" stroke-opacity="0.1"/>
<path d="M443.101 121.294C442.578 121.294 442.114 121.39 441.709 121.582C441.304 121.774 440.957 122.051 440.669 122.414C440.392 122.777 440.178 123.214 440.029 123.726C439.89 124.238 439.821 124.814 439.821 125.454C439.821 126.318 439.938 127.059 440.173 127.678C440.408 128.286 440.765 128.755 441.245 129.086C441.736 129.417 442.349 129.582 443.085 129.582C443.576 129.582 444.045 129.534 444.493 129.438C444.952 129.331 445.432 129.193 445.933 129.022V130.766C445.464 130.958 444.989 131.097 444.509 131.182C444.04 131.267 443.496 131.31 442.877 131.31C441.704 131.31 440.733 131.07 439.965 130.59C439.197 130.099 438.626 129.417 438.253 128.542C437.88 127.657 437.693 126.622 437.693 125.438C437.693 124.574 437.81 123.785 438.045 123.07C438.29 122.355 438.637 121.737 439.085 121.214C439.544 120.691 440.109 120.286 440.781 119.998C441.453 119.71 442.226 119.566 443.101 119.566C443.677 119.566 444.242 119.635 444.797 119.774C445.362 119.902 445.89 120.083 446.381 120.318L445.677 121.998C445.272 121.817 444.85 121.657 444.413 121.518C443.986 121.369 443.549 121.294 443.101 121.294ZM455.945 126.798C455.945 127.523 455.849 128.163 455.657 128.718C455.465 129.273 455.188 129.747 454.825 130.142C454.473 130.526 454.036 130.819 453.513 131.022C453.001 131.214 452.431 131.31 451.801 131.31C451.204 131.31 450.655 131.214 450.153 131.022C449.652 130.819 449.215 130.526 448.841 130.142C448.479 129.747 448.196 129.273 447.993 128.718C447.791 128.163 447.689 127.523 447.689 126.798C447.689 125.838 447.855 125.027 448.185 124.366C448.516 123.694 448.991 123.187 449.609 122.846C450.239 122.494 450.98 122.318 451.833 122.318C452.644 122.318 453.353 122.494 453.961 122.846C454.58 123.187 455.065 123.694 455.417 124.366C455.769 125.027 455.945 125.838 455.945 126.798ZM449.753 126.798C449.753 127.406 449.823 127.929 449.961 128.366C450.111 128.793 450.335 129.118 450.633 129.342C450.943 129.566 451.337 129.678 451.817 129.678C452.308 129.678 452.703 129.566 453.001 129.342C453.311 129.118 453.535 128.793 453.673 128.366C453.812 127.929 453.881 127.406 453.881 126.798C453.881 126.179 453.807 125.662 453.657 125.246C453.519 124.819 453.295 124.499 452.985 124.286C452.687 124.062 452.297 123.95 451.817 123.95C451.092 123.95 450.564 124.195 450.233 124.686C449.913 125.177 449.753 125.881 449.753 126.798ZM462.669 122.318C463.64 122.318 464.397 122.569 464.941 123.07C465.496 123.571 465.773 124.382 465.773 125.502V131.15H463.757V125.902C463.757 125.251 463.629 124.766 463.373 124.446C463.117 124.115 462.712 123.95 462.157 123.95C461.347 123.95 460.792 124.206 460.493 124.718C460.195 125.219 460.045 125.95 460.045 126.91V131.15H458.029V122.478H459.581L459.869 123.614H459.981C460.173 123.315 460.408 123.07 460.685 122.878C460.963 122.686 461.272 122.547 461.613 122.462C461.955 122.366 462.307 122.318 462.669 122.318ZM472.935 122.318C473.906 122.318 474.663 122.569 475.207 123.07C475.762 123.571 476.039 124.382 476.039 125.502V131.15H474.023V125.902C474.023 125.251 473.895 124.766 473.639 124.446C473.383 124.115 472.978 123.95 472.423 123.95C471.612 123.95 471.058 124.206 470.759 124.718C470.46 125.219 470.311 125.95 470.311 126.91V131.15H468.295V122.478H469.847L470.135 123.614H470.247C470.439 123.315 470.674 123.07 470.951 122.878C471.228 122.686 471.538 122.547 471.879 122.462C472.22 122.366 472.572 122.318 472.935 122.318ZM482.049 122.318C482.827 122.318 483.494 122.478 484.049 122.798C484.614 123.107 485.051 123.555 485.361 124.142C485.67 124.718 485.825 125.422 485.825 126.254V127.278H480.097C480.118 128.067 480.337 128.681 480.753 129.118C481.169 129.545 481.745 129.758 482.481 129.758C483.046 129.758 483.547 129.705 483.985 129.598C484.433 129.481 484.891 129.315 485.361 129.102V130.718C484.934 130.921 484.491 131.07 484.033 131.166C483.574 131.262 483.025 131.31 482.385 131.31C481.542 131.31 480.79 131.15 480.129 130.83C479.478 130.499 478.966 130.003 478.593 129.342C478.23 128.681 478.049 127.859 478.049 126.878C478.049 125.886 478.214 125.054 478.545 124.382C478.886 123.699 479.355 123.187 479.953 122.846C480.55 122.494 481.249 122.318 482.049 122.318ZM482.049 123.806C481.515 123.806 481.078 123.982 480.737 124.334C480.406 124.675 480.209 125.187 480.145 125.87H483.873C483.873 125.465 483.803 125.107 483.665 124.798C483.537 124.489 483.339 124.249 483.073 124.078C482.806 123.897 482.465 123.806 482.049 123.806ZM491.362 131.31C490.54 131.31 489.826 131.155 489.218 130.846C488.62 130.526 488.156 130.041 487.826 129.39C487.506 128.729 487.346 127.886 487.346 126.862C487.346 125.795 487.522 124.931 487.874 124.27C488.236 123.598 488.732 123.107 489.362 122.798C489.991 122.478 490.711 122.318 491.522 122.318C492.066 122.318 492.551 122.371 492.978 122.478C493.404 122.585 493.767 122.713 494.066 122.862L493.474 124.446C493.143 124.318 492.812 124.211 492.482 124.126C492.151 124.03 491.831 123.982 491.522 123.982C491.042 123.982 490.642 124.089 490.322 124.302C490.012 124.515 489.783 124.835 489.634 125.262C489.484 125.678 489.41 126.206 489.41 126.846C489.41 127.465 489.484 127.982 489.634 128.398C489.794 128.814 490.028 129.129 490.338 129.342C490.647 129.545 491.031 129.646 491.49 129.646C491.98 129.646 492.412 129.587 492.786 129.47C493.159 129.353 493.511 129.193 493.842 128.99V130.734C493.511 130.937 493.154 131.081 492.77 131.166C492.396 131.262 491.927 131.31 491.362 131.31ZM499.233 129.694C499.489 129.694 499.734 129.673 499.969 129.63C500.204 129.577 500.422 129.518 500.625 129.454V130.958C500.412 131.054 500.134 131.134 499.793 131.198C499.452 131.273 499.094 131.31 498.721 131.31C498.23 131.31 497.782 131.23 497.377 131.07C496.982 130.899 496.662 130.611 496.417 130.206C496.182 129.801 496.065 129.235 496.065 128.51V123.998H494.897V123.118L496.177 122.414L496.817 120.574H498.081V122.478H500.545V123.998H498.081V128.494C498.081 128.899 498.188 129.203 498.401 129.406C498.614 129.598 498.892 129.694 499.233 129.694Z" fill="white"/>
<rect x="665" y="196" width="285" height="51" rx="3" fill="white" fill-opacity="0.05"/>
<rect x="665.5" y="196.5" width="284" height="50" rx="2.5" stroke="white" stroke-opacity="0.1"/>
<path d="M782.058 229.15H775.562V217.726H782.058V219.438H777.61V222.35H781.77V224.062H777.61V227.422H782.058V229.15ZM788.932 220.318C789.903 220.318 790.66 220.569 791.204 221.07C791.759 221.571 792.036 222.382 792.036 223.502V229.15H790.02V223.902C790.02 223.251 789.892 222.766 789.636 222.446C789.38 222.115 788.975 221.95 788.42 221.95C787.609 221.95 787.055 222.206 786.756 222.718C786.457 223.219 786.308 223.95 786.308 224.91V229.15H784.292V220.478H785.844L786.132 221.614H786.244C786.436 221.315 786.671 221.07 786.948 220.878C787.225 220.686 787.535 220.547 787.876 220.462C788.217 220.366 788.569 220.318 788.932 220.318ZM797.47 220.318C798.014 220.318 798.504 220.425 798.942 220.638C799.379 220.851 799.747 221.171 800.046 221.598H800.126L800.318 220.478H801.998V229.214C801.998 230.035 801.843 230.723 801.534 231.278C801.224 231.843 800.76 232.27 800.142 232.558C799.523 232.846 798.75 232.99 797.822 232.99C797.203 232.99 796.632 232.947 796.11 232.862C795.587 232.787 795.091 232.654 794.622 232.462V230.798C794.952 230.937 795.294 231.054 795.646 231.15C796.008 231.257 796.382 231.337 796.766 231.39C797.15 231.443 797.544 231.47 797.95 231.47C798.611 231.47 799.112 231.283 799.454 230.91C799.806 230.537 799.982 230.003 799.982 229.31V229.086C799.982 228.926 799.987 228.739 799.998 228.526C800.019 228.313 800.035 228.142 800.046 228.014H799.982C799.683 228.462 799.32 228.793 798.894 229.006C798.467 229.209 797.976 229.31 797.422 229.31C796.366 229.31 795.539 228.915 794.942 228.126C794.344 227.337 794.046 226.238 794.046 224.83C794.046 223.881 794.179 223.07 794.446 222.398C794.723 221.726 795.118 221.214 795.63 220.862C796.142 220.499 796.755 220.318 797.47 220.318ZM797.998 221.966C797.592 221.966 797.246 222.078 796.958 222.302C796.68 222.515 796.467 222.835 796.318 223.262C796.179 223.689 796.11 224.222 796.11 224.862C796.11 225.801 796.27 226.51 796.59 226.99C796.91 227.47 797.39 227.71 798.03 227.71C798.392 227.71 798.702 227.667 798.958 227.582C799.214 227.486 799.422 227.337 799.582 227.134C799.752 226.921 799.88 226.654 799.966 226.334C800.051 226.003 800.094 225.609 800.094 225.15V224.846C800.094 224.153 800.019 223.598 799.87 223.182C799.72 222.755 799.491 222.446 799.182 222.254C798.883 222.062 798.488 221.966 797.998 221.966ZM808.029 220.318C809.149 220.318 809.997 220.563 810.573 221.054C811.16 221.534 811.453 222.291 811.453 223.326V229.15H810.029L809.629 227.95H809.565C809.32 228.259 809.064 228.521 808.797 228.734C808.541 228.937 808.243 229.081 807.901 229.166C807.571 229.262 807.165 229.31 806.685 229.31C806.173 229.31 805.709 229.214 805.293 229.022C804.888 228.83 804.568 228.537 804.333 228.142C804.099 227.737 803.981 227.23 803.981 226.622C803.981 225.726 804.307 225.054 804.957 224.606C805.619 224.147 806.616 223.897 807.949 223.854L809.453 223.806V223.374C809.453 222.819 809.32 222.425 809.053 222.19C808.787 221.955 808.413 221.838 807.933 221.838C807.496 221.838 807.075 221.902 806.669 222.03C806.264 222.158 805.869 222.307 805.485 222.478L804.845 221.07C805.272 220.846 805.757 220.665 806.301 220.526C806.856 220.387 807.432 220.318 808.029 220.318ZM808.397 225.086C807.512 225.118 806.899 225.273 806.557 225.55C806.216 225.817 806.045 226.179 806.045 226.638C806.045 227.043 806.168 227.337 806.413 227.518C806.659 227.699 806.973 227.79 807.357 227.79C807.944 227.79 808.44 227.625 808.845 227.294C809.251 226.953 809.453 226.451 809.453 225.79V225.054L808.397 225.086ZM816.892 220.318C817.436 220.318 817.926 220.425 818.364 220.638C818.801 220.851 819.169 221.171 819.468 221.598H819.548L819.74 220.478H821.42V229.214C821.42 230.035 821.265 230.723 820.956 231.278C820.646 231.843 820.182 232.27 819.564 232.558C818.945 232.846 818.172 232.99 817.244 232.99C816.625 232.99 816.054 232.947 815.532 232.862C815.009 232.787 814.513 232.654 814.044 232.462V230.798C814.374 230.937 814.716 231.054 815.068 231.15C815.43 231.257 815.804 231.337 816.188 231.39C816.572 231.443 816.966 231.47 817.372 231.47C818.033 231.47 818.534 231.283 818.876 230.91C819.228 230.537 819.404 230.003 819.404 229.31V229.086C819.404 228.926 819.409 228.739 819.42 228.526C819.441 228.313 819.457 228.142 819.468 228.014H819.404C819.105 228.462 818.742 228.793 818.316 229.006C817.889 229.209 817.398 229.31 816.844 229.31C815.788 229.31 814.961 228.915 814.364 228.126C813.766 227.337 813.468 226.238 813.468 224.83C813.468 223.881 813.601 223.07 813.868 222.398C814.145 221.726 814.54 221.214 815.052 220.862C815.564 220.499 816.177 220.318 816.892 220.318ZM817.42 221.966C817.014 221.966 816.668 222.078 816.38 222.302C816.102 222.515 815.889 222.835 815.74 223.262C815.601 223.689 815.532 224.222 815.532 224.862C815.532 225.801 815.692 226.51 816.012 226.99C816.332 227.47 816.812 227.71 817.452 227.71C817.814 227.71 818.124 227.667 818.38 227.582C818.636 227.486 818.844 227.337 819.004 227.134C819.174 226.921 819.302 226.654 819.388 226.334C819.473 226.003 819.516 225.609 819.516 225.15V224.846C819.516 224.153 819.441 223.598 819.292 223.182C819.142 222.755 818.913 222.446 818.604 222.254C818.305 222.062 817.91 221.966 817.42 221.966ZM827.483 220.318C828.262 220.318 828.929 220.478 829.483 220.798C830.049 221.107 830.486 221.555 830.795 222.142C831.105 222.718 831.259 223.422 831.259 224.254V225.278H825.531C825.553 226.067 825.771 226.681 826.187 227.118C826.603 227.545 827.179 227.758 827.915 227.758C828.481 227.758 828.982 227.705 829.419 227.598C829.867 227.481 830.326 227.315 830.795 227.102V228.718C830.369 228.921 829.926 229.07 829.467 229.166C829.009 229.262 828.459 229.31 827.819 229.31C826.977 229.31 826.225 229.15 825.563 228.83C824.913 228.499 824.401 228.003 824.027 227.342C823.665 226.681 823.483 225.859 823.483 224.878C823.483 223.886 823.649 223.054 823.979 222.382C824.321 221.699 824.79 221.187 825.387 220.846C825.985 220.494 826.683 220.318 827.483 220.318ZM827.483 221.806C826.95 221.806 826.513 221.982 826.171 222.334C825.841 222.675 825.643 223.187 825.579 223.87H829.307C829.307 223.465 829.238 223.107 829.099 222.798C828.971 222.489 828.774 222.249 828.507 222.078C828.241 221.897 827.899 221.806 827.483 221.806Z" fill="white"/>
<path d="M285.258 21C282.337 21 280 22.7215 280 24.8734C280 27.0253 282.337 28.7468 285.258 28.7468C288.18 28.7468 290.517 27.0253 290.517 24.8734C290.517 22.7215 288.18 21 285.258 21Z" fill="#6016FC"/>
<path d="M333.061 124.061C333.646 123.475 333.646 122.525 333.061 121.939L323.515 112.393C322.929 111.808 321.979 111.808 321.393 112.393C320.808 112.979 320.808 113.929 321.393 114.515L329.879 123L321.393 131.485C320.808 132.071 320.808 133.021 321.393 133.607C321.979 134.192 322.929 134.192 323.515 133.607L333.061 124.061ZM281.5 24.8734C281.5 24.3817 281.762 23.8246 282.423 23.3375C283.087 22.8489 284.081 22.5 285.258 22.5V19.5C283.515 19.5 281.88 20.0119 280.644 20.922C279.407 21.8336 278.5 23.2132 278.5 24.8734H281.5ZM285.258 22.5C286.436 22.5 287.43 22.8489 288.094 23.3375C288.755 23.8246 289.017 24.3817 289.017 24.8734H292.017C292.017 23.2132 291.11 21.8336 289.873 20.922C288.637 20.0119 287.002 19.5 285.258 19.5V22.5ZM289.017 24.8734C289.017 25.3651 288.755 25.9222 288.094 26.4094C287.43 26.898 286.436 27.2468 285.258 27.2468V30.2468C287.002 30.2468 288.637 29.735 289.873 28.8248C291.11 27.9132 292.017 26.5336 292.017 24.8734H289.017ZM285.258 27.2468C284.081 27.2468 283.087 26.898 282.423 26.4094C281.762 25.9222 281.5 25.3651 281.5 24.8734H278.5C278.5 26.5336 279.407 27.9132 280.644 28.8248C281.88 29.735 283.515 30.2468 285.258 30.2468V27.2468ZM307.129 42.9858V103H310.129V42.9858H307.129ZM328.629 124.5H332V121.5H328.629V124.5ZM307.129 103C307.129 114.874 316.755 124.5 328.629 124.5V121.5C318.412 121.5 310.129 113.217 310.129 103H307.129ZM290.517 26.3734C299.692 26.3734 307.129 33.811 307.129 42.9858H310.129C310.129 32.1542 301.348 23.3734 290.517 23.3734V26.3734Z" fill="white" fill-opacity="0.1"/>
<path d="M617.36 119C614.382 119 612 120.722 612 122.873C612 125.025 614.382 126.747 617.36 126.747C620.337 126.747 622.719 125.025 622.719 122.873C622.719 120.722 620.337 119 617.36 119Z" fill="#6016FC"/>
<path d="M666.061 222.061C666.646 221.475 666.646 220.525 666.061 219.939L656.515 210.393C655.929 209.808 654.979 209.808 654.393 210.393C653.808 210.979 653.808 211.929 654.393 212.515L662.879 221L654.393 229.485C653.808 230.071 653.808 231.021 654.393 231.607C654.979 232.192 655.929 232.192 656.515 231.607L666.061 222.061ZM613.5 122.873C613.5 122.394 613.76 121.838 614.442 121.345C615.124 120.852 616.147 120.5 617.36 120.5V117.5C615.594 117.5 613.938 118.008 612.685 118.914C611.431 119.82 610.5 121.201 610.5 122.873H613.5ZM617.36 120.5C618.572 120.5 619.595 120.852 620.277 121.345C620.959 121.838 621.219 122.394 621.219 122.873H624.219C624.219 121.201 623.289 119.82 622.035 118.914C620.781 118.008 619.125 117.5 617.36 117.5V120.5ZM621.219 122.873C621.219 123.353 620.959 123.909 620.277 124.401C619.595 124.894 618.572 125.247 617.36 125.247V128.247C619.125 128.247 620.781 127.739 622.035 126.833C623.289 125.927 624.219 124.546 624.219 122.873H621.219ZM617.36 125.247C616.147 125.247 615.124 124.894 614.442 124.401C613.76 123.909 613.5 123.353 613.5 122.873H610.5C610.5 124.546 611.431 125.927 612.685 126.833C613.938 127.739 615.594 128.247 617.36 128.247V125.247ZM639.68 141.334V201H642.68V141.334H639.68ZM661.18 222.5H665V219.5H661.18V222.5ZM639.68 201C639.68 212.874 649.306 222.5 661.18 222.5V219.5C650.963 219.5 642.68 211.217 642.68 201H639.68ZM622.719 124.373C632.086 124.373 639.68 131.967 639.68 141.334H642.68C642.68 130.31 633.743 121.373 622.719 121.373V124.373Z" fill="white" fill-opacity="0.1"/>
</svg>
