<svg width="20" height="20" viewBox="0 0 20 20" fill="none" xmlns="http://www.w3.org/2000/svg">
<path d="M10.834 7.49984H14.584L14.1673 9.1665H10.834V16.6665H9.16732V9.1665H5.83398V7.49984H9.16732V5.93984C9.16732 4.454 9.32232 3.91484 9.61232 3.3715C9.89649 2.83468 10.3355 2.39568 10.8723 2.1115C11.4157 1.8215 11.9548 1.6665 13.4407 1.6665C13.8757 1.6665 14.2573 1.70817 14.584 1.7915V3.33317H13.4407C12.3373 3.33317 12.0015 3.39817 11.659 3.5815C11.4057 3.7165 11.2173 3.90484 11.0823 4.15817C10.899 4.50067 10.834 4.8365 10.834 5.93984V7.49984Z" fill="white"/>
</svg>
