<svg width="26" height="26" viewBox="0 0 26 26" fill="none" xmlns="http://www.w3.org/2000/svg">
<circle cx="13" cy="13" r="13" fill="white" fill-opacity="0.1"/>
<path d="M18.9647 10.5367C18.958 10.0318 18.8635 9.53185 18.6854 9.05934C18.5309 8.66077 18.2951 8.2988 17.9928 7.99656C17.6906 7.69431 17.3286 7.45844 16.93 7.304C16.4636 7.12891 15.9708 7.03423 15.4727 7.024C14.8314 6.99534 14.628 6.98734 13 6.98734C11.372 6.98734 11.1634 6.98734 10.5267 7.024C10.0288 7.0343 9.53628 7.12898 9.07005 7.304C8.67142 7.45833 8.30939 7.69416 8.00714 7.99642C7.70488 8.29868 7.46904 8.66071 7.31471 9.05934C7.13927 9.52542 7.0448 10.0181 7.03538 10.516C7.00671 11.158 6.99805 11.3613 6.99805 12.9893C6.99805 14.6173 6.99805 14.8253 7.03538 15.4627C7.04538 15.9613 7.13938 16.4533 7.31471 16.9207C7.4693 17.3192 7.70531 17.6811 8.00767 17.9832C8.31003 18.2853 8.67209 18.5211 9.07071 18.6753C9.53567 18.8575 10.0283 18.9589 10.5274 18.9753C11.1694 19.004 11.3727 19.0127 13.0007 19.0127C14.6287 19.0127 14.8374 19.0127 15.474 18.9753C15.9721 18.9655 16.465 18.8711 16.9314 18.696C17.3298 18.5414 17.6917 18.3055 17.9939 18.0032C18.2962 17.701 18.5321 17.3391 18.6867 16.9407C18.862 16.474 18.956 15.982 18.966 15.4827C18.9947 14.8413 19.0034 14.638 19.0034 13.0093C19.002 11.3813 19.002 11.1747 18.9647 10.5367ZM12.996 16.068C11.2934 16.068 9.91405 14.6887 9.91405 12.986C9.91405 11.2833 11.2934 9.904 12.996 9.904C13.8134 9.904 14.5974 10.2287 15.1754 10.8067C15.7533 11.3847 16.078 12.1686 16.078 12.986C16.078 13.8034 15.7533 14.5873 15.1754 15.1653C14.5974 15.7433 13.8134 16.068 12.996 16.068ZM16.2007 10.5087C16.1063 10.5088 16.0128 10.4902 15.9256 10.4541C15.8384 10.4181 15.7591 10.3651 15.6923 10.2984C15.6256 10.2316 15.5727 10.1524 15.5366 10.0651C15.5005 9.9779 15.482 9.8844 15.482 9.79C15.482 9.69567 15.5006 9.60226 15.5367 9.51511C15.5728 9.42796 15.6257 9.34877 15.6924 9.28206C15.7591 9.21536 15.8383 9.16245 15.9255 9.12635C16.0126 9.09025 16.106 9.07167 16.2004 9.07167C16.2947 9.07167 16.3881 9.09025 16.4753 9.12635C16.5624 9.16245 16.6416 9.21536 16.7083 9.28206C16.775 9.34877 16.8279 9.42796 16.864 9.51511C16.9001 9.60226 16.9187 9.69567 16.9187 9.79C16.9187 10.1873 16.5974 10.5087 16.2007 10.5087Z" fill="white"/>
<path d="M12.9959 14.988C14.1016 14.988 14.9979 14.0917 14.9979 12.986C14.9979 11.8803 14.1016 10.984 12.9959 10.984C11.8902 10.984 10.9939 11.8803 10.9939 12.986C10.9939 14.0917 11.8902 14.988 12.9959 14.988Z" fill="white"/>
</svg>
