<svg width="20" height="20" viewBox="0 0 20 20" fill="none" xmlns="http://www.w3.org/2000/svg">
<path d="M9.99935 7.49984C9.33631 7.49984 8.70042 7.76323 8.23158 8.23207C7.76274 8.70091 7.49935 9.3368 7.49935 9.99984C7.49935 10.6629 7.76274 11.2988 8.23158 11.7676C8.70042 12.2364 9.33631 12.4998 9.99935 12.4998C10.6624 12.4998 11.2983 12.2364 11.7671 11.7676C12.236 11.2988 12.4993 10.6629 12.4993 9.99984C12.4993 9.3368 12.236 8.70091 11.7671 8.23207C11.2983 7.76323 10.6624 7.49984 9.99935 7.49984ZM9.99935 5.83317C11.1044 5.83317 12.1642 6.27216 12.9456 7.05356C13.727 7.83496 14.166 8.89477 14.166 9.99984C14.166 11.1049 13.727 12.1647 12.9456 12.9461C12.1642 13.7275 11.1044 14.1665 9.99935 14.1665C8.89428 14.1665 7.83447 13.7275 7.05307 12.9461C6.27167 12.1647 5.83268 11.1049 5.83268 9.99984C5.83268 8.89477 6.27167 7.83496 7.05307 7.05356C7.83447 6.27216 8.89428 5.83317 9.99935 5.83317V5.83317ZM15.416 5.62484C15.416 5.9011 15.3063 6.16606 15.1109 6.36141C14.9156 6.55676 14.6506 6.6665 14.3743 6.6665C14.0981 6.6665 13.8331 6.55676 13.6378 6.36141C13.4424 6.16606 13.3327 5.9011 13.3327 5.62484C13.3327 5.34857 13.4424 5.08362 13.6378 4.88827C13.8331 4.69292 14.0981 4.58317 14.3743 4.58317C14.6506 4.58317 14.9156 4.69292 15.1109 4.88827C15.3063 5.08362 15.416 5.34857 15.416 5.62484V5.62484ZM9.99935 3.33317C7.93768 3.33317 7.60102 3.339 6.64185 3.3815C5.98852 3.41234 5.55018 3.49984 5.14352 3.65817C4.78185 3.79817 4.52102 3.96567 4.24352 4.244C3.98269 4.496 3.78214 4.80366 3.65685 5.144C3.49852 5.55234 3.41102 5.98984 3.38102 6.64234C3.33768 7.56234 3.33268 7.884 3.33268 9.99984C3.33268 12.0615 3.33852 12.3982 3.38102 13.3573C3.41185 14.0098 3.49935 14.449 3.65685 14.8548C3.79852 15.2173 3.96518 15.4782 4.24185 15.7548C4.52268 16.0348 4.78352 16.2023 5.14185 16.3407C5.55352 16.4998 5.99185 16.5882 6.64185 16.6182C7.56185 16.6615 7.88352 16.6665 9.99935 16.6665C12.061 16.6665 12.3977 16.6607 13.3568 16.6182C14.0085 16.5873 14.4477 16.4998 14.8543 16.3423C15.2152 16.2015 15.4777 16.034 15.7543 15.7573C16.0352 15.4765 16.2027 15.2157 16.341 14.8573C16.4994 14.4465 16.5877 14.0073 16.6177 13.3573C16.661 12.4373 16.666 12.1157 16.666 9.99984C16.666 7.93817 16.6602 7.6015 16.6177 6.64234C16.5868 5.99067 16.4994 5.55067 16.341 5.144C16.2154 4.80401 16.0152 4.49647 15.7552 4.244C15.5033 3.98304 15.1956 3.78248 14.8552 3.65734C14.4468 3.499 14.0085 3.4115 13.3568 3.3815C12.4368 3.33817 12.1152 3.33317 9.99935 3.33317ZM9.99935 1.6665C12.2635 1.6665 12.546 1.67484 13.4343 1.7165C14.3218 1.75817 14.926 1.89734 15.4577 2.104C16.0077 2.31567 16.471 2.60234 16.9344 3.06484C17.3581 3.48142 17.686 3.98533 17.8952 4.5415C18.101 5.07234 18.241 5.67734 18.2827 6.56484C18.3219 7.45317 18.3327 7.73567 18.3327 9.99984C18.3327 12.264 18.3244 12.5465 18.2827 13.4348C18.241 14.3223 18.101 14.9265 17.8952 15.4582C17.6866 16.0147 17.3586 16.5187 16.9344 16.9348C16.5177 17.3584 16.0138 17.6863 15.4577 17.8957C14.9268 18.1015 14.3218 18.2415 13.4343 18.2832C12.546 18.3223 12.2635 18.3332 9.99935 18.3332C7.73518 18.3332 7.45268 18.3248 6.56435 18.2832C5.67685 18.2415 5.07268 18.1015 4.54102 17.8957C3.98462 17.6869 3.48062 17.359 3.06435 16.9348C2.64052 16.5183 2.31263 16.0144 2.10352 15.4582C1.89685 14.9273 1.75768 14.3223 1.71602 13.4348C1.67685 12.5465 1.66602 12.264 1.66602 9.99984C1.66602 7.73567 1.67435 7.45317 1.71602 6.56484C1.75768 5.6765 1.89685 5.07317 2.10352 4.5415C2.31205 3.98499 2.64002 3.48094 3.06435 3.06484C3.48074 2.64086 3.98471 2.31295 4.54102 2.104C5.07268 1.89734 5.67602 1.75817 6.56435 1.7165C7.45268 1.67734 7.73518 1.6665 9.99935 1.6665Z" fill="white"/>
</svg>
