<svg width="48" height="48" viewBox="0 0 48 48" fill="none" xmlns="http://www.w3.org/2000/svg">
<path d="M7.20002 4.80005C5.92699 4.80005 4.70609 5.30576 3.80591 6.20594C2.90574 7.10611 2.40002 8.32701 2.40002 9.60005V19.2C2.40002 20.4731 2.90574 21.694 3.80591 22.5942C4.70609 23.4943 5.92699 24 7.20002 24H26.4C27.6731 24 28.894 23.4943 29.7941 22.5942C30.6943 21.694 31.2 20.4731 31.2 19.2V9.60005C31.2 8.32701 30.6943 7.10611 29.7941 6.20594C28.894 5.30576 27.6731 4.80005 26.4 4.80005H7.20002ZM7.20002 33.6V26.4H9.60002V33.6C9.60002 34.2366 9.85288 34.847 10.303 35.2971C10.7531 35.7472 11.3635 36 12 36H40.8C41.4365 36 42.047 35.7472 42.4971 35.2971C42.9472 34.847 43.2 34.2366 43.2 33.6V14.4C43.2 13.7635 42.9472 13.1531 42.4971 12.703C42.047 12.2529 41.4365 12 40.8 12H33.6V9.60005H40.8C42.0731 9.60005 43.294 10.1058 44.1941 11.0059C45.0943 11.9061 45.6 13.127 45.6 14.4V33.6C45.6 34.8731 45.0943 36.094 44.1941 36.9942C43.294 37.8943 42.0731 38.4001 40.8 38.4001H12C10.727 38.4001 9.50609 37.8943 8.60591 36.9942C7.70574 36.094 7.20002 34.8731 7.20002 33.6Z" fill="white"/>
</svg>
