<svg width="98" height="25" viewBox="0 0 98 25" fill="none" xmlns="http://www.w3.org/2000/svg">
<path fill-rule="evenodd" clip-rule="evenodd" d="M5.41846 0C3.75323 0 2.96594 2.05417 4.20462 3.16713L9.20546 7.66042C9.33026 7.77256 9.38948 7.94498 9.36014 8.11018C9.3417 8.21399 9.33208 8.32084 9.33208 8.42995V15.4762C9.33208 16.0873 9.63947 16.6575 10.15 16.9934L15.3995 20.4471C16.6071 21.2416 18.2139 20.3754 18.2139 18.9298V8.42995C18.2139 8.27003 18.3343 8.12564 18.4942 8.12564H24.1853C25.1884 8.12564 26.0015 7.31251 26.0015 6.30947V1.81618C26.0015 0.81313 25.1884 0 24.1853 0H5.41846Z" fill="white"/>
<path d="M0 4.98129C0 3.41542 1.84904 2.58351 3.02086 3.62216L4.73342 5.14011C5.98411 6.24867 5.2 8.31542 3.52873 8.31542H1.81618C0.81313 8.31542 0 7.50229 0 6.49924V4.98129Z" fill="white"/>
<circle cx="24.2752" cy="19.8406" r="1.70096" fill="#FF9F1C"/>
<path d="M33.02 10.88C33.74 9.76 35.0067 9.2 36.82 9.2V11.58C36.6067 11.54 36.4133 11.52 36.24 11.52C35.2667 11.52 34.5067 11.8067 33.96 12.38C33.4133 12.94 33.14 13.7533 33.14 14.82V20H30.64V9.32H33.02V10.88ZM42.9622 9.2C44.5355 9.2 45.7355 9.58 46.5622 10.34C47.4022 11.0867 47.8222 12.22 47.8222 13.74V20H45.4622V18.7C45.1555 19.1667 44.7155 19.5267 44.1422 19.78C43.5822 20.02 42.9022 20.14 42.1022 20.14C41.3022 20.14 40.6022 20.0067 40.0022 19.74C39.4022 19.46 38.9355 19.08 38.6022 18.6C38.2822 18.1067 38.1222 17.5533 38.1222 16.94C38.1222 15.98 38.4755 15.2133 39.1822 14.64C39.9022 14.0533 41.0289 13.76 42.5622 13.76H45.3222V13.6C45.3222 12.8533 45.0955 12.28 44.6422 11.88C44.2022 11.48 43.5422 11.28 42.6622 11.28C42.0622 11.28 41.4689 11.3733 40.8822 11.56C40.3089 11.7467 39.8222 12.0067 39.4222 12.34L38.4422 10.52C39.0022 10.0933 39.6755 9.76667 40.4622 9.54C41.2489 9.31333 42.0822 9.2 42.9622 9.2ZM42.6222 18.32C43.2489 18.32 43.8022 18.18 44.2822 17.9C44.7755 17.6067 45.1222 17.1933 45.3222 16.66V15.42H42.7422C41.3022 15.42 40.5822 15.8933 40.5822 16.84C40.5822 17.2933 40.7622 17.6533 41.1222 17.92C41.4822 18.1867 41.9822 18.32 42.6222 18.32ZM61.5883 5.16V20H59.1883V18.62C58.7749 19.1267 58.2616 19.5067 57.6483 19.76C57.0483 20.0133 56.3816 20.14 55.6483 20.14C54.6216 20.14 53.6949 19.9133 52.8683 19.46C52.0549 19.0067 51.4149 18.3667 50.9483 17.54C50.4816 16.7 50.2483 15.74 50.2483 14.66C50.2483 13.58 50.4816 12.6267 50.9483 11.8C51.4149 10.9733 52.0549 10.3333 52.8683 9.88C53.6949 9.42667 54.6216 9.2 55.6483 9.2C56.3549 9.2 57.0016 9.32 57.5883 9.56C58.1749 9.8 58.6749 10.16 59.0883 10.64V5.16H61.5883ZM55.9483 18C56.5483 18 57.0883 17.8667 57.5683 17.6C58.0483 17.32 58.4283 16.9267 58.7083 16.42C58.9883 15.9133 59.1283 15.3267 59.1283 14.66C59.1283 13.9933 58.9883 13.4067 58.7083 12.9C58.4283 12.3933 58.0483 12.0067 57.5683 11.74C57.0883 11.46 56.5483 11.32 55.9483 11.32C55.3483 11.32 54.8083 11.46 54.3283 11.74C53.8483 12.0067 53.4683 12.3933 53.1883 12.9C52.9083 13.4067 52.7683 13.9933 52.7683 14.66C52.7683 15.3267 52.9083 15.9133 53.1883 16.42C53.4683 16.9267 53.8483 17.32 54.3283 17.6C54.8083 17.8667 55.3483 18 55.9483 18ZM74.8988 14.72C74.8988 14.8933 74.8854 15.14 74.8588 15.46H66.4788C66.6254 16.2467 67.0054 16.8733 67.6188 17.34C68.2454 17.7933 69.0188 18.02 69.9388 18.02C71.1121 18.02 72.0788 17.6333 72.8388 16.86L74.1788 18.4C73.6988 18.9733 73.0921 19.4067 72.3588 19.7C71.6254 19.9933 70.7988 20.14 69.8788 20.14C68.7054 20.14 67.6721 19.9067 66.7788 19.44C65.8854 18.9733 65.1921 18.3267 64.6988 17.5C64.2188 16.66 63.9788 15.7133 63.9788 14.66C63.9788 13.62 64.2121 12.6867 64.6788 11.86C65.1588 11.02 65.8188 10.3667 66.6588 9.9C67.4988 9.43333 68.4454 9.2 69.4988 9.2C70.5388 9.2 71.4654 9.43333 72.2788 9.9C73.1054 10.3533 73.7454 11 74.1988 11.84C74.6654 12.6667 74.8988 13.6267 74.8988 14.72ZM69.4988 11.2C68.6988 11.2 68.0188 11.44 67.4588 11.92C66.9121 12.3867 66.5788 13.0133 66.4588 13.8H72.5188C72.4121 13.0267 72.0854 12.4 71.5388 11.92C70.9921 11.44 70.3121 11.2 69.4988 11.2ZM76.9555 13.4H82.4555V15.48H76.9555V13.4ZM93.8602 20L90.0602 14.68L86.3002 20H83.3402L88.5402 12.86L83.6202 6H86.5602L90.1402 10.98L93.6802 6H96.5002L91.6002 12.76L96.8602 20H93.8602Z" fill="white"/>
</svg>
