<svg width="429" height="311" viewBox="0 0 429 311" fill="none" xmlns="http://www.w3.org/2000/svg">
<rect width="429" height="311" rx="10" fill="white" fill-opacity="0.1"/>
<circle cx="31" cy="30" r="5" fill="#FC165B"/>
<circle cx="47" cy="30" r="5" fill="#FCA016"/>
<circle cx="63" cy="30" r="5" fill="#16FCA9"/>
<path d="M109 64C109 62.3432 110.343 61 112 61H318C319.657 61 321 62.3431 321 64V311H109V64Z" fill="white" fill-opacity="0.1"/>
<path d="M109.5 64C109.5 62.6193 110.619 61.5 112 61.5H318C319.381 61.5 320.5 62.6193 320.5 64V310.5H109.5V64Z" stroke="white" stroke-opacity="0.2"/>
<rect x="127" y="117" width="176" height="87" rx="3" fill="white" fill-opacity="0.05"/>
<rect x="26" y="68.4927" width="21" height="21" rx="3" fill="white" fill-opacity="0.1"/>
<rect x="26" y="101.492" width="21" height="21" rx="3" fill="white" fill-opacity="0.1"/>
<rect x="26" y="134.493" width="21" height="21" rx="3" fill="white" fill-opacity="0.1"/>
<rect x="26" y="167.493" width="21" height="21" rx="3" fill="white" fill-opacity="0.1"/>
<rect x="57" y="68.4927" width="21" height="21" rx="3" fill="white" fill-opacity="0.1"/>
<rect x="341" y="62.4927" width="56" height="55" rx="3" fill="white" fill-opacity="0.1"/>
<rect x="341" y="134" width="56" height="21" rx="3" fill="white" fill-opacity="0.1"/>
<rect x="345.721" y="67.4927" width="46" height="30" rx="3" fill="white" fill-opacity="0.05"/>
<rect x="341" y="172.493" width="56" height="43" rx="3" fill="white" fill-opacity="0.1"/>
<rect x="26" y="204.493" width="52" height="59" rx="3" fill="white" fill-opacity="0.1"/>
<rect x="57" y="101.492" width="21" height="21" rx="3" fill="white" fill-opacity="0.1"/>
<rect x="57" y="134.493" width="21" height="21" rx="3" fill="white" fill-opacity="0.1"/>
<rect x="57" y="167.493" width="21" height="21" rx="3" fill="white" fill-opacity="0.1"/>
<rect x="127" y="213" width="84" height="87" rx="3" fill="white" fill-opacity="0.05"/>
<rect x="219" y="213" width="84" height="87" rx="3" fill="white" fill-opacity="0.05"/>
<path d="M203.801 94.4927L203.787 88.6127L200.903 93.4567H199.881L197.011 88.7387V94.4927H194.883V84.6927H196.759L200.427 90.7827L204.039 84.6927H205.901L205.929 94.4927H203.801ZM215.478 90.7547C215.478 90.7827 215.464 90.9787 215.436 91.3427H209.738C209.84 91.8093 210.083 92.178 210.466 92.4487C210.848 92.7193 211.324 92.8547 211.894 92.8547C212.286 92.8547 212.631 92.7987 212.93 92.6867C213.238 92.5653 213.522 92.3787 213.784 92.1267L214.946 93.3867C214.236 94.1987 213.2 94.6047 211.838 94.6047C210.988 94.6047 210.237 94.4413 209.584 94.1147C208.93 93.7787 208.426 93.3167 208.072 92.7287C207.717 92.1407 207.54 91.4733 207.54 90.7267C207.54 89.9893 207.712 89.3267 208.058 88.7387C208.412 88.1413 208.893 87.6793 209.5 87.3527C210.116 87.0167 210.802 86.8487 211.558 86.8487C212.295 86.8487 212.962 87.0073 213.56 87.3247C214.157 87.642 214.624 88.0993 214.96 88.6967C215.305 89.2847 215.478 89.9707 215.478 90.7547ZM211.572 88.5007C211.077 88.5007 210.662 88.6407 210.326 88.9207C209.99 89.2007 209.784 89.5833 209.71 90.0687H213.42C213.345 89.5927 213.14 89.2147 212.804 88.9347C212.468 88.6453 212.057 88.5007 211.572 88.5007ZM219.018 87.9547C219.279 87.5907 219.629 87.3153 220.068 87.1287C220.516 86.942 221.029 86.8487 221.608 86.8487V88.8647C221.365 88.846 221.202 88.8367 221.118 88.8367C220.492 88.8367 220.002 89.014 219.648 89.3687C219.293 89.714 219.116 90.2367 219.116 90.9367V94.4927H216.932V86.9607H219.018V87.9547ZM226.478 94.6047C225.675 94.6047 224.952 94.4413 224.308 94.1147C223.673 93.7787 223.174 93.3167 222.81 92.7287C222.455 92.1407 222.278 91.4733 222.278 90.7267C222.278 89.98 222.455 89.3127 222.81 88.7247C223.174 88.1367 223.673 87.6793 224.308 87.3527C224.952 87.0167 225.675 86.8487 226.478 86.8487C227.271 86.8487 227.962 87.0167 228.55 87.3527C229.147 87.6793 229.581 88.1507 229.852 88.7667L228.158 89.6767C227.766 88.986 227.201 88.6407 226.464 88.6407C225.895 88.6407 225.423 88.8273 225.05 89.2007C224.677 89.574 224.49 90.0827 224.49 90.7267C224.49 91.3707 224.677 91.8793 225.05 92.2527C225.423 92.626 225.895 92.8127 226.464 92.8127C227.211 92.8127 227.775 92.4673 228.158 91.7767L229.852 92.7007C229.581 93.298 229.147 93.7647 228.55 94.1007C227.962 94.4367 227.271 94.6047 226.478 94.6047ZM235.633 86.8487C236.566 86.8487 237.318 87.1287 237.887 87.6887C238.466 88.2487 238.755 89.0793 238.755 90.1807V94.4927H236.571V90.5167C236.571 89.9193 236.44 89.476 236.179 89.1867C235.918 88.888 235.54 88.7387 235.045 88.7387C234.494 88.7387 234.056 88.9113 233.729 89.2567C233.402 89.5927 233.239 90.0967 233.239 90.7687V94.4927H231.055V84.1047H233.239V87.7447C233.528 87.4553 233.878 87.236 234.289 87.0867C234.7 86.928 235.148 86.8487 235.633 86.8487Z" fill="white" fill-opacity="0.9"/>
<rect width="15" height="15" rx="3" transform="matrix(1 0 0 -1 127 97)" fill="white" fill-opacity="0.1"/>
<path d="M383.506 25.8394H395.045C395.279 25.8394 395.51 25.8884 395.724 25.9832C395.938 26.078 396.129 26.2166 396.286 26.39C396.443 26.5634 396.562 26.7677 396.635 26.9898C396.708 27.2119 396.734 27.4468 396.711 27.6795L396.208 32.7003C396.167 33.1132 395.974 33.4961 395.666 33.7746C395.358 34.0531 394.958 34.2073 394.543 34.2074H386.552C386.165 34.2075 385.79 34.0735 385.49 33.8282C385.191 33.5828 384.986 33.2413 384.91 32.8618L383.506 25.8394Z" stroke="white" stroke-opacity="0.6" stroke-width="2" stroke-linejoin="round"/>
<path d="M392.715 37.5551H394.389M383.51 25.8399L382.833 23.1261C382.787 22.9452 382.683 22.7846 382.536 22.6698C382.389 22.555 382.207 22.4927 382.021 22.4927H381L383.51 25.8399ZM386.021 37.5551H387.694H386.021Z" stroke="white" stroke-opacity="0.6" stroke-width="2" stroke-linecap="round" stroke-linejoin="round"/>
<path d="M357 143.445H353.565L352.5 140L351.435 143.445H348L350.775 145.571L349.725 149L352.5 146.874L355.275 149L354.21 145.555L357 143.445Z" fill="#FFCE31"/>
<path d="M367.918 143.445H364.483L363.418 140L362.353 143.445H358.918L361.693 145.571L360.643 149L363.418 146.874L366.193 149L365.128 145.555L367.918 143.445Z" fill="#FFCE31"/>
<path d="M378.834 143.445H375.399L374.334 140L373.269 143.445H369.834L372.609 145.571L371.559 149L374.334 146.874L377.109 149L376.044 145.555L378.834 143.445Z" fill="#FFCE31"/>
<path d="M389.752 143.445H386.317L385.252 140L384.187 143.445H380.752L383.527 145.571L382.477 149L385.252 146.874L388.027 149L386.962 145.555L389.752 143.445Z" fill="white"/>
<path d="M357.752 109.909C357.752 110.341 357.592 110.709 357.272 111.013C356.957 111.311 356.499 111.493 355.896 111.557V112.453H355.24V111.565C354.845 111.538 354.472 111.466 354.12 111.349C353.768 111.231 353.488 111.082 353.28 110.901L353.64 110.093C353.837 110.253 354.077 110.389 354.36 110.501C354.643 110.607 354.936 110.674 355.24 110.701V109.101C354.861 109.01 354.544 108.911 354.288 108.805C354.037 108.693 353.827 108.533 353.656 108.325C353.485 108.111 353.4 107.831 353.4 107.485C353.4 107.053 353.557 106.685 353.872 106.381C354.187 106.077 354.643 105.895 355.24 105.837V104.933H355.896V105.821C356.195 105.837 356.485 105.887 356.768 105.973C357.056 106.058 357.307 106.17 357.52 106.309L357.192 107.117C356.787 106.882 356.355 106.738 355.896 106.685V108.301C356.28 108.391 356.597 108.49 356.848 108.597C357.104 108.703 357.317 108.863 357.488 109.077C357.664 109.285 357.752 109.562 357.752 109.909ZM354.432 107.437C354.432 107.613 354.501 107.754 354.64 107.861C354.779 107.967 354.979 108.058 355.24 108.133V106.709C354.968 106.751 354.765 106.837 354.632 106.965C354.499 107.093 354.432 107.25 354.432 107.437ZM355.896 110.685C356.179 110.642 356.387 110.559 356.52 110.437C356.659 110.314 356.728 110.162 356.728 109.981C356.728 109.799 356.656 109.655 356.512 109.549C356.368 109.437 356.163 109.343 355.896 109.269V110.685ZM360.641 105.893V111.493H359.601V106.765H358.417V105.893H360.641ZM364.536 108.205C365.053 108.269 365.448 108.445 365.72 108.733C365.992 109.021 366.128 109.381 366.128 109.813C366.128 110.138 366.045 110.434 365.88 110.701C365.715 110.967 365.464 111.181 365.128 111.341C364.797 111.495 364.392 111.573 363.912 111.573C363.512 111.573 363.125 111.517 362.752 111.405C362.384 111.287 362.069 111.127 361.808 110.925L362.256 110.117C362.459 110.287 362.704 110.423 362.992 110.525C363.285 110.621 363.587 110.669 363.896 110.669C364.264 110.669 364.552 110.594 364.76 110.445C364.973 110.29 365.08 110.082 365.08 109.821C365.08 109.559 364.979 109.357 364.776 109.213C364.579 109.063 364.275 108.989 363.864 108.989H363.352V108.277L364.624 106.765H362.08V105.893H365.896V106.589L364.536 108.205ZM368.882 108.061C369.671 108.061 370.255 108.215 370.634 108.525C371.013 108.829 371.202 109.245 371.202 109.773C371.202 110.109 371.119 110.413 370.954 110.685C370.789 110.957 370.541 111.173 370.21 111.333C369.879 111.493 369.471 111.573 368.986 111.573C368.586 111.573 368.199 111.517 367.826 111.405C367.453 111.287 367.138 111.127 366.882 110.925L367.322 110.117C367.53 110.287 367.778 110.423 368.066 110.525C368.359 110.621 368.661 110.669 368.97 110.669C369.338 110.669 369.626 110.594 369.834 110.445C370.047 110.29 370.154 110.079 370.154 109.813C370.154 109.525 370.039 109.309 369.81 109.165C369.586 109.015 369.199 108.941 368.65 108.941H367.298L367.586 105.893H370.874V106.765H368.466L368.346 108.061H368.882ZM372.826 111.549C372.645 111.549 372.49 111.487 372.362 111.365C372.234 111.237 372.17 111.077 372.17 110.885C372.17 110.687 372.231 110.527 372.354 110.405C372.482 110.282 372.639 110.221 372.826 110.221C373.013 110.221 373.167 110.282 373.29 110.405C373.418 110.527 373.482 110.687 373.482 110.885C373.482 111.077 373.418 111.237 373.29 111.365C373.162 111.487 373.007 111.549 372.826 111.549ZM376.307 108.061C377.096 108.061 377.68 108.215 378.059 108.525C378.438 108.829 378.627 109.245 378.627 109.773C378.627 110.109 378.544 110.413 378.379 110.685C378.214 110.957 377.966 111.173 377.635 111.333C377.304 111.493 376.896 111.573 376.411 111.573C376.011 111.573 375.624 111.517 375.251 111.405C374.878 111.287 374.563 111.127 374.307 110.925L374.747 110.117C374.955 110.287 375.203 110.423 375.491 110.525C375.784 110.621 376.086 110.669 376.395 110.669C376.763 110.669 377.051 110.594 377.259 110.445C377.472 110.29 377.579 110.079 377.579 109.813C377.579 109.525 377.464 109.309 377.235 109.165C377.011 109.015 376.624 108.941 376.075 108.941H374.723L375.011 105.893H378.299V106.765H375.891L375.771 108.061H376.307ZM381.963 111.573C381.515 111.573 381.115 111.461 380.763 111.237C380.411 111.007 380.134 110.677 379.931 110.245C379.728 109.807 379.627 109.29 379.627 108.693C379.627 108.095 379.728 107.581 379.931 107.149C380.134 106.711 380.411 106.381 380.763 106.157C381.115 105.927 381.515 105.813 381.963 105.813C382.411 105.813 382.811 105.927 383.163 106.157C383.52 106.381 383.8 106.711 384.003 107.149C384.206 107.581 384.307 108.095 384.307 108.693C384.307 109.29 384.206 109.807 384.003 110.245C383.8 110.677 383.52 111.007 383.163 111.237C382.811 111.461 382.411 111.573 381.963 111.573ZM381.963 110.669C382.363 110.669 382.678 110.503 382.907 110.173C383.142 109.842 383.259 109.349 383.259 108.693C383.259 108.037 383.142 107.543 382.907 107.213C382.678 106.882 382.363 106.717 381.963 106.717C381.568 106.717 381.254 106.882 381.019 107.213C380.79 107.543 380.675 108.037 380.675 108.693C380.675 109.349 380.79 109.842 381.019 110.173C381.254 110.503 381.568 110.669 381.963 110.669Z" fill="white"/>
</svg>
