<svg width="48" height="48" viewBox="0 0 48 48" fill="none" xmlns="http://www.w3.org/2000/svg">
<path d="M10.0001 12H38.0001C39.1001 12 40.0001 11.1 40.0001 10C40.0001 8.9 39.1001 8 38.0001 8H10.0001C8.90015 8 8.00015 8.9 8.00015 10C8.00015 11.1 8.90015 12 10.0001 12ZM40.3201 15.6C40.1401 14.68 39.3201 14 38.3601 14H9.64015C8.68015 14 7.86015 14.68 7.68015 15.6L5.68015 25.6C5.44015 26.84 6.38015 28 7.64015 28H8.00015V38C8.00015 39.1 8.90015 40 10.0001 40H26.0001C27.1001 40 28.0001 39.1 28.0001 38V28H36.0001V38C36.0001 39.1 36.9001 40 38.0001 40C39.1001 40 40.0001 39.1 40.0001 38V28H40.3601C41.6201 28 42.5602 26.84 42.3201 25.6L40.3201 15.6ZM24.0001 36H12.0001V28H24.0001V36Z" fill="white"/>
</svg>
