<svg width="354" height="269" viewBox="0 0 354 269" fill="none" xmlns="http://www.w3.org/2000/svg">
<path d="M12.5 40.375C12.5 40.375 13.125 39.75 15 39.75C16.875 39.75 18.125 41 20 41C21.875 41 22.5 40.375 22.5 40.375V32.875C22.5 32.875 21.875 33.5 20 33.5C18.125 33.5 16.875 32.25 15 32.25C13.125 32.25 12.5 32.875 12.5 32.875V40.375Z" stroke="white" stroke-width="2" stroke-linecap="round" stroke-linejoin="round"/>
<path d="M12.5 44.75V40.375" stroke="white" stroke-width="2" stroke-linecap="round" stroke-linejoin="round"/>
<path d="M22.42 76H19.342L14.194 68.206V76H11.116V63.364H14.194L19.342 71.194V63.364H22.42V76ZM34.1192 70.816C34.1192 71.104 34.1012 71.404 34.0652 71.716H27.0992C27.1472 72.34 27.3452 72.82 27.6932 73.156C28.0532 73.48 28.4912 73.642 29.0072 73.642C29.7752 73.642 30.3092 73.318 30.6092 72.67H33.8852C33.7172 73.33 33.4112 73.924 32.9672 74.452C32.5352 74.98 31.9892 75.394 31.3292 75.694C30.6692 75.994 29.9312 76.144 29.1152 76.144C28.1312 76.144 27.2552 75.934 26.4872 75.514C25.7192 75.094 25.1192 74.494 24.6872 73.714C24.2552 72.934 24.0392 72.022 24.0392 70.978C24.0392 69.934 24.2492 69.022 24.6692 68.242C25.1012 67.462 25.7012 66.862 26.4692 66.442C27.2372 66.022 28.1192 65.812 29.1152 65.812C30.0872 65.812 30.9512 66.016 31.7072 66.424C32.4632 66.832 33.0512 67.414 33.4712 68.17C33.9032 68.926 34.1192 69.808 34.1192 70.816ZM30.9692 70.006C30.9692 69.478 30.7892 69.058 30.4292 68.746C30.0692 68.434 29.6192 68.278 29.0792 68.278C28.5632 68.278 28.1252 68.428 27.7652 68.728C27.4172 69.028 27.2012 69.454 27.1172 70.006H30.9692ZM50.161 65.956L47.443 76H44.041L42.457 69.484L40.819 76H37.435L34.699 65.956H37.777L39.199 73.138L40.891 65.956H44.149L45.859 73.102L47.263 65.956H50.161ZM65.9852 63.364L61.6112 71.824V76H58.5332V71.824L54.1592 63.364H57.6512L60.0992 68.656L62.5292 63.364H65.9852ZM71.7974 76.144C70.8134 76.144 69.9254 75.934 69.1334 75.514C68.3534 75.094 67.7354 74.494 67.2794 73.714C66.8354 72.934 66.6134 72.022 66.6134 70.978C66.6134 69.946 66.8414 69.04 67.2974 68.26C67.7534 67.468 68.3774 66.862 69.1694 66.442C69.9614 66.022 70.8494 65.812 71.8334 65.812C72.8174 65.812 73.7054 66.022 74.4974 66.442C75.2894 66.862 75.9134 67.468 76.3694 68.26C76.8254 69.04 77.0534 69.946 77.0534 70.978C77.0534 72.01 76.8194 72.922 76.3514 73.714C75.8954 74.494 75.2654 75.094 74.4614 75.514C73.6694 75.934 72.7814 76.144 71.7974 76.144ZM71.7974 73.48C72.3854 73.48 72.8834 73.264 73.2914 72.832C73.7114 72.4 73.9214 71.782 73.9214 70.978C73.9214 70.174 73.7174 69.556 73.3094 69.124C72.9134 68.692 72.4214 68.476 71.8334 68.476C71.2334 68.476 70.7354 68.692 70.3394 69.124C69.9434 69.544 69.7454 70.162 69.7454 70.978C69.7454 71.782 69.9374 72.4 70.3214 72.832C70.7174 73.264 71.2094 73.48 71.7974 73.48ZM81.7643 67.63C82.1243 67.078 82.5743 66.646 83.1143 66.334C83.6543 66.01 84.2543 65.848 84.9143 65.848V69.106H84.0683C83.3003 69.106 82.7243 69.274 82.3403 69.61C81.9563 69.934 81.7643 70.51 81.7643 71.338V76H78.6863V65.956H81.7643V67.63ZM92.5235 76L89.4635 71.788V76H86.3855V62.68H89.4635V70.042L92.5055 65.956H96.3035L92.1275 70.996L96.3395 76H92.5235Z" fill="white"/>
<path d="M18.1 101H16.288V97.304H12.892V101H11.08V92.432H12.892V95.792H16.288V92.432H18.1V101ZM29.2318 96.704C29.2318 97.344 29.1558 97.928 29.0038 98.456C28.8518 98.984 28.6198 99.444 28.3078 99.836C27.9958 100.22 27.5998 100.52 27.1198 100.736L29.1838 103.04H26.8558L25.2838 101.12C25.2598 101.12 25.2358 101.12 25.2118 101.12C25.1958 101.12 25.1758 101.12 25.1518 101.12C24.4558 101.12 23.8478 101.016 23.3278 100.808C22.8158 100.592 22.3918 100.292 22.0558 99.908C21.7278 99.516 21.4798 99.048 21.3118 98.504C21.1518 97.96 21.0718 97.356 21.0718 96.692C21.0718 95.804 21.2158 95.032 21.5038 94.376C21.7998 93.72 22.2478 93.212 22.8478 92.852C23.4558 92.484 24.2278 92.3 25.1638 92.3C26.0918 92.3 26.8558 92.484 27.4558 92.852C28.0558 93.212 28.4998 93.724 28.7878 94.388C29.0838 95.044 29.2318 95.816 29.2318 96.704ZM22.9798 96.704C22.9798 97.304 23.0558 97.82 23.2078 98.252C23.3598 98.684 23.5958 99.016 23.9158 99.248C24.2358 99.48 24.6478 99.596 25.1518 99.596C25.6718 99.596 26.0878 99.48 26.3998 99.248C26.7198 99.016 26.9518 98.684 27.0958 98.252C27.2478 97.82 27.3238 97.304 27.3238 96.704C27.3238 95.8 27.1558 95.092 26.8198 94.58C26.4838 94.068 25.9318 93.812 25.1638 93.812C24.6518 93.812 24.2358 93.928 23.9158 94.16C23.5958 94.392 23.3598 94.724 23.2078 95.156C23.0558 95.588 22.9798 96.104 22.9798 96.704ZM33.5626 98.156H32.1346L31.8346 92.432H33.8626L33.5626 98.156ZM31.8106 100.16C31.8106 99.792 31.9106 99.536 32.1106 99.392C32.3106 99.24 32.5546 99.164 32.8426 99.164C33.1226 99.164 33.3626 99.24 33.5626 99.392C33.7626 99.536 33.8626 99.792 33.8626 100.16C33.8626 100.512 33.7626 100.768 33.5626 100.928C33.3626 101.08 33.1226 101.156 32.8426 101.156C32.5546 101.156 32.3106 101.08 32.1106 100.928C31.9106 100.768 31.8106 100.512 31.8106 100.16Z" fill="white" fill-opacity="0.6"/>
<path d="M219.5 178.125V176.875C219.5 176.212 219.237 175.576 218.768 175.107C218.299 174.638 217.663 174.375 217 174.375H212C211.337 174.375 210.701 174.638 210.232 175.107C209.763 175.576 209.5 176.212 209.5 176.875V178.125" stroke="white" stroke-width="2" stroke-linecap="round" stroke-linejoin="round"/>
<path d="M214.5 171.875C215.881 171.875 217 170.756 217 169.375C217 167.994 215.881 166.875 214.5 166.875C213.119 166.875 212 167.994 212 169.375C212 170.756 213.119 171.875 214.5 171.875Z" stroke="white" stroke-width="2" stroke-linecap="round" stroke-linejoin="round"/>
<path d="M207.486 199.722V196.86H212.472V210H209.268V199.722H207.486ZM223.83 199.542H218.214V202.026C218.454 201.762 218.79 201.546 219.222 201.378C219.654 201.21 220.122 201.126 220.626 201.126C221.526 201.126 222.27 201.33 222.858 201.738C223.458 202.146 223.896 202.674 224.172 203.322C224.448 203.97 224.586 204.672 224.586 205.428C224.586 206.832 224.19 207.948 223.398 208.776C222.606 209.592 221.49 210 220.05 210C219.09 210 218.256 209.838 217.548 209.514C216.84 209.178 216.294 208.716 215.91 208.128C215.526 207.54 215.316 206.862 215.28 206.094H218.286C218.358 206.466 218.532 206.778 218.808 207.03C219.084 207.27 219.462 207.39 219.942 207.39C220.506 207.39 220.926 207.21 221.202 206.85C221.478 206.49 221.616 206.01 221.616 205.41C221.616 204.822 221.472 204.372 221.184 204.06C220.896 203.748 220.476 203.592 219.924 203.592C219.516 203.592 219.18 203.694 218.916 203.898C218.652 204.09 218.478 204.348 218.394 204.672H215.424V196.842H223.83V199.542ZM226.285 203.25C226.285 201.186 226.681 199.56 227.473 198.372C228.277 197.184 229.567 196.59 231.343 196.59C233.119 196.59 234.403 197.184 235.195 198.372C235.999 199.56 236.401 201.186 236.401 203.25C236.401 205.338 235.999 206.976 235.195 208.164C234.403 209.352 233.119 209.946 231.343 209.946C229.567 209.946 228.277 209.352 227.473 208.164C226.681 206.976 226.285 205.338 226.285 203.25ZM233.377 203.25C233.377 202.038 233.245 201.108 232.981 200.46C232.717 199.8 232.171 199.47 231.343 199.47C230.515 199.47 229.969 199.8 229.705 200.46C229.441 201.108 229.309 202.038 229.309 203.25C229.309 204.066 229.357 204.744 229.453 205.284C229.549 205.812 229.741 206.244 230.029 206.58C230.329 206.904 230.767 207.066 231.343 207.066C231.919 207.066 232.351 206.904 232.639 206.58C232.939 206.244 233.137 205.812 233.233 205.284C233.329 204.744 233.377 204.066 233.377 203.25Z" fill="white"/>
<path d="M211.38 235H209.568V227.944H207.24V226.432H213.708V227.944H211.38V235ZM217.812 228.316C218.692 228.316 219.364 228.508 219.828 228.892C220.3 229.268 220.536 229.848 220.536 230.632V235H219.288L218.94 234.112H218.892C218.708 234.344 218.516 234.536 218.316 234.688C218.124 234.84 217.9 234.948 217.644 235.012C217.396 235.084 217.088 235.12 216.72 235.12C216.336 235.12 215.988 235.048 215.676 234.904C215.372 234.752 215.132 234.524 214.956 234.22C214.78 233.908 214.692 233.516 214.692 233.044C214.692 232.348 214.936 231.836 215.424 231.508C215.912 231.172 216.644 230.988 217.62 230.956L218.76 230.92V230.632C218.76 230.288 218.668 230.036 218.484 229.876C218.308 229.716 218.06 229.636 217.74 229.636C217.42 229.636 217.108 229.684 216.804 229.78C216.5 229.868 216.196 229.98 215.892 230.116L215.304 228.904C215.656 228.72 216.044 228.576 216.468 228.472C216.9 228.368 217.348 228.316 217.812 228.316ZM218.064 231.988C217.488 232.004 217.088 232.108 216.864 232.3C216.64 232.492 216.528 232.744 216.528 233.056C216.528 233.328 216.608 233.524 216.768 233.644C216.928 233.756 217.136 233.812 217.392 233.812C217.776 233.812 218.1 233.7 218.364 233.476C218.628 233.244 218.76 232.92 218.76 232.504V231.964L218.064 231.988ZM227.226 228.328C227.314 228.328 227.418 228.332 227.538 228.34C227.658 228.348 227.754 228.36 227.826 228.376L227.694 230.056C227.638 230.04 227.554 230.028 227.442 230.02C227.338 230.004 227.246 229.996 227.166 229.996C226.934 229.996 226.71 230.028 226.494 230.092C226.278 230.148 226.082 230.24 225.906 230.368C225.738 230.496 225.602 230.668 225.498 230.884C225.402 231.092 225.354 231.352 225.354 231.664V235H223.566V228.448H224.922L225.186 229.552H225.27C225.398 229.328 225.558 229.124 225.75 228.94C225.942 228.756 226.162 228.608 226.41 228.496C226.666 228.384 226.938 228.328 227.226 228.328ZM232.223 228.328C232.623 228.328 232.983 228.408 233.303 228.568C233.623 228.728 233.895 228.968 234.119 229.288H234.167L234.311 228.448H235.823V235.012C235.823 235.636 235.699 236.16 235.451 236.584C235.211 237.008 234.847 237.328 234.359 237.544C233.871 237.768 233.267 237.88 232.547 237.88C232.083 237.88 231.651 237.852 231.251 237.796C230.859 237.74 230.475 237.64 230.099 237.496V236.068C230.371 236.18 230.643 236.272 230.915 236.344C231.195 236.424 231.479 236.48 231.767 236.512C232.063 236.552 232.359 236.572 232.655 236.572C233.119 236.572 233.463 236.448 233.687 236.2C233.919 235.952 234.035 235.58 234.035 235.084V234.952C234.035 234.816 234.039 234.676 234.047 234.532C234.063 234.388 234.075 234.26 234.083 234.148H234.035C233.811 234.492 233.543 234.74 233.231 234.892C232.919 235.044 232.567 235.12 232.175 235.12C231.399 235.12 230.791 234.824 230.351 234.232C229.919 233.632 229.703 232.8 229.703 231.736C229.703 231.016 229.803 230.404 230.003 229.9C230.203 229.388 230.491 229 230.867 228.736C231.251 228.464 231.703 228.328 232.223 228.328ZM232.787 229.78C232.507 229.78 232.271 229.856 232.079 230.008C231.895 230.152 231.755 230.372 231.659 230.668C231.571 230.956 231.527 231.32 231.527 231.76C231.527 232.416 231.631 232.908 231.839 233.236C232.047 233.556 232.371 233.716 232.811 233.716C233.043 233.716 233.243 233.688 233.411 233.632C233.579 233.568 233.715 233.468 233.819 233.332C233.931 233.188 234.015 233.004 234.071 232.78C234.127 232.556 234.155 232.284 234.155 231.964V231.748C234.155 231.276 234.107 230.896 234.011 230.608C233.915 230.32 233.767 230.112 233.567 229.984C233.367 229.848 233.107 229.78 232.787 229.78ZM241.592 228.328C242.2 228.328 242.72 228.444 243.152 228.676C243.592 228.908 243.932 229.244 244.172 229.684C244.412 230.124 244.532 230.664 244.532 231.304V232.168H240.308C240.324 232.672 240.472 233.068 240.752 233.356C241.04 233.644 241.436 233.788 241.94 233.788C242.364 233.788 242.748 233.748 243.092 233.668C243.436 233.58 243.792 233.448 244.16 233.272V234.652C243.84 234.812 243.5 234.928 243.14 235C242.788 235.08 242.36 235.12 241.856 235.12C241.2 235.12 240.62 235 240.116 234.76C239.612 234.512 239.216 234.14 238.928 233.644C238.64 233.148 238.496 232.524 238.496 231.772C238.496 231.004 238.624 230.368 238.88 229.864C239.144 229.352 239.508 228.968 239.972 228.712C240.436 228.456 240.976 228.328 241.592 228.328ZM241.604 229.6C241.26 229.6 240.972 229.712 240.74 229.936C240.516 230.16 240.384 230.508 240.344 230.98H242.852C242.852 230.716 242.804 230.48 242.708 230.272C242.62 230.064 242.484 229.9 242.3 229.78C242.116 229.66 241.884 229.6 241.604 229.6ZM249.942 233.692C250.142 233.692 250.334 233.672 250.518 233.632C250.702 233.592 250.886 233.544 251.07 233.488V234.82C250.878 234.9 250.638 234.968 250.35 235.024C250.07 235.088 249.762 235.12 249.426 235.12C249.034 235.12 248.682 235.056 248.37 234.928C248.066 234.8 247.822 234.58 247.638 234.268C247.462 233.948 247.374 233.508 247.374 232.948V229.792H246.522V229.036L247.506 228.436L248.022 227.056H249.162V228.448H250.998V229.792H249.162V232.948C249.162 233.196 249.234 233.384 249.378 233.512C249.522 233.632 249.71 233.692 249.942 233.692ZM261.682 227.824C261.338 227.824 261.03 227.892 260.758 228.028C260.494 228.164 260.27 228.36 260.086 228.616C259.902 228.864 259.762 229.168 259.666 229.528C259.578 229.888 259.534 230.292 259.534 230.74C259.534 231.348 259.606 231.868 259.75 232.3C259.902 232.724 260.138 233.048 260.458 233.272C260.778 233.496 261.186 233.608 261.682 233.608C262.034 233.608 262.382 233.568 262.726 233.488C263.078 233.408 263.458 233.296 263.866 233.152V234.676C263.49 234.828 263.118 234.94 262.75 235.012C262.382 235.084 261.97 235.12 261.514 235.12C260.634 235.12 259.906 234.94 259.33 234.58C258.762 234.212 258.342 233.7 258.07 233.044C257.798 232.38 257.662 231.608 257.662 230.728C257.662 230.08 257.75 229.488 257.926 228.952C258.102 228.408 258.358 227.94 258.694 227.548C259.038 227.156 259.458 226.852 259.954 226.636C260.458 226.42 261.034 226.312 261.682 226.312C262.106 226.312 262.53 226.368 262.954 226.48C263.386 226.584 263.798 226.728 264.19 226.912L263.602 228.388C263.282 228.236 262.958 228.104 262.63 227.992C262.31 227.88 261.994 227.824 261.682 227.824ZM272.755 228.448V235H271.387L271.147 234.16H271.051C270.915 234.384 270.739 234.568 270.523 234.712C270.315 234.848 270.083 234.948 269.827 235.012C269.571 235.084 269.307 235.12 269.035 235.12C268.571 235.12 268.163 235.036 267.811 234.868C267.459 234.7 267.187 234.44 266.995 234.088C266.803 233.736 266.707 233.28 266.707 232.72V228.448H268.495V232.276C268.495 232.74 268.579 233.092 268.747 233.332C268.915 233.572 269.183 233.692 269.551 233.692C269.919 233.692 270.203 233.608 270.403 233.44C270.611 233.272 270.755 233.028 270.835 232.708C270.923 232.388 270.967 231.996 270.967 231.532V228.448H272.755ZM280.402 233.056C280.402 233.496 280.298 233.872 280.09 234.184C279.882 234.488 279.57 234.72 279.154 234.88C278.738 235.04 278.222 235.12 277.606 235.12C277.15 235.12 276.758 235.088 276.43 235.024C276.102 234.968 275.774 234.872 275.446 234.736V233.26C275.798 233.42 276.178 233.552 276.586 233.656C276.994 233.76 277.354 233.812 277.666 233.812C278.018 233.812 278.266 233.76 278.41 233.656C278.562 233.552 278.638 233.416 278.638 233.248C278.638 233.136 278.606 233.036 278.542 232.948C278.486 232.86 278.358 232.76 278.158 232.648C277.958 232.536 277.646 232.392 277.222 232.216C276.814 232.04 276.478 231.868 276.214 231.7C275.95 231.524 275.754 231.316 275.626 231.076C275.498 230.828 275.434 230.52 275.434 230.152C275.434 229.544 275.67 229.088 276.142 228.784C276.614 228.48 277.242 228.328 278.026 228.328C278.434 228.328 278.822 228.368 279.19 228.448C279.558 228.528 279.938 228.66 280.33 228.844L279.79 230.128C279.574 230.032 279.366 229.948 279.166 229.876C278.966 229.804 278.77 229.748 278.578 229.708C278.394 229.668 278.202 229.648 278.002 229.648C277.738 229.648 277.538 229.684 277.402 229.756C277.274 229.828 277.21 229.936 277.21 230.08C277.21 230.184 277.242 230.28 277.306 230.368C277.378 230.448 277.51 230.536 277.702 230.632C277.902 230.728 278.194 230.856 278.578 231.016C278.954 231.168 279.278 231.328 279.55 231.496C279.822 231.656 280.03 231.86 280.174 232.108C280.326 232.348 280.402 232.664 280.402 233.056ZM285.755 233.692C285.955 233.692 286.147 233.672 286.331 233.632C286.515 233.592 286.699 233.544 286.883 233.488V234.82C286.691 234.9 286.451 234.968 286.163 235.024C285.883 235.088 285.575 235.12 285.239 235.12C284.847 235.12 284.495 235.056 284.183 234.928C283.879 234.8 283.635 234.58 283.451 234.268C283.275 233.948 283.187 233.508 283.187 232.948V229.792H282.335V229.036L283.319 228.436L283.835 227.056H284.975V228.448H286.811V229.792H284.975V232.948C284.975 233.196 285.047 233.384 285.191 233.512C285.335 233.632 285.523 233.692 285.755 233.692ZM295.35 231.712C295.35 232.256 295.274 232.74 295.122 233.164C294.978 233.588 294.766 233.948 294.486 234.244C294.214 234.532 293.882 234.752 293.49 234.904C293.098 235.048 292.654 235.12 292.158 235.12C291.702 235.12 291.278 235.048 290.886 234.904C290.502 234.752 290.17 234.532 289.89 234.244C289.61 233.948 289.39 233.588 289.23 233.164C289.078 232.74 289.002 232.256 289.002 231.712C289.002 230.984 289.13 230.372 289.386 229.876C289.642 229.372 290.01 228.988 290.49 228.724C290.97 228.46 291.538 228.328 292.194 228.328C292.81 228.328 293.354 228.46 293.826 228.724C294.298 228.988 294.67 229.372 294.942 229.876C295.214 230.372 295.35 230.984 295.35 231.712ZM290.826 231.712C290.826 232.144 290.87 232.508 290.958 232.804C291.054 233.092 291.202 233.312 291.402 233.464C291.602 233.608 291.862 233.68 292.182 233.68C292.502 233.68 292.758 233.608 292.95 233.464C293.15 233.312 293.294 233.092 293.382 232.804C293.478 232.508 293.526 232.144 293.526 231.712C293.526 231.28 293.478 230.92 293.382 230.632C293.294 230.344 293.15 230.128 292.95 229.984C292.75 229.84 292.49 229.768 292.17 229.768C291.698 229.768 291.354 229.932 291.138 230.26C290.93 230.58 290.826 231.064 290.826 231.712ZM305.719 228.328C306.463 228.328 307.023 228.52 307.399 228.904C307.783 229.28 307.975 229.888 307.975 230.728V235H306.187V231.172C306.187 230.7 306.107 230.348 305.947 230.116C305.787 229.876 305.539 229.756 305.203 229.756C304.731 229.756 304.395 229.924 304.195 230.26C303.995 230.596 303.895 231.08 303.895 231.712V235H302.107V231.172C302.107 230.86 302.071 230.6 301.999 230.392C301.927 230.184 301.819 230.028 301.675 229.924C301.531 229.812 301.347 229.756 301.123 229.756C300.795 229.756 300.535 229.84 300.343 230.008C300.151 230.176 300.015 230.42 299.935 230.74C299.855 231.06 299.815 231.452 299.815 231.916V235H298.027V228.448H299.395L299.635 229.288H299.731C299.867 229.064 300.035 228.884 300.235 228.748C300.435 228.604 300.655 228.5 300.895 228.436C301.143 228.364 301.391 228.328 301.639 228.328C302.119 228.328 302.527 228.408 302.863 228.568C303.199 228.72 303.455 228.96 303.631 229.288H303.787C303.987 228.952 304.263 228.708 304.615 228.556C304.975 228.404 305.343 228.328 305.719 228.328ZM313.716 228.328C314.324 228.328 314.844 228.444 315.276 228.676C315.716 228.908 316.056 229.244 316.296 229.684C316.536 230.124 316.656 230.664 316.656 231.304V232.168H312.432C312.448 232.672 312.596 233.068 312.876 233.356C313.164 233.644 313.56 233.788 314.064 233.788C314.488 233.788 314.872 233.748 315.216 233.668C315.56 233.58 315.916 233.448 316.284 233.272V234.652C315.964 234.812 315.624 234.928 315.264 235C314.912 235.08 314.484 235.12 313.98 235.12C313.324 235.12 312.744 235 312.24 234.76C311.736 234.512 311.34 234.14 311.052 233.644C310.764 233.148 310.62 232.524 310.62 231.772C310.62 231.004 310.748 230.368 311.004 229.864C311.268 229.352 311.632 228.968 312.096 228.712C312.56 228.456 313.1 228.328 313.716 228.328ZM313.728 229.6C313.384 229.6 313.096 229.712 312.864 229.936C312.64 230.16 312.508 230.508 312.468 230.98H314.976C314.976 230.716 314.928 230.48 314.832 230.272C314.744 230.064 314.608 229.9 314.424 229.78C314.24 229.66 314.008 229.6 313.728 229.6ZM322.966 228.328C323.054 228.328 323.158 228.332 323.278 228.34C323.398 228.348 323.494 228.36 323.566 228.376L323.434 230.056C323.378 230.04 323.294 230.028 323.182 230.02C323.078 230.004 322.986 229.996 322.906 229.996C322.674 229.996 322.45 230.028 322.234 230.092C322.018 230.148 321.822 230.24 321.646 230.368C321.478 230.496 321.342 230.668 321.238 230.884C321.142 231.092 321.094 231.352 321.094 231.664V235H319.306V228.448H320.662L320.926 229.552H321.01C321.138 229.328 321.298 229.124 321.49 228.94C321.682 228.756 321.902 228.608 322.15 228.496C322.406 228.384 322.678 228.328 322.966 228.328ZM330.528 233.056C330.528 233.496 330.424 233.872 330.216 234.184C330.008 234.488 329.696 234.72 329.28 234.88C328.864 235.04 328.348 235.12 327.732 235.12C327.276 235.12 326.884 235.088 326.556 235.024C326.228 234.968 325.9 234.872 325.572 234.736V233.26C325.924 233.42 326.304 233.552 326.712 233.656C327.12 233.76 327.48 233.812 327.792 233.812C328.144 233.812 328.392 233.76 328.536 233.656C328.688 233.552 328.764 233.416 328.764 233.248C328.764 233.136 328.732 233.036 328.668 232.948C328.612 232.86 328.484 232.76 328.284 232.648C328.084 232.536 327.772 232.392 327.348 232.216C326.94 232.04 326.604 231.868 326.34 231.7C326.076 231.524 325.88 231.316 325.752 231.076C325.624 230.828 325.56 230.52 325.56 230.152C325.56 229.544 325.796 229.088 326.268 228.784C326.74 228.48 327.368 228.328 328.152 228.328C328.56 228.328 328.948 228.368 329.316 228.448C329.684 228.528 330.064 228.66 330.456 228.844L329.916 230.128C329.7 230.032 329.492 229.948 329.292 229.876C329.092 229.804 328.896 229.748 328.704 229.708C328.52 229.668 328.328 229.648 328.128 229.648C327.864 229.648 327.664 229.684 327.528 229.756C327.4 229.828 327.336 229.936 327.336 230.08C327.336 230.184 327.368 230.28 327.432 230.368C327.504 230.448 327.636 230.536 327.828 230.632C328.028 230.728 328.32 230.856 328.704 231.016C329.08 231.168 329.404 231.328 329.676 231.496C329.948 231.656 330.156 231.86 330.3 232.108C330.452 232.348 330.528 232.664 330.528 233.056Z" fill="white" fill-opacity="0.6"/>
<g clip-path="url(#clip0_2019_33)">
<path d="M17.5 165.625V179.375" stroke="white" stroke-width="2" stroke-linecap="round" stroke-linejoin="round"/>
<path d="M20.625 168.125H15.9375C15.3573 168.125 14.8009 168.355 14.3907 168.766C13.9805 169.176 13.75 169.732 13.75 170.312C13.75 170.893 13.9805 171.449 14.3907 171.859C14.8009 172.27 15.3573 172.5 15.9375 172.5H19.0625C19.6427 172.5 20.1991 172.73 20.6093 173.141C21.0195 173.551 21.25 174.107 21.25 174.688C21.25 175.268 21.0195 175.824 20.6093 176.234C20.1991 176.645 19.6427 176.875 19.0625 176.875H13.75" stroke="white" stroke-width="2" stroke-linecap="round" stroke-linejoin="round"/>
</g>
<path d="M19.504 201.36C19.276 200.94 18.946 200.622 18.514 200.406C18.094 200.178 17.596 200.064 17.02 200.064C16.024 200.064 15.226 200.394 14.626 201.054C14.026 201.702 13.726 202.572 13.726 203.664C13.726 204.828 14.038 205.74 14.662 206.4C15.298 207.048 16.168 207.372 17.272 207.372C18.028 207.372 18.664 207.18 19.18 206.796C19.708 206.412 20.092 205.86 20.332 205.14H16.426V202.872H23.122V205.734C22.894 206.502 22.504 207.216 21.952 207.876C21.412 208.536 20.722 209.07 19.882 209.478C19.042 209.886 18.094 210.09 17.038 210.09C15.79 210.09 14.674 209.82 13.69 209.28C12.718 208.728 11.956 207.966 11.404 206.994C10.864 206.022 10.594 204.912 10.594 203.664C10.594 202.416 10.864 201.306 11.404 200.334C11.956 199.35 12.718 198.588 13.69 198.048C14.662 197.496 15.772 197.22 17.02 197.22C18.532 197.22 19.804 197.586 20.836 198.318C21.88 199.05 22.57 200.064 22.906 201.36H19.504ZM27.9049 201.63C28.2649 201.078 28.7149 200.646 29.2549 200.334C29.7949 200.01 30.3949 199.848 31.0549 199.848V203.106H30.2089C29.4409 203.106 28.8649 203.274 28.4809 203.61C28.0969 203.934 27.9049 204.51 27.9049 205.338V210H24.8269V199.956H27.9049V201.63ZM37.0982 210.144C36.1142 210.144 35.2262 209.934 34.4342 209.514C33.6542 209.094 33.0362 208.494 32.5802 207.714C32.1362 206.934 31.9142 206.022 31.9142 204.978C31.9142 203.946 32.1422 203.04 32.5982 202.26C33.0542 201.468 33.6782 200.862 34.4702 200.442C35.2622 200.022 36.1502 199.812 37.1342 199.812C38.1182 199.812 39.0062 200.022 39.7982 200.442C40.5902 200.862 41.2142 201.468 41.6702 202.26C42.1262 203.04 42.3542 203.946 42.3542 204.978C42.3542 206.01 42.1202 206.922 41.6522 207.714C41.1962 208.494 40.5662 209.094 39.7622 209.514C38.9702 209.934 38.0822 210.144 37.0982 210.144ZM37.0982 207.48C37.6862 207.48 38.1842 207.264 38.5922 206.832C39.0122 206.4 39.2222 205.782 39.2222 204.978C39.2222 204.174 39.0182 203.556 38.6102 203.124C38.2142 202.692 37.7222 202.476 37.1342 202.476C36.5342 202.476 36.0362 202.692 35.6402 203.124C35.2442 203.544 35.0462 204.162 35.0462 204.978C35.0462 205.782 35.2382 206.4 35.6222 206.832C36.0182 207.264 36.5102 207.48 37.0982 207.48ZM58.4051 199.956L55.6871 210H52.2851L50.7011 203.484L49.0631 210H45.6791L42.9431 199.956H46.0211L47.4431 207.138L49.1351 199.956H52.3931L54.1031 207.102L55.5071 199.956H58.4051ZM61.1269 198.912C60.5869 198.912 60.1429 198.756 59.7949 198.444C59.4589 198.12 59.2909 197.724 59.2909 197.256C59.2909 196.776 59.4589 196.38 59.7949 196.068C60.1429 195.744 60.5869 195.582 61.1269 195.582C61.6549 195.582 62.0869 195.744 62.4229 196.068C62.7709 196.38 62.9449 196.776 62.9449 197.256C62.9449 197.724 62.7709 198.12 62.4229 198.444C62.0869 198.756 61.6549 198.912 61.1269 198.912ZM62.6569 199.956V210H59.5789V199.956H62.6569ZM71.0075 199.848C72.1835 199.848 73.1195 200.232 73.8155 201C74.5235 201.756 74.8775 202.8 74.8775 204.132V210H71.8175V204.546C71.8175 203.874 71.6435 203.352 71.2955 202.98C70.9475 202.608 70.4795 202.422 69.8915 202.422C69.3035 202.422 68.8355 202.608 68.4875 202.98C68.1395 203.352 67.9655 203.874 67.9655 204.546V210H64.8875V199.956H67.9655V201.288C68.2775 200.844 68.6975 200.496 69.2255 200.244C69.7535 199.98 70.3475 199.848 71.0075 199.848ZM80.8324 199.812C81.5404 199.812 82.1584 199.956 82.6864 200.244C83.2264 200.532 83.6404 200.91 83.9284 201.378V199.956H87.0064V209.982C87.0064 210.906 86.8204 211.74 86.4484 212.484C86.0884 213.24 85.5304 213.84 84.7744 214.284C84.0304 214.728 83.1004 214.95 81.9844 214.95C80.4964 214.95 79.2904 214.596 78.3664 213.888C77.4424 213.192 76.9144 212.244 76.7824 211.044H79.8244C79.9204 211.428 80.1484 211.728 80.5084 211.944C80.8684 212.172 81.3124 212.286 81.8404 212.286C82.4764 212.286 82.9804 212.1 83.3524 211.728C83.7364 211.368 83.9284 210.786 83.9284 209.982V208.56C83.6284 209.028 83.2144 209.412 82.6864 209.712C82.1584 210 81.5404 210.144 80.8324 210.144C80.0044 210.144 79.2544 209.934 78.5824 209.514C77.9104 209.082 77.3764 208.476 76.9804 207.696C76.5964 206.904 76.4044 205.992 76.4044 204.96C76.4044 203.928 76.5964 203.022 76.9804 202.242C77.3764 201.462 77.9104 200.862 78.5824 200.442C79.2544 200.022 80.0044 199.812 80.8324 199.812ZM83.9284 204.978C83.9284 204.21 83.7124 203.604 83.2804 203.16C82.8604 202.716 82.3444 202.494 81.7324 202.494C81.1204 202.494 80.5984 202.716 80.1664 203.16C79.7464 203.592 79.5364 204.192 79.5364 204.96C79.5364 205.728 79.7464 206.34 80.1664 206.796C80.5984 207.24 81.1204 207.462 81.7324 207.462C82.3444 207.462 82.8604 207.24 83.2804 206.796C83.7124 206.352 83.9284 205.746 83.9284 204.978ZM90.6732 210.144C90.1332 210.144 89.6892 209.988 89.3412 209.676C89.0052 209.352 88.8372 208.956 88.8372 208.488C88.8372 208.008 89.0052 207.606 89.3412 207.282C89.6892 206.958 90.1332 206.796 90.6732 206.796C91.2012 206.796 91.6332 206.958 91.9692 207.282C92.3172 207.606 92.4912 208.008 92.4912 208.488C92.4912 208.956 92.3172 209.352 91.9692 209.676C91.6332 209.988 91.2012 210.144 90.6732 210.144ZM95.7533 210.144C95.2133 210.144 94.7693 209.988 94.4213 209.676C94.0853 209.352 93.9173 208.956 93.9173 208.488C93.9173 208.008 94.0853 207.606 94.4213 207.282C94.7693 206.958 95.2133 206.796 95.7533 206.796C96.2813 206.796 96.7133 206.958 97.0493 207.282C97.3973 207.606 97.5713 208.008 97.5713 208.488C97.5713 208.956 97.3973 209.352 97.0493 209.676C96.7133 209.988 96.2813 210.144 95.7533 210.144ZM100.833 210.144C100.293 210.144 99.8493 209.988 99.5013 209.676C99.1653 209.352 98.9973 208.956 98.9973 208.488C98.9973 208.008 99.1653 207.606 99.5013 207.282C99.8493 206.958 100.293 206.796 100.833 206.796C101.361 206.796 101.793 206.958 102.129 207.282C102.477 207.606 102.651 208.008 102.651 208.488C102.651 208.956 102.477 209.352 102.129 209.676C101.793 209.988 101.361 210.144 100.833 210.144Z" fill="white"/>
<path d="M18.052 231.976C18.052 232.568 17.92 233.104 17.656 233.584C17.4 234.056 17.008 234.432 16.48 234.712C15.96 234.984 15.3 235.12 14.5 235.12C13.364 235.12 12.5 234.832 11.908 234.256C11.316 233.672 11.02 232.904 11.02 231.952V226.432H12.832V231.676C12.832 232.38 12.976 232.876 13.264 233.164C13.552 233.452 13.98 233.596 14.548 233.596C14.948 233.596 15.272 233.528 15.52 233.392C15.768 233.256 15.948 233.044 16.06 232.756C16.18 232.468 16.24 232.104 16.24 231.664V226.432H18.052V231.976ZM25.7783 233.056C25.7783 233.496 25.6743 233.872 25.4663 234.184C25.2583 234.488 24.9463 234.72 24.5303 234.88C24.1143 235.04 23.5983 235.12 22.9823 235.12C22.5263 235.12 22.1343 235.088 21.8063 235.024C21.4783 234.968 21.1503 234.872 20.8223 234.736V233.26C21.1743 233.42 21.5543 233.552 21.9623 233.656C22.3703 233.76 22.7303 233.812 23.0423 233.812C23.3943 233.812 23.6423 233.76 23.7863 233.656C23.9383 233.552 24.0143 233.416 24.0143 233.248C24.0143 233.136 23.9823 233.036 23.9183 232.948C23.8623 232.86 23.7343 232.76 23.5343 232.648C23.3343 232.536 23.0223 232.392 22.5983 232.216C22.1903 232.04 21.8543 231.868 21.5903 231.7C21.3263 231.524 21.1303 231.316 21.0023 231.076C20.8743 230.828 20.8103 230.52 20.8103 230.152C20.8103 229.544 21.0463 229.088 21.5183 228.784C21.9903 228.48 22.6183 228.328 23.4023 228.328C23.8103 228.328 24.1983 228.368 24.5663 228.448C24.9343 228.528 25.3143 228.66 25.7063 228.844L25.1663 230.128C24.9503 230.032 24.7423 229.948 24.5423 229.876C24.3423 229.804 24.1463 229.748 23.9543 229.708C23.7703 229.668 23.5783 229.648 23.3783 229.648C23.1143 229.648 22.9143 229.684 22.7783 229.756C22.6503 229.828 22.5863 229.936 22.5863 230.08C22.5863 230.184 22.6183 230.28 22.6823 230.368C22.7543 230.448 22.8863 230.536 23.0783 230.632C23.2783 230.728 23.5703 230.856 23.9543 231.016C24.3303 231.168 24.6543 231.328 24.9263 231.496C25.1983 231.656 25.4063 231.86 25.5503 232.108C25.7023 232.348 25.7783 232.664 25.7783 233.056ZM31.0712 228.328C31.6792 228.328 32.1992 228.444 32.6312 228.676C33.0712 228.908 33.4112 229.244 33.6512 229.684C33.8912 230.124 34.0112 230.664 34.0112 231.304V232.168H29.7872C29.8032 232.672 29.9512 233.068 30.2312 233.356C30.5192 233.644 30.9152 233.788 31.4192 233.788C31.8432 233.788 32.2272 233.748 32.5712 233.668C32.9152 233.58 33.2712 233.448 33.6392 233.272V234.652C33.3192 234.812 32.9792 234.928 32.6192 235C32.2672 235.08 31.8392 235.12 31.3352 235.12C30.6792 235.12 30.0992 235 29.5952 234.76C29.0912 234.512 28.6952 234.14 28.4072 233.644C28.1192 233.148 27.9752 232.524 27.9752 231.772C27.9752 231.004 28.1032 230.368 28.3592 229.864C28.6232 229.352 28.9872 228.968 29.4512 228.712C29.9152 228.456 30.4552 228.328 31.0712 228.328ZM31.0832 229.6C30.7392 229.6 30.4512 229.712 30.2192 229.936C29.9952 230.16 29.8632 230.508 29.8232 230.98H32.3312C32.3312 230.716 32.2832 230.48 32.1872 230.272C32.0992 230.064 31.9632 229.9 31.7792 229.78C31.5952 229.66 31.3632 229.6 31.0832 229.6ZM40.321 228.328C40.409 228.328 40.513 228.332 40.633 228.34C40.753 228.348 40.849 228.36 40.921 228.376L40.789 230.056C40.733 230.04 40.649 230.028 40.537 230.02C40.433 230.004 40.341 229.996 40.261 229.996C40.029 229.996 39.805 230.028 39.589 230.092C39.373 230.148 39.177 230.24 39.001 230.368C38.833 230.496 38.697 230.668 38.593 230.884C38.497 231.092 38.449 231.352 38.449 231.664V235H36.661V228.448H38.017L38.281 229.552H38.365C38.493 229.328 38.653 229.124 38.845 228.94C39.037 228.756 39.257 228.608 39.505 228.496C39.761 228.384 40.033 228.328 40.321 228.328ZM47.8822 233.056C47.8822 233.496 47.7782 233.872 47.5702 234.184C47.3622 234.488 47.0502 234.72 46.6342 234.88C46.2182 235.04 45.7022 235.12 45.0862 235.12C44.6302 235.12 44.2382 235.088 43.9102 235.024C43.5822 234.968 43.2542 234.872 42.9262 234.736V233.26C43.2782 233.42 43.6582 233.552 44.0662 233.656C44.4742 233.76 44.8342 233.812 45.1462 233.812C45.4982 233.812 45.7462 233.76 45.8902 233.656C46.0422 233.552 46.1182 233.416 46.1182 233.248C46.1182 233.136 46.0862 233.036 46.0222 232.948C45.9662 232.86 45.8382 232.76 45.6382 232.648C45.4382 232.536 45.1262 232.392 44.7022 232.216C44.2942 232.04 43.9582 231.868 43.6942 231.7C43.4302 231.524 43.2342 231.316 43.1062 231.076C42.9782 230.828 42.9142 230.52 42.9142 230.152C42.9142 229.544 43.1502 229.088 43.6222 228.784C44.0942 228.48 44.7222 228.328 45.5062 228.328C45.9142 228.328 46.3022 228.368 46.6702 228.448C47.0382 228.528 47.4182 228.66 47.8102 228.844L47.2702 230.128C47.0542 230.032 46.8462 229.948 46.6462 229.876C46.4462 229.804 46.2502 229.748 46.0582 229.708C45.8742 229.668 45.6822 229.648 45.4822 229.648C45.2182 229.648 45.0182 229.684 44.8822 229.756C44.7542 229.828 44.6902 229.936 44.6902 230.08C44.6902 230.184 44.7222 230.28 44.7862 230.368C44.8582 230.448 44.9902 230.536 45.1822 230.632C45.3822 230.728 45.6742 230.856 46.0582 231.016C46.4342 231.168 46.7582 231.328 47.0302 231.496C47.3022 231.656 47.5102 231.86 47.6542 232.108C47.8062 232.348 47.8822 232.664 47.8822 233.056ZM60.7443 231.712C60.7443 232.256 60.6683 232.74 60.5163 233.164C60.3723 233.588 60.1603 233.948 59.8803 234.244C59.6083 234.532 59.2763 234.752 58.8843 234.904C58.4923 235.048 58.0483 235.12 57.5523 235.12C57.0963 235.12 56.6723 235.048 56.2803 234.904C55.8963 234.752 55.5643 234.532 55.2843 234.244C55.0043 233.948 54.7843 233.588 54.6243 233.164C54.4723 232.74 54.3963 232.256 54.3963 231.712C54.3963 230.984 54.5243 230.372 54.7803 229.876C55.0363 229.372 55.4043 228.988 55.8843 228.724C56.3643 228.46 56.9323 228.328 57.5883 228.328C58.2043 228.328 58.7483 228.46 59.2203 228.724C59.6923 228.988 60.0643 229.372 60.3363 229.876C60.6083 230.372 60.7443 230.984 60.7443 231.712ZM56.2203 231.712C56.2203 232.144 56.2643 232.508 56.3523 232.804C56.4483 233.092 56.5963 233.312 56.7963 233.464C56.9963 233.608 57.2563 233.68 57.5763 233.68C57.8963 233.68 58.1523 233.608 58.3443 233.464C58.5443 233.312 58.6883 233.092 58.7763 232.804C58.8723 232.508 58.9203 232.144 58.9203 231.712C58.9203 231.28 58.8723 230.92 58.7763 230.632C58.6883 230.344 58.5443 230.128 58.3443 229.984C58.1443 229.84 57.8843 229.768 57.5643 229.768C57.0923 229.768 56.7483 229.932 56.5323 230.26C56.3243 230.58 56.2203 231.064 56.2203 231.712ZM67.1419 228.328C67.8459 228.328 68.4099 228.52 68.8339 228.904C69.2579 229.28 69.4699 229.888 69.4699 230.728V235H67.6819V231.172C67.6819 230.7 67.5979 230.348 67.4299 230.116C67.2619 229.876 66.9939 229.756 66.6259 229.756C66.0819 229.756 65.7099 229.944 65.5099 230.32C65.3099 230.688 65.2099 231.22 65.2099 231.916V235H63.4219V228.448H64.7899L65.0299 229.288H65.1259C65.2699 229.064 65.4459 228.884 65.6539 228.748C65.8619 228.604 66.0939 228.5 66.3499 228.436C66.6059 228.364 66.8699 228.328 67.1419 228.328ZM87.4938 226.432L85.3098 235H83.2458L82.0818 230.5C82.0578 230.412 82.0258 230.28 81.9858 230.104C81.9538 229.928 81.9138 229.736 81.8658 229.528C81.8258 229.32 81.7898 229.124 81.7578 228.94C81.7258 228.748 81.7018 228.6 81.6858 228.496C81.6778 228.6 81.6538 228.748 81.6138 228.94C81.5818 229.124 81.5458 229.32 81.5058 229.528C81.4658 229.728 81.4258 229.92 81.3858 230.104C81.3458 230.28 81.3138 230.416 81.2898 230.512L80.1378 235H78.0738L75.8898 226.432H77.6778L78.7698 231.112C78.8018 231.248 78.8378 231.416 78.8778 231.616C78.9178 231.808 78.9578 232.012 78.9978 232.228C79.0378 232.436 79.0738 232.64 79.1058 232.84C79.1458 233.04 79.1738 233.212 79.1898 233.356C79.2058 233.204 79.2298 233.032 79.2618 232.84C79.2938 232.64 79.3298 232.44 79.3698 232.24C79.4098 232.032 79.4458 231.84 79.4778 231.664C79.5178 231.48 79.5538 231.336 79.5858 231.232L80.8338 226.432H82.5498L83.7978 231.232C83.8218 231.336 83.8538 231.48 83.8938 231.664C83.9338 231.84 83.9738 232.032 84.0138 232.24C84.0538 232.448 84.0898 232.652 84.1218 232.852C84.1538 233.044 84.1778 233.212 84.1938 233.356C84.2178 233.156 84.2538 232.92 84.3018 232.648C84.3498 232.368 84.4018 232.088 84.4578 231.808C84.5218 231.528 84.5738 231.296 84.6138 231.112L85.7058 226.432H87.4938ZM92.081 228.316C92.961 228.316 93.633 228.508 94.097 228.892C94.569 229.268 94.805 229.848 94.805 230.632V235H93.557L93.209 234.112H93.161C92.977 234.344 92.785 234.536 92.585 234.688C92.393 234.84 92.169 234.948 91.913 235.012C91.665 235.084 91.357 235.12 90.989 235.12C90.605 235.12 90.257 235.048 89.945 234.904C89.641 234.752 89.401 234.524 89.225 234.22C89.049 233.908 88.961 233.516 88.961 233.044C88.961 232.348 89.205 231.836 89.693 231.508C90.181 231.172 90.913 230.988 91.889 230.956L93.029 230.92V230.632C93.029 230.288 92.937 230.036 92.753 229.876C92.577 229.716 92.329 229.636 92.009 229.636C91.689 229.636 91.377 229.684 91.073 229.78C90.769 229.868 90.465 229.98 90.161 230.116L89.573 228.904C89.925 228.72 90.313 228.576 90.737 228.472C91.169 228.368 91.617 228.316 92.081 228.316ZM92.333 231.988C91.757 232.004 91.357 232.108 91.133 232.3C90.909 232.492 90.797 232.744 90.797 233.056C90.797 233.328 90.877 233.524 91.037 233.644C91.197 233.756 91.405 233.812 91.661 233.812C92.045 233.812 92.369 233.7 92.633 233.476C92.897 233.244 93.029 232.92 93.029 232.504V231.964L92.333 231.988ZM99.6232 228.448V235H97.8352V228.448H99.6232ZM98.7352 225.88C98.9992 225.88 99.2272 225.944 99.4192 226.072C99.6112 226.192 99.7072 226.42 99.7072 226.756C99.7072 227.084 99.6112 227.312 99.4192 227.44C99.2272 227.568 98.9992 227.632 98.7352 227.632C98.4632 227.632 98.2312 227.568 98.0392 227.44C97.8552 227.312 97.7632 227.084 97.7632 226.756C97.7632 226.42 97.8552 226.192 98.0392 226.072C98.2312 225.944 98.4632 225.88 98.7352 225.88ZM105.451 233.692C105.651 233.692 105.843 233.672 106.027 233.632C106.211 233.592 106.395 233.544 106.579 233.488V234.82C106.387 234.9 106.147 234.968 105.859 235.024C105.579 235.088 105.271 235.12 104.935 235.12C104.543 235.12 104.191 235.056 103.879 234.928C103.575 234.8 103.331 234.58 103.147 234.268C102.971 233.948 102.883 233.508 102.883 232.948V229.792H102.031V229.036L103.015 228.436L103.531 227.056H104.671V228.448H106.507V229.792H104.671V232.948C104.671 233.196 104.743 233.384 104.887 233.512C105.031 233.632 105.219 233.692 105.451 233.692ZM110.883 235H109.095V225.88H110.883V235ZM115.739 228.448V235H113.951V228.448H115.739ZM114.851 225.88C115.115 225.88 115.343 225.944 115.535 226.072C115.727 226.192 115.823 226.42 115.823 226.756C115.823 227.084 115.727 227.312 115.535 227.44C115.343 227.568 115.115 227.632 114.851 227.632C114.579 227.632 114.347 227.568 114.155 227.44C113.971 227.312 113.879 227.084 113.879 226.756C113.879 226.42 113.971 226.192 114.155 226.072C114.347 225.944 114.579 225.88 114.851 225.88ZM123.379 233.056C123.379 233.496 123.275 233.872 123.067 234.184C122.859 234.488 122.547 234.72 122.131 234.88C121.715 235.04 121.199 235.12 120.583 235.12C120.127 235.12 119.735 235.088 119.407 235.024C119.079 234.968 118.751 234.872 118.423 234.736V233.26C118.775 233.42 119.155 233.552 119.563 233.656C119.971 233.76 120.331 233.812 120.643 233.812C120.995 233.812 121.243 233.76 121.387 233.656C121.539 233.552 121.615 233.416 121.615 233.248C121.615 233.136 121.583 233.036 121.519 232.948C121.463 232.86 121.335 232.76 121.135 232.648C120.935 232.536 120.623 232.392 120.199 232.216C119.791 232.04 119.455 231.868 119.191 231.7C118.927 231.524 118.731 231.316 118.603 231.076C118.475 230.828 118.411 230.52 118.411 230.152C118.411 229.544 118.647 229.088 119.119 228.784C119.591 228.48 120.219 228.328 121.003 228.328C121.411 228.328 121.799 228.368 122.167 228.448C122.535 228.528 122.915 228.66 123.307 228.844L122.767 230.128C122.551 230.032 122.343 229.948 122.143 229.876C121.943 229.804 121.747 229.748 121.555 229.708C121.371 229.668 121.179 229.648 120.979 229.648C120.715 229.648 120.515 229.684 120.379 229.756C120.251 229.828 120.187 229.936 120.187 230.08C120.187 230.184 120.219 230.28 120.283 230.368C120.355 230.448 120.487 230.536 120.679 230.632C120.879 230.728 121.171 230.856 121.555 231.016C121.931 231.168 122.255 231.328 122.527 231.496C122.799 231.656 123.007 231.86 123.151 232.108C123.303 232.348 123.379 232.664 123.379 233.056ZM128.732 233.692C128.932 233.692 129.124 233.672 129.308 233.632C129.492 233.592 129.676 233.544 129.86 233.488V234.82C129.668 234.9 129.428 234.968 129.14 235.024C128.86 235.088 128.552 235.12 128.216 235.12C127.824 235.12 127.472 235.056 127.16 234.928C126.856 234.8 126.612 234.58 126.428 234.268C126.252 233.948 126.164 233.508 126.164 232.948V229.792H125.312V229.036L126.296 228.436L126.812 227.056H127.952V228.448H129.788V229.792H127.952V232.948C127.952 233.196 128.024 233.384 128.168 233.512C128.312 233.632 128.5 233.692 128.732 233.692Z" fill="white" fill-opacity="0.6"/>
<rect y="135" width="1" height="354" transform="rotate(-90 0 135)" fill="white" fill-opacity="0.1"/>
<rect y="269" width="1" height="354" transform="rotate(-90 0 269)" fill="white" fill-opacity="0.1"/>
<rect y="1" width="1" height="177" transform="rotate(-90 0 1)" fill="white" fill-opacity="0.1"/>
<rect x="176" y="161.001" width="1" height="82" fill="white" fill-opacity="0.1"/>
<defs>
<clipPath id="clip0_2019_33">
<rect width="15" height="15" fill="white" transform="translate(10 165)"/>
</clipPath>
</defs>
</svg>
