<svg width="950" height="55" viewBox="0 0 950 55" fill="none" xmlns="http://www.w3.org/2000/svg">
<rect width="55" height="55" rx="3" fill="white" fill-opacity="0.05"/>
<path d="M22.5 29.375C22.5 29.375 23.125 28.75 25 28.75C26.875 28.75 28.125 30 30 30C31.875 30 32.5 29.375 32.5 29.375V21.875C32.5 21.875 31.875 22.5 30 22.5C28.125 22.5 26.875 21.25 25 21.25C23.125 21.25 22.5 21.875 22.5 21.875V29.375Z" stroke="white" stroke-width="2" stroke-linecap="round" stroke-linejoin="round"/>
<path d="M22.5 33.75V29.375" stroke="white" stroke-width="2" stroke-linecap="round" stroke-linejoin="round"/>
<rect x="734" width="55" height="55" rx="3" fill="white" fill-opacity="0.05"/>
<g clip-path="url(#clip0_1568_21)">
<path d="M761.5 20.625V34.375" stroke="white" stroke-width="2" stroke-linecap="round" stroke-linejoin="round"/>
<path d="M764.625 23.125H759.938C759.357 23.125 758.801 23.3555 758.391 23.7657C757.98 24.1759 757.75 24.7323 757.75 25.3125C757.75 25.8927 757.98 26.4491 758.391 26.8593C758.801 27.2695 759.357 27.5 759.938 27.5H763.062C763.643 27.5 764.199 27.7305 764.609 28.1407C765.02 28.5509 765.25 29.1073 765.25 29.6875C765.25 30.2677 765.02 30.8241 764.609 31.2343C764.199 31.6445 763.643 31.875 763.062 31.875H757.75" stroke="white" stroke-width="2" stroke-linecap="round" stroke-linejoin="round"/>
</g>
<path d="M91.56 26H87.456L80.592 15.608V26H76.488V9.152H80.592L87.456 19.592V9.152H91.56V26ZM107.159 19.088C107.159 19.472 107.135 19.872 107.087 20.288H97.7989C97.8629 21.12 98.1269 21.76 98.5909 22.208C99.0709 22.64 99.6549 22.856 100.343 22.856C101.367 22.856 102.079 22.424 102.479 21.56H106.847C106.623 22.44 106.215 23.232 105.623 23.936C105.047 24.64 104.319 25.192 103.439 25.592C102.559 25.992 101.575 26.192 100.487 26.192C99.1749 26.192 98.0069 25.912 96.9829 25.352C95.9589 24.792 95.1589 23.992 94.5829 22.952C94.0069 21.912 93.7189 20.696 93.7189 19.304C93.7189 17.912 93.9989 16.696 94.5589 15.656C95.1349 14.616 95.9349 13.816 96.9589 13.256C97.9829 12.696 99.1589 12.416 100.487 12.416C101.783 12.416 102.935 12.688 103.943 13.232C104.951 13.776 105.735 14.552 106.295 15.56C106.871 16.568 107.159 17.744 107.159 19.088ZM102.959 18.008C102.959 17.304 102.719 16.744 102.239 16.328C101.759 15.912 101.159 15.704 100.439 15.704C99.7509 15.704 99.1669 15.904 98.6869 16.304C98.2229 16.704 97.9349 17.272 97.8229 18.008H102.959ZM128.548 12.608L124.924 26H120.388L118.276 17.312L116.092 26H111.58L107.932 12.608H112.036L113.932 22.184L116.188 12.608H120.532L122.812 22.136L124.684 12.608H128.548ZM149.647 9.152L143.815 20.432V26H139.711V20.432L133.879 9.152H138.535L141.799 16.208L145.039 9.152H149.647ZM157.397 26.192C156.085 26.192 154.901 25.912 153.845 25.352C152.805 24.792 151.981 23.992 151.373 22.952C150.781 21.912 150.485 20.696 150.485 19.304C150.485 17.928 150.789 16.72 151.396 15.68C152.005 14.624 152.837 13.816 153.893 13.256C154.949 12.696 156.133 12.416 157.445 12.416C158.757 12.416 159.941 12.696 160.997 13.256C162.053 13.816 162.885 14.624 163.493 15.68C164.101 16.72 164.405 17.928 164.405 19.304C164.405 20.68 164.093 21.896 163.469 22.952C162.861 23.992 162.021 24.792 160.949 25.352C159.893 25.912 158.709 26.192 157.397 26.192ZM157.397 22.64C158.181 22.64 158.845 22.352 159.389 21.776C159.949 21.2 160.229 20.376 160.229 19.304C160.229 18.232 159.957 17.408 159.413 16.832C158.885 16.256 158.229 15.968 157.445 15.968C156.645 15.968 155.981 16.256 155.453 16.832C154.925 17.392 154.661 18.216 154.661 19.304C154.661 20.376 154.917 21.2 155.429 21.776C155.957 22.352 156.613 22.64 157.397 22.64ZM170.686 14.84C171.166 14.104 171.766 13.528 172.486 13.112C173.206 12.68 174.006 12.464 174.886 12.464V16.808H173.758C172.734 16.808 171.966 17.032 171.454 17.48C170.942 17.912 170.686 18.68 170.686 19.784V26H166.582V12.608H170.686V14.84ZM185.031 26L180.951 20.384V26H176.847V8.24H180.951V18.056L185.007 12.608H190.071L184.503 19.328L190.119 26H185.031Z" fill="white"/>
<path d="M84.45 51H82.336V46.688H78.374V51H76.26V41.004H78.374V44.924H82.336V41.004H84.45V51ZM97.4371 45.988C97.4371 46.7347 97.3484 47.416 97.1711 48.032C96.9937 48.648 96.7231 49.1847 96.3591 49.642C95.9951 50.09 95.5331 50.44 94.9731 50.692L97.3811 53.38H94.6651L92.8311 51.14C92.8031 51.14 92.7751 51.14 92.7471 51.14C92.7284 51.14 92.7051 51.14 92.6771 51.14C91.8651 51.14 91.1557 51.0187 90.5491 50.776C89.9517 50.524 89.4571 50.174 89.0651 49.726C88.6824 49.2687 88.3931 48.7227 88.1971 48.088C88.0104 47.4533 87.9171 46.7487 87.9171 45.974C87.9171 44.938 88.0851 44.0373 88.4211 43.272C88.7664 42.5067 89.2891 41.914 89.9891 41.494C90.6984 41.0647 91.5991 40.85 92.6911 40.85C93.7737 40.85 94.6651 41.0647 95.3651 41.494C96.0651 41.914 96.5831 42.5113 96.9191 43.286C97.2644 44.0513 97.4371 44.952 97.4371 45.988ZM90.1431 45.988C90.1431 46.688 90.2317 47.29 90.4091 47.794C90.5864 48.298 90.8617 48.6853 91.2351 48.956C91.6084 49.2267 92.0891 49.362 92.6771 49.362C93.2837 49.362 93.7691 49.2267 94.1331 48.956C94.5064 48.6853 94.7771 48.298 94.9451 47.794C95.1224 47.29 95.2111 46.688 95.2111 45.988C95.2111 44.9333 95.0151 44.1073 94.6231 43.51C94.2311 42.9127 93.5871 42.614 92.6911 42.614C92.0937 42.614 91.6084 42.7493 91.2351 43.02C90.8617 43.2907 90.5864 43.678 90.4091 44.182C90.2317 44.686 90.1431 45.288 90.1431 45.988ZM102.49 47.682H100.824L100.474 41.004H102.84L102.49 47.682ZM100.446 50.02C100.446 49.5907 100.562 49.292 100.796 49.124C101.029 48.9467 101.314 48.858 101.65 48.858C101.976 48.858 102.256 48.9467 102.49 49.124C102.723 49.292 102.84 49.5907 102.84 50.02C102.84 50.4307 102.723 50.7293 102.49 50.916C102.256 51.0933 101.976 51.182 101.65 51.182C101.314 51.182 101.029 51.0933 100.796 50.916C100.562 50.7293 100.446 50.4307 100.446 50.02Z" fill="white" fill-opacity="0.6"/>
<rect x="365" width="55" height="55" rx="3" fill="white" fill-opacity="0.05"/>
<path d="M397.5 33.125V31.875C397.5 31.212 397.237 30.5761 396.768 30.1072C396.299 29.6384 395.663 29.375 395 29.375H390C389.337 29.375 388.701 29.6384 388.232 30.1072C387.763 30.5761 387.5 31.212 387.5 31.875V33.125" stroke="white" stroke-width="2" stroke-linecap="round" stroke-linejoin="round"/>
<path d="M392.5 26.875C393.881 26.875 395 25.7557 395 24.375C395 22.9943 393.881 21.875 392.5 21.875C391.119 21.875 390 22.9943 390 24.375C390 25.7557 391.119 26.875 392.5 26.875Z" stroke="white" stroke-width="2" stroke-linecap="round" stroke-linejoin="round"/>
<path d="M440.648 12.296V8.48H447.296V26H443.024V12.296H440.648ZM462.439 12.056H454.951V15.368C455.271 15.016 455.719 14.728 456.295 14.504C456.871 14.28 457.495 14.168 458.167 14.168C459.367 14.168 460.359 14.44 461.143 14.984C461.943 15.528 462.527 16.232 462.895 17.096C463.263 17.96 463.447 18.896 463.447 19.904C463.447 21.776 462.919 23.264 461.863 24.368C460.807 25.456 459.319 26 457.399 26C456.119 26 455.007 25.784 454.063 25.352C453.119 24.904 452.391 24.288 451.879 23.504C451.367 22.72 451.087 21.816 451.039 20.792H455.047C455.143 21.288 455.375 21.704 455.743 22.04C456.111 22.36 456.615 22.52 457.255 22.52C458.007 22.52 458.567 22.28 458.935 21.8C459.303 21.32 459.487 20.68 459.487 19.88C459.487 19.096 459.295 18.496 458.911 18.08C458.527 17.664 457.967 17.456 457.231 17.456C456.687 17.456 456.239 17.592 455.887 17.864C455.535 18.12 455.303 18.464 455.191 18.896H451.231V8.456H462.439V12.056ZM465.713 17C465.713 14.248 466.241 12.08 467.297 10.496C468.369 8.912 470.089 8.12 472.457 8.12C474.825 8.12 476.537 8.912 477.593 10.496C478.665 12.08 479.201 14.248 479.201 17C479.201 19.784 478.665 21.968 477.593 23.552C476.537 25.136 474.825 25.928 472.457 25.928C470.089 25.928 468.369 25.136 467.297 23.552C466.241 21.968 465.713 19.784 465.713 17ZM475.169 17C475.169 15.384 474.993 14.144 474.641 13.28C474.289 12.4 473.561 11.96 472.457 11.96C471.353 11.96 470.625 12.4 470.273 13.28C469.921 14.144 469.745 15.384 469.745 17C469.745 18.088 469.809 18.992 469.937 19.712C470.065 20.416 470.321 20.992 470.705 21.44C471.105 21.872 471.689 22.088 472.457 22.088C473.225 22.088 473.801 21.872 474.185 21.44C474.585 20.992 474.849 20.416 474.977 19.712C475.105 18.992 475.169 18.088 475.169 17Z" fill="white"/>
<path d="M445.11 51H442.996V42.768H440.28V41.004H447.826V42.768H445.11V51ZM452.614 43.202C453.641 43.202 454.425 43.426 454.966 43.874C455.517 44.3127 455.792 44.9893 455.792 45.904V51H454.336L453.93 49.964H453.874C453.66 50.2347 453.436 50.4587 453.202 50.636C452.978 50.8133 452.717 50.9393 452.418 51.014C452.129 51.098 451.77 51.14 451.34 51.14C450.892 51.14 450.486 51.056 450.122 50.888C449.768 50.7107 449.488 50.4447 449.282 50.09C449.077 49.726 448.974 49.2687 448.974 48.718C448.974 47.906 449.259 47.3087 449.828 46.926C450.398 46.534 451.252 46.3193 452.39 46.282L453.72 46.24V45.904C453.72 45.5027 453.613 45.2087 453.398 45.022C453.193 44.8353 452.904 44.742 452.53 44.742C452.157 44.742 451.793 44.798 451.438 44.91C451.084 45.0127 450.729 45.1433 450.374 45.302L449.688 43.888C450.099 43.6733 450.552 43.5053 451.046 43.384C451.55 43.2627 452.073 43.202 452.614 43.202ZM452.908 47.486C452.236 47.5047 451.77 47.626 451.508 47.85C451.247 48.074 451.116 48.368 451.116 48.732C451.116 49.0493 451.21 49.278 451.396 49.418C451.583 49.5487 451.826 49.614 452.124 49.614C452.572 49.614 452.95 49.4833 453.258 49.222C453.566 48.9513 453.72 48.5733 453.72 48.088V47.458L452.908 47.486ZM463.598 43.216C463.7 43.216 463.822 43.2207 463.962 43.23C464.102 43.2393 464.214 43.2533 464.298 43.272L464.144 45.232C464.078 45.2133 463.98 45.1993 463.85 45.19C463.728 45.1713 463.621 45.162 463.528 45.162C463.257 45.162 462.996 45.1993 462.744 45.274C462.492 45.3393 462.263 45.4467 462.058 45.596C461.862 45.7453 461.703 45.946 461.582 46.198C461.47 46.4407 461.414 46.744 461.414 47.108V51H459.328V43.356H460.91L461.218 44.644H461.316C461.465 44.3827 461.652 44.1447 461.876 43.93C462.1 43.7153 462.356 43.5427 462.646 43.412C462.944 43.2813 463.262 43.216 463.598 43.216ZM469.426 43.216C469.893 43.216 470.313 43.3093 470.686 43.496C471.06 43.6827 471.377 43.9627 471.638 44.336H471.694L471.862 43.356H473.626V51.014C473.626 51.742 473.482 52.3533 473.192 52.848C472.912 53.3427 472.488 53.716 471.918 53.968C471.349 54.2293 470.644 54.36 469.804 54.36C469.263 54.36 468.759 54.3273 468.292 54.262C467.835 54.1967 467.387 54.08 466.948 53.912V52.246C467.266 52.3767 467.583 52.484 467.9 52.568C468.227 52.6613 468.558 52.7267 468.894 52.764C469.24 52.8107 469.585 52.834 469.93 52.834C470.472 52.834 470.873 52.6893 471.134 52.4C471.405 52.1107 471.54 51.6767 471.54 51.098V50.944C471.54 50.7853 471.545 50.622 471.554 50.454C471.573 50.286 471.587 50.1367 471.596 50.006H471.54C471.279 50.4073 470.966 50.6967 470.602 50.874C470.238 51.0513 469.828 51.14 469.37 51.14C468.465 51.14 467.756 50.7947 467.242 50.104C466.738 49.404 466.486 48.4333 466.486 47.192C466.486 46.352 466.603 45.638 466.836 45.05C467.07 44.4527 467.406 44 467.844 43.692C468.292 43.3747 468.82 43.216 469.426 43.216ZM470.084 44.91C469.758 44.91 469.482 44.9987 469.258 45.176C469.044 45.344 468.88 45.6007 468.768 45.946C468.666 46.282 468.614 46.7067 468.614 47.22C468.614 47.9853 468.736 48.5593 468.978 48.942C469.221 49.3153 469.599 49.502 470.112 49.502C470.383 49.502 470.616 49.4693 470.812 49.404C471.008 49.3293 471.167 49.2127 471.288 49.054C471.419 48.886 471.517 48.6713 471.582 48.41C471.648 48.1487 471.68 47.8313 471.68 47.458V47.206C471.68 46.6553 471.624 46.212 471.512 45.876C471.4 45.54 471.228 45.2973 470.994 45.148C470.761 44.9893 470.458 44.91 470.084 44.91ZM480.358 43.216C481.067 43.216 481.674 43.3513 482.178 43.622C482.691 43.8927 483.088 44.2847 483.368 44.798C483.648 45.3113 483.788 45.9413 483.788 46.688V47.696H478.86C478.878 48.284 479.051 48.746 479.378 49.082C479.714 49.418 480.176 49.586 480.764 49.586C481.258 49.586 481.706 49.5393 482.108 49.446C482.509 49.3433 482.924 49.1893 483.354 48.984V50.594C482.98 50.7807 482.584 50.916 482.164 51C481.753 51.0933 481.254 51.14 480.666 51.14C479.9 51.14 479.224 51 478.636 50.72C478.048 50.4307 477.586 49.9967 477.25 49.418C476.914 48.8393 476.746 48.1113 476.746 47.234C476.746 46.338 476.895 45.596 477.194 45.008C477.502 44.4107 477.926 43.9627 478.468 43.664C479.009 43.3653 479.639 43.216 480.358 43.216ZM480.372 44.7C479.97 44.7 479.634 44.8307 479.364 45.092C479.102 45.3533 478.948 45.7593 478.902 46.31H481.828C481.828 46.002 481.772 45.7267 481.66 45.484C481.557 45.2413 481.398 45.05 481.184 44.91C480.969 44.77 480.698 44.7 480.372 44.7ZM490.099 49.474C490.332 49.474 490.556 49.4507 490.771 49.404C490.986 49.3573 491.2 49.3013 491.415 49.236V50.79C491.191 50.8833 490.911 50.9627 490.575 51.028C490.248 51.1027 489.889 51.14 489.497 51.14C489.04 51.14 488.629 51.0653 488.265 50.916C487.91 50.7667 487.626 50.51 487.411 50.146C487.206 49.7727 487.103 49.2593 487.103 48.606V44.924H486.109V44.042L487.257 43.342L487.859 41.732H489.189V43.356H491.331V44.924H489.189V48.606C489.189 48.8953 489.273 49.1147 489.441 49.264C489.609 49.404 489.828 49.474 490.099 49.474ZM503.796 42.628C503.395 42.628 503.035 42.7073 502.718 42.866C502.41 43.0247 502.149 43.2533 501.934 43.552C501.719 43.8413 501.556 44.196 501.444 44.616C501.341 45.036 501.29 45.5073 501.29 46.03C501.29 46.7393 501.374 47.346 501.542 47.85C501.719 48.3447 501.995 48.7227 502.368 48.984C502.741 49.2453 503.217 49.376 503.796 49.376C504.207 49.376 504.613 49.3293 505.014 49.236C505.425 49.1427 505.868 49.012 506.344 48.844V50.622C505.905 50.7993 505.471 50.93 505.042 51.014C504.613 51.098 504.132 51.14 503.6 51.14C502.573 51.14 501.724 50.93 501.052 50.51C500.389 50.0807 499.899 49.4833 499.582 48.718C499.265 47.9433 499.106 47.0427 499.106 46.016C499.106 45.26 499.209 44.5693 499.414 43.944C499.619 43.3093 499.918 42.7633 500.31 42.306C500.711 41.8487 501.201 41.494 501.78 41.242C502.368 40.99 503.04 40.864 503.796 40.864C504.291 40.864 504.785 40.9293 505.28 41.06C505.784 41.1813 506.265 41.3493 506.722 41.564L506.036 43.286C505.663 43.1087 505.285 42.9547 504.902 42.824C504.529 42.6933 504.16 42.628 503.796 42.628ZM516.714 43.356V51H515.118L514.838 50.02H514.726C514.568 50.2813 514.362 50.496 514.11 50.664C513.868 50.8227 513.597 50.9393 513.298 51.014C513 51.098 512.692 51.14 512.374 51.14C511.833 51.14 511.357 51.042 510.946 50.846C510.536 50.65 510.218 50.3467 509.994 49.936C509.77 49.5253 509.658 48.9933 509.658 48.34V43.356H511.744V47.822C511.744 48.3633 511.842 48.774 512.038 49.054C512.234 49.334 512.547 49.474 512.976 49.474C513.406 49.474 513.737 49.376 513.97 49.18C514.213 48.984 514.381 48.6993 514.474 48.326C514.577 47.9527 514.628 47.4953 514.628 46.954V43.356H516.714ZM525.635 48.732C525.635 49.2453 525.514 49.684 525.271 50.048C525.029 50.4027 524.665 50.6733 524.179 50.86C523.694 51.0467 523.092 51.14 522.373 51.14C521.841 51.14 521.384 51.1027 521.001 51.028C520.619 50.9627 520.236 50.8507 519.853 50.692V48.97C520.264 49.1567 520.707 49.3107 521.183 49.432C521.659 49.5533 522.079 49.614 522.443 49.614C522.854 49.614 523.143 49.5533 523.311 49.432C523.489 49.3107 523.577 49.152 523.577 48.956C523.577 48.8253 523.54 48.7087 523.465 48.606C523.4 48.5033 523.251 48.3867 523.017 48.256C522.784 48.1253 522.42 47.9573 521.925 47.752C521.449 47.5467 521.057 47.346 520.749 47.15C520.441 46.9447 520.213 46.702 520.063 46.422C519.914 46.1327 519.839 45.7733 519.839 45.344C519.839 44.6347 520.115 44.1027 520.665 43.748C521.216 43.3933 521.949 43.216 522.863 43.216C523.339 43.216 523.792 43.2627 524.221 43.356C524.651 43.4493 525.094 43.6033 525.551 43.818L524.921 45.316C524.669 45.204 524.427 45.106 524.193 45.022C523.96 44.938 523.731 44.8727 523.507 44.826C523.293 44.7793 523.069 44.756 522.835 44.756C522.527 44.756 522.294 44.798 522.135 44.882C521.986 44.966 521.911 45.092 521.911 45.26C521.911 45.3813 521.949 45.4933 522.023 45.596C522.107 45.6893 522.261 45.792 522.485 45.904C522.719 46.016 523.059 46.1653 523.507 46.352C523.946 46.5293 524.324 46.716 524.641 46.912C524.959 47.0987 525.201 47.3367 525.369 47.626C525.547 47.906 525.635 48.2747 525.635 48.732ZM531.88 49.474C532.114 49.474 532.338 49.4507 532.552 49.404C532.767 49.3573 532.982 49.3013 533.196 49.236V50.79C532.972 50.8833 532.692 50.9627 532.356 51.028C532.03 51.1027 531.67 51.14 531.278 51.14C530.821 51.14 530.41 51.0653 530.046 50.916C529.692 50.7667 529.407 50.51 529.192 50.146C528.987 49.7727 528.884 49.2593 528.884 48.606V44.924H527.89V44.042L529.038 43.342L529.64 41.732H530.97V43.356H533.112V44.924H530.97V48.606C530.97 48.8953 531.054 49.1147 531.222 49.264C531.39 49.404 531.61 49.474 531.88 49.474ZM543.075 47.164C543.075 47.7987 542.986 48.3633 542.809 48.858C542.641 49.3527 542.393 49.7727 542.067 50.118C541.749 50.454 541.362 50.7107 540.905 50.888C540.447 51.056 539.929 51.14 539.351 51.14C538.819 51.14 538.324 51.056 537.867 50.888C537.419 50.7107 537.031 50.454 536.705 50.118C536.378 49.7727 536.121 49.3527 535.935 48.858C535.757 48.3633 535.669 47.7987 535.669 47.164C535.669 46.3147 535.818 45.6007 536.117 45.022C536.415 44.434 536.845 43.986 537.405 43.678C537.965 43.37 538.627 43.216 539.393 43.216C540.111 43.216 540.746 43.37 541.297 43.678C541.847 43.986 542.281 44.434 542.599 45.022C542.916 45.6007 543.075 46.3147 543.075 47.164ZM537.797 47.164C537.797 47.668 537.848 48.0927 537.951 48.438C538.063 48.774 538.235 49.0307 538.469 49.208C538.702 49.376 539.005 49.46 539.379 49.46C539.752 49.46 540.051 49.376 540.275 49.208C540.508 49.0307 540.676 48.774 540.779 48.438C540.891 48.0927 540.947 47.668 540.947 47.164C540.947 46.66 540.891 46.24 540.779 45.904C540.676 45.568 540.508 45.316 540.275 45.148C540.041 44.98 539.738 44.896 539.365 44.896C538.814 44.896 538.413 45.0873 538.161 45.47C537.918 45.8433 537.797 46.408 537.797 47.164ZM555.173 43.216C556.041 43.216 556.694 43.44 557.133 43.888C557.581 44.3267 557.805 45.036 557.805 46.016V51H555.719V46.534C555.719 45.9833 555.625 45.5727 555.439 45.302C555.252 45.022 554.963 44.882 554.571 44.882C554.02 44.882 553.628 45.078 553.395 45.47C553.161 45.862 553.045 46.4267 553.045 47.164V51H550.959V46.534C550.959 46.17 550.917 45.8667 550.833 45.624C550.749 45.3813 550.623 45.1993 550.455 45.078C550.287 44.9473 550.072 44.882 549.811 44.882C549.428 44.882 549.125 44.98 548.901 45.176C548.677 45.372 548.518 45.6567 548.425 46.03C548.331 46.4033 548.285 46.8607 548.285 47.402V51H546.199V43.356H547.795L548.075 44.336H548.187C548.345 44.0747 548.541 43.8647 548.775 43.706C549.008 43.538 549.265 43.4167 549.545 43.342C549.834 43.258 550.123 43.216 550.413 43.216C550.973 43.216 551.449 43.3093 551.841 43.496C552.233 43.6733 552.531 43.9533 552.737 44.336H552.919C553.152 43.944 553.474 43.6593 553.885 43.482C554.305 43.3047 554.734 43.216 555.173 43.216ZM564.503 43.216C565.212 43.216 565.819 43.3513 566.323 43.622C566.836 43.8927 567.233 44.2847 567.513 44.798C567.793 45.3113 567.933 45.9413 567.933 46.688V47.696H563.005C563.023 48.284 563.196 48.746 563.523 49.082C563.859 49.418 564.321 49.586 564.909 49.586C565.403 49.586 565.851 49.5393 566.253 49.446C566.654 49.3433 567.069 49.1893 567.499 48.984V50.594C567.125 50.7807 566.729 50.916 566.309 51C565.898 51.0933 565.399 51.14 564.811 51.14C564.045 51.14 563.369 51 562.781 50.72C562.193 50.4307 561.731 49.9967 561.395 49.418C561.059 48.8393 560.891 48.1113 560.891 47.234C560.891 46.338 561.04 45.596 561.339 45.008C561.647 44.4107 562.071 43.9627 562.613 43.664C563.154 43.3653 563.784 43.216 564.503 43.216ZM564.517 44.7C564.115 44.7 563.779 44.8307 563.509 45.092C563.247 45.3533 563.093 45.7593 563.047 46.31H565.973C565.973 46.002 565.917 45.7267 565.805 45.484C565.702 45.2413 565.543 45.05 565.329 44.91C565.114 44.77 564.843 44.7 564.517 44.7ZM575.294 43.216C575.397 43.216 575.518 43.2207 575.658 43.23C575.798 43.2393 575.91 43.2533 575.994 43.272L575.84 45.232C575.775 45.2133 575.677 45.1993 575.546 45.19C575.425 45.1713 575.317 45.162 575.224 45.162C574.953 45.162 574.692 45.1993 574.44 45.274C574.188 45.3393 573.959 45.4467 573.754 45.596C573.558 45.7453 573.399 45.946 573.278 46.198C573.166 46.4407 573.11 46.744 573.11 47.108V51H571.024V43.356H572.606L572.914 44.644H573.012C573.161 44.3827 573.348 44.1447 573.572 43.93C573.796 43.7153 574.053 43.5427 574.342 43.412C574.641 43.2813 574.958 43.216 575.294 43.216ZM584.115 48.732C584.115 49.2453 583.994 49.684 583.751 50.048C583.509 50.4027 583.145 50.6733 582.659 50.86C582.174 51.0467 581.572 51.14 580.853 51.14C580.321 51.14 579.864 51.1027 579.481 51.028C579.099 50.9627 578.716 50.8507 578.333 50.692V48.97C578.744 49.1567 579.187 49.3107 579.663 49.432C580.139 49.5533 580.559 49.614 580.923 49.614C581.334 49.614 581.623 49.5533 581.791 49.432C581.969 49.3107 582.057 49.152 582.057 48.956C582.057 48.8253 582.02 48.7087 581.945 48.606C581.88 48.5033 581.731 48.3867 581.497 48.256C581.264 48.1253 580.9 47.9573 580.405 47.752C579.929 47.5467 579.537 47.346 579.229 47.15C578.921 46.9447 578.693 46.702 578.543 46.422C578.394 46.1327 578.319 45.7733 578.319 45.344C578.319 44.6347 578.595 44.1027 579.145 43.748C579.696 43.3933 580.429 43.216 581.343 43.216C581.819 43.216 582.272 43.2627 582.701 43.356C583.131 43.4493 583.574 43.6033 584.031 43.818L583.401 45.316C583.149 45.204 582.907 45.106 582.673 45.022C582.44 44.938 582.211 44.8727 581.987 44.826C581.773 44.7793 581.549 44.756 581.315 44.756C581.007 44.756 580.774 44.798 580.615 44.882C580.466 44.966 580.391 45.092 580.391 45.26C580.391 45.3813 580.429 45.4933 580.503 45.596C580.587 45.6893 580.741 45.792 580.965 45.904C581.199 46.016 581.539 46.1653 581.987 46.352C582.426 46.5293 582.804 46.716 583.121 46.912C583.439 47.0987 583.681 47.3367 583.849 47.626C584.027 47.906 584.115 48.2747 584.115 48.732Z" fill="white" fill-opacity="0.6"/>
<path d="M821.672 14.48C821.368 13.92 820.928 13.496 820.352 13.208C819.792 12.904 819.128 12.752 818.36 12.752C817.032 12.752 815.968 13.192 815.168 14.072C814.368 14.936 813.968 16.096 813.968 17.552C813.968 19.104 814.384 20.32 815.216 21.2C816.064 22.064 817.224 22.496 818.696 22.496C819.704 22.496 820.552 22.24 821.24 21.728C821.944 21.216 822.456 20.48 822.776 19.52H817.568V16.496H826.496V20.312C826.192 21.336 825.672 22.288 824.936 23.168C824.216 24.048 823.296 24.76 822.176 25.304C821.056 25.848 819.792 26.12 818.384 26.12C816.72 26.12 815.232 25.76 813.92 25.04C812.624 24.304 811.608 23.288 810.872 21.992C810.152 20.696 809.792 19.216 809.792 17.552C809.792 15.888 810.152 14.408 810.872 13.112C811.608 11.8 812.624 10.784 813.92 10.064C815.216 9.328 816.696 8.96 818.36 8.96C820.376 8.96 822.072 9.448 823.448 10.424C824.84 11.4 825.76 12.752 826.208 14.48H821.672ZM832.873 14.84C833.353 14.104 833.953 13.528 834.673 13.112C835.393 12.68 836.193 12.464 837.073 12.464V16.808H835.945C834.921 16.808 834.153 17.032 833.641 17.48C833.129 17.912 832.873 18.68 832.873 19.784V26H828.769V12.608H832.873V14.84ZM845.131 26.192C843.819 26.192 842.635 25.912 841.579 25.352C840.539 24.792 839.715 23.992 839.107 22.952C838.515 21.912 838.219 20.696 838.219 19.304C838.219 17.928 838.523 16.72 839.131 15.68C839.739 14.624 840.571 13.816 841.627 13.256C842.683 12.696 843.867 12.416 845.179 12.416C846.491 12.416 847.675 12.696 848.731 13.256C849.787 13.816 850.619 14.624 851.227 15.68C851.835 16.72 852.139 17.928 852.139 19.304C852.139 20.68 851.827 21.896 851.203 22.952C850.595 23.992 849.755 24.792 848.683 25.352C847.627 25.912 846.443 26.192 845.131 26.192ZM845.131 22.64C845.915 22.64 846.579 22.352 847.123 21.776C847.683 21.2 847.963 20.376 847.963 19.304C847.963 18.232 847.691 17.408 847.147 16.832C846.619 16.256 845.963 15.968 845.179 15.968C844.379 15.968 843.715 16.256 843.187 16.832C842.659 17.392 842.395 18.216 842.395 19.304C842.395 20.376 842.651 21.2 843.163 21.776C843.691 22.352 844.347 22.64 845.131 22.64ZM873.54 12.608L869.916 26H865.38L863.268 17.312L861.084 26H856.572L852.924 12.608H857.028L858.924 22.184L861.18 12.608H865.524L867.804 22.136L869.676 12.608H873.54ZM877.169 11.216C876.449 11.216 875.857 11.008 875.393 10.592C874.945 10.16 874.721 9.632 874.721 9.008C874.721 8.368 874.945 7.84 875.393 7.424C875.857 6.992 876.449 6.776 877.169 6.776C877.873 6.776 878.449 6.992 878.897 7.424C879.361 7.84 879.593 8.368 879.593 9.008C879.593 9.632 879.361 10.16 878.897 10.592C878.449 11.008 877.873 11.216 877.169 11.216ZM879.209 12.608V26H875.105V12.608H879.209ZM890.343 12.464C891.911 12.464 893.159 12.976 894.087 14C895.031 15.008 895.503 16.4 895.503 18.176V26H891.423V18.728C891.423 17.832 891.191 17.136 890.727 16.64C890.263 16.144 889.639 15.896 888.855 15.896C888.071 15.896 887.447 16.144 886.983 16.64C886.519 17.136 886.287 17.832 886.287 18.728V26H882.183V12.608H886.287V14.384C886.703 13.792 887.263 13.328 887.967 12.992C888.671 12.64 889.463 12.464 890.343 12.464ZM903.443 12.416C904.387 12.416 905.211 12.608 905.915 12.992C906.635 13.376 907.187 13.88 907.571 14.504V12.608H911.675V25.976C911.675 27.208 911.427 28.32 910.931 29.312C910.451 30.32 909.707 31.12 908.699 31.712C907.707 32.304 906.467 32.6 904.979 32.6C902.995 32.6 901.387 32.128 900.155 31.184C898.923 30.256 898.219 28.992 898.043 27.392H902.099C902.227 27.904 902.531 28.304 903.011 28.592C903.491 28.896 904.083 29.048 904.787 29.048C905.635 29.048 906.307 28.8 906.803 28.304C907.315 27.824 907.571 27.048 907.571 25.976V24.08C907.171 24.704 906.619 25.216 905.915 25.616C905.211 26 904.387 26.192 903.443 26.192C902.339 26.192 901.339 25.912 900.443 25.352C899.547 24.776 898.835 23.968 898.307 22.928C897.795 21.872 897.539 20.656 897.539 19.28C897.539 17.904 897.795 16.696 898.307 15.656C898.835 14.616 899.547 13.816 900.443 13.256C901.339 12.696 902.339 12.416 903.443 12.416ZM907.571 19.304C907.571 18.28 907.283 17.472 906.707 16.88C906.147 16.288 905.459 15.992 904.643 15.992C903.827 15.992 903.131 16.288 902.555 16.88C901.995 17.456 901.715 18.256 901.715 19.28C901.715 20.304 901.995 21.12 902.555 21.728C903.131 22.32 903.827 22.616 904.643 22.616C905.459 22.616 906.147 22.32 906.707 21.728C907.283 21.136 907.571 20.328 907.571 19.304ZM916.564 26.192C915.844 26.192 915.252 25.984 914.788 25.568C914.34 25.136 914.116 24.608 914.116 23.984C914.116 23.344 914.34 22.808 914.788 22.376C915.252 21.944 915.844 21.728 916.564 21.728C917.268 21.728 917.844 21.944 918.292 22.376C918.756 22.808 918.988 23.344 918.988 23.984C918.988 24.608 918.756 25.136 918.292 25.568C917.844 25.984 917.268 26.192 916.564 26.192ZM923.338 26.192C922.618 26.192 922.026 25.984 921.562 25.568C921.114 25.136 920.89 24.608 920.89 23.984C920.89 23.344 921.114 22.808 921.562 22.376C922.026 21.944 922.618 21.728 923.338 21.728C924.042 21.728 924.618 21.944 925.066 22.376C925.53 22.808 925.762 23.344 925.762 23.984C925.762 24.608 925.53 25.136 925.066 25.568C924.618 25.984 924.042 26.192 923.338 26.192ZM930.111 26.192C929.391 26.192 928.799 25.984 928.335 25.568C927.887 25.136 927.663 24.608 927.663 23.984C927.663 23.344 927.887 22.808 928.335 22.376C928.799 21.944 929.391 21.728 930.111 21.728C930.815 21.728 931.391 21.944 931.839 22.376C932.303 22.808 932.535 23.344 932.535 23.984C932.535 24.608 932.303 25.136 931.839 25.568C931.391 25.984 930.815 26.192 930.111 26.192Z" fill="white"/>
<path d="M818.394 47.472C818.394 48.1627 818.24 48.788 817.932 49.348C817.633 49.8987 817.176 50.3373 816.56 50.664C815.953 50.9813 815.183 51.14 814.25 51.14C812.925 51.14 811.917 50.804 811.226 50.132C810.535 49.4507 810.19 48.5547 810.19 47.444V41.004H812.304V47.122C812.304 47.9433 812.472 48.522 812.808 48.858C813.144 49.194 813.643 49.362 814.306 49.362C814.773 49.362 815.151 49.2827 815.44 49.124C815.729 48.9653 815.939 48.718 816.07 48.382C816.21 48.046 816.28 47.6213 816.28 47.108V41.004H818.394V47.472ZM827.408 48.732C827.408 49.2453 827.287 49.684 827.044 50.048C826.801 50.4027 826.437 50.6733 825.952 50.86C825.467 51.0467 824.865 51.14 824.146 51.14C823.614 51.14 823.157 51.1027 822.774 51.028C822.391 50.9627 822.009 50.8507 821.626 50.692V48.97C822.037 49.1567 822.48 49.3107 822.956 49.432C823.432 49.5533 823.852 49.614 824.216 49.614C824.627 49.614 824.916 49.5533 825.084 49.432C825.261 49.3107 825.35 49.152 825.35 48.956C825.35 48.8253 825.313 48.7087 825.238 48.606C825.173 48.5033 825.023 48.3867 824.79 48.256C824.557 48.1253 824.193 47.9573 823.698 47.752C823.222 47.5467 822.83 47.346 822.522 47.15C822.214 46.9447 821.985 46.702 821.836 46.422C821.687 46.1327 821.612 45.7733 821.612 45.344C821.612 44.6347 821.887 44.1027 822.438 43.748C822.989 43.3933 823.721 43.216 824.636 43.216C825.112 43.216 825.565 43.2627 825.994 43.356C826.423 43.4493 826.867 43.6033 827.324 43.818L826.694 45.316C826.442 45.204 826.199 45.106 825.966 45.022C825.733 44.938 825.504 44.8727 825.28 44.826C825.065 44.7793 824.841 44.756 824.608 44.756C824.3 44.756 824.067 44.798 823.908 44.882C823.759 44.966 823.684 45.092 823.684 45.26C823.684 45.3813 823.721 45.4933 823.796 45.596C823.88 45.6893 824.034 45.792 824.258 45.904C824.491 46.016 824.832 46.1653 825.28 46.352C825.719 46.5293 826.097 46.716 826.414 46.912C826.731 47.0987 826.974 47.3367 827.142 47.626C827.319 47.906 827.408 48.2747 827.408 48.732ZM833.583 43.216C834.292 43.216 834.899 43.3513 835.403 43.622C835.916 43.8927 836.313 44.2847 836.593 44.798C836.873 45.3113 837.013 45.9413 837.013 46.688V47.696H832.085C832.104 48.284 832.276 48.746 832.603 49.082C832.939 49.418 833.401 49.586 833.989 49.586C834.484 49.586 834.932 49.5393 835.333 49.446C835.734 49.3433 836.15 49.1893 836.579 48.984V50.594C836.206 50.7807 835.809 50.916 835.389 51C834.978 51.0933 834.479 51.14 833.891 51.14C833.126 51.14 832.449 51 831.861 50.72C831.273 50.4307 830.811 49.9967 830.475 49.418C830.139 48.8393 829.971 48.1113 829.971 47.234C829.971 46.338 830.12 45.596 830.419 45.008C830.727 44.4107 831.152 43.9627 831.693 43.664C832.234 43.3653 832.864 43.216 833.583 43.216ZM833.597 44.7C833.196 44.7 832.86 44.8307 832.589 45.092C832.328 45.3533 832.174 45.7593 832.127 46.31H835.053C835.053 46.002 834.997 45.7267 834.885 45.484C834.782 45.2413 834.624 45.05 834.409 44.91C834.194 44.77 833.924 44.7 833.597 44.7ZM844.375 43.216C844.477 43.216 844.599 43.2207 844.739 43.23C844.879 43.2393 844.991 43.2533 845.075 43.272L844.921 45.232C844.855 45.2133 844.757 45.1993 844.627 45.19C844.505 45.1713 844.398 45.162 844.305 45.162C844.034 45.162 843.773 45.1993 843.521 45.274C843.269 45.3393 843.04 45.4467 842.835 45.596C842.639 45.7453 842.48 45.946 842.359 46.198C842.247 46.4407 842.191 46.744 842.191 47.108V51H840.105V43.356H841.687L841.995 44.644H842.093C842.242 44.3827 842.429 44.1447 842.653 43.93C842.877 43.7153 843.133 43.5427 843.423 43.412C843.721 43.2813 844.039 43.216 844.375 43.216ZM853.196 48.732C853.196 49.2453 853.075 49.684 852.832 50.048C852.589 50.4027 852.225 50.6733 851.74 50.86C851.255 51.0467 850.653 51.14 849.934 51.14C849.402 51.14 848.945 51.1027 848.562 51.028C848.179 50.9627 847.797 50.8507 847.414 50.692V48.97C847.825 49.1567 848.268 49.3107 848.744 49.432C849.22 49.5533 849.64 49.614 850.004 49.614C850.415 49.614 850.704 49.5533 850.872 49.432C851.049 49.3107 851.138 49.152 851.138 48.956C851.138 48.8253 851.101 48.7087 851.026 48.606C850.961 48.5033 850.811 48.3867 850.578 48.256C850.345 48.1253 849.981 47.9573 849.486 47.752C849.01 47.5467 848.618 47.346 848.31 47.15C848.002 46.9447 847.773 46.702 847.624 46.422C847.475 46.1327 847.4 45.7733 847.4 45.344C847.4 44.6347 847.675 44.1027 848.226 43.748C848.777 43.3933 849.509 43.216 850.424 43.216C850.9 43.216 851.353 43.2627 851.782 43.356C852.211 43.4493 852.655 43.6033 853.112 43.818L852.482 45.316C852.23 45.204 851.987 45.106 851.754 45.022C851.521 44.938 851.292 44.8727 851.068 44.826C850.853 44.7793 850.629 44.756 850.396 44.756C850.088 44.756 849.855 44.798 849.696 44.882C849.547 44.966 849.472 45.092 849.472 45.26C849.472 45.3813 849.509 45.4933 849.584 45.596C849.668 45.6893 849.822 45.792 850.046 45.904C850.279 46.016 850.62 46.1653 851.068 46.352C851.507 46.5293 851.885 46.716 852.202 46.912C852.519 47.0987 852.762 47.3367 852.93 47.626C853.107 47.906 853.196 48.2747 853.196 48.732ZM868.202 47.164C868.202 47.7987 868.113 48.3633 867.936 48.858C867.768 49.3527 867.52 49.7727 867.194 50.118C866.876 50.454 866.489 50.7107 866.032 50.888C865.574 51.056 865.056 51.14 864.478 51.14C863.946 51.14 863.451 51.056 862.994 50.888C862.546 50.7107 862.158 50.454 861.832 50.118C861.505 49.7727 861.248 49.3527 861.062 48.858C860.884 48.3633 860.796 47.7987 860.796 47.164C860.796 46.3147 860.945 45.6007 861.244 45.022C861.542 44.434 861.972 43.986 862.532 43.678C863.092 43.37 863.754 43.216 864.52 43.216C865.238 43.216 865.873 43.37 866.424 43.678C866.974 43.986 867.408 44.434 867.726 45.022C868.043 45.6007 868.202 46.3147 868.202 47.164ZM862.924 47.164C862.924 47.668 862.975 48.0927 863.078 48.438C863.19 48.774 863.362 49.0307 863.596 49.208C863.829 49.376 864.132 49.46 864.506 49.46C864.879 49.46 865.178 49.376 865.402 49.208C865.635 49.0307 865.803 48.774 865.906 48.438C866.018 48.0927 866.074 47.668 866.074 47.164C866.074 46.66 866.018 46.24 865.906 45.904C865.803 45.568 865.635 45.316 865.402 45.148C865.168 44.98 864.865 44.896 864.492 44.896C863.941 44.896 863.54 45.0873 863.288 45.47C863.045 45.8433 862.924 46.408 862.924 47.164ZM875.666 43.216C876.487 43.216 877.145 43.44 877.64 43.888C878.134 44.3267 878.382 45.036 878.382 46.016V51H876.296V46.534C876.296 45.9833 876.198 45.5727 876.002 45.302C875.806 45.022 875.493 44.882 875.064 44.882C874.429 44.882 873.995 45.1013 873.762 45.54C873.528 45.9693 873.412 46.59 873.412 47.402V51H871.326V43.356H872.922L873.202 44.336H873.314C873.482 44.0747 873.687 43.8647 873.93 43.706C874.172 43.538 874.443 43.4167 874.742 43.342C875.04 43.258 875.348 43.216 875.666 43.216ZM899.409 41.004L896.861 51H894.453L893.095 45.75C893.067 45.6473 893.03 45.4933 892.983 45.288C892.946 45.0827 892.899 44.8587 892.843 44.616C892.797 44.3733 892.755 44.1447 892.717 43.93C892.68 43.706 892.652 43.5333 892.633 43.412C892.624 43.5333 892.596 43.706 892.549 43.93C892.512 44.1447 892.47 44.3733 892.423 44.616C892.377 44.8493 892.33 45.0733 892.283 45.288C892.237 45.4933 892.199 45.652 892.171 45.764L890.827 51H888.419L885.871 41.004H887.957L889.231 46.464C889.269 46.6227 889.311 46.8187 889.357 47.052C889.404 47.276 889.451 47.514 889.497 47.766C889.544 48.0087 889.586 48.2467 889.623 48.48C889.67 48.7133 889.703 48.914 889.721 49.082C889.74 48.9047 889.768 48.704 889.805 48.48C889.843 48.2467 889.885 48.0133 889.931 47.78C889.978 47.5373 890.02 47.3133 890.057 47.108C890.104 46.8933 890.146 46.7253 890.183 46.604L891.639 41.004H893.641L895.097 46.604C895.125 46.7253 895.163 46.8933 895.209 47.108C895.256 47.3133 895.303 47.5373 895.349 47.78C895.396 48.0227 895.438 48.2607 895.475 48.494C895.513 48.718 895.541 48.914 895.559 49.082C895.587 48.8487 895.629 48.5733 895.685 48.256C895.741 47.9293 895.802 47.6027 895.867 47.276C895.942 46.9493 896.003 46.6787 896.049 46.464L897.323 41.004H899.409ZM904.761 43.202C905.788 43.202 906.572 43.426 907.113 43.874C907.664 44.3127 907.939 44.9893 907.939 45.904V51H906.483L906.077 49.964H906.021C905.807 50.2347 905.583 50.4587 905.349 50.636C905.125 50.8133 904.864 50.9393 904.565 51.014C904.276 51.098 903.917 51.14 903.487 51.14C903.039 51.14 902.633 51.056 902.269 50.888C901.915 50.7107 901.635 50.4447 901.429 50.09C901.224 49.726 901.121 49.2687 901.121 48.718C901.121 47.906 901.406 47.3087 901.975 46.926C902.545 46.534 903.399 46.3193 904.537 46.282L905.867 46.24V45.904C905.867 45.5027 905.76 45.2087 905.545 45.022C905.34 44.8353 905.051 44.742 904.677 44.742C904.304 44.742 903.94 44.798 903.585 44.91C903.231 45.0127 902.876 45.1433 902.521 45.302L901.835 43.888C902.246 43.6733 902.699 43.5053 903.193 43.384C903.697 43.2627 904.22 43.202 904.761 43.202ZM905.055 47.486C904.383 47.5047 903.917 47.626 903.655 47.85C903.394 48.074 903.263 48.368 903.263 48.732C903.263 49.0493 903.357 49.278 903.543 49.418C903.73 49.5487 903.973 49.614 904.271 49.614C904.719 49.614 905.097 49.4833 905.405 49.222C905.713 48.9513 905.867 48.5733 905.867 48.088V47.458L905.055 47.486ZM913.56 43.356V51H911.474V43.356H913.56ZM912.524 40.36C912.832 40.36 913.098 40.4347 913.322 40.584C913.546 40.724 913.658 40.99 913.658 41.382C913.658 41.7647 913.546 42.0307 913.322 42.18C913.098 42.3293 912.832 42.404 912.524 42.404C912.207 42.404 911.936 42.3293 911.712 42.18C911.498 42.0307 911.39 41.7647 911.39 41.382C911.39 40.99 911.498 40.724 911.712 40.584C911.936 40.4347 912.207 40.36 912.524 40.36ZM920.36 49.474C920.593 49.474 920.817 49.4507 921.032 49.404C921.247 49.3573 921.461 49.3013 921.676 49.236V50.79C921.452 50.8833 921.172 50.9627 920.836 51.028C920.509 51.1027 920.15 51.14 919.758 51.14C919.301 51.14 918.89 51.0653 918.526 50.916C918.171 50.7667 917.887 50.51 917.672 50.146C917.467 49.7727 917.364 49.2593 917.364 48.606V44.924H916.37V44.042L917.518 43.342L918.12 41.732H919.45V43.356H921.592V44.924H919.45V48.606C919.45 48.8953 919.534 49.1147 919.702 49.264C919.87 49.404 920.089 49.474 920.36 49.474ZM926.696 51H924.61V40.36H926.696V51ZM932.362 43.356V51H930.276V43.356H932.362ZM931.326 40.36C931.634 40.36 931.9 40.4347 932.124 40.584C932.348 40.724 932.46 40.99 932.46 41.382C932.46 41.7647 932.348 42.0307 932.124 42.18C931.9 42.3293 931.634 42.404 931.326 42.404C931.009 42.404 930.738 42.3293 930.514 42.18C930.299 42.0307 930.192 41.7647 930.192 41.382C930.192 40.99 930.299 40.724 930.514 40.584C930.738 40.4347 931.009 40.36 931.326 40.36ZM941.276 48.732C941.276 49.2453 941.154 49.684 940.912 50.048C940.669 50.4027 940.305 50.6733 939.82 50.86C939.334 51.0467 938.732 51.14 938.014 51.14C937.482 51.14 937.024 51.1027 936.642 51.028C936.259 50.9627 935.876 50.8507 935.494 50.692V48.97C935.904 49.1567 936.348 49.3107 936.824 49.432C937.3 49.5533 937.72 49.614 938.084 49.614C938.494 49.614 938.784 49.5533 938.952 49.432C939.129 49.3107 939.218 49.152 939.218 48.956C939.218 48.8253 939.18 48.7087 939.106 48.606C939.04 48.5033 938.891 48.3867 938.658 48.256C938.424 48.1253 938.06 47.9573 937.566 47.752C937.09 47.5467 936.698 47.346 936.39 47.15C936.082 46.9447 935.853 46.702 935.704 46.422C935.554 46.1327 935.48 45.7733 935.48 45.344C935.48 44.6347 935.755 44.1027 936.306 43.748C936.856 43.3933 937.589 43.216 938.504 43.216C938.98 43.216 939.432 43.2627 939.862 43.356C940.291 43.4493 940.734 43.6033 941.192 43.818L940.562 45.316C940.31 45.204 940.067 45.106 939.834 45.022C939.6 44.938 939.372 44.8727 939.148 44.826C938.933 44.7793 938.709 44.756 938.476 44.756C938.168 44.756 937.934 44.798 937.776 44.882C937.626 44.966 937.552 45.092 937.552 45.26C937.552 45.3813 937.589 45.4933 937.664 45.596C937.748 45.6893 937.902 45.792 938.126 45.904C938.359 46.016 938.7 46.1653 939.148 46.352C939.586 46.5293 939.964 46.716 940.282 46.912C940.599 47.0987 940.842 47.3367 941.01 47.626C941.187 47.906 941.276 48.2747 941.276 48.732ZM947.521 49.474C947.754 49.474 947.978 49.4507 948.193 49.404C948.407 49.3573 948.622 49.3013 948.837 49.236V50.79C948.613 50.8833 948.333 50.9627 947.997 51.028C947.67 51.1027 947.311 51.14 946.919 51.14C946.461 51.14 946.051 51.0653 945.687 50.916C945.332 50.7667 945.047 50.51 944.833 50.146C944.627 49.7727 944.525 49.2593 944.525 48.606V44.924H943.531V44.042L944.679 43.342L945.281 41.732H946.611V43.356H948.753V44.924H946.611V48.606C946.611 48.8953 946.695 49.1147 946.863 49.264C947.031 49.404 947.25 49.474 947.521 49.474Z" fill="white" fill-opacity="0.6"/>
<defs>
<clipPath id="clip0_1568_21">
<rect width="15" height="15" fill="white" transform="translate(754 20)"/>
</clipPath>
</defs>
</svg>
