<svg width="353" height="215" viewBox="0 0 353 215" fill="none" xmlns="http://www.w3.org/2000/svg">
<rect width="353" height="215" rx="16" fill="#1A191A"/>
<rect x="0.5" y="0.5" width="352" height="214" rx="15.5" stroke="white" stroke-opacity="0.3"/>
<path d="M31.216 152.478V144.534H32.392V152.478H31.216ZM28.552 144.774V143.718H35.056V144.774H28.552ZM36.349 152.478V143.718H37.501V148.95H37.213C37.213 148.318 37.293 147.774 37.453 147.318C37.621 146.854 37.877 146.498 38.221 146.25C38.565 146.002 39.005 145.878 39.541 145.878H39.589C40.357 145.878 40.937 146.134 41.329 146.646C41.721 147.15 41.917 147.874 41.917 148.818V152.478H40.765V148.578C40.765 148.058 40.617 147.654 40.321 147.366C40.033 147.078 39.657 146.934 39.193 146.934C38.681 146.934 38.269 147.106 37.957 147.45C37.653 147.786 37.501 148.23 37.501 148.782V152.478H36.349ZM44.2168 152.478V146.07H45.3688V152.478H44.2168ZM43.2328 146.982V146.07H45.3688V146.982H43.2328ZM44.5408 145.038C44.2848 145.038 44.0928 144.97 43.9648 144.834C43.8448 144.698 43.7848 144.526 43.7848 144.318C43.7848 144.11 43.8448 143.938 43.9648 143.802C44.0928 143.666 44.2848 143.598 44.5408 143.598C44.7968 143.598 44.9848 143.666 45.1048 143.802C45.2328 143.938 45.2968 144.11 45.2968 144.318C45.2968 144.526 45.2328 144.698 45.1048 144.834C44.9848 144.97 44.7968 145.038 44.5408 145.038ZM49.5762 152.67C48.7362 152.67 48.0842 152.49 47.6202 152.13C47.1642 151.77 46.9282 151.278 46.9122 150.654H47.9922C48.0082 150.902 48.1322 151.138 48.3642 151.362C48.6042 151.578 49.0082 151.686 49.5762 151.686C50.0882 151.686 50.4802 151.586 50.7522 151.386C51.0242 151.178 51.1602 150.926 51.1602 150.63C51.1602 150.366 51.0602 150.162 50.8602 150.018C50.6602 149.866 50.3362 149.766 49.8882 149.718L49.1922 149.646C48.5842 149.582 48.0882 149.402 47.7042 149.106C47.3202 148.802 47.1282 148.378 47.1282 147.834C47.1282 147.426 47.2322 147.078 47.4402 146.79C47.6482 146.494 47.9362 146.27 48.3042 146.118C48.6722 145.958 49.0962 145.878 49.5762 145.878C50.2962 145.878 50.8802 146.038 51.3282 146.358C51.7762 146.678 52.0082 147.154 52.0242 147.786H50.9442C50.9362 147.53 50.8162 147.314 50.5842 147.138C50.3602 146.954 50.0242 146.862 49.5762 146.862C49.1282 146.862 48.7882 146.954 48.5562 147.138C48.3242 147.322 48.2082 147.554 48.2082 147.834C48.2082 148.074 48.2882 148.266 48.4482 148.41C48.6162 148.554 48.8882 148.646 49.2642 148.686L49.9602 148.758C50.6482 148.83 51.2002 149.022 51.6162 149.334C52.0322 149.638 52.2402 150.07 52.2402 150.63C52.2402 151.03 52.1242 151.386 51.8922 151.698C51.6682 152.002 51.3562 152.242 50.9562 152.418C50.5562 152.586 50.0962 152.67 49.5762 152.67ZM60.2762 152.478V150.558H60.0842V148.338C60.0842 147.898 59.9682 147.566 59.7362 147.342C59.5122 147.118 59.1802 147.006 58.7402 147.006C58.4922 147.006 58.2362 147.01 57.9722 147.018C57.7082 147.026 57.4562 147.034 57.2162 147.042C56.9762 147.05 56.7682 147.062 56.5922 147.078V146.07C56.7682 146.054 56.9522 146.042 57.1442 146.034C57.3442 146.018 57.5482 146.01 57.7562 146.01C57.9642 146.002 58.1642 145.998 58.3562 145.998C59.0122 145.998 59.5482 146.078 59.9642 146.238C60.3802 146.39 60.6882 146.642 60.8882 146.994C61.0882 147.346 61.1882 147.822 61.1882 148.422V152.478H60.2762ZM58.1762 152.646C57.6962 152.646 57.2802 152.566 56.9282 152.406C56.5842 152.238 56.3162 151.998 56.1242 151.686C55.9402 151.374 55.8482 150.998 55.8482 150.558C55.8482 150.102 55.9482 149.722 56.1482 149.418C56.3562 149.114 56.6562 148.886 57.0482 148.734C57.4402 148.574 57.9122 148.494 58.4642 148.494H60.2042V149.358H58.4162C57.9522 149.358 57.5962 149.47 57.3482 149.694C57.1002 149.918 56.9762 150.206 56.9762 150.558C56.9762 150.91 57.1002 151.194 57.3482 151.41C57.5962 151.626 57.9522 151.734 58.4162 151.734C58.6882 151.734 58.9482 151.686 59.1962 151.59C59.4442 151.486 59.6482 151.318 59.8082 151.086C59.9762 150.846 60.0682 150.518 60.0842 150.102L60.3962 150.558C60.3562 151.014 60.2442 151.398 60.0602 151.71C59.8842 152.014 59.6362 152.246 59.3162 152.406C59.0042 152.566 58.6242 152.646 58.1762 152.646ZM63.1826 152.478V146.07H64.0946V148.818H63.9506C63.9506 148.186 64.0346 147.654 64.2026 147.222C64.3786 146.782 64.6426 146.45 64.9946 146.226C65.3466 145.994 65.7906 145.878 66.3266 145.878H66.3746C67.1826 145.878 67.7786 146.13 68.1626 146.634C68.5546 147.138 68.7506 147.866 68.7506 148.818V152.478H67.5986V148.578C67.5986 148.082 67.4586 147.686 67.1786 147.39C66.8986 147.086 66.5146 146.934 66.0266 146.934C65.5226 146.934 65.1146 147.09 64.8026 147.402C64.4906 147.714 64.3346 148.13 64.3346 148.65V152.478H63.1826ZM74.6144 152.478V150.558H74.4224V148.338C74.4224 147.898 74.3064 147.566 74.0744 147.342C73.8504 147.118 73.5184 147.006 73.0784 147.006C72.8304 147.006 72.5744 147.01 72.3104 147.018C72.0464 147.026 71.7944 147.034 71.5544 147.042C71.3144 147.05 71.1064 147.062 70.9304 147.078V146.07C71.1064 146.054 71.2904 146.042 71.4824 146.034C71.6824 146.018 71.8864 146.01 72.0944 146.01C72.3024 146.002 72.5024 145.998 72.6944 145.998C73.3504 145.998 73.8864 146.078 74.3024 146.238C74.7184 146.39 75.0264 146.642 75.2264 146.994C75.4264 147.346 75.5264 147.822 75.5264 148.422V152.478H74.6144ZM72.5144 152.646C72.0344 152.646 71.6184 152.566 71.2664 152.406C70.9224 152.238 70.6544 151.998 70.4624 151.686C70.2784 151.374 70.1864 150.998 70.1864 150.558C70.1864 150.102 70.2864 149.722 70.4864 149.418C70.6944 149.114 70.9944 148.886 71.3864 148.734C71.7784 148.574 72.2504 148.494 72.8024 148.494H74.5424V149.358H72.7544C72.2904 149.358 71.9344 149.47 71.6864 149.694C71.4384 149.918 71.3144 150.206 71.3144 150.558C71.3144 150.91 71.4384 151.194 71.6864 151.41C71.9344 151.626 72.2904 151.734 72.7544 151.734C73.0264 151.734 73.2864 151.686 73.5344 151.59C73.7824 151.486 73.9864 151.318 74.1464 151.086C74.3144 150.846 74.4064 150.518 74.4224 150.102L74.7344 150.558C74.6944 151.014 74.5824 151.398 74.3984 151.71C74.2224 152.014 73.9744 152.246 73.6544 152.406C73.3424 152.566 72.9624 152.646 72.5144 152.646ZM77.5927 152.478V143.718H78.7447V152.478H77.5927ZM76.7047 144.63V143.718H78.7447V144.63H76.7047ZM80.4023 154.974V153.942H81.3263C81.5983 153.942 81.8263 153.906 82.0103 153.834C82.2023 153.77 82.3583 153.658 82.4783 153.498C82.6063 153.338 82.7103 153.126 82.7903 152.862L84.8063 146.07H85.9343L83.7983 153.162C83.6703 153.586 83.4903 153.93 83.2583 154.194C83.0263 154.466 82.7423 154.662 82.4063 154.782C82.0783 154.91 81.6943 154.974 81.2543 154.974H80.4023ZM82.3583 152.334V151.374H83.7503V152.334H82.3583ZM82.2383 152.334L79.9463 146.07H81.1223L83.3183 152.334H82.2383ZM89.89 152.55C89.41 152.55 88.994 152.482 88.642 152.346C88.298 152.21 88.03 151.978 87.838 151.65C87.654 151.314 87.562 150.862 87.562 150.294V144.126H88.666V150.438C88.666 150.782 88.758 151.05 88.942 151.242C89.134 151.426 89.402 151.518 89.746 151.518H90.874V152.55H89.89ZM86.458 146.934V146.07H90.874V146.934H86.458ZM92.6954 152.478V146.07H93.8474V152.478H92.6954ZM91.7114 146.982V146.07H93.8474V146.982H91.7114ZM93.0194 145.038C92.7634 145.038 92.5714 144.97 92.4434 144.834C92.3234 144.698 92.2634 144.526 92.2634 144.318C92.2634 144.11 92.3234 143.938 92.4434 143.802C92.5714 143.666 92.7634 143.598 93.0194 143.598C93.2754 143.598 93.4634 143.666 93.5834 143.802C93.7114 143.938 93.7754 144.11 93.7754 144.318C93.7754 144.526 93.7114 144.698 93.5834 144.834C93.4634 144.97 93.2754 145.038 93.0194 145.038ZM98.7028 152.694C98.1508 152.694 97.6708 152.598 97.2628 152.406C96.8628 152.214 96.5308 151.958 96.2668 151.638C96.0028 151.31 95.8028 150.95 95.6668 150.558C95.5388 150.166 95.4748 149.774 95.4748 149.382V149.166C95.4748 148.758 95.5388 148.358 95.6668 147.966C95.8028 147.574 96.0028 147.222 96.2668 146.91C96.5388 146.59 96.8748 146.334 97.2748 146.142C97.6748 145.95 98.1428 145.854 98.6788 145.854C99.2148 145.854 99.6948 145.954 100.119 146.154C100.551 146.354 100.895 146.638 101.151 147.006C101.415 147.366 101.563 147.794 101.595 148.29H100.491C100.435 147.89 100.251 147.558 99.9388 147.294C99.6268 147.022 99.2068 146.886 98.6788 146.886C98.2228 146.886 97.8428 146.99 97.5388 147.198C97.2348 147.406 97.0068 147.69 96.8548 148.05C96.7028 148.41 96.6268 148.818 96.6268 149.274C96.6268 149.714 96.7028 150.118 96.8548 150.486C97.0068 150.846 97.2348 151.134 97.5388 151.35C97.8508 151.558 98.2388 151.662 98.7028 151.662C99.0628 151.662 99.3748 151.598 99.6388 151.47C99.9028 151.342 100.115 151.17 100.275 150.954C100.435 150.738 100.531 150.494 100.563 150.222H101.667C101.643 150.726 101.495 151.162 101.223 151.53C100.959 151.898 100.607 152.186 100.167 152.394C99.7348 152.594 99.2468 152.694 98.7028 152.694ZM105.212 152.67C104.372 152.67 103.72 152.49 103.256 152.13C102.8 151.77 102.564 151.278 102.548 150.654H103.628C103.644 150.902 103.768 151.138 104 151.362C104.24 151.578 104.644 151.686 105.212 151.686C105.724 151.686 106.116 151.586 106.388 151.386C106.66 151.178 106.796 150.926 106.796 150.63C106.796 150.366 106.696 150.162 106.496 150.018C106.296 149.866 105.972 149.766 105.524 149.718L104.828 149.646C104.22 149.582 103.724 149.402 103.34 149.106C102.956 148.802 102.764 148.378 102.764 147.834C102.764 147.426 102.868 147.078 103.076 146.79C103.284 146.494 103.572 146.27 103.94 146.118C104.308 145.958 104.732 145.878 105.212 145.878C105.932 145.878 106.516 146.038 106.964 146.358C107.412 146.678 107.644 147.154 107.66 147.786H106.58C106.572 147.53 106.452 147.314 106.22 147.138C105.996 146.954 105.66 146.862 105.212 146.862C104.764 146.862 104.424 146.954 104.192 147.138C103.96 147.322 103.844 147.554 103.844 147.834C103.844 148.074 103.924 148.266 104.084 148.41C104.252 148.554 104.524 148.646 104.9 148.686L105.596 148.758C106.284 148.83 106.836 149.022 107.252 149.334C107.668 149.638 107.876 150.07 107.876 150.63C107.876 151.03 107.76 151.386 107.528 151.698C107.304 152.002 106.992 152.242 106.592 152.418C106.192 152.586 105.732 152.67 105.212 152.67ZM114.532 152.55C114.052 152.55 113.636 152.482 113.284 152.346C112.94 152.21 112.672 151.978 112.48 151.65C112.296 151.314 112.204 150.862 112.204 150.294V144.126H113.308V150.438C113.308 150.782 113.4 151.05 113.584 151.242C113.776 151.426 114.044 151.518 114.388 151.518H115.516V152.55H114.532ZM111.1 146.934V146.07H115.516V146.934H111.1ZM119.931 152.694C119.371 152.694 118.879 152.598 118.455 152.406C118.031 152.214 117.671 151.962 117.375 151.65C117.087 151.33 116.867 150.974 116.715 150.582C116.571 150.19 116.499 149.79 116.499 149.382V149.166C116.499 148.758 116.575 148.358 116.727 147.966C116.879 147.566 117.103 147.21 117.399 146.898C117.695 146.578 118.055 146.326 118.479 146.142C118.903 145.95 119.387 145.854 119.931 145.854C120.475 145.854 120.959 145.95 121.383 146.142C121.807 146.326 122.167 146.578 122.463 146.898C122.759 147.21 122.983 147.566 123.135 147.966C123.287 148.358 123.363 148.758 123.363 149.166V149.382C123.363 149.79 123.287 150.19 123.135 150.582C122.991 150.974 122.771 151.33 122.475 151.65C122.187 151.962 121.831 152.214 121.407 152.406C120.983 152.598 120.491 152.694 119.931 152.694ZM119.931 151.662C120.411 151.662 120.819 151.558 121.155 151.35C121.499 151.134 121.759 150.846 121.935 150.486C122.119 150.126 122.211 149.722 122.211 149.274C122.211 148.818 122.119 148.41 121.935 148.05C121.751 147.69 121.487 147.406 121.143 147.198C120.807 146.99 120.403 146.886 119.931 146.886C119.467 146.886 119.063 146.99 118.719 147.198C118.375 147.406 118.111 147.69 117.927 148.05C117.743 148.41 117.651 148.818 117.651 149.274C117.651 149.722 117.739 150.126 117.915 150.486C118.099 150.846 118.359 151.134 118.695 151.35C119.039 151.558 119.451 151.662 119.931 151.662ZM127.92 152.694C127.36 152.694 126.868 152.598 126.444 152.406C126.02 152.214 125.66 151.962 125.364 151.65C125.076 151.33 124.856 150.974 124.704 150.582C124.56 150.19 124.488 149.79 124.488 149.382V149.166C124.488 148.758 124.564 148.358 124.716 147.966C124.868 147.566 125.092 147.21 125.388 146.898C125.684 146.578 126.044 146.326 126.468 146.142C126.892 145.95 127.376 145.854 127.92 145.854C128.464 145.854 128.948 145.95 129.372 146.142C129.796 146.326 130.156 146.578 130.452 146.898C130.748 147.21 130.972 147.566 131.124 147.966C131.276 148.358 131.352 148.758 131.352 149.166V149.382C131.352 149.79 131.276 150.19 131.124 150.582C130.98 150.974 130.76 151.33 130.464 151.65C130.176 151.962 129.82 152.214 129.396 152.406C128.972 152.598 128.48 152.694 127.92 152.694ZM127.92 151.662C128.4 151.662 128.808 151.558 129.144 151.35C129.488 151.134 129.748 150.846 129.924 150.486C130.108 150.126 130.2 149.722 130.2 149.274C130.2 148.818 130.108 148.41 129.924 148.05C129.74 147.69 129.476 147.406 129.132 147.198C128.796 146.99 128.392 146.886 127.92 146.886C127.456 146.886 127.052 146.99 126.708 147.198C126.364 147.406 126.1 147.69 125.916 148.05C125.732 148.41 125.64 148.818 125.64 149.274C125.64 149.722 125.728 150.126 125.904 150.486C126.088 150.846 126.348 151.134 126.684 151.35C127.028 151.558 127.44 151.662 127.92 151.662ZM133.029 152.478V143.718H134.181V152.478H133.029ZM132.141 144.63V143.718H134.181V144.63H132.141ZM138.953 152.478V143.718H140.105V152.478H138.953ZM138.065 144.63V143.718H140.105V144.63H138.065ZM144.919 152.694C144.359 152.694 143.875 152.598 143.467 152.406C143.059 152.214 142.727 151.962 142.471 151.65C142.215 151.33 142.023 150.974 141.895 150.582C141.775 150.19 141.715 149.79 141.715 149.382V149.166C141.715 148.75 141.775 148.346 141.895 147.954C142.023 147.562 142.215 147.21 142.471 146.898C142.727 146.578 143.051 146.326 143.443 146.142C143.843 145.95 144.311 145.854 144.847 145.854C145.543 145.854 146.115 146.006 146.563 146.31C147.019 146.606 147.355 146.99 147.571 147.462C147.795 147.934 147.907 148.438 147.907 148.974V149.49H142.219V148.626H147.067L146.803 149.094C146.803 148.638 146.731 148.246 146.587 147.918C146.443 147.582 146.227 147.322 145.939 147.138C145.651 146.954 145.287 146.862 144.847 146.862C144.391 146.862 144.011 146.966 143.707 147.174C143.411 147.382 143.187 147.666 143.035 148.026C142.891 148.386 142.819 148.802 142.819 149.274C142.819 149.73 142.891 150.142 143.035 150.51C143.187 150.87 143.419 151.158 143.731 151.374C144.043 151.582 144.439 151.686 144.919 151.686C145.423 151.686 145.831 151.574 146.143 151.35C146.463 151.126 146.655 150.866 146.719 150.57H147.799C147.711 151.01 147.535 151.39 147.271 151.71C147.007 152.03 146.675 152.274 146.275 152.442C145.875 152.61 145.423 152.694 144.919 152.694ZM151.919 152.55C151.439 152.55 151.023 152.482 150.671 152.346C150.327 152.21 150.059 151.978 149.867 151.65C149.683 151.314 149.591 150.862 149.591 150.294V144.126H150.695V150.438C150.695 150.782 150.787 151.05 150.971 151.242C151.163 151.426 151.431 151.518 151.775 151.518H152.903V152.55H151.919ZM148.487 146.934V146.07H152.903V146.934H148.487ZM156.465 152.67C155.625 152.67 154.973 152.49 154.509 152.13C154.053 151.77 153.817 151.278 153.801 150.654H154.881C154.897 150.902 155.021 151.138 155.253 151.362C155.493 151.578 155.897 151.686 156.465 151.686C156.977 151.686 157.369 151.586 157.641 151.386C157.913 151.178 158.049 150.926 158.049 150.63C158.049 150.366 157.949 150.162 157.749 150.018C157.549 149.866 157.225 149.766 156.777 149.718L156.081 149.646C155.473 149.582 154.977 149.402 154.593 149.106C154.209 148.802 154.017 148.378 154.017 147.834C154.017 147.426 154.121 147.078 154.329 146.79C154.537 146.494 154.825 146.27 155.193 146.118C155.561 145.958 155.985 145.878 156.465 145.878C157.185 145.878 157.769 146.038 158.217 146.358C158.665 146.678 158.897 147.154 158.913 147.786H157.833C157.825 147.53 157.705 147.314 157.473 147.138C157.249 146.954 156.913 146.862 156.465 146.862C156.017 146.862 155.677 146.954 155.445 147.138C155.213 147.322 155.097 147.554 155.097 147.834C155.097 148.074 155.177 148.266 155.337 148.41C155.505 148.554 155.777 148.646 156.153 148.686L156.849 148.758C157.537 148.83 158.089 149.022 158.505 149.334C158.921 149.638 159.129 150.07 159.129 150.63C159.129 151.03 159.013 151.386 158.781 151.698C158.557 152.002 158.245 152.242 157.845 152.418C157.445 152.586 156.985 152.67 156.465 152.67ZM162.857 154.974V153.942H163.781C164.053 153.942 164.281 153.906 164.465 153.834C164.657 153.77 164.813 153.658 164.933 153.498C165.061 153.338 165.165 153.126 165.245 152.862L167.261 146.07H168.389L166.253 153.162C166.125 153.586 165.945 153.93 165.713 154.194C165.481 154.466 165.197 154.662 164.861 154.782C164.533 154.91 164.149 154.974 163.709 154.974H162.857ZM164.813 152.334V151.374H166.205V152.334H164.813ZM164.693 152.334L162.401 146.07H163.577L165.773 152.334H164.693ZM172.567 152.694C172.007 152.694 171.515 152.598 171.091 152.406C170.667 152.214 170.307 151.962 170.011 151.65C169.723 151.33 169.503 150.974 169.351 150.582C169.207 150.19 169.135 149.79 169.135 149.382V149.166C169.135 148.758 169.211 148.358 169.363 147.966C169.515 147.566 169.739 147.21 170.035 146.898C170.331 146.578 170.691 146.326 171.115 146.142C171.539 145.95 172.023 145.854 172.567 145.854C173.111 145.854 173.595 145.95 174.019 146.142C174.443 146.326 174.803 146.578 175.099 146.898C175.395 147.21 175.619 147.566 175.771 147.966C175.923 148.358 175.999 148.758 175.999 149.166V149.382C175.999 149.79 175.923 150.19 175.771 150.582C175.627 150.974 175.407 151.33 175.111 151.65C174.823 151.962 174.467 152.214 174.043 152.406C173.619 152.598 173.127 152.694 172.567 152.694ZM172.567 151.662C173.047 151.662 173.455 151.558 173.791 151.35C174.135 151.134 174.395 150.846 174.571 150.486C174.755 150.126 174.847 149.722 174.847 149.274C174.847 148.818 174.755 148.41 174.571 148.05C174.387 147.69 174.123 147.406 173.779 147.198C173.443 146.99 173.039 146.886 172.567 146.886C172.103 146.886 171.699 146.99 171.355 147.198C171.011 147.406 170.747 147.69 170.563 148.05C170.379 148.41 170.287 148.818 170.287 149.274C170.287 149.722 170.375 150.126 170.551 150.486C170.735 150.846 170.995 151.134 171.331 151.35C171.675 151.558 172.087 151.662 172.567 151.662ZM179.824 152.67C179.064 152.67 178.48 152.422 178.072 151.926C177.664 151.43 177.46 150.714 177.46 149.778V146.058H178.612V150.006C178.612 150.51 178.748 150.906 179.02 151.194C179.292 151.474 179.66 151.614 180.124 151.614C180.604 151.614 180.996 151.462 181.3 151.158C181.604 150.846 181.756 150.422 181.756 149.886V146.058H182.908V152.478H181.996V149.73H182.14C182.14 150.362 182.056 150.898 181.888 151.338C181.72 151.77 181.468 152.102 181.132 152.334C180.804 152.558 180.384 152.67 179.872 152.67H179.824ZM192.046 152.478L189.634 149.49H188.578L191.518 146.07H192.73L190.066 149.154L190.15 148.542L193.378 152.478H192.046ZM187.63 152.478V143.718H188.782V152.478H187.63ZM196.972 152.694C196.412 152.694 195.928 152.598 195.52 152.406C195.112 152.214 194.78 151.962 194.524 151.65C194.268 151.33 194.076 150.974 193.948 150.582C193.828 150.19 193.768 149.79 193.768 149.382V149.166C193.768 148.75 193.828 148.346 193.948 147.954C194.076 147.562 194.268 147.21 194.524 146.898C194.78 146.578 195.104 146.326 195.496 146.142C195.896 145.95 196.364 145.854 196.9 145.854C197.596 145.854 198.168 146.006 198.616 146.31C199.072 146.606 199.408 146.99 199.624 147.462C199.848 147.934 199.96 148.438 199.96 148.974V149.49H194.272V148.626H199.12L198.856 149.094C198.856 148.638 198.784 148.246 198.64 147.918C198.496 147.582 198.28 147.322 197.992 147.138C197.704 146.954 197.34 146.862 196.9 146.862C196.444 146.862 196.064 146.966 195.76 147.174C195.464 147.382 195.24 147.666 195.088 148.026C194.944 148.386 194.872 148.802 194.872 149.274C194.872 149.73 194.944 150.142 195.088 150.51C195.24 150.87 195.472 151.158 195.784 151.374C196.096 151.582 196.492 151.686 196.972 151.686C197.476 151.686 197.884 151.574 198.196 151.35C198.516 151.126 198.708 150.866 198.772 150.57H199.852C199.764 151.01 199.588 151.39 199.324 151.71C199.06 152.03 198.728 152.274 198.328 152.442C197.928 152.61 197.476 152.694 196.972 152.694ZM204.2 152.694C203.64 152.694 203.156 152.598 202.748 152.406C202.34 152.214 202.008 151.962 201.752 151.65C201.496 151.33 201.304 150.974 201.176 150.582C201.056 150.19 200.996 149.79 200.996 149.382V149.166C200.996 148.75 201.056 148.346 201.176 147.954C201.304 147.562 201.496 147.21 201.752 146.898C202.008 146.578 202.332 146.326 202.724 146.142C203.124 145.95 203.592 145.854 204.128 145.854C204.824 145.854 205.396 146.006 205.844 146.31C206.3 146.606 206.636 146.99 206.852 147.462C207.076 147.934 207.188 148.438 207.188 148.974V149.49H201.5V148.626H206.348L206.084 149.094C206.084 148.638 206.012 148.246 205.868 147.918C205.724 147.582 205.508 147.322 205.22 147.138C204.932 146.954 204.568 146.862 204.128 146.862C203.672 146.862 203.292 146.966 202.988 147.174C202.692 147.382 202.468 147.666 202.316 148.026C202.172 148.386 202.1 148.802 202.1 149.274C202.1 149.73 202.172 150.142 202.316 150.51C202.468 150.87 202.7 151.158 203.012 151.374C203.324 151.582 203.72 151.686 204.2 151.686C204.704 151.686 205.112 151.574 205.424 151.35C205.744 151.126 205.936 150.866 206 150.57H207.08C206.992 151.01 206.816 151.39 206.552 151.71C206.288 152.03 205.956 152.274 205.556 152.442C205.156 152.61 204.704 152.694 204.2 152.694ZM208.703 154.878V146.07H209.615V148.842L209.399 148.818C209.439 148.13 209.583 147.57 209.831 147.138C210.087 146.698 210.419 146.374 210.827 146.166C211.235 145.958 211.679 145.854 212.159 145.854C212.623 145.854 213.043 145.942 213.419 146.118C213.803 146.294 214.131 146.534 214.403 146.838C214.675 147.142 214.883 147.494 215.027 147.894C215.171 148.294 215.243 148.718 215.243 149.166V149.382C215.243 149.83 215.167 150.254 215.015 150.654C214.863 151.054 214.647 151.406 214.367 151.71C214.095 152.014 213.767 152.254 213.383 152.43C213.007 152.606 212.591 152.694 212.135 152.694C211.679 152.694 211.243 152.594 210.827 152.394C210.411 152.194 210.067 151.87 209.795 151.422C209.523 150.974 209.367 150.386 209.327 149.658L209.855 150.618V154.878H208.703ZM211.955 151.686C212.387 151.686 212.763 151.586 213.083 151.386C213.403 151.178 213.651 150.894 213.827 150.534C214.003 150.166 214.091 149.746 214.091 149.274C214.091 148.794 214.003 148.374 213.827 148.014C213.651 147.654 213.403 147.374 213.083 147.174C212.763 146.966 212.387 146.862 211.955 146.862C211.571 146.862 211.215 146.95 210.887 147.126C210.559 147.294 210.295 147.542 210.095 147.87C209.903 148.19 209.807 148.578 209.807 149.034V149.586C209.807 150.026 209.907 150.402 210.107 150.714C210.307 151.026 210.571 151.266 210.899 151.434C211.227 151.602 211.579 151.686 211.955 151.686ZM221.963 152.55C221.483 152.55 221.067 152.482 220.715 152.346C220.371 152.21 220.103 151.978 219.911 151.65C219.727 151.314 219.635 150.862 219.635 150.294V144.126H220.739V150.438C220.739 150.782 220.831 151.05 221.015 151.242C221.207 151.426 221.475 151.518 221.819 151.518H222.947V152.55H221.963ZM218.531 146.934V146.07H222.947V146.934H218.531ZM224.456 152.478V146.07H225.368V148.71H225.32C225.32 147.774 225.524 147.09 225.932 146.658C226.348 146.218 226.968 145.998 227.792 145.998H228.008V147.03H227.6C226.96 147.03 226.468 147.202 226.124 147.546C225.78 147.882 225.608 148.37 225.608 149.01V152.478H224.456ZM233.111 152.478V150.558H232.919V148.338C232.919 147.898 232.803 147.566 232.571 147.342C232.347 147.118 232.015 147.006 231.575 147.006C231.327 147.006 231.071 147.01 230.807 147.018C230.543 147.026 230.291 147.034 230.051 147.042C229.811 147.05 229.603 147.062 229.427 147.078V146.07C229.603 146.054 229.787 146.042 229.979 146.034C230.179 146.018 230.383 146.01 230.591 146.01C230.799 146.002 230.999 145.998 231.191 145.998C231.847 145.998 232.383 146.078 232.799 146.238C233.215 146.39 233.523 146.642 233.723 146.994C233.923 147.346 234.023 147.822 234.023 148.422V152.478H233.111ZM231.011 152.646C230.531 152.646 230.115 152.566 229.763 152.406C229.419 152.238 229.151 151.998 228.959 151.686C228.775 151.374 228.683 150.998 228.683 150.558C228.683 150.102 228.783 149.722 228.983 149.418C229.191 149.114 229.491 148.886 229.883 148.734C230.275 148.574 230.747 148.494 231.299 148.494H233.039V149.358H231.251C230.787 149.358 230.431 149.47 230.183 149.694C229.935 149.918 229.811 150.206 229.811 150.558C229.811 150.91 229.935 151.194 230.183 151.41C230.431 151.626 230.787 151.734 231.251 151.734C231.523 151.734 231.783 151.686 232.031 151.59C232.279 151.486 232.483 151.318 232.643 151.086C232.811 150.846 232.903 150.518 232.919 150.102L233.231 150.558C233.191 151.014 233.079 151.398 232.895 151.71C232.719 152.014 232.471 152.246 232.151 152.406C231.839 152.566 231.459 152.646 231.011 152.646ZM238.765 152.694C238.213 152.694 237.733 152.598 237.325 152.406C236.925 152.214 236.593 151.958 236.329 151.638C236.065 151.31 235.865 150.95 235.729 150.558C235.601 150.166 235.537 149.774 235.537 149.382V149.166C235.537 148.758 235.601 148.358 235.729 147.966C235.865 147.574 236.065 147.222 236.329 146.91C236.601 146.59 236.937 146.334 237.337 146.142C237.737 145.95 238.205 145.854 238.741 145.854C239.277 145.854 239.757 145.954 240.181 146.154C240.613 146.354 240.957 146.638 241.213 147.006C241.477 147.366 241.625 147.794 241.657 148.29H240.553C240.497 147.89 240.313 147.558 240.001 147.294C239.689 147.022 239.269 146.886 238.741 146.886C238.285 146.886 237.905 146.99 237.601 147.198C237.297 147.406 237.069 147.69 236.917 148.05C236.765 148.41 236.689 148.818 236.689 149.274C236.689 149.714 236.765 150.118 236.917 150.486C237.069 150.846 237.297 151.134 237.601 151.35C237.913 151.558 238.301 151.662 238.765 151.662C239.125 151.662 239.437 151.598 239.701 151.47C239.965 151.342 240.177 151.17 240.337 150.954C240.497 150.738 240.593 150.494 240.625 150.222H241.729C241.705 150.726 241.557 151.162 241.285 151.53C241.021 151.898 240.669 152.186 240.229 152.394C239.797 152.594 239.309 152.694 238.765 152.694ZM247.591 152.478L245.179 149.49H244.123L247.063 146.07H248.275L245.611 149.154L245.695 148.542L248.923 152.478H247.591ZM243.175 152.478V143.718H244.327V152.478H243.175ZM255.496 152.694C254.936 152.694 254.444 152.598 254.02 152.406C253.596 152.214 253.236 151.962 252.94 151.65C252.652 151.33 252.432 150.974 252.28 150.582C252.136 150.19 252.064 149.79 252.064 149.382V149.166C252.064 148.758 252.14 148.358 252.292 147.966C252.444 147.566 252.668 147.21 252.964 146.898C253.26 146.578 253.62 146.326 254.044 146.142C254.468 145.95 254.952 145.854 255.496 145.854C256.04 145.854 256.524 145.95 256.948 146.142C257.372 146.326 257.732 146.578 258.028 146.898C258.324 147.21 258.548 147.566 258.7 147.966C258.852 148.358 258.928 148.758 258.928 149.166V149.382C258.928 149.79 258.852 150.19 258.7 150.582C258.556 150.974 258.336 151.33 258.04 151.65C257.752 151.962 257.396 152.214 256.972 152.406C256.548 152.598 256.056 152.694 255.496 152.694ZM255.496 151.662C255.976 151.662 256.384 151.558 256.72 151.35C257.064 151.134 257.324 150.846 257.5 150.486C257.684 150.126 257.776 149.722 257.776 149.274C257.776 148.818 257.684 148.41 257.5 148.05C257.316 147.69 257.052 147.406 256.708 147.198C256.372 146.99 255.968 146.886 255.496 146.886C255.032 146.886 254.628 146.99 254.284 147.198C253.94 147.406 253.676 147.69 253.492 148.05C253.308 148.41 253.216 148.818 253.216 149.274C253.216 149.722 253.304 150.126 253.48 150.486C253.664 150.846 253.924 151.134 254.26 151.35C254.604 151.558 255.016 151.662 255.496 151.662ZM260.701 152.478V145.746C260.701 145.034 260.889 144.51 261.265 144.174C261.641 143.838 262.193 143.67 262.921 143.67H263.713V144.63H262.729C262.433 144.63 262.205 144.714 262.045 144.882C261.885 145.042 261.805 145.266 261.805 145.554V152.478H260.701ZM259.813 147.006V146.142H263.833V147.006H259.813ZM270.295 152.694C269.735 152.694 269.251 152.598 268.843 152.406C268.435 152.214 268.103 151.962 267.847 151.65C267.591 151.33 267.399 150.974 267.271 150.582C267.151 150.19 267.091 149.79 267.091 149.382V149.166C267.091 148.75 267.151 148.346 267.271 147.954C267.399 147.562 267.591 147.21 267.847 146.898C268.103 146.578 268.427 146.326 268.819 146.142C269.219 145.95 269.687 145.854 270.223 145.854C270.919 145.854 271.491 146.006 271.939 146.31C272.395 146.606 272.731 146.99 272.947 147.462C273.171 147.934 273.283 148.438 273.283 148.974V149.49H267.595V148.626H272.443L272.179 149.094C272.179 148.638 272.107 148.246 271.963 147.918C271.819 147.582 271.603 147.322 271.315 147.138C271.027 146.954 270.663 146.862 270.223 146.862C269.767 146.862 269.387 146.966 269.083 147.174C268.787 147.382 268.563 147.666 268.411 148.026C268.267 148.386 268.195 148.802 268.195 149.274C268.195 149.73 268.267 150.142 268.411 150.51C268.563 150.87 268.795 151.158 269.107 151.374C269.419 151.582 269.815 151.686 270.295 151.686C270.799 151.686 271.207 151.574 271.519 151.35C271.839 151.126 272.031 150.866 272.095 150.57H273.175C273.087 151.01 272.911 151.39 272.647 151.71C272.383 152.03 272.051 152.274 271.651 152.442C271.251 152.61 270.799 152.694 270.295 152.694ZM274.798 152.478V146.07H275.71V148.818H275.566C275.566 148.186 275.65 147.654 275.818 147.222C275.994 146.782 276.258 146.45 276.61 146.226C276.962 145.994 277.406 145.878 277.942 145.878H277.99C278.798 145.878 279.394 146.13 279.778 146.634C280.17 147.138 280.366 147.866 280.366 148.818V152.478H279.214V148.578C279.214 148.082 279.074 147.686 278.794 147.39C278.514 147.086 278.13 146.934 277.642 146.934C277.138 146.934 276.73 147.09 276.418 147.402C276.106 147.714 275.95 148.13 275.95 148.65V152.478H274.798ZM284.778 154.974C284.482 154.974 284.182 154.962 283.878 154.938C283.582 154.914 283.298 154.882 283.026 154.842V153.87C283.314 153.91 283.614 153.942 283.926 153.966C284.246 153.998 284.546 154.014 284.826 154.014C285.41 154.014 285.874 153.934 286.218 153.774C286.57 153.622 286.822 153.378 286.974 153.042C287.134 152.714 287.214 152.29 287.214 151.77V150.546L287.598 149.634C287.574 150.282 287.438 150.822 287.19 151.254C286.942 151.678 286.618 151.998 286.218 152.214C285.826 152.422 285.39 152.526 284.91 152.526C284.462 152.526 284.05 152.442 283.674 152.274C283.306 152.098 282.986 151.858 282.714 151.554C282.45 151.25 282.242 150.902 282.09 150.51C281.946 150.11 281.874 149.69 281.874 149.25V149.034C281.874 148.586 281.95 148.17 282.102 147.786C282.254 147.394 282.466 147.054 282.738 146.766C283.01 146.478 283.334 146.254 283.71 146.094C284.094 145.934 284.514 145.854 284.97 145.854C285.506 145.854 285.978 145.97 286.386 146.202C286.794 146.426 287.114 146.758 287.346 147.198C287.586 147.63 287.718 148.162 287.742 148.794L287.406 148.806V146.07H288.318V151.722C288.318 152.49 288.198 153.11 287.958 153.582C287.726 154.062 287.35 154.414 286.83 154.638C286.318 154.862 285.634 154.974 284.778 154.974ZM285.126 151.47C285.51 151.47 285.858 151.386 286.17 151.218C286.49 151.05 286.742 150.81 286.926 150.498C287.118 150.178 287.214 149.798 287.214 149.358V148.806C287.214 148.374 287.114 148.01 286.914 147.714C286.722 147.418 286.47 147.194 286.158 147.042C285.846 146.89 285.506 146.814 285.138 146.814C284.722 146.814 284.354 146.91 284.034 147.102C283.714 147.294 283.466 147.566 283.29 147.918C283.114 148.262 283.026 148.67 283.026 149.142C283.026 149.614 283.114 150.026 283.29 150.378C283.474 150.73 283.722 151.002 284.034 151.194C284.354 151.378 284.718 151.47 285.126 151.47ZM294.208 152.478V150.558H294.016V148.338C294.016 147.898 293.9 147.566 293.668 147.342C293.444 147.118 293.112 147.006 292.672 147.006C292.424 147.006 292.168 147.01 291.904 147.018C291.64 147.026 291.388 147.034 291.148 147.042C290.908 147.05 290.7 147.062 290.524 147.078V146.07C290.7 146.054 290.884 146.042 291.076 146.034C291.276 146.018 291.48 146.01 291.688 146.01C291.896 146.002 292.096 145.998 292.288 145.998C292.944 145.998 293.48 146.078 293.896 146.238C294.312 146.39 294.62 146.642 294.82 146.994C295.02 147.346 295.12 147.822 295.12 148.422V152.478H294.208ZM292.108 152.646C291.628 152.646 291.212 152.566 290.86 152.406C290.516 152.238 290.248 151.998 290.056 151.686C289.872 151.374 289.78 150.998 289.78 150.558C289.78 150.102 289.88 149.722 290.08 149.418C290.288 149.114 290.588 148.886 290.98 148.734C291.372 148.574 291.844 148.494 292.396 148.494H294.136V149.358H292.348C291.884 149.358 291.528 149.47 291.28 149.694C291.032 149.918 290.908 150.206 290.908 150.558C290.908 150.91 291.032 151.194 291.28 151.41C291.528 151.626 291.884 151.734 292.348 151.734C292.62 151.734 292.88 151.686 293.128 151.59C293.376 151.486 293.58 151.318 293.74 151.086C293.908 150.846 294 150.518 294.016 150.102L294.328 150.558C294.288 151.014 294.176 151.398 293.992 151.71C293.816 152.014 293.568 152.246 293.248 152.406C292.936 152.566 292.556 152.646 292.108 152.646ZM299.538 154.974C299.242 154.974 298.942 154.962 298.638 154.938C298.342 154.914 298.058 154.882 297.786 154.842V153.87C298.074 153.91 298.374 153.942 298.686 153.966C299.006 153.998 299.306 154.014 299.586 154.014C300.17 154.014 300.634 153.934 300.978 153.774C301.33 153.622 301.582 153.378 301.734 153.042C301.894 152.714 301.974 152.29 301.974 151.77V150.546L302.358 149.634C302.334 150.282 302.198 150.822 301.95 151.254C301.702 151.678 301.378 151.998 300.978 152.214C300.586 152.422 300.15 152.526 299.67 152.526C299.222 152.526 298.81 152.442 298.434 152.274C298.066 152.098 297.746 151.858 297.474 151.554C297.21 151.25 297.002 150.902 296.85 150.51C296.706 150.11 296.634 149.69 296.634 149.25V149.034C296.634 148.586 296.71 148.17 296.862 147.786C297.014 147.394 297.226 147.054 297.498 146.766C297.77 146.478 298.094 146.254 298.47 146.094C298.854 145.934 299.274 145.854 299.73 145.854C300.266 145.854 300.738 145.97 301.146 146.202C301.554 146.426 301.874 146.758 302.106 147.198C302.346 147.63 302.478 148.162 302.502 148.794L302.166 148.806V146.07H303.078V151.722C303.078 152.49 302.958 153.11 302.718 153.582C302.486 154.062 302.11 154.414 301.59 154.638C301.078 154.862 300.394 154.974 299.538 154.974ZM299.886 151.47C300.27 151.47 300.618 151.386 300.93 151.218C301.25 151.05 301.502 150.81 301.686 150.498C301.878 150.178 301.974 149.798 301.974 149.358V148.806C301.974 148.374 301.874 148.01 301.674 147.714C301.482 147.418 301.23 147.194 300.918 147.042C300.606 146.89 300.266 146.814 299.898 146.814C299.482 146.814 299.114 146.91 298.794 147.102C298.474 147.294 298.226 147.566 298.05 147.918C297.874 148.262 297.786 148.67 297.786 149.142C297.786 149.614 297.874 150.026 298.05 150.378C298.234 150.73 298.482 151.002 298.794 151.194C299.114 151.378 299.478 151.47 299.886 151.47ZM305.404 152.478V146.07H306.556V152.478H305.404ZM304.42 146.982V146.07H306.556V146.982H304.42ZM305.728 145.038C305.472 145.038 305.28 144.97 305.152 144.834C305.032 144.698 304.972 144.526 304.972 144.318C304.972 144.11 305.032 143.938 305.152 143.802C305.28 143.666 305.472 143.598 305.728 143.598C305.984 143.598 306.172 143.666 306.292 143.802C306.42 143.938 306.484 144.11 306.484 144.318C306.484 144.526 306.42 144.698 306.292 144.834C306.172 144.97 305.984 145.038 305.728 145.038ZM308.663 152.478V146.07H309.575V148.818H309.431C309.431 148.186 309.515 147.654 309.683 147.222C309.859 146.782 310.123 146.45 310.475 146.226C310.827 145.994 311.271 145.878 311.807 145.878H311.855C312.663 145.878 313.259 146.13 313.643 146.634C314.035 147.138 314.231 147.866 314.231 148.818V152.478H313.079V148.578C313.079 148.082 312.939 147.686 312.659 147.39C312.379 147.086 311.995 146.934 311.507 146.934C311.003 146.934 310.595 147.09 310.283 147.402C309.971 147.714 309.815 148.13 309.815 148.65V152.478H308.663ZM318.643 154.974C318.347 154.974 318.047 154.962 317.743 154.938C317.447 154.914 317.163 154.882 316.891 154.842V153.87C317.179 153.91 317.479 153.942 317.791 153.966C318.111 153.998 318.411 154.014 318.691 154.014C319.275 154.014 319.739 153.934 320.083 153.774C320.435 153.622 320.687 153.378 320.839 153.042C320.999 152.714 321.079 152.29 321.079 151.77V150.546L321.463 149.634C321.439 150.282 321.303 150.822 321.055 151.254C320.807 151.678 320.483 151.998 320.083 152.214C319.691 152.422 319.255 152.526 318.775 152.526C318.327 152.526 317.915 152.442 317.539 152.274C317.171 152.098 316.851 151.858 316.579 151.554C316.315 151.25 316.107 150.902 315.955 150.51C315.811 150.11 315.739 149.69 315.739 149.25V149.034C315.739 148.586 315.815 148.17 315.967 147.786C316.119 147.394 316.331 147.054 316.603 146.766C316.875 146.478 317.199 146.254 317.575 146.094C317.959 145.934 318.379 145.854 318.835 145.854C319.371 145.854 319.843 145.97 320.251 146.202C320.659 146.426 320.979 146.758 321.211 147.198C321.451 147.63 321.583 148.162 321.607 148.794L321.271 148.806V146.07H322.183V151.722C322.183 152.49 322.063 153.11 321.823 153.582C321.591 154.062 321.215 154.414 320.695 154.638C320.183 154.862 319.499 154.974 318.643 154.974ZM318.991 151.47C319.375 151.47 319.723 151.386 320.035 151.218C320.355 151.05 320.607 150.81 320.791 150.498C320.983 150.178 321.079 149.798 321.079 149.358V148.806C321.079 148.374 320.979 148.01 320.779 147.714C320.587 147.418 320.335 147.194 320.023 147.042C319.711 146.89 319.371 146.814 319.003 146.814C318.587 146.814 318.219 146.91 317.899 147.102C317.579 147.294 317.331 147.566 317.155 147.918C316.979 148.262 316.891 148.67 316.891 149.142C316.891 149.614 316.979 150.026 317.155 150.378C317.339 150.73 317.587 151.002 317.899 151.194C318.219 151.378 318.583 151.47 318.991 151.47ZM33.424 176.694C32.744 176.694 32.128 176.582 31.576 176.358C31.024 176.134 30.548 175.818 30.148 175.41C29.756 175.002 29.452 174.522 29.236 173.97C29.02 173.41 28.912 172.802 28.912 172.146V171.882C28.912 171.322 29.008 170.782 29.2 170.262C29.4 169.734 29.684 169.262 30.052 168.846C30.428 168.422 30.884 168.09 31.42 167.85C31.956 167.602 32.56 167.478 33.232 167.478C33.96 167.478 34.608 167.618 35.176 167.898C35.744 168.17 36.2 168.554 36.544 169.05C36.888 169.538 37.088 170.106 37.144 170.754H35.944C35.888 170.266 35.728 169.862 35.464 169.542C35.2 169.214 34.872 168.97 34.48 168.81C34.096 168.642 33.68 168.558 33.232 168.558C32.776 168.558 32.356 168.642 31.972 168.81C31.588 168.97 31.256 169.202 30.976 169.506C30.704 169.81 30.492 170.174 30.34 170.598C30.188 171.022 30.112 171.498 30.112 172.026C30.112 172.626 30.192 173.154 30.352 173.61C30.52 174.058 30.752 174.434 31.048 174.738C31.344 175.034 31.692 175.258 32.092 175.41C32.5 175.562 32.944 175.638 33.424 175.638C34.104 175.638 34.7 175.502 35.212 175.23C35.732 174.95 36.124 174.59 36.388 174.15L35.956 175.578V172.974H37.06V175.062C36.668 175.574 36.164 175.974 35.548 176.262C34.932 176.55 34.224 176.694 33.424 176.694ZM33.112 173.214V172.23H37.804V173.214H33.112ZM41.9206 176.694C41.3606 176.694 40.8766 176.598 40.4686 176.406C40.0606 176.214 39.7286 175.962 39.4726 175.65C39.2166 175.33 39.0246 174.974 38.8966 174.582C38.7766 174.19 38.7166 173.79 38.7166 173.382V173.166C38.7166 172.75 38.7766 172.346 38.8966 171.954C39.0246 171.562 39.2166 171.21 39.4726 170.898C39.7286 170.578 40.0526 170.326 40.4446 170.142C40.8446 169.95 41.3126 169.854 41.8486 169.854C42.5446 169.854 43.1166 170.006 43.5646 170.31C44.0206 170.606 44.3566 170.99 44.5726 171.462C44.7966 171.934 44.9086 172.438 44.9086 172.974V173.49H39.2206V172.626H44.0686L43.8046 173.094C43.8046 172.638 43.7326 172.246 43.5886 171.918C43.4446 171.582 43.2286 171.322 42.9406 171.138C42.6526 170.954 42.2886 170.862 41.8486 170.862C41.3926 170.862 41.0126 170.966 40.7086 171.174C40.4126 171.382 40.1886 171.666 40.0366 172.026C39.8926 172.386 39.8206 172.802 39.8206 173.274C39.8206 173.73 39.8926 174.142 40.0366 174.51C40.1886 174.87 40.4206 175.158 40.7326 175.374C41.0446 175.582 41.4406 175.686 41.9206 175.686C42.4246 175.686 42.8326 175.574 43.1446 175.35C43.4646 175.126 43.6566 174.866 43.7206 174.57H44.8006C44.7126 175.01 44.5366 175.39 44.2726 175.71C44.0086 176.03 43.6766 176.274 43.2766 176.442C42.8766 176.61 42.4246 176.694 41.9206 176.694ZM46.4243 176.478V170.07H47.3363V172.818H47.1923C47.1923 172.186 47.2763 171.654 47.4443 171.222C47.6203 170.782 47.8843 170.45 48.2363 170.226C48.5883 169.994 49.0323 169.878 49.5683 169.878H49.6163C50.4243 169.878 51.0203 170.13 51.4043 170.634C51.7963 171.138 51.9923 171.866 51.9923 172.818V176.478H50.8403V172.578C50.8403 172.082 50.7003 171.686 50.4203 171.39C50.1403 171.086 49.7563 170.934 49.2683 170.934C48.7643 170.934 48.3563 171.09 48.0443 171.402C47.7323 171.714 47.5763 172.13 47.5763 172.65V176.478H46.4243ZM53.6681 173.634V172.65H58.1321V173.634H53.6681ZM59.254 176.478V175.038L64.654 168.714L64.642 169.002L64.33 168.57L64.534 168.702H59.362V167.718H65.65V169.158L60.238 175.482L60.226 175.146L60.61 175.686L60.31 175.494H65.806V176.478H59.254ZM72.176 176.67C71.416 176.67 70.832 176.422 70.424 175.926C70.016 175.43 69.812 174.714 69.812 173.778V170.058H70.964V174.006C70.964 174.51 71.1 174.906 71.372 175.194C71.644 175.474 72.012 175.614 72.476 175.614C72.956 175.614 73.348 175.462 73.652 175.158C73.956 174.846 74.108 174.422 74.108 173.886V170.058H75.26V176.478H74.348V173.73H74.492C74.492 174.362 74.408 174.898 74.24 175.338C74.072 175.77 73.82 176.102 73.484 176.334C73.156 176.558 72.736 176.67 72.224 176.67H72.176ZM79.4712 176.67C78.6312 176.67 77.9792 176.49 77.5152 176.13C77.0592 175.77 76.8232 175.278 76.8072 174.654H77.8872C77.9032 174.902 78.0272 175.138 78.2592 175.362C78.4992 175.578 78.9032 175.686 79.4712 175.686C79.9832 175.686 80.3752 175.586 80.6472 175.386C80.9192 175.178 81.0552 174.926 81.0552 174.63C81.0552 174.366 80.9552 174.162 80.7552 174.018C80.5552 173.866 80.2312 173.766 79.7832 173.718L79.0872 173.646C78.4792 173.582 77.9832 173.402 77.5992 173.106C77.2152 172.802 77.0232 172.378 77.0232 171.834C77.0232 171.426 77.1272 171.078 77.3352 170.79C77.5432 170.494 77.8312 170.27 78.1992 170.118C78.5672 169.958 78.9912 169.878 79.4712 169.878C80.1912 169.878 80.7752 170.038 81.2232 170.358C81.6712 170.678 81.9032 171.154 81.9192 171.786H80.8392C80.8312 171.53 80.7112 171.314 80.4792 171.138C80.2552 170.954 79.9192 170.862 79.4712 170.862C79.0232 170.862 78.6832 170.954 78.4512 171.138C78.2192 171.322 78.1032 171.554 78.1032 171.834C78.1032 172.074 78.1832 172.266 78.3432 172.41C78.5112 172.554 78.7832 172.646 79.1592 172.686L79.8552 172.758C80.5432 172.83 81.0952 173.022 81.5112 173.334C81.9272 173.638 82.1352 174.07 82.1352 174.63C82.1352 175.03 82.0192 175.386 81.7872 175.698C81.5632 176.002 81.2512 176.242 80.8512 176.418C80.4512 176.586 79.9912 176.67 79.4712 176.67ZM86.4088 176.694C85.8488 176.694 85.3648 176.598 84.9568 176.406C84.5488 176.214 84.2168 175.962 83.9608 175.65C83.7048 175.33 83.5128 174.974 83.3848 174.582C83.2648 174.19 83.2048 173.79 83.2048 173.382V173.166C83.2048 172.75 83.2648 172.346 83.3848 171.954C83.5128 171.562 83.7048 171.21 83.9608 170.898C84.2168 170.578 84.5408 170.326 84.9328 170.142C85.3328 169.95 85.8008 169.854 86.3368 169.854C87.0328 169.854 87.6048 170.006 88.0528 170.31C88.5088 170.606 88.8448 170.99 89.0608 171.462C89.2848 171.934 89.3968 172.438 89.3968 172.974V173.49H83.7088V172.626H88.5568L88.2928 173.094C88.2928 172.638 88.2208 172.246 88.0768 171.918C87.9328 171.582 87.7168 171.322 87.4288 171.138C87.1408 170.954 86.7768 170.862 86.3368 170.862C85.8808 170.862 85.5008 170.966 85.1968 171.174C84.9008 171.382 84.6768 171.666 84.5248 172.026C84.3808 172.386 84.3088 172.802 84.3088 173.274C84.3088 173.73 84.3808 174.142 84.5248 174.51C84.6768 174.87 84.9088 175.158 85.2208 175.374C85.5328 175.582 85.9288 175.686 86.4088 175.686C86.9128 175.686 87.3208 175.574 87.6328 175.35C87.9528 175.126 88.1448 174.866 88.2088 174.57H89.2888C89.2008 175.01 89.0248 175.39 88.7608 175.71C88.4968 176.03 88.1648 176.274 87.7648 176.442C87.3648 176.61 86.9128 176.694 86.4088 176.694ZM90.9124 176.478V170.07H91.8244V172.71H91.7764C91.7764 171.774 91.9804 171.09 92.3884 170.658C92.8044 170.218 93.4244 169.998 94.2484 169.998H94.4644V171.03H94.0564C93.4164 171.03 92.9244 171.202 92.5804 171.546C92.2364 171.882 92.0644 172.37 92.0644 173.01V176.478H90.9124ZM97.8143 176.67C96.9743 176.67 96.3223 176.49 95.8583 176.13C95.4023 175.77 95.1663 175.278 95.1503 174.654H96.2303C96.2463 174.902 96.3703 175.138 96.6023 175.362C96.8423 175.578 97.2463 175.686 97.8143 175.686C98.3263 175.686 98.7183 175.586 98.9903 175.386C99.2623 175.178 99.3983 174.926 99.3983 174.63C99.3983 174.366 99.2983 174.162 99.0983 174.018C98.8983 173.866 98.5743 173.766 98.1263 173.718L97.4303 173.646C96.8223 173.582 96.3263 173.402 95.9423 173.106C95.5583 172.802 95.3663 172.378 95.3663 171.834C95.3663 171.426 95.4703 171.078 95.6783 170.79C95.8863 170.494 96.1743 170.27 96.5423 170.118C96.9103 169.958 97.3343 169.878 97.8143 169.878C98.5343 169.878 99.1183 170.038 99.5663 170.358C100.014 170.678 100.246 171.154 100.262 171.786H99.1823C99.1743 171.53 99.0543 171.314 98.8223 171.138C98.5983 170.954 98.2623 170.862 97.8143 170.862C97.3663 170.862 97.0263 170.954 96.7943 171.138C96.5623 171.322 96.4463 171.554 96.4463 171.834C96.4463 172.074 96.5263 172.266 96.6863 172.41C96.8543 172.554 97.1263 172.646 97.5023 172.686L98.1983 172.758C98.8863 172.83 99.4383 173.022 99.8543 173.334C100.27 173.638 100.478 174.07 100.478 174.63C100.478 175.03 100.362 175.386 100.13 175.698C99.9063 176.002 99.5943 176.242 99.1943 176.418C98.7943 176.586 98.3343 176.67 97.8143 176.67ZM107.59 176.694C107.03 176.694 106.538 176.598 106.114 176.406C105.69 176.214 105.33 175.962 105.034 175.65C104.746 175.33 104.526 174.974 104.374 174.582C104.23 174.19 104.158 173.79 104.158 173.382V173.166C104.158 172.758 104.234 172.358 104.386 171.966C104.538 171.566 104.762 171.21 105.058 170.898C105.354 170.578 105.714 170.326 106.138 170.142C106.562 169.95 107.046 169.854 107.59 169.854C108.134 169.854 108.618 169.95 109.042 170.142C109.466 170.326 109.826 170.578 110.122 170.898C110.418 171.21 110.642 171.566 110.794 171.966C110.946 172.358 111.022 172.758 111.022 173.166V173.382C111.022 173.79 110.946 174.19 110.794 174.582C110.65 174.974 110.43 175.33 110.134 175.65C109.846 175.962 109.49 176.214 109.066 176.406C108.642 176.598 108.15 176.694 107.59 176.694ZM107.59 175.662C108.07 175.662 108.478 175.558 108.814 175.35C109.158 175.134 109.418 174.846 109.594 174.486C109.778 174.126 109.87 173.722 109.87 173.274C109.87 172.818 109.778 172.41 109.594 172.05C109.41 171.69 109.146 171.406 108.802 171.198C108.466 170.99 108.062 170.886 107.59 170.886C107.126 170.886 106.722 170.99 106.378 171.198C106.034 171.406 105.77 171.69 105.586 172.05C105.402 172.41 105.31 172.818 105.31 173.274C105.31 173.722 105.398 174.126 105.574 174.486C105.758 174.846 106.018 175.134 106.354 175.35C106.698 175.558 107.11 175.662 107.59 175.662ZM112.628 176.478V170.07H113.54V172.818H113.396C113.396 172.186 113.48 171.654 113.648 171.222C113.824 170.782 114.088 170.45 114.44 170.226C114.792 169.994 115.236 169.878 115.772 169.878H115.82C116.628 169.878 117.224 170.13 117.608 170.634C118 171.138 118.196 171.866 118.196 172.818V176.478H117.044V172.578C117.044 172.082 116.904 171.686 116.624 171.39C116.344 171.086 115.96 170.934 115.472 170.934C114.968 170.934 114.56 171.09 114.248 171.402C113.936 171.714 113.78 172.13 113.78 172.65V176.478H112.628ZM125.746 176.694C125.186 176.694 124.694 176.598 124.27 176.406C123.846 176.214 123.486 175.962 123.19 175.65C122.902 175.33 122.682 174.974 122.53 174.582C122.386 174.19 122.314 173.79 122.314 173.382V173.166C122.314 172.758 122.39 172.358 122.542 171.966C122.694 171.566 122.918 171.21 123.214 170.898C123.51 170.578 123.87 170.326 124.294 170.142C124.718 169.95 125.202 169.854 125.746 169.854C126.29 169.854 126.774 169.95 127.198 170.142C127.622 170.326 127.982 170.578 128.278 170.898C128.574 171.21 128.798 171.566 128.95 171.966C129.102 172.358 129.178 172.758 129.178 173.166V173.382C129.178 173.79 129.102 174.19 128.95 174.582C128.806 174.974 128.586 175.33 128.29 175.65C128.002 175.962 127.646 176.214 127.222 176.406C126.798 176.598 126.306 176.694 125.746 176.694ZM125.746 175.662C126.226 175.662 126.634 175.558 126.97 175.35C127.314 175.134 127.574 174.846 127.75 174.486C127.934 174.126 128.026 173.722 128.026 173.274C128.026 172.818 127.934 172.41 127.75 172.05C127.566 171.69 127.302 171.406 126.958 171.198C126.622 170.99 126.218 170.886 125.746 170.886C125.282 170.886 124.878 170.99 124.534 171.198C124.19 171.406 123.926 171.69 123.742 172.05C123.558 172.41 123.466 172.818 123.466 173.274C123.466 173.722 123.554 174.126 123.73 174.486C123.914 174.846 124.174 175.134 124.51 175.35C124.854 175.558 125.266 175.662 125.746 175.662ZM133.003 176.67C132.243 176.67 131.659 176.422 131.251 175.926C130.843 175.43 130.639 174.714 130.639 173.778V170.058H131.791V174.006C131.791 174.51 131.927 174.906 132.199 175.194C132.471 175.474 132.839 175.614 133.303 175.614C133.783 175.614 134.175 175.462 134.479 175.158C134.783 174.846 134.935 174.422 134.935 173.886V170.058H136.087V176.478H135.175V173.73H135.319C135.319 174.362 135.235 174.898 135.067 175.338C134.899 175.77 134.647 176.102 134.311 176.334C133.983 176.558 133.563 176.67 133.051 176.67H133.003ZM138.199 176.478V170.07H139.111V172.71H139.063C139.063 171.774 139.267 171.09 139.675 170.658C140.091 170.218 140.711 169.998 141.535 169.998H141.751V171.03H141.343C140.703 171.03 140.211 171.202 139.867 171.546C139.523 171.882 139.351 172.37 139.351 173.01V176.478H138.199ZM145.611 178.878V170.07H146.523V172.842L146.307 172.818C146.347 172.13 146.491 171.57 146.739 171.138C146.995 170.698 147.327 170.374 147.735 170.166C148.143 169.958 148.587 169.854 149.067 169.854C149.531 169.854 149.951 169.942 150.327 170.118C150.711 170.294 151.039 170.534 151.311 170.838C151.583 171.142 151.791 171.494 151.935 171.894C152.079 172.294 152.151 172.718 152.151 173.166V173.382C152.151 173.83 152.075 174.254 151.923 174.654C151.771 175.054 151.555 175.406 151.275 175.71C151.003 176.014 150.675 176.254 150.291 176.43C149.915 176.606 149.499 176.694 149.043 176.694C148.587 176.694 148.151 176.594 147.735 176.394C147.319 176.194 146.975 175.87 146.703 175.422C146.431 174.974 146.275 174.386 146.235 173.658L146.763 174.618V178.878H145.611ZM148.863 175.686C149.295 175.686 149.671 175.586 149.991 175.386C150.311 175.178 150.559 174.894 150.735 174.534C150.911 174.166 150.999 173.746 150.999 173.274C150.999 172.794 150.911 172.374 150.735 172.014C150.559 171.654 150.311 171.374 149.991 171.174C149.671 170.966 149.295 170.862 148.863 170.862C148.479 170.862 148.123 170.95 147.795 171.126C147.467 171.294 147.203 171.542 147.003 171.87C146.811 172.19 146.715 172.578 146.715 173.034V173.586C146.715 174.026 146.815 174.402 147.015 174.714C147.215 175.026 147.479 175.266 147.807 175.434C148.135 175.602 148.487 175.686 148.863 175.686ZM153.836 176.478V167.718H154.988V176.478H153.836ZM152.948 168.63V167.718H154.988V168.63H152.948ZM160.954 176.478V174.558H160.762V172.338C160.762 171.898 160.646 171.566 160.414 171.342C160.19 171.118 159.858 171.006 159.418 171.006C159.17 171.006 158.914 171.01 158.65 171.018C158.386 171.026 158.134 171.034 157.894 171.042C157.654 171.05 157.446 171.062 157.27 171.078V170.07C157.446 170.054 157.63 170.042 157.822 170.034C158.022 170.018 158.226 170.01 158.434 170.01C158.642 170.002 158.842 169.998 159.034 169.998C159.69 169.998 160.226 170.078 160.642 170.238C161.058 170.39 161.366 170.642 161.566 170.994C161.766 171.346 161.866 171.822 161.866 172.422V176.478H160.954ZM158.854 176.646C158.374 176.646 157.958 176.566 157.606 176.406C157.262 176.238 156.994 175.998 156.802 175.686C156.618 175.374 156.526 174.998 156.526 174.558C156.526 174.102 156.626 173.722 156.826 173.418C157.034 173.114 157.334 172.886 157.726 172.734C158.118 172.574 158.59 172.494 159.142 172.494H160.882V173.358H159.094C158.63 173.358 158.274 173.47 158.026 173.694C157.778 173.918 157.654 174.206 157.654 174.558C157.654 174.91 157.778 175.194 158.026 175.41C158.274 175.626 158.63 175.734 159.094 175.734C159.366 175.734 159.626 175.686 159.874 175.59C160.122 175.486 160.326 175.318 160.486 175.086C160.654 174.846 160.746 174.518 160.762 174.102L161.074 174.558C161.034 175.014 160.922 175.398 160.738 175.71C160.562 176.014 160.314 176.246 159.994 176.406C159.682 176.566 159.302 176.646 158.854 176.646ZM166.356 176.55C165.876 176.55 165.46 176.482 165.108 176.346C164.764 176.21 164.496 175.978 164.304 175.65C164.12 175.314 164.028 174.862 164.028 174.294V168.126H165.132V174.438C165.132 174.782 165.224 175.05 165.408 175.242C165.6 175.426 165.868 175.518 166.212 175.518H167.34V176.55H166.356ZM162.924 170.934V170.07H167.34V170.934H162.924ZM169.018 176.478V169.746C169.018 169.034 169.206 168.51 169.582 168.174C169.958 167.838 170.51 167.67 171.238 167.67H172.03V168.63H171.046C170.75 168.63 170.522 168.714 170.362 168.882C170.202 169.042 170.122 169.266 170.122 169.554V176.478H169.018ZM168.13 171.006V170.142H172.15V171.006H168.13ZM176.182 176.694C175.622 176.694 175.13 176.598 174.706 176.406C174.282 176.214 173.922 175.962 173.626 175.65C173.338 175.33 173.118 174.974 172.966 174.582C172.822 174.19 172.75 173.79 172.75 173.382V173.166C172.75 172.758 172.826 172.358 172.978 171.966C173.13 171.566 173.354 171.21 173.65 170.898C173.946 170.578 174.306 170.326 174.73 170.142C175.154 169.95 175.638 169.854 176.182 169.854C176.726 169.854 177.21 169.95 177.634 170.142C178.058 170.326 178.418 170.578 178.714 170.898C179.01 171.21 179.234 171.566 179.386 171.966C179.538 172.358 179.614 172.758 179.614 173.166V173.382C179.614 173.79 179.538 174.19 179.386 174.582C179.242 174.974 179.022 175.33 178.726 175.65C178.438 175.962 178.082 176.214 177.658 176.406C177.234 176.598 176.742 176.694 176.182 176.694ZM176.182 175.662C176.662 175.662 177.07 175.558 177.406 175.35C177.75 175.134 178.01 174.846 178.186 174.486C178.37 174.126 178.462 173.722 178.462 173.274C178.462 172.818 178.37 172.41 178.186 172.05C178.002 171.69 177.738 171.406 177.394 171.198C177.058 170.99 176.654 170.886 176.182 170.886C175.718 170.886 175.314 170.99 174.97 171.198C174.626 171.406 174.362 171.69 174.178 172.05C173.994 172.41 173.902 172.818 173.902 173.274C173.902 173.722 173.99 174.126 174.166 174.486C174.35 174.846 174.61 175.134 174.946 175.35C175.29 175.558 175.702 175.662 176.182 175.662ZM181.219 176.478V170.07H182.131V172.71H182.083C182.083 171.774 182.287 171.09 182.695 170.658C183.111 170.218 183.731 169.998 184.555 169.998H184.771V171.03H184.363C183.723 171.03 183.231 171.202 182.887 171.546C182.543 171.882 182.371 172.37 182.371 173.01V176.478H181.219ZM186.021 176.478V170.07H186.933V172.818H186.789C186.789 172.194 186.869 171.666 187.029 171.234C187.197 170.794 187.445 170.458 187.773 170.226C188.101 169.994 188.517 169.878 189.021 169.878H189.069C189.573 169.878 189.989 169.994 190.317 170.226C190.653 170.458 190.901 170.794 191.061 171.234C191.221 171.666 191.301 172.194 191.301 172.818H190.965C190.965 172.194 191.049 171.666 191.217 171.234C191.385 170.794 191.633 170.458 191.961 170.226C192.297 169.994 192.717 169.878 193.221 169.878H193.269C193.773 169.878 194.193 169.994 194.529 170.226C194.865 170.458 195.113 170.794 195.273 171.234C195.441 171.666 195.525 172.194 195.525 172.818V176.478H194.373V172.566C194.373 172.046 194.245 171.646 193.989 171.366C193.733 171.078 193.377 170.934 192.921 170.934C192.449 170.934 192.069 171.086 191.781 171.39C191.493 171.686 191.349 172.102 191.349 172.638V176.478H190.197V172.566C190.197 172.046 190.069 171.646 189.813 171.366C189.557 171.078 189.201 170.934 188.745 170.934C188.273 170.934 187.893 171.086 187.605 171.39C187.317 171.686 187.173 172.102 187.173 172.638V176.478H186.021Z" fill="white"/>
<path d="M34.496 122.261C33.408 122.261 32.4907 122.053 31.744 121.637C30.9973 121.221 30.4267 120.639 30.032 119.893C29.648 119.135 29.456 118.25 29.456 117.237V110.277H31.728V117.365C31.728 117.919 31.8347 118.41 32.048 118.837C32.2613 119.253 32.5707 119.578 32.976 119.813C33.392 120.037 33.8987 120.149 34.496 120.149C35.0827 120.149 35.5787 120.037 35.984 119.813C36.4 119.578 36.7093 119.253 36.912 118.837C37.1253 118.421 37.232 117.93 37.232 117.365V110.277H39.504V117.237C39.504 118.25 39.312 119.135 38.928 119.893C38.5547 120.639 37.9947 121.221 37.248 121.637C36.5013 122.053 35.584 122.261 34.496 122.261ZM44.8204 122.229C43.6257 122.229 42.687 121.978 42.0044 121.477C41.3324 120.965 40.9804 120.261 40.9484 119.365H42.9484C42.9804 119.663 43.1457 119.935 43.4444 120.181C43.743 120.426 44.2124 120.549 44.8524 120.549C45.3857 120.549 45.807 120.453 46.1164 120.261C46.4364 120.069 46.5964 119.807 46.5964 119.477C46.5964 119.189 46.4737 118.959 46.2284 118.789C45.9937 118.618 45.5884 118.506 45.0124 118.453L44.2444 118.373C43.2737 118.266 42.527 117.989 42.0044 117.541C41.4817 117.093 41.2204 116.495 41.2204 115.749C41.2204 115.151 41.3697 114.65 41.6684 114.245C41.967 113.839 42.3777 113.535 42.9004 113.333C43.4337 113.119 44.0417 113.013 44.7244 113.013C45.791 113.013 46.655 113.247 47.3164 113.717C47.9777 114.186 48.3244 114.874 48.3564 115.781H46.3564C46.335 115.482 46.1857 115.226 45.9084 115.013C45.631 114.799 45.231 114.693 44.7084 114.693C44.239 114.693 43.8764 114.783 43.6204 114.965C43.3644 115.146 43.2364 115.381 43.2364 115.669C43.2364 115.946 43.3377 116.159 43.5404 116.309C43.7537 116.458 44.095 116.559 44.5644 116.613L45.3324 116.693C46.3564 116.799 47.1564 117.082 47.7324 117.541C48.319 117.999 48.6124 118.618 48.6124 119.397C48.6124 119.973 48.4524 120.474 48.1324 120.901C47.823 121.317 47.3857 121.642 46.8204 121.877C46.255 122.111 45.5884 122.229 44.8204 122.229ZM54.0176 122.261C53.2709 122.261 52.6149 122.133 52.0496 121.877C51.4949 121.621 51.0309 121.279 50.6576 120.853C50.2949 120.415 50.0176 119.93 49.8256 119.397C49.6443 118.863 49.5536 118.319 49.5536 117.765V117.461C49.5536 116.885 49.6443 116.33 49.8256 115.797C50.0176 115.253 50.2949 114.773 50.6576 114.357C51.0309 113.93 51.4896 113.594 52.0336 113.349C52.5776 113.093 53.2069 112.965 53.9216 112.965C54.8603 112.965 55.6443 113.173 56.2736 113.589C56.9136 113.994 57.3936 114.533 57.7136 115.205C58.0336 115.866 58.1936 116.581 58.1936 117.349V118.149H50.4976V116.789H56.8016L56.1136 117.461C56.1136 116.906 56.0336 116.431 55.8736 116.037C55.7136 115.642 55.4683 115.338 55.1376 115.125C54.8176 114.911 54.4123 114.805 53.9216 114.805C53.4309 114.805 53.0149 114.917 52.6736 115.141C52.3323 115.365 52.0709 115.69 51.8896 116.117C51.7189 116.533 51.6336 117.034 51.6336 117.621C51.6336 118.165 51.7189 118.65 51.8896 119.077C52.0603 119.493 52.3216 119.823 52.6736 120.069C53.0256 120.303 53.4736 120.421 54.0176 120.421C54.5616 120.421 55.0043 120.314 55.3456 120.101C55.6869 119.877 55.9056 119.605 56.0016 119.285H58.0496C57.9216 119.882 57.6763 120.405 57.3136 120.853C56.9509 121.301 56.4869 121.647 55.9216 121.893C55.3669 122.138 54.7323 122.261 54.0176 122.261ZM59.7315 121.957V113.269H61.4915V116.949H61.4435C61.4435 115.701 61.7102 114.757 62.2435 114.117C62.7768 113.477 63.5608 113.157 64.5955 113.157H64.9155V115.093H64.3075C63.5608 115.093 62.9795 115.295 62.5635 115.701C62.1582 116.095 61.9555 116.671 61.9555 117.429V121.957H59.7315Z" fill="white"/>
<g clip-path="url(#clip0_1869_500)">
<path d="M70.6 64.687C70.6 65.8088 68.482 66.5566 66.011 66.9305C64.4225 63.7522 61.2455 61.3218 57.539 59.6392C57.892 59.0783 58.245 58.7044 58.598 58.1435H60.01C65.4815 57.9566 70.6 61.5088 70.6 64.687ZM40.242 57.9566H38.83C33.3585 57.9566 28.24 61.5088 28.24 64.687C28.24 65.8088 30.358 66.5566 32.829 66.9305C34.4175 63.7522 37.5945 61.3218 41.301 59.6392L40.242 57.9566ZM49.42 59.8262C53.303 59.8262 56.48 56.4609 56.48 52.3479C56.48 48.2348 53.303 44.8696 49.42 44.8696C45.537 44.8696 42.36 48.2348 42.36 52.3479C42.36 56.4609 45.537 59.8262 49.42 59.8262ZM49.42 61.6957C42.1835 61.6957 35.3 66.5566 35.3 71.0435C35.3 74.7827 49.42 74.7827 49.42 74.7827C49.42 74.7827 63.54 74.7827 63.54 71.0435C63.54 66.5566 56.6565 61.6957 49.42 61.6957ZM59.4805 56.087H60.01C63.0105 56.087 65.305 53.6566 65.305 50.4783C65.305 47.3001 63.0105 44.8696 60.01 44.8696C59.1275 44.8696 58.4215 45.0566 57.7155 45.4305C59.1275 47.3001 60.01 49.7305 60.01 52.3479C60.01 53.6566 59.8335 54.9653 59.4805 56.087ZM38.83 56.087H39.3595C39.0065 54.9653 38.83 53.6566 38.83 52.3479C38.83 49.7305 39.7125 47.3001 41.1245 45.4305C40.4185 45.0566 39.7125 44.8696 38.83 44.8696C35.8295 44.8696 33.535 47.3001 33.535 50.4783C33.535 53.6566 35.8295 56.087 38.83 56.087Z" fill="white"/>
</g>
<defs>
<clipPath id="clip0_1869_500">
<rect width="42.36" height="44.8696" fill="white" transform="translate(28.24 37.3914)"/>
</clipPath>
</defs>
</svg>
