<svg width="48" height="48" viewBox="0 0 48 48" fill="none" xmlns="http://www.w3.org/2000/svg">
<path d="M36 18C39.3137 18 42 15.3137 42 12C42 8.68629 39.3137 6 36 6C32.6863 6 30 8.68629 30 12C30 15.3137 32.6863 18 36 18Z" fill="white"/>
<path d="M26 12C26 10.576 26.306 9.226 26.844 8H12C9.794 8 8 9.794 8 12V36C8 38.206 9.794 40 12 40H36C38.206 40 40 38.206 40 36V21.156C38.7397 21.7119 37.3775 21.9993 36 22C33.3478 22 30.8043 20.9464 28.9289 19.0711C27.0536 17.1957 26 14.6522 26 12Z" fill="white"/>
</svg>
