<svg width="445" height="378" viewBox="0 0 445 378" fill="none" xmlns="http://www.w3.org/2000/svg">
<g filter="url(#filter0_b_1468_975)">
<rect width="410.629" height="263.453" rx="10" fill="white" fill-opacity="0.05"/>
</g>
<g clip-path="url(#clip0_1468_975)">
<path d="M33.908 64.168C32.8907 64.168 31.9713 63.9487 31.15 63.51C30.338 63.0713 29.6987 62.4693 29.232 61.704C28.7747 60.9293 28.546 60.0613 28.546 59.1C28.546 58.1387 28.7747 57.2753 29.232 56.51C29.6987 55.7353 30.338 55.1287 31.15 54.69C31.9713 54.2513 32.8907 54.032 33.908 54.032C34.9253 54.032 35.84 54.2513 36.652 54.69C37.464 55.1287 38.1033 55.7353 38.57 56.51C39.0367 57.2753 39.27 58.1387 39.27 59.1C39.27 60.0613 39.0367 60.9293 38.57 61.704C38.1033 62.4693 37.464 63.0713 36.652 63.51C35.84 63.9487 34.9253 64.168 33.908 64.168ZM33.908 62.236C34.4867 62.236 35.0093 62.1053 35.476 61.844C35.9427 61.5733 36.3067 61.2 36.568 60.724C36.8387 60.248 36.974 59.7067 36.974 59.1C36.974 58.4933 36.8387 57.952 36.568 57.476C36.3067 57 35.9427 56.6313 35.476 56.37C35.0093 56.0993 34.4867 55.964 33.908 55.964C33.3293 55.964 32.8067 56.0993 32.34 56.37C31.8733 56.6313 31.5047 57 31.234 57.476C30.9727 57.952 30.842 58.4933 30.842 59.1C30.842 59.7067 30.9727 60.248 31.234 60.724C31.5047 61.2 31.8733 61.5733 32.34 61.844C32.8067 62.1053 33.3293 62.236 33.908 62.236ZM48.4085 56.468V64H46.3365V63.104C46.0472 63.4307 45.7018 63.6827 45.3005 63.86C44.8992 64.028 44.4652 64.112 43.9985 64.112C43.0092 64.112 42.2252 63.8273 41.6465 63.258C41.0678 62.6887 40.7785 61.844 40.7785 60.724V56.468H42.9625V60.402C42.9625 61.6153 43.4712 62.222 44.4885 62.222C45.0112 62.222 45.4312 62.054 45.7485 61.718C46.0658 61.3727 46.2245 60.864 46.2245 60.192V56.468H48.4085ZM52.5178 57.462C52.7792 57.098 53.1292 56.8227 53.5678 56.636C54.0158 56.4493 54.5292 56.356 55.1078 56.356V58.372C54.8652 58.3533 54.7018 58.344 54.6178 58.344C53.9925 58.344 53.5025 58.5213 53.1478 58.876C52.7932 59.2213 52.6158 59.744 52.6158 60.444V64H50.4318V56.468H52.5178V57.462ZM64.878 56.356C65.578 56.356 66.2126 56.5193 66.782 56.846C67.3606 57.1633 67.8133 57.616 68.14 58.204C68.4666 58.7827 68.63 59.4593 68.63 60.234C68.63 61.0087 68.4666 61.69 68.14 62.278C67.8133 62.8567 67.3606 63.3093 66.782 63.636C66.2126 63.9533 65.578 64.112 64.878 64.112C63.9166 64.112 63.1606 63.8087 62.61 63.202V66.716H60.426V56.468H62.512V57.336C63.0533 56.6827 63.842 56.356 64.878 56.356ZM64.5 62.32C65.06 62.32 65.5173 62.1333 65.872 61.76C66.236 61.3773 66.418 60.8687 66.418 60.234C66.418 59.5993 66.236 59.0953 65.872 58.722C65.5173 58.3393 65.06 58.148 64.5 58.148C63.94 58.148 63.478 58.3393 63.114 58.722C62.7593 59.0953 62.582 59.5993 62.582 60.234C62.582 60.8687 62.7593 61.3773 63.114 61.76C63.478 62.1333 63.94 62.32 64.5 62.32ZM70.092 53.612H72.276V64H70.092V53.612ZM77.3409 56.356C78.5076 56.356 79.4036 56.636 80.0289 57.196C80.6543 57.7467 80.9669 58.582 80.9669 59.702V64H78.9229V63.062C78.5123 63.762 77.7469 64.112 76.6269 64.112C76.0483 64.112 75.5443 64.014 75.1149 63.818C74.6949 63.622 74.3729 63.3513 74.1489 63.006C73.9249 62.6607 73.8129 62.2687 73.8129 61.83C73.8129 61.13 74.0743 60.5793 74.5969 60.178C75.1289 59.7767 75.9456 59.576 77.0469 59.576H78.7829C78.7829 59.1 78.6383 58.736 78.3489 58.484C78.0596 58.2227 77.6256 58.092 77.0469 58.092C76.6456 58.092 76.2489 58.1573 75.8569 58.288C75.4743 58.4093 75.1476 58.5773 74.8769 58.792L74.0929 57.266C74.5036 56.9767 74.9936 56.7527 75.5629 56.594C76.1416 56.4353 76.7343 56.356 77.3409 56.356ZM77.1729 62.642C77.5463 62.642 77.8776 62.558 78.1669 62.39C78.4563 62.2127 78.6616 61.956 78.7829 61.62V60.85H77.2849C76.3889 60.85 75.9409 61.144 75.9409 61.732C75.9409 62.012 76.0483 62.236 76.2629 62.404C76.4869 62.5627 76.7903 62.642 77.1729 62.642ZM87.8015 63.636C87.5869 63.7947 87.3209 63.916 87.0035 64C86.6955 64.0747 86.3689 64.112 86.0235 64.112C85.1275 64.112 84.4322 63.8833 83.9375 63.426C83.4522 62.9687 83.2095 62.2967 83.2095 61.41V58.316H82.0475V56.636H83.2095V54.802H85.3935V56.636H87.2695V58.316H85.3935V61.382C85.3935 61.6993 85.4729 61.9467 85.6315 62.124C85.7995 62.292 86.0329 62.376 86.3315 62.376C86.6769 62.376 86.9709 62.2827 87.2135 62.096L87.8015 63.636ZM91.4215 56.636H93.3535V58.316H91.4775V64H89.2935V58.316H88.1315V56.636H89.2935V56.3C89.2935 55.4413 89.5455 54.76 90.0495 54.256C90.5629 53.752 91.2815 53.5 92.2055 53.5C92.5322 53.5 92.8402 53.5373 93.1295 53.612C93.4282 53.6773 93.6755 53.7753 93.8715 53.906L93.2975 55.488C93.0455 55.3107 92.7515 55.222 92.4155 55.222C91.7529 55.222 91.4215 55.586 91.4215 56.314V56.636ZM97.9299 64.112C97.1366 64.112 96.4226 63.9487 95.7879 63.622C95.1626 63.286 94.6726 62.824 94.3179 62.236C93.9632 61.648 93.7859 60.9807 93.7859 60.234C93.7859 59.4873 93.9632 58.82 94.3179 58.232C94.6726 57.644 95.1626 57.1867 95.7879 56.86C96.4226 56.524 97.1366 56.356 97.9299 56.356C98.7232 56.356 99.4326 56.524 100.058 56.86C100.683 57.1867 101.173 57.644 101.528 58.232C101.883 58.82 102.06 59.4873 102.06 60.234C102.06 60.9807 101.883 61.648 101.528 62.236C101.173 62.824 100.683 63.286 100.058 63.622C99.4326 63.9487 98.7232 64.112 97.9299 64.112ZM97.9299 62.32C98.4899 62.32 98.9472 62.1333 99.3019 61.76C99.6659 61.3773 99.8479 60.8687 99.8479 60.234C99.8479 59.5993 99.6659 59.0953 99.3019 58.722C98.9472 58.3393 98.4899 58.148 97.9299 58.148C97.3699 58.148 96.9079 58.3393 96.5439 58.722C96.1799 59.0953 95.9979 59.5993 95.9979 60.234C95.9979 60.8687 96.1799 61.3773 96.5439 61.76C96.9079 62.1333 97.3699 62.32 97.9299 62.32ZM105.606 57.462C105.867 57.098 106.217 56.8227 106.656 56.636C107.104 56.4493 107.617 56.356 108.196 56.356V58.372C107.953 58.3533 107.79 58.344 107.706 58.344C107.08 58.344 106.59 58.5213 106.236 58.876C105.881 59.2213 105.704 59.744 105.704 60.444V64H103.52V56.468H105.606V57.462ZM119.14 56.356C120.083 56.356 120.83 56.636 121.38 57.196C121.94 57.7467 122.22 58.5773 122.22 59.688V64H120.036V60.024C120.036 59.4267 119.91 58.9833 119.658 58.694C119.416 58.3953 119.066 58.246 118.608 58.246C118.095 58.246 117.689 58.414 117.39 58.75C117.092 59.0767 116.942 59.5667 116.942 60.22V64H114.758V60.024C114.758 58.8387 114.282 58.246 113.33 58.246C112.826 58.246 112.425 58.414 112.126 58.75C111.828 59.0767 111.678 59.5667 111.678 60.22V64H109.494V56.468H111.58V57.336C111.86 57.0187 112.201 56.776 112.602 56.608C113.013 56.44 113.461 56.356 113.946 56.356C114.478 56.356 114.959 56.4633 115.388 56.678C115.818 56.8833 116.163 57.1867 116.424 57.588C116.732 57.196 117.12 56.8927 117.586 56.678C118.062 56.4633 118.58 56.356 119.14 56.356Z" fill="white" fill-opacity="0.9"/>
<path d="M36 77H33C30.2386 77 28 79.2386 28 82V85C28 87.7614 30.2386 90 33 90H36C38.7614 90 41 87.7614 41 85V82C41 79.2386 38.7614 77 36 77Z" fill="white" fill-opacity="0.05"/>
<path d="M105 77H54C51.2386 77 49 79.2386 49 82V85C49 87.7614 51.2386 90 54 90H105C107.761 90 110 87.7614 110 85V82C110 79.2386 107.761 77 105 77Z" fill="white" fill-opacity="0.05"/>
<path d="M162 77H123C120.239 77 118 79.2386 118 82V85C118 87.7614 120.239 90 123 90H162C164.761 90 167 87.7614 167 85V82C167 79.2386 164.761 77 162 77Z" fill="white" fill-opacity="0.05"/>
<path d="M91 100H33C30.2386 100 28 102.239 28 105V108C28 110.761 30.2386 113 33 113H91C93.7614 113 96 110.761 96 108V105C96 102.239 93.7614 100 91 100Z" fill="white" fill-opacity="0.05"/>
<path d="M155 100H109C106.239 100 104 102.239 104 105V108C104 110.761 106.239 113 109 113H155C157.761 113 160 110.761 160 108V105C160 102.239 157.761 100 155 100Z" fill="white" fill-opacity="0.05"/>
<path d="M239 100H173C170.239 100 168 102.239 168 105V108C168 110.761 170.239 113 173 113H239C241.761 113 244 110.761 244 108V105C244 102.239 241.761 100 239 100Z" fill="white" fill-opacity="0.05"/>
<path d="M287 100H257C254.239 100 252 102.239 252 105V108C252 110.761 254.239 113 257 113H287C289.761 113 292 110.761 292 108V105C292 102.239 289.761 100 287 100Z" fill="white" fill-opacity="0.05"/>
<path d="M345 100H305C302.239 100 300 102.239 300 105V108C300 110.761 302.239 113 305 113H345C347.761 113 350 110.761 350 108V105C350 102.239 347.761 100 345 100Z" fill="white" fill-opacity="0.05"/>
<path d="M71 123H33C30.2386 123 28 125.239 28 128V131C28 133.761 30.2386 136 33 136H71C73.7614 136 76 133.761 76 131V128C76 125.239 73.7614 123 71 123Z" fill="white" fill-opacity="0.05"/>
<path d="M151 123H89C86.2386 123 84 125.239 84 128V131C84 133.761 86.2386 136 89 136H151C153.761 136 156 133.761 156 131V128C156 125.239 153.761 123 151 123Z" fill="white" fill-opacity="0.05"/>
<path d="M230 123H169C166.239 123 164 125.239 164 128V131C164 133.761 166.239 136 169 136H230C232.761 136 235 133.761 235 131V128C235 125.239 232.761 123 230 123Z" fill="white" fill-opacity="0.05"/>
<path d="M38 146H33C30.2386 146 28 148.239 28 151V154C28 156.761 30.2386 159 33 159H38C40.7614 159 43 156.761 43 154V151C43 148.239 40.7614 146 38 146Z" fill="white" fill-opacity="0.05"/>
<path d="M125 146H56C53.2386 146 51 148.239 51 151V154C51 156.761 53.2386 159 56 159H125C127.761 159 130 156.761 130 154V151C130 148.239 127.761 146 125 146Z" fill="white" fill-opacity="0.05"/>
<path d="M157 146H143C140.239 146 138 148.239 138 151V154C138 156.761 140.239 159 143 159H157C159.761 159 162 156.761 162 154V151C162 148.239 159.761 146 157 146Z" fill="white" fill-opacity="0.05"/>
<path d="M229 146H175C172.239 146 170 148.239 170 151V154C170 156.761 172.239 159 175 159H229C231.761 159 234 156.761 234 154V151C234 148.239 231.761 146 229 146Z" fill="white" fill-opacity="0.05"/>
<path d="M280 146H247C244.239 146 242 148.239 242 151V154C242 156.761 244.239 159 247 159H280C282.761 159 285 156.761 285 154V151C285 148.239 282.761 146 280 146Z" fill="white" fill-opacity="0.05"/>
<path d="M368 146H298C295.239 146 293 148.239 293 151V154C293 156.761 295.239 159 298 159H368C370.761 159 373 156.761 373 154V151C373 148.239 370.761 146 368 146Z" fill="white" fill-opacity="0.05"/>
<path d="M65 169H33C30.2386 169 28 171.239 28 174V177C28 179.761 30.2386 182 33 182H65C67.7614 182 70 179.761 70 177V174C70 171.239 67.7614 169 65 169Z" fill="white" fill-opacity="0.05"/>
<path d="M79 192H33C30.2386 192 28 194.239 28 197V200C28 202.761 30.2386 205 33 205H79C81.7614 205 84 202.761 84 200V197C84 194.239 81.7614 192 79 192Z" fill="white" fill-opacity="0.05"/>
<path d="M163 192H97C94.2386 192 92 194.239 92 197V200C92 202.761 94.2386 205 97 205H163C165.761 205 168 202.761 168 200V197C168 194.239 165.761 192 163 192Z" fill="white" fill-opacity="0.05"/>
<path d="M194 192H181C178.239 192 176 194.239 176 197V200C176 202.761 178.239 205 181 205H194C196.761 205 199 202.761 199 200V197C199 194.239 196.761 192 194 192Z" fill="white" fill-opacity="0.05"/>
<path d="M93 215H33C30.2386 215 28 217.239 28 220V223C28 225.761 30.2386 228 33 228H93C95.7614 228 98 225.761 98 223V220C98 217.239 95.7614 215 93 215Z" fill="white" fill-opacity="0.05"/>
<path d="M139 215H111C108.239 215 106 217.239 106 220V223C106 225.761 108.239 228 111 228H139C141.761 228 144 225.761 144 223V220C144 217.239 141.761 215 139 215Z" fill="white" fill-opacity="0.05"/>
<path d="M211 215H157C154.239 215 152 217.239 152 220V223C152 225.761 154.239 228 157 228H211C213.761 228 216 225.761 216 223V220C216 217.239 213.761 215 211 215Z" fill="white" fill-opacity="0.05"/>
<path d="M251 215H229C226.239 215 224 217.239 224 220V223C224 225.761 226.239 228 229 228H251C253.761 228 256 225.761 256 223V220C256 217.239 253.761 215 251 215Z" fill="white" fill-opacity="0.05"/>
<path d="M295 215H269C266.239 215 264 217.239 264 220V223C264 225.761 266.239 228 269 228H295C297.761 228 300 225.761 300 223V220C300 217.239 297.761 215 295 215Z" fill="white" fill-opacity="0.05"/>
<path d="M370 215H313C310.239 215 308 217.239 308 220V223C308 225.761 310.239 228 313 228H370C372.761 228 375 225.761 375 223V220C375 217.239 372.761 215 370 215Z" fill="white" fill-opacity="0.05"/>
</g>
<circle cx="27.6457" cy="28.4597" r="4.06563" fill="#FC165B"/>
<circle cx="40.6555" cy="28.4597" r="4.06563" fill="#FCA016"/>
<circle cx="53.6672" cy="28.4597" r="4.06563" fill="#16FCA9"/>
<g filter="url(#filter1_b_1468_975)">
<rect x="299" y="232" width="145.551" height="145.551" rx="3" fill="#181818"/>
<rect x="299.5" y="232.5" width="144.551" height="144.551" rx="2.5" stroke="white" stroke-opacity="0.1"/>
</g>
<path d="M326.15 250.2V260H324.288L319.402 254.05V260H317.162V250.2H319.038L323.91 256.15V250.2H326.15ZM331.899 260.112C331.105 260.112 330.391 259.949 329.757 259.622C329.131 259.286 328.641 258.824 328.287 258.236C327.932 257.648 327.755 256.981 327.755 256.234C327.755 255.487 327.932 254.82 328.287 254.232C328.641 253.644 329.131 253.187 329.757 252.86C330.391 252.524 331.105 252.356 331.899 252.356C332.692 252.356 333.401 252.524 334.027 252.86C334.652 253.187 335.142 253.644 335.497 254.232C335.851 254.82 336.029 255.487 336.029 256.234C336.029 256.981 335.851 257.648 335.497 258.236C335.142 258.824 334.652 259.286 334.027 259.622C333.401 259.949 332.692 260.112 331.899 260.112ZM331.899 258.32C332.459 258.32 332.916 258.133 333.271 257.76C333.635 257.377 333.817 256.869 333.817 256.234C333.817 255.599 333.635 255.095 333.271 254.722C332.916 254.339 332.459 254.148 331.899 254.148C331.339 254.148 330.877 254.339 330.513 254.722C330.149 255.095 329.967 255.599 329.967 256.234C329.967 256.869 330.149 257.377 330.513 257.76C330.877 258.133 331.339 258.32 331.899 258.32ZM342.346 259.636C342.132 259.795 341.866 259.916 341.548 260C341.24 260.075 340.914 260.112 340.568 260.112C339.672 260.112 338.977 259.883 338.482 259.426C337.997 258.969 337.754 258.297 337.754 257.41V254.316H336.592V252.636H337.754V250.802H339.938V252.636H341.814V254.316H339.938V257.382C339.938 257.699 340.018 257.947 340.176 258.124C340.344 258.292 340.578 258.376 340.876 258.376C341.222 258.376 341.516 258.283 341.758 258.096L342.346 259.636ZM343.572 252.468H345.756V260H343.572V252.468ZM344.664 251.418C344.263 251.418 343.936 251.301 343.684 251.068C343.432 250.835 343.306 250.545 343.306 250.2C343.306 249.855 343.432 249.565 343.684 249.332C343.936 249.099 344.263 248.982 344.664 248.982C345.066 248.982 345.392 249.094 345.644 249.318C345.896 249.542 346.022 249.822 346.022 250.158C346.022 250.522 345.896 250.825 345.644 251.068C345.392 251.301 345.066 251.418 344.664 251.418ZM350.177 252.636H352.109V254.316H350.233V260H348.049V254.316H346.887V252.636H348.049V252.3C348.049 251.441 348.301 250.76 348.805 250.256C349.319 249.752 350.037 249.5 350.961 249.5C351.288 249.5 351.596 249.537 351.885 249.612C352.184 249.677 352.431 249.775 352.627 249.906L352.053 251.488C351.801 251.311 351.507 251.222 351.171 251.222C350.509 251.222 350.177 251.586 350.177 252.314V252.636ZM354.321 252.468H356.505V260H354.321V252.468ZM355.413 251.418C355.012 251.418 354.685 251.301 354.433 251.068C354.181 250.835 354.055 250.545 354.055 250.2C354.055 249.855 354.181 249.565 354.433 249.332C354.685 249.099 355.012 248.982 355.413 248.982C355.815 248.982 356.141 249.094 356.393 249.318C356.645 249.542 356.771 249.822 356.771 250.158C356.771 250.522 356.645 250.825 356.393 251.068C356.141 251.301 355.815 251.418 355.413 251.418ZM362.169 260.112C361.367 260.112 360.643 259.949 359.999 259.622C359.365 259.286 358.865 258.824 358.501 258.236C358.147 257.648 357.969 256.981 357.969 256.234C357.969 255.487 358.147 254.82 358.501 254.232C358.865 253.644 359.365 253.187 359.999 252.86C360.643 252.524 361.367 252.356 362.169 252.356C362.963 252.356 363.653 252.524 364.241 252.86C364.839 253.187 365.273 253.658 365.543 254.274L363.849 255.184C363.457 254.493 362.893 254.148 362.155 254.148C361.586 254.148 361.115 254.335 360.741 254.708C360.368 255.081 360.181 255.59 360.181 256.234C360.181 256.878 360.368 257.387 360.741 257.76C361.115 258.133 361.586 258.32 362.155 258.32C362.902 258.32 363.467 257.975 363.849 257.284L365.543 258.208C365.273 258.805 364.839 259.272 364.241 259.608C363.653 259.944 362.963 260.112 362.169 260.112ZM369.839 252.356C371.006 252.356 371.902 252.636 372.527 253.196C373.152 253.747 373.465 254.582 373.465 255.702V260H371.421V259.062C371.01 259.762 370.245 260.112 369.125 260.112C368.546 260.112 368.042 260.014 367.613 259.818C367.193 259.622 366.871 259.351 366.647 259.006C366.423 258.661 366.311 258.269 366.311 257.83C366.311 257.13 366.572 256.579 367.095 256.178C367.627 255.777 368.444 255.576 369.545 255.576H371.281C371.281 255.1 371.136 254.736 370.847 254.484C370.558 254.223 370.124 254.092 369.545 254.092C369.144 254.092 368.747 254.157 368.355 254.288C367.972 254.409 367.646 254.577 367.375 254.792L366.591 253.266C367.002 252.977 367.492 252.753 368.061 252.594C368.64 252.435 369.232 252.356 369.839 252.356ZM369.671 258.642C370.044 258.642 370.376 258.558 370.665 258.39C370.954 258.213 371.16 257.956 371.281 257.62V256.85H369.783C368.887 256.85 368.439 257.144 368.439 257.732C368.439 258.012 368.546 258.236 368.761 258.404C368.985 258.563 369.288 258.642 369.671 258.642ZM380.3 259.636C380.085 259.795 379.819 259.916 379.502 260C379.194 260.075 378.867 260.112 378.522 260.112C377.626 260.112 376.93 259.883 376.436 259.426C375.95 258.969 375.708 258.297 375.708 257.41V254.316H374.546V252.636H375.708V250.802H377.892V252.636H379.768V254.316H377.892V257.382C377.892 257.699 377.971 257.947 378.13 258.124C378.298 258.292 378.531 258.376 378.83 258.376C379.175 258.376 379.469 258.283 379.712 258.096L380.3 259.636ZM381.526 252.468H383.71V260H381.526V252.468ZM382.618 251.418C382.216 251.418 381.89 251.301 381.638 251.068C381.386 250.835 381.26 250.545 381.26 250.2C381.26 249.855 381.386 249.565 381.638 249.332C381.89 249.099 382.216 248.982 382.618 248.982C383.019 248.982 383.346 249.094 383.598 249.318C383.85 249.542 383.976 249.822 383.976 250.158C383.976 250.522 383.85 250.825 383.598 251.068C383.346 251.301 383.019 251.418 382.618 251.418ZM389.321 260.112C388.527 260.112 387.813 259.949 387.179 259.622C386.553 259.286 386.063 258.824 385.709 258.236C385.354 257.648 385.177 256.981 385.177 256.234C385.177 255.487 385.354 254.82 385.709 254.232C386.063 253.644 386.553 253.187 387.179 252.86C387.813 252.524 388.527 252.356 389.321 252.356C390.114 252.356 390.823 252.524 391.449 252.86C392.074 253.187 392.564 253.644 392.919 254.232C393.273 254.82 393.451 255.487 393.451 256.234C393.451 256.981 393.273 257.648 392.919 258.236C392.564 258.824 392.074 259.286 391.449 259.622C390.823 259.949 390.114 260.112 389.321 260.112ZM389.321 258.32C389.881 258.32 390.338 258.133 390.693 257.76C391.057 257.377 391.239 256.869 391.239 256.234C391.239 255.599 391.057 255.095 390.693 254.722C390.338 254.339 389.881 254.148 389.321 254.148C388.761 254.148 388.299 254.339 387.935 254.722C387.571 255.095 387.389 255.599 387.389 256.234C387.389 256.869 387.571 257.377 387.935 257.76C388.299 258.133 388.761 258.32 389.321 258.32ZM399.488 252.356C400.422 252.356 401.173 252.636 401.742 253.196C402.321 253.756 402.61 254.587 402.61 255.688V260H400.426V256.024C400.426 255.427 400.296 254.983 400.034 254.694C399.773 254.395 399.395 254.246 398.9 254.246C398.35 254.246 397.911 254.419 397.584 254.764C397.258 255.1 397.094 255.604 397.094 256.276V260H394.91V252.468H396.996V253.35C397.286 253.033 397.645 252.79 398.074 252.622C398.504 252.445 398.975 252.356 399.488 252.356ZM407.124 260.112C406.499 260.112 405.887 260.037 405.29 259.888C404.693 259.729 404.217 259.533 403.862 259.3L404.59 257.732C404.926 257.947 405.332 258.124 405.808 258.264C406.284 258.395 406.751 258.46 407.208 258.46C408.132 258.46 408.594 258.231 408.594 257.774C408.594 257.559 408.468 257.405 408.216 257.312C407.964 257.219 407.577 257.139 407.054 257.074C406.438 256.981 405.929 256.873 405.528 256.752C405.127 256.631 404.777 256.416 404.478 256.108C404.189 255.8 404.044 255.361 404.044 254.792C404.044 254.316 404.179 253.896 404.45 253.532C404.73 253.159 405.131 252.869 405.654 252.664C406.186 252.459 406.811 252.356 407.53 252.356C408.062 252.356 408.589 252.417 409.112 252.538C409.644 252.65 410.083 252.809 410.428 253.014L409.7 254.568C409.037 254.195 408.314 254.008 407.53 254.008C407.063 254.008 406.713 254.073 406.48 254.204C406.247 254.335 406.13 254.503 406.13 254.708C406.13 254.941 406.256 255.105 406.508 255.198C406.76 255.291 407.161 255.38 407.712 255.464C408.328 255.567 408.832 255.679 409.224 255.8C409.616 255.912 409.957 256.122 410.246 256.43C410.535 256.738 410.68 257.167 410.68 257.718C410.68 258.185 410.54 258.6 410.26 258.964C409.98 259.328 409.569 259.613 409.028 259.818C408.496 260.014 407.861 260.112 407.124 260.112Z" fill="white" fill-opacity="0.9"/>
<rect x="316.047" y="271.994" width="17.5328" height="9.83456" rx="3" fill="white" fill-opacity="0.05"/>
<rect x="316.047" y="291.663" width="17.5328" height="9.83456" rx="3" fill="white" fill-opacity="0.05"/>
<rect x="316.047" y="311.332" width="17.5328" height="9.83456" rx="3" fill="white" fill-opacity="0.05"/>
<rect x="316.047" y="331.001" width="17.5328" height="9.83456" rx="3" fill="white" fill-opacity="0.05"/>
<rect x="316.047" y="350.67" width="17.5328" height="9.83456" rx="3" fill="white" fill-opacity="0.05"/>
<rect x="346.104" y="271.994" width="39.4487" height="9.83456" rx="3" fill="white" fill-opacity="0.05"/>
<rect x="346.205" y="291.663" width="44.5833" height="9.83456" rx="3" fill="white" fill-opacity="0.05"/>
<rect x="346.205" y="311.332" width="28.848" height="9.83456" rx="3" fill="white" fill-opacity="0.05"/>
<rect x="346.205" y="331.001" width="44.5833" height="9.83456" rx="3" fill="white" fill-opacity="0.05"/>
<rect x="346.104" y="350.67" width="39.4487" height="9.83456" rx="3" fill="white" fill-opacity="0.05"/>
<rect x="398.074" y="271.994" width="29.43" height="9.83456" rx="3" fill="white" fill-opacity="0.05"/>
<rect x="403.246" y="291.663" width="24.2586" height="9.83456" rx="3" fill="white" fill-opacity="0.05"/>
<rect x="387.512" y="311.332" width="39.9939" height="9.83456" rx="3" fill="white" fill-opacity="0.05"/>
<rect x="403.246" y="331.001" width="24.2586" height="9.83456" rx="3" fill="white" fill-opacity="0.05"/>
<rect x="398.074" y="350.67" width="29.43" height="9.83456" rx="3" fill="white" fill-opacity="0.05"/>
<path d="M299 300.276C296.5 300.276 294.5 302.276 294.5 304.776C294.5 307.276 296.5 309.276 299 309.276C301.5 309.276 303.5 307.276 303.5 304.776C303.5 302.276 301.5 300.276 299 300.276Z" fill="#6016FC"/>
<path d="M296 304.776C296 303.104 297.328 301.776 299 301.776V298.776C295.671 298.776 293 301.447 293 304.776H296ZM299 301.776C300.671 301.776 302 303.104 302 304.776H305C305 301.447 302.328 298.776 299 298.776V301.776ZM302 304.776C302 306.447 300.671 307.776 299 307.776V310.776C302.328 310.776 305 308.104 305 304.776H302ZM299 307.776C297.328 307.776 296 306.447 296 304.776H293C293 308.104 295.671 310.776 299 310.776V307.776ZM294.5 303.276H225.314V306.276H294.5V303.276ZM206.814 284.776V263.453H203.814V284.776H206.814ZM225.314 303.276C215.097 303.276 206.814 294.993 206.814 284.776H203.814C203.814 296.65 213.44 306.276 225.314 306.276V303.276Z" fill="white" fill-opacity="0.05"/>
<defs>
<filter id="filter0_b_1468_975" x="-74" y="-74" width="558.629" height="411.453" filterUnits="userSpaceOnUse" color-interpolation-filters="sRGB">
<feFlood flood-opacity="0" result="BackgroundImageFix"/>
<feGaussianBlur in="BackgroundImage" stdDeviation="37"/>
<feComposite in2="SourceAlpha" operator="in" result="effect1_backgroundBlur_1468_975"/>
<feBlend mode="normal" in="SourceGraphic" in2="effect1_backgroundBlur_1468_975" result="shape"/>
</filter>
<filter id="filter1_b_1468_975" x="225" y="158" width="293.551" height="293.552" filterUnits="userSpaceOnUse" color-interpolation-filters="sRGB">
<feFlood flood-opacity="0" result="BackgroundImageFix"/>
<feGaussianBlur in="BackgroundImage" stdDeviation="37"/>
<feComposite in2="SourceAlpha" operator="in" result="effect1_backgroundBlur_1468_975"/>
<feBlend mode="normal" in="SourceGraphic" in2="effect1_backgroundBlur_1468_975" result="shape"/>
</filter>
<clipPath id="clip0_1468_975">
<rect width="330" height="184" fill="white" transform="translate(28 54)"/>
</clipPath>
</defs>
</svg>
