<svg width="950" height="126" viewBox="0 0 950 126" fill="none" xmlns="http://www.w3.org/2000/svg">
<path d="M26.5663 83.304C25.7983 83.304 25.1209 83.1813 24.5343 82.936C23.9476 82.6907 23.4516 82.36 23.0463 81.944C22.6409 81.5173 22.3316 81.0373 22.1183 80.504C21.9156 79.9707 21.8143 79.416 21.8143 78.84V78.504C21.8143 77.9067 21.9209 77.3413 22.1343 76.808C22.3583 76.264 22.6729 75.784 23.0783 75.368C23.4943 74.9413 23.9956 74.6107 24.5823 74.376C25.1689 74.1307 25.8303 74.008 26.5663 74.008C27.3023 74.008 27.9636 74.1307 28.5503 74.376C29.1369 74.6107 29.6329 74.9413 30.0383 75.368C30.4543 75.784 30.7689 76.264 30.9823 76.808C31.1956 77.3413 31.3023 77.9067 31.3023 78.504V78.84C31.3023 79.416 31.1956 79.9707 30.9823 80.504C30.7796 81.0373 30.4756 81.5173 30.0703 81.944C29.6649 82.36 29.1689 82.6907 28.5823 82.936C27.9956 83.1813 27.3236 83.304 26.5663 83.304ZM26.5663 81.4C27.1103 81.4 27.5689 81.2827 27.9423 81.048C28.3156 80.8027 28.5983 80.4773 28.7903 80.072C28.9823 79.656 29.0783 79.1867 29.0783 78.664C29.0783 78.1307 28.9769 77.6613 28.7743 77.256C28.5823 76.84 28.2943 76.5147 27.9103 76.28C27.5369 76.0347 27.0889 75.912 26.5663 75.912C26.0436 75.912 25.5903 76.0347 25.2063 76.28C24.8329 76.5147 24.5449 76.84 24.3423 77.256C24.1396 77.6613 24.0383 78.1307 24.0383 78.664C24.0383 79.1867 24.1343 79.656 24.3263 80.072C24.5289 80.4773 24.8169 80.8027 25.1903 81.048C25.5636 81.2827 26.0223 81.4 26.5663 81.4ZM35.8896 83.272C34.887 83.272 34.1083 82.9413 33.5536 82.28C33.0096 81.6187 32.7376 80.6373 32.7376 79.336V74.296H34.9616V79.528C34.9616 80.0613 35.111 80.488 35.4096 80.808C35.7083 81.1173 36.1136 81.272 36.6256 81.272C37.1376 81.272 37.5536 81.1067 37.8736 80.776C38.2043 80.4453 38.3696 79.9973 38.3696 79.432V74.296H40.5936V83H38.8336V79.304H39.0096C39.0096 80.1787 38.8976 80.9093 38.6736 81.496C38.4496 82.0827 38.1136 82.5253 37.6656 82.824C37.2176 83.1227 36.6576 83.272 35.9856 83.272H35.8896ZM46.6044 83.112C45.8044 83.112 45.143 83.0107 44.6204 82.808C44.1084 82.5947 43.7244 82.2427 43.4684 81.752C43.2124 81.2507 43.0844 80.5787 43.0844 79.736L43.1004 71.864H45.1804L45.1644 79.88C45.1644 80.3067 45.2764 80.6373 45.5004 80.872C45.735 81.096 46.0657 81.208 46.4924 81.208H47.8524V83.112H46.6044ZM41.7084 75.944V74.312H47.8524V75.944H41.7084ZM56.7081 83.304C55.9401 83.304 55.2628 83.1813 54.6761 82.936C54.0895 82.6907 53.5935 82.36 53.1881 81.944C52.7828 81.5173 52.4735 81.0373 52.2601 80.504C52.0575 79.9707 51.9561 79.416 51.9561 78.84V78.504C51.9561 77.9067 52.0628 77.3413 52.2761 76.808C52.5001 76.264 52.8148 75.784 53.2201 75.368C53.6361 74.9413 54.1375 74.6107 54.7241 74.376C55.3108 74.1307 55.9721 74.008 56.7081 74.008C57.4441 74.008 58.1055 74.1307 58.6921 74.376C59.2788 74.6107 59.7748 74.9413 60.1801 75.368C60.5961 75.784 60.9108 76.264 61.1241 76.808C61.3375 77.3413 61.4441 77.9067 61.4441 78.504V78.84C61.4441 79.416 61.3375 79.9707 61.1241 80.504C60.9215 81.0373 60.6175 81.5173 60.2121 81.944C59.8068 82.36 59.3108 82.6907 58.7241 82.936C58.1375 83.1813 57.4655 83.304 56.7081 83.304ZM56.7081 81.4C57.2521 81.4 57.7108 81.2827 58.0841 81.048C58.4575 80.8027 58.7401 80.4773 58.9321 80.072C59.1241 79.656 59.2201 79.1867 59.2201 78.664C59.2201 78.1307 59.1188 77.6613 58.9161 77.256C58.7241 76.84 58.4361 76.5147 58.0521 76.28C57.6788 76.0347 57.2308 75.912 56.7081 75.912C56.1855 75.912 55.7321 76.0347 55.3481 76.28C54.9748 76.5147 54.6868 76.84 54.4841 77.256C54.2815 77.6613 54.1801 78.1307 54.1801 78.664C54.1801 79.1867 54.2761 79.656 54.4681 80.072C54.6708 80.4773 54.9588 80.8027 55.3321 81.048C55.7055 81.2827 56.1641 81.4 56.7081 81.4ZM63.2795 83V74.104C63.2795 73.112 63.5515 72.3813 64.0955 71.912C64.6502 71.432 65.4662 71.192 66.5435 71.192H67.6315V72.904H66.3835C66.0528 72.904 65.7968 72.9947 65.6155 73.176C65.4448 73.3467 65.3595 73.592 65.3595 73.912V83H63.2795ZM62.1915 76.088V74.456H67.7755V76.088H62.1915ZM75.7544 83.112C74.9544 83.112 74.293 83.0107 73.7704 82.808C73.2584 82.5947 72.8744 82.2427 72.6184 81.752C72.3624 81.2507 72.2344 80.5787 72.2344 79.736L72.2504 71.864H74.3304L74.3144 79.88C74.3144 80.3067 74.4264 80.6373 74.6504 80.872C74.885 81.096 75.2157 81.208 75.6424 81.208H77.0024V83.112H75.7544ZM70.8584 75.944V74.312H77.0024V75.944H70.8584ZM78.549 83V71.32H80.773V78.136H80.389C80.389 77.2613 80.501 76.52 80.725 75.912C80.949 75.304 81.2797 74.84 81.717 74.52C82.165 74.2 82.7303 74.04 83.413 74.04H83.509C84.501 74.04 85.253 74.3813 85.765 75.064C86.277 75.7467 86.533 76.7387 86.533 78.04V83H84.309V77.832C84.309 77.2773 84.149 76.84 83.829 76.52C83.5197 76.2 83.109 76.04 82.597 76.04C82.053 76.04 81.6103 76.2213 81.269 76.584C80.9383 76.936 80.773 77.4 80.773 77.976V83H78.549ZM92.492 83.304C91.7453 83.304 91.0893 83.176 90.524 82.92C89.9693 82.664 89.5053 82.3227 89.132 81.896C88.7693 81.4587 88.492 80.9733 88.3 80.44C88.1187 79.9067 88.028 79.3627 88.028 78.808V78.504C88.028 77.928 88.1187 77.3733 88.3 76.84C88.492 76.296 88.7693 75.816 89.132 75.4C89.5053 74.9733 89.964 74.6373 90.508 74.392C91.052 74.136 91.6813 74.008 92.396 74.008C93.3347 74.008 94.1187 74.216 94.748 74.632C95.388 75.0373 95.868 75.576 96.188 76.248C96.508 76.9093 96.668 77.624 96.668 78.392V79.192H88.972V77.832H95.276L94.588 78.504C94.588 77.9493 94.508 77.4747 94.348 77.08C94.188 76.6853 93.9427 76.3813 93.612 76.168C93.292 75.9547 92.8867 75.848 92.396 75.848C91.9053 75.848 91.4893 75.96 91.148 76.184C90.8067 76.408 90.5453 76.7333 90.364 77.16C90.1933 77.576 90.108 78.0773 90.108 78.664C90.108 79.208 90.1933 79.6933 90.364 80.12C90.5347 80.536 90.796 80.8667 91.148 81.112C91.5 81.3467 91.948 81.464 92.492 81.464C93.036 81.464 93.4787 81.3573 93.82 81.144C94.1613 80.92 94.38 80.648 94.476 80.328H96.524C96.396 80.9253 96.1507 81.448 95.788 81.896C95.4253 82.344 94.9613 82.6907 94.396 82.936C93.8413 83.1813 93.2067 83.304 92.492 83.304ZM104.731 86.424C104.315 86.424 103.888 86.408 103.451 86.376C103.024 86.344 102.624 86.3013 102.251 86.248V84.392C102.635 84.4347 103.046 84.472 103.483 84.504C103.92 84.5467 104.331 84.568 104.715 84.568C105.43 84.568 106.006 84.4827 106.443 84.312C106.891 84.1413 107.216 83.8693 107.419 83.496C107.632 83.1333 107.739 82.6693 107.739 82.104V80.392L108.219 79.304C108.187 80.104 108.022 80.7867 107.723 81.352C107.424 81.9067 107.019 82.3333 106.507 82.632C105.995 82.92 105.403 83.064 104.731 83.064C104.134 83.064 103.59 82.952 103.099 82.728C102.619 82.504 102.203 82.1947 101.851 81.8C101.51 81.4053 101.243 80.9413 101.051 80.408C100.859 79.8747 100.763 79.304 100.763 78.696V78.36C100.763 77.752 100.859 77.1867 101.051 76.664C101.254 76.1307 101.536 75.6667 101.899 75.272C102.262 74.8773 102.694 74.5733 103.195 74.36C103.696 74.1467 104.251 74.04 104.859 74.04C105.574 74.04 106.192 74.1947 106.715 74.504C107.248 74.8133 107.664 75.2613 107.963 75.848C108.262 76.4347 108.427 77.1547 108.459 78.008L108.075 78.072V74.312H109.835V81.976C109.835 83.032 109.654 83.8853 109.291 84.536C108.928 85.1867 108.368 85.6613 107.611 85.96C106.864 86.2693 105.904 86.424 104.731 86.424ZM105.371 81.16C105.798 81.16 106.187 81.064 106.539 80.872C106.891 80.68 107.174 80.4027 107.387 80.04C107.6 79.6773 107.707 79.24 107.707 78.728V78.168C107.707 77.6773 107.595 77.2613 107.371 76.92C107.158 76.5787 106.875 76.3227 106.523 76.152C106.171 75.9707 105.787 75.88 105.371 75.88C104.902 75.88 104.486 75.992 104.123 76.216C103.771 76.4293 103.494 76.7333 103.291 77.128C103.088 77.5227 102.987 77.992 102.987 78.536C102.987 79.0693 103.088 79.5333 103.291 79.928C103.494 80.3227 103.771 80.6267 104.123 80.84C104.486 81.0533 104.902 81.16 105.371 81.16ZM112.053 83V71.32H114.277V83H112.053ZM110.965 72.984V71.32H114.277V72.984H110.965ZM120.672 83.304C119.904 83.304 119.227 83.1813 118.64 82.936C118.053 82.6907 117.557 82.36 117.152 81.944C116.747 81.5173 116.437 81.0373 116.224 80.504C116.021 79.9707 115.92 79.416 115.92 78.84V78.504C115.92 77.9067 116.027 77.3413 116.24 76.808C116.464 76.264 116.779 75.784 117.184 75.368C117.6 74.9413 118.101 74.6107 118.688 74.376C119.275 74.1307 119.936 74.008 120.672 74.008C121.408 74.008 122.069 74.1307 122.656 74.376C123.243 74.6107 123.739 74.9413 124.144 75.368C124.56 75.784 124.875 76.264 125.088 76.808C125.301 77.3413 125.408 77.9067 125.408 78.504V78.84C125.408 79.416 125.301 79.9707 125.088 80.504C124.885 81.0373 124.581 81.5173 124.176 81.944C123.771 82.36 123.275 82.6907 122.688 82.936C122.101 83.1813 121.429 83.304 120.672 83.304ZM120.672 81.4C121.216 81.4 121.675 81.2827 122.048 81.048C122.421 80.8027 122.704 80.4773 122.896 80.072C123.088 79.656 123.184 79.1867 123.184 78.664C123.184 78.1307 123.083 77.6613 122.88 77.256C122.688 76.84 122.4 76.5147 122.016 76.28C121.643 76.0347 121.195 75.912 120.672 75.912C120.149 75.912 119.696 76.0347 119.312 76.28C118.939 76.5147 118.651 76.84 118.448 77.256C118.245 77.6613 118.144 78.1307 118.144 78.664C118.144 79.1867 118.24 79.656 118.432 80.072C118.635 80.4773 118.923 80.8027 119.296 81.048C119.669 81.2827 120.128 81.4 120.672 81.4ZM132.139 83.288C131.425 83.288 130.795 83.1387 130.251 82.84C129.707 82.5307 129.281 82.0827 128.971 81.496C128.662 80.9093 128.491 80.2 128.459 79.368H128.795V83H127.035V71.32H129.259V77.16L128.667 78.072C128.71 77.176 128.886 76.4293 129.195 75.832C129.515 75.2347 129.942 74.7867 130.475 74.488C131.009 74.1893 131.611 74.04 132.283 74.04C132.881 74.04 133.425 74.152 133.915 74.376C134.406 74.6 134.827 74.9147 135.179 75.32C135.531 75.7147 135.798 76.1787 135.979 76.712C136.171 77.2453 136.267 77.8267 136.267 78.456V78.792C136.267 79.4213 136.171 80.008 135.979 80.552C135.787 81.096 135.51 81.576 135.147 81.992C134.785 82.3973 134.347 82.7173 133.835 82.952C133.334 83.176 132.769 83.288 132.139 83.288ZM131.643 81.416C132.123 81.416 132.539 81.2987 132.891 81.064C133.254 80.8187 133.537 80.488 133.739 80.072C133.942 79.656 134.043 79.176 134.043 78.632C134.043 78.0773 133.942 77.5973 133.739 77.192C133.537 76.7867 133.254 76.472 132.891 76.248C132.539 76.024 132.123 75.912 131.643 75.912C131.206 75.912 130.801 76.008 130.427 76.2C130.065 76.392 129.766 76.6747 129.531 77.048C129.307 77.4213 129.195 77.8693 129.195 78.392V79.032C129.195 79.5333 129.313 79.96 129.547 80.312C129.782 80.664 130.086 80.936 130.459 81.128C130.833 81.32 131.227 81.416 131.643 81.416ZM143.167 83V80.424H142.799V77.56C142.799 77.0587 142.676 76.6853 142.431 76.44C142.185 76.1947 141.807 76.072 141.295 76.072C141.028 76.072 140.708 76.0773 140.335 76.088C139.961 76.0987 139.583 76.1147 139.199 76.136C138.825 76.1467 138.489 76.1627 138.191 76.184V74.296C138.436 74.2747 138.713 74.2533 139.023 74.232C139.332 74.2107 139.647 74.2 139.967 74.2C140.297 74.1893 140.607 74.184 140.895 74.184C141.791 74.184 142.532 74.3013 143.119 74.536C143.716 74.7707 144.164 75.1387 144.463 75.64C144.772 76.1413 144.927 76.7973 144.927 77.608V83H143.167ZM140.367 83.224C139.737 83.224 139.183 83.112 138.703 82.888C138.233 82.664 137.865 82.344 137.599 81.928C137.343 81.512 137.215 81.0107 137.215 80.424C137.215 79.784 137.369 79.2613 137.679 78.856C137.999 78.4507 138.441 78.1467 139.007 77.944C139.583 77.7413 140.255 77.64 141.023 77.64H143.039V78.968H140.991C140.479 78.968 140.084 79.096 139.807 79.352C139.54 79.5973 139.407 79.9173 139.407 80.312C139.407 80.7067 139.54 81.0267 139.807 81.272C140.084 81.5173 140.479 81.64 140.991 81.64C141.3 81.64 141.583 81.5867 141.839 81.48C142.105 81.3627 142.324 81.1707 142.495 80.904C142.676 80.6267 142.777 80.2533 142.799 79.784L143.343 80.408C143.289 81.016 143.14 81.528 142.895 81.944C142.66 82.36 142.329 82.68 141.903 82.904C141.487 83.1173 140.975 83.224 140.367 83.224ZM147.101 83V71.32H149.325V83H147.101ZM146.013 72.984V71.32H149.325V72.984H146.013ZM5.48813 115.304C4.73079 115.304 4.07479 115.176 3.52013 114.92C2.97613 114.664 2.51746 114.323 2.14413 113.896C1.78146 113.469 1.50946 112.989 1.32813 112.456C1.14679 111.923 1.05613 111.379 1.05613 110.824V110.52C1.05613 109.933 1.14679 109.373 1.32813 108.84C1.52013 108.296 1.80279 107.816 2.17613 107.4C2.54946 106.973 3.00813 106.637 3.55213 106.392C4.10679 106.136 4.74679 106.008 5.47213 106.008C6.22946 106.008 6.90679 106.157 7.50413 106.456C8.10146 106.744 8.57613 107.149 8.92813 107.672C9.29079 108.195 9.49346 108.803 9.53613 109.496H7.37613C7.32279 109.048 7.13079 108.675 6.80013 108.376C6.48013 108.077 6.03746 107.928 5.47213 107.928C4.98146 107.928 4.57079 108.045 4.24013 108.28C3.92013 108.515 3.68013 108.84 3.52013 109.256C3.36013 109.661 3.28013 110.131 3.28013 110.664C3.28013 111.176 3.35479 111.64 3.50413 112.056C3.66413 112.472 3.90413 112.797 4.22413 113.032C4.55479 113.267 4.97613 113.384 5.48813 113.384C5.87213 113.384 6.20279 113.315 6.48013 113.176C6.75746 113.037 6.97613 112.845 7.13613 112.6C7.30679 112.355 7.41346 112.077 7.45613 111.768H9.61613C9.57346 112.472 9.36546 113.091 8.99213 113.624C8.62946 114.147 8.14413 114.557 7.53613 114.856C6.93879 115.155 6.25613 115.304 5.48813 115.304ZM15.2538 115.304C14.4858 115.304 13.8084 115.181 13.2218 114.936C12.6351 114.691 12.1391 114.36 11.7338 113.944C11.3284 113.517 11.0191 113.037 10.8058 112.504C10.6031 111.971 10.5018 111.416 10.5018 110.84V110.504C10.5018 109.907 10.6084 109.341 10.8218 108.808C11.0458 108.264 11.3604 107.784 11.7658 107.368C12.1818 106.941 12.6831 106.611 13.2698 106.376C13.8564 106.131 14.5178 106.008 15.2538 106.008C15.9898 106.008 16.6511 106.131 17.2378 106.376C17.8244 106.611 18.3204 106.941 18.7258 107.368C19.1418 107.784 19.4564 108.264 19.6698 108.808C19.8831 109.341 19.9898 109.907 19.9898 110.504V110.84C19.9898 111.416 19.8831 111.971 19.6698 112.504C19.4671 113.037 19.1631 113.517 18.7578 113.944C18.3524 114.36 17.8564 114.691 17.2698 114.936C16.6831 115.181 16.0111 115.304 15.2538 115.304ZM15.2538 113.4C15.7978 113.4 16.2564 113.283 16.6298 113.048C17.0031 112.803 17.2858 112.477 17.4778 112.072C17.6698 111.656 17.7658 111.187 17.7658 110.664C17.7658 110.131 17.6644 109.661 17.4618 109.256C17.2698 108.84 16.9818 108.515 16.5978 108.28C16.2244 108.035 15.7764 107.912 15.2538 107.912C14.7311 107.912 14.2778 108.035 13.8938 108.28C13.5204 108.515 13.2324 108.84 13.0298 109.256C12.8271 109.661 12.7258 110.131 12.7258 110.664C12.7258 111.187 12.8218 111.656 13.0138 112.072C13.2164 112.477 13.5044 112.803 13.8778 113.048C14.2511 113.283 14.7098 113.4 15.2538 113.4ZM21.6171 115V106.312H23.3771V110.04H23.2171C23.2171 109.155 23.3345 108.419 23.5691 107.832C23.8038 107.235 24.1505 106.787 24.6091 106.488C25.0785 106.189 25.6598 106.04 26.3531 106.04H26.4491C27.4838 106.04 28.2678 106.376 28.8011 107.048C29.3345 107.709 29.6011 108.701 29.6011 110.024V115H27.3771V109.832C27.3771 109.299 27.2225 108.867 26.9131 108.536C26.6145 108.205 26.1985 108.04 25.6651 108.04C25.1211 108.04 24.6785 108.211 24.3371 108.552C24.0065 108.883 23.8411 109.331 23.8411 109.896V115H21.6171ZM34.8241 115.272C33.6295 115.272 32.6908 115.021 32.0081 114.52C31.3361 114.008 30.9841 113.304 30.9521 112.408H32.9521C32.9841 112.707 33.1495 112.979 33.4481 113.224C33.7468 113.469 34.2161 113.592 34.8561 113.592C35.3895 113.592 35.8108 113.496 36.1201 113.304C36.4401 113.112 36.6001 112.851 36.6001 112.52C36.6001 112.232 36.4775 112.003 36.2321 111.832C35.9975 111.661 35.5921 111.549 35.0161 111.496L34.2481 111.416C33.2775 111.309 32.5308 111.032 32.0081 110.584C31.4855 110.136 31.2241 109.539 31.2241 108.792C31.2241 108.195 31.3735 107.693 31.6721 107.288C31.9708 106.883 32.3815 106.579 32.9041 106.376C33.4375 106.163 34.0455 106.056 34.7281 106.056C35.7948 106.056 36.6588 106.291 37.3201 106.76C37.9815 107.229 38.3281 107.917 38.3601 108.824H36.3601C36.3388 108.525 36.1895 108.269 35.9121 108.056C35.6348 107.843 35.2348 107.736 34.7121 107.736C34.2428 107.736 33.8801 107.827 33.6241 108.008C33.3681 108.189 33.2401 108.424 33.2401 108.712C33.2401 108.989 33.3415 109.203 33.5441 109.352C33.7575 109.501 34.0988 109.603 34.5681 109.656L35.3361 109.736C36.3601 109.843 37.1601 110.125 37.7361 110.584C38.3228 111.043 38.6161 111.661 38.6161 112.44C38.6161 113.016 38.4561 113.517 38.1361 113.944C37.8268 114.36 37.3895 114.685 36.8241 114.92C36.2588 115.155 35.5921 115.272 34.8241 115.272ZM43.0934 115.272C42.0907 115.272 41.312 114.941 40.7574 114.28C40.2134 113.619 39.9414 112.637 39.9414 111.336V106.296H42.1654V111.528C42.1654 112.061 42.3147 112.488 42.6134 112.808C42.912 113.117 43.3174 113.272 43.8294 113.272C44.3414 113.272 44.7574 113.107 45.0774 112.776C45.408 112.445 45.5734 111.997 45.5734 111.432V106.296H47.7974V115H46.0374V111.304H46.2134C46.2134 112.179 46.1014 112.909 45.8774 113.496C45.6534 114.083 45.3174 114.525 44.8694 114.824C44.4214 115.123 43.8614 115.272 43.1894 115.272H43.0934ZM50.0321 115V106.312H51.7921V110.04H51.6321C51.6321 109.165 51.7441 108.435 51.9681 107.848C52.1921 107.251 52.5228 106.803 52.9601 106.504C53.4081 106.195 53.9628 106.04 54.6241 106.04H54.7201C55.3921 106.04 55.9468 106.195 56.3841 106.504C56.8321 106.803 57.1628 107.251 57.3761 107.848C57.6001 108.435 57.7121 109.165 57.7121 110.04H57.1521C57.1521 109.165 57.2641 108.435 57.4881 107.848C57.7228 107.251 58.0588 106.803 58.4961 106.504C58.9441 106.195 59.4988 106.04 60.1601 106.04H60.2561C60.9281 106.04 61.4881 106.195 61.9361 106.504C62.3841 106.803 62.7201 107.251 62.9441 107.848C63.1788 108.435 63.2961 109.165 63.2961 110.04V115H61.0721V109.832C61.0721 109.288 60.9335 108.856 60.6561 108.536C60.3788 108.205 59.9841 108.04 59.4721 108.04C58.9601 108.04 58.5495 108.211 58.2401 108.552C57.9308 108.883 57.7761 109.331 57.7761 109.896V115H55.5521V109.832C55.5521 109.288 55.4135 108.856 55.1361 108.536C54.8588 108.205 54.4641 108.04 53.9521 108.04C53.4401 108.04 53.0295 108.211 52.7201 108.552C52.4108 108.883 52.2561 109.331 52.2561 109.896V115H50.0321ZM69.2408 115.304C68.4941 115.304 67.8381 115.176 67.2728 114.92C66.7181 114.664 66.2541 114.323 65.8808 113.896C65.5181 113.459 65.2408 112.973 65.0488 112.44C64.8674 111.907 64.7768 111.363 64.7768 110.808V110.504C64.7768 109.928 64.8674 109.373 65.0488 108.84C65.2408 108.296 65.5181 107.816 65.8808 107.4C66.2541 106.973 66.7128 106.637 67.2568 106.392C67.8008 106.136 68.4301 106.008 69.1448 106.008C70.0834 106.008 70.8674 106.216 71.4968 106.632C72.1368 107.037 72.6168 107.576 72.9368 108.248C73.2568 108.909 73.4168 109.624 73.4168 110.392V111.192H65.7208V109.832H72.0248L71.3368 110.504C71.3368 109.949 71.2568 109.475 71.0968 109.08C70.9368 108.685 70.6914 108.381 70.3608 108.168C70.0408 107.955 69.6354 107.848 69.1448 107.848C68.6541 107.848 68.2381 107.96 67.8968 108.184C67.5554 108.408 67.2941 108.733 67.1128 109.16C66.9421 109.576 66.8568 110.077 66.8568 110.664C66.8568 111.208 66.9421 111.693 67.1128 112.12C67.2834 112.536 67.5448 112.867 67.8968 113.112C68.2488 113.347 68.6968 113.464 69.2408 113.464C69.7848 113.464 70.2274 113.357 70.5688 113.144C70.9101 112.92 71.1288 112.648 71.2248 112.328H73.2728C73.1448 112.925 72.8994 113.448 72.5368 113.896C72.1741 114.344 71.7101 114.691 71.1448 114.936C70.5901 115.181 69.9554 115.304 69.2408 115.304ZM74.9546 115V106.312H76.7146V109.992H76.6666C76.6666 108.744 76.9333 107.8 77.4666 107.16C78 106.52 78.784 106.2 79.8186 106.2H80.1386V108.136H79.5306C78.784 108.136 78.2026 108.339 77.7866 108.744C77.3813 109.139 77.1786 109.715 77.1786 110.472V115H74.9546ZM84.4396 118.2V106.312H86.1996V110.056L85.9276 110.04C85.9703 109.155 86.1516 108.413 86.4716 107.816C86.8023 107.219 87.2396 106.776 87.7836 106.488C88.3276 106.189 88.9356 106.04 89.6076 106.04C90.2263 106.04 90.781 106.152 91.2716 106.376C91.773 106.6 92.1996 106.915 92.5516 107.32C92.9143 107.725 93.1916 108.2 93.3836 108.744C93.5756 109.277 93.6716 109.853 93.6716 110.472V110.808C93.6716 111.437 93.5756 112.024 93.3836 112.568C93.2023 113.101 92.9303 113.576 92.5676 113.992C92.2156 114.397 91.789 114.717 91.2876 114.952C90.7863 115.176 90.2263 115.288 89.6076 115.288C88.957 115.288 88.3596 115.155 87.8156 114.888C87.2823 114.611 86.8503 114.189 86.5196 113.624C86.189 113.048 86.0023 112.307 85.9596 111.4L86.6636 112.472V118.2H84.4396ZM89.0476 113.416C89.5276 113.416 89.9436 113.299 90.2956 113.064C90.6583 112.829 90.941 112.504 91.1436 112.088C91.3463 111.661 91.4476 111.181 91.4476 110.648C91.4476 110.093 91.3463 109.613 91.1436 109.208C90.941 108.803 90.6583 108.488 90.2956 108.264C89.9436 108.029 89.5276 107.912 89.0476 107.912C88.6103 107.912 88.205 108.008 87.8316 108.2C87.469 108.392 87.1703 108.675 86.9356 109.048C86.7116 109.421 86.5996 109.869 86.5996 110.392V111.032C86.5996 111.533 86.717 111.96 86.9516 112.312C87.1863 112.664 87.4903 112.936 87.8636 113.128C88.237 113.32 88.6316 113.416 89.0476 113.416ZM99.4831 115.304C98.7151 115.304 98.0378 115.181 97.4511 114.936C96.8645 114.691 96.3685 114.36 95.9631 113.944C95.5578 113.517 95.2485 113.037 95.0351 112.504C94.8325 111.971 94.7311 111.416 94.7311 110.84V110.504C94.7311 109.907 94.8378 109.341 95.0511 108.808C95.2751 108.264 95.5898 107.784 95.9951 107.368C96.4111 106.941 96.9125 106.611 97.4991 106.376C98.0858 106.131 98.7471 106.008 99.4831 106.008C100.219 106.008 100.88 106.131 101.467 106.376C102.054 106.611 102.55 106.941 102.955 107.368C103.371 107.784 103.686 108.264 103.899 108.808C104.112 109.341 104.219 109.907 104.219 110.504V110.84C104.219 111.416 104.112 111.971 103.899 112.504C103.696 113.037 103.392 113.517 102.987 113.944C102.582 114.36 102.086 114.691 101.499 114.936C100.912 115.181 100.24 115.304 99.4831 115.304ZM99.4831 113.4C100.027 113.4 100.486 113.283 100.859 113.048C101.232 112.803 101.515 112.477 101.707 112.072C101.899 111.656 101.995 111.187 101.995 110.664C101.995 110.131 101.894 109.661 101.691 109.256C101.499 108.84 101.211 108.515 100.827 108.28C100.454 108.035 100.006 107.912 99.4831 107.912C98.9605 107.912 98.5071 108.035 98.1231 108.28C97.7498 108.515 97.4618 108.84 97.2591 109.256C97.0565 109.661 96.9551 110.131 96.9551 110.664C96.9551 111.187 97.0511 111.656 97.2431 112.072C97.4458 112.477 97.7338 112.803 98.1071 113.048C98.4805 113.283 98.9391 113.4 99.4831 113.4ZM105.847 118.2V106.312H107.607V110.056L107.335 110.04C107.377 109.155 107.559 108.413 107.879 107.816C108.209 107.219 108.647 106.776 109.191 106.488C109.735 106.189 110.343 106.04 111.015 106.04C111.633 106.04 112.188 106.152 112.679 106.376C113.18 106.6 113.607 106.915 113.959 107.32C114.321 107.725 114.599 108.2 114.791 108.744C114.983 109.277 115.079 109.853 115.079 110.472V110.808C115.079 111.437 114.983 112.024 114.791 112.568C114.609 113.101 114.337 113.576 113.975 113.992C113.623 114.397 113.196 114.717 112.695 114.952C112.193 115.176 111.633 115.288 111.015 115.288C110.364 115.288 109.767 115.155 109.223 114.888C108.689 114.611 108.257 114.189 107.927 113.624C107.596 113.048 107.409 112.307 107.367 111.4L108.071 112.472V118.2H105.847ZM110.455 113.416C110.935 113.416 111.351 113.299 111.703 113.064C112.065 112.829 112.348 112.504 112.551 112.088C112.753 111.661 112.855 111.181 112.855 110.648C112.855 110.093 112.753 109.613 112.551 109.208C112.348 108.803 112.065 108.488 111.703 108.264C111.351 108.029 110.935 107.912 110.455 107.912C110.017 107.912 109.612 108.008 109.239 108.2C108.876 108.392 108.577 108.675 108.343 109.048C108.119 109.421 108.007 109.869 108.007 110.392V111.032C108.007 111.533 108.124 111.96 108.359 112.312C108.593 112.664 108.897 112.936 109.271 113.128C109.644 113.32 110.039 113.416 110.455 113.416ZM119.674 115.272C118.671 115.272 117.893 114.941 117.338 114.28C116.794 113.619 116.522 112.637 116.522 111.336V106.296H118.746V111.528C118.746 112.061 118.895 112.488 119.194 112.808C119.493 113.117 119.898 113.272 120.41 113.272C120.922 113.272 121.338 113.107 121.658 112.776C121.989 112.445 122.154 111.997 122.154 111.432V106.296H124.378V115H122.618V111.304H122.794C122.794 112.179 122.682 112.909 122.458 113.496C122.234 114.083 121.898 114.525 121.45 114.824C121.002 115.123 120.442 115.272 119.77 115.272H119.674ZM126.725 115V103.32H128.949V115H126.725ZM125.637 104.984V103.32H128.949V104.984H125.637ZM136.432 115V112.424H136.064V109.56C136.064 109.059 135.941 108.685 135.696 108.44C135.45 108.195 135.072 108.072 134.56 108.072C134.293 108.072 133.973 108.077 133.6 108.088C133.226 108.099 132.848 108.115 132.464 108.136C132.09 108.147 131.754 108.163 131.456 108.184V106.296C131.701 106.275 131.978 106.253 132.288 106.232C132.597 106.211 132.912 106.2 133.232 106.2C133.562 106.189 133.872 106.184 134.16 106.184C135.056 106.184 135.797 106.301 136.384 106.536C136.981 106.771 137.429 107.139 137.728 107.64C138.037 108.141 138.192 108.797 138.192 109.608V115H136.432ZM133.632 115.224C133.002 115.224 132.448 115.112 131.968 114.888C131.498 114.664 131.13 114.344 130.864 113.928C130.608 113.512 130.48 113.011 130.48 112.424C130.48 111.784 130.634 111.261 130.944 110.856C131.264 110.451 131.706 110.147 132.272 109.944C132.848 109.741 133.52 109.64 134.288 109.64H136.304V110.968H134.256C133.744 110.968 133.349 111.096 133.072 111.352C132.805 111.597 132.672 111.917 132.672 112.312C132.672 112.707 132.805 113.027 133.072 113.272C133.349 113.517 133.744 113.64 134.256 113.64C134.565 113.64 134.848 113.587 135.104 113.48C135.37 113.363 135.589 113.171 135.76 112.904C135.941 112.627 136.042 112.253 136.064 111.784L136.608 112.408C136.554 113.016 136.405 113.528 136.16 113.944C135.925 114.36 135.594 114.68 135.168 114.904C134.752 115.117 134.24 115.224 133.632 115.224ZM144.03 115.112C143.23 115.112 142.569 115.011 142.046 114.808C141.534 114.595 141.15 114.243 140.894 113.752C140.638 113.251 140.51 112.579 140.51 111.736L140.526 103.864H142.606L142.59 111.88C142.59 112.307 142.702 112.637 142.926 112.872C143.161 113.096 143.491 113.208 143.918 113.208H145.278V115.112H144.03ZM139.134 107.944V106.312H145.278V107.944H139.134ZM147.241 115V106.312H149.465V115H147.241ZM146.025 107.976V106.312H149.465V107.976H146.025ZM148.057 105.272C147.619 105.272 147.294 105.16 147.081 104.936C146.878 104.701 146.777 104.413 146.777 104.072C146.777 103.709 146.878 103.416 147.081 103.192C147.294 102.968 147.619 102.856 148.057 102.856C148.494 102.856 148.814 102.968 149.017 103.192C149.219 103.416 149.321 103.709 149.321 104.072C149.321 104.413 149.219 104.701 149.017 104.936C148.814 105.16 148.494 105.272 148.057 105.272ZM155.884 115.304C155.116 115.304 154.438 115.181 153.852 114.936C153.265 114.691 152.769 114.36 152.364 113.944C151.958 113.517 151.649 113.037 151.436 112.504C151.233 111.971 151.132 111.416 151.132 110.84V110.504C151.132 109.907 151.238 109.341 151.452 108.808C151.676 108.264 151.99 107.784 152.396 107.368C152.812 106.941 153.313 106.611 153.9 106.376C154.486 106.131 155.148 106.008 155.884 106.008C156.62 106.008 157.281 106.131 157.868 106.376C158.454 106.611 158.95 106.941 159.356 107.368C159.772 107.784 160.086 108.264 160.3 108.808C160.513 109.341 160.62 109.907 160.62 110.504V110.84C160.62 111.416 160.513 111.971 160.3 112.504C160.097 113.037 159.793 113.517 159.388 113.944C158.982 114.36 158.486 114.691 157.9 114.936C157.313 115.181 156.641 115.304 155.884 115.304ZM155.884 113.4C156.428 113.4 156.886 113.283 157.26 113.048C157.633 112.803 157.916 112.477 158.108 112.072C158.3 111.656 158.396 111.187 158.396 110.664C158.396 110.131 158.294 109.661 158.092 109.256C157.9 108.84 157.612 108.515 157.228 108.28C156.854 108.035 156.406 107.912 155.884 107.912C155.361 107.912 154.908 108.035 154.524 108.28C154.15 108.515 153.862 108.84 153.66 109.256C153.457 109.661 153.356 110.131 153.356 110.664C153.356 111.187 153.452 111.656 153.644 112.072C153.846 112.477 154.134 112.803 154.508 113.048C154.881 113.283 155.34 113.4 155.884 113.4ZM162.247 115V106.312H164.007V110.04H163.847C163.847 109.155 163.964 108.419 164.199 107.832C164.434 107.235 164.78 106.787 165.239 106.488C165.708 106.189 166.29 106.04 166.983 106.04H167.079C168.114 106.04 168.898 106.376 169.431 107.048C169.964 107.709 170.231 108.701 170.231 110.024V115H168.007V109.832C168.007 109.299 167.852 108.867 167.543 108.536C167.244 108.205 166.828 108.04 166.295 108.04C165.751 108.04 165.308 108.211 164.967 108.552C164.636 108.883 164.471 109.331 164.471 109.896V115H162.247Z" fill="white"/>
<path d="M72.608 12.584V10.12L77.184 3L78.896 4.168L74.864 10.472L75.056 10.792H82.224V12.584H72.608ZM78.72 15V6.632H80.816V15H78.72ZM88.3378 15.304C87.4204 15.304 86.6418 15.1547 86.0018 14.856C85.3618 14.5467 84.8391 14.1307 84.4338 13.608C84.0284 13.0747 83.7298 12.4667 83.5378 11.784C83.3564 11.0907 83.2658 10.3653 83.2658 9.608V8.712C83.2658 7.63467 83.4471 6.664 83.8098 5.8C84.1724 4.936 84.7271 4.25333 85.4738 3.752C86.2204 3.24 87.1751 2.984 88.3378 2.984C89.4898 2.984 90.4391 3.24 91.1858 3.752C91.9324 4.25333 92.4818 4.936 92.8338 5.8C93.1964 6.664 93.3778 7.63467 93.3778 8.712V9.608C93.3778 10.3653 93.2818 11.0907 93.0898 11.784C92.9084 12.4667 92.6151 13.0747 92.2098 13.608C91.8151 14.1307 91.2978 14.5467 90.6578 14.856C90.0178 15.1547 89.2444 15.304 88.3378 15.304ZM88.3378 13.224C89.2871 13.224 89.9858 12.8987 90.4338 12.248C90.8818 11.5867 91.1058 10.5627 91.1058 9.176C91.1058 7.704 90.8764 6.65333 90.4178 6.024C89.9591 5.384 89.2658 5.064 88.3378 5.064C87.3991 5.064 86.6951 5.384 86.2258 6.024C85.7671 6.65333 85.5378 7.69333 85.5378 9.144C85.5378 10.5413 85.7671 11.5707 86.2258 12.232C86.6844 12.8933 87.3884 13.224 88.3378 13.224ZM98.0315 15L102.336 3.32H104.176L99.8715 15H98.0315ZM97.1995 9.688C96.5808 9.688 96.0688 9.54933 95.6635 9.272C95.2582 8.984 94.9542 8.60533 94.7515 8.136C94.5595 7.66667 94.4635 7.15467 94.4635 6.6V6.184C94.4635 5.576 94.5648 5.04267 94.7675 4.584C94.9702 4.11467 95.2742 3.752 95.6795 3.496C96.0955 3.22933 96.6022 3.096 97.1995 3.096C97.8182 3.096 98.3302 3.22933 98.7355 3.496C99.1408 3.752 99.4448 4.11467 99.6475 4.584C99.8502 5.04267 99.9515 5.576 99.9515 6.184V6.6C99.9515 7.15467 99.8502 7.66667 99.6475 8.136C99.4555 8.60533 99.1568 8.984 98.7515 9.272C98.3568 9.54933 97.8395 9.688 97.1995 9.688ZM97.1995 8.2C97.5835 8.2 97.8662 8.06133 98.0475 7.784C98.2395 7.496 98.3355 7.03733 98.3355 6.408C98.3355 5.72533 98.2395 5.25067 98.0475 4.984C97.8555 4.71733 97.5728 4.584 97.1995 4.584C96.8262 4.584 96.5435 4.71733 96.3515 4.984C96.1702 5.25067 96.0795 5.72 96.0795 6.392C96.0795 7.02133 96.1702 7.48 96.3515 7.768C96.5435 8.056 96.8262 8.2 97.1995 8.2ZM104.928 15.24C104.309 15.24 103.797 15.1013 103.392 14.824C102.986 14.536 102.682 14.1573 102.48 13.688C102.288 13.2187 102.192 12.7067 102.192 12.152V11.736C102.192 11.128 102.293 10.5947 102.496 10.136C102.698 9.66667 103.002 9.304 103.408 9.048C103.824 8.78133 104.33 8.648 104.928 8.648C105.546 8.648 106.058 8.78133 106.464 9.048C106.869 9.304 107.173 9.66667 107.376 10.136C107.578 10.5947 107.68 11.128 107.68 11.736V12.152C107.68 12.7067 107.578 13.2187 107.376 13.688C107.184 14.1573 106.885 14.536 106.48 14.824C106.085 15.1013 105.568 15.24 104.928 15.24ZM104.928 13.752C105.312 13.752 105.594 13.6133 105.776 13.336C105.968 13.048 106.064 12.5893 106.064 11.96C106.064 11.2773 105.968 10.8027 105.776 10.536C105.584 10.2693 105.301 10.136 104.928 10.136C104.554 10.136 104.272 10.2693 104.08 10.536C103.898 10.8027 103.808 11.272 103.808 11.944C103.808 12.5733 103.898 13.032 104.08 13.32C104.272 13.608 104.554 13.752 104.928 13.752Z" fill="white"/>
<rect x="63" y="30" width="54" height="5" fill="white"/>
<path d="M418.533 83.08V81.256H421.461C421.994 81.256 422.399 81.112 422.677 80.824C422.954 80.5253 423.093 80.12 423.093 79.608C423.093 79.096 422.954 78.7013 422.677 78.424C422.399 78.136 421.994 77.992 421.461 77.992H418.533V76.6H421.301C422.079 76.6 422.773 76.696 423.381 76.888C423.999 77.0693 424.479 77.3787 424.821 77.816C425.173 78.2533 425.349 78.84 425.349 79.576V79.8C425.349 80.4933 425.194 81.0853 424.885 81.576C424.586 82.056 424.133 82.4293 423.525 82.696C422.927 82.952 422.186 83.08 421.301 83.08H418.533ZM416.629 83.08V71.24H418.853V83.08H416.629ZM418.533 77.624V76.232H421.029C421.573 76.232 421.973 76.088 422.229 75.8C422.485 75.512 422.613 75.128 422.613 74.648C422.613 74.168 422.485 73.784 422.229 73.496C421.973 73.208 421.573 73.064 421.029 73.064H418.533V71.24H420.821C422.143 71.24 423.146 71.5173 423.829 72.072C424.522 72.6267 424.869 73.4213 424.869 74.456V74.68C424.869 75.4053 424.693 75.9867 424.341 76.424C423.999 76.8507 423.525 77.16 422.917 77.352C422.309 77.5333 421.61 77.624 420.821 77.624H418.533ZM427.564 83V74.312H429.788V83H427.564ZM426.348 75.976V74.312H429.788V75.976H426.348ZM428.38 73.272C427.943 73.272 427.618 73.16 427.404 72.936C427.202 72.7013 427.1 72.4133 427.1 72.072C427.1 71.7093 427.202 71.416 427.404 71.192C427.618 70.968 427.943 70.856 428.38 70.856C428.818 70.856 429.138 70.968 429.34 71.192C429.543 71.416 429.644 71.7093 429.644 72.072C429.644 72.4133 429.543 72.7013 429.34 72.936C429.138 73.16 428.818 73.272 428.38 73.272ZM432.144 83V71.32H434.368V83H432.144ZM431.056 72.984V71.32H434.368V72.984H431.056ZM436.699 83V71.32H438.923V83H436.699ZM435.611 72.984V71.32H438.923V72.984H435.611ZM441.558 83V74.312H443.782V83H441.558ZM440.342 75.976V74.312H443.782V75.976H440.342ZM442.374 73.272C441.936 73.272 441.611 73.16 441.398 72.936C441.195 72.7013 441.094 72.4133 441.094 72.072C441.094 71.7093 441.195 71.416 441.398 71.192C441.611 70.968 441.936 70.856 442.374 70.856C442.811 70.856 443.131 70.968 443.334 71.192C443.536 71.416 443.638 71.7093 443.638 72.072C443.638 72.4133 443.536 72.7013 443.334 72.936C443.131 73.16 442.811 73.272 442.374 73.272ZM450.201 83.304C449.433 83.304 448.755 83.1813 448.169 82.936C447.582 82.6907 447.086 82.36 446.681 81.944C446.275 81.5173 445.966 81.0373 445.753 80.504C445.55 79.9707 445.449 79.416 445.449 78.84V78.504C445.449 77.9067 445.555 77.3413 445.769 76.808C445.993 76.264 446.307 75.784 446.713 75.368C447.129 74.9413 447.63 74.6107 448.217 74.376C448.803 74.1307 449.465 74.008 450.201 74.008C450.937 74.008 451.598 74.1307 452.185 74.376C452.771 74.6107 453.267 74.9413 453.673 75.368C454.089 75.784 454.403 76.264 454.617 76.808C454.83 77.3413 454.937 77.9067 454.937 78.504V78.84C454.937 79.416 454.83 79.9707 454.617 80.504C454.414 81.0373 454.11 81.5173 453.705 81.944C453.299 82.36 452.803 82.6907 452.217 82.936C451.63 83.1813 450.958 83.304 450.201 83.304ZM450.201 81.4C450.745 81.4 451.203 81.2827 451.577 81.048C451.95 80.8027 452.233 80.4773 452.425 80.072C452.617 79.656 452.713 79.1867 452.713 78.664C452.713 78.1307 452.611 77.6613 452.409 77.256C452.217 76.84 451.929 76.5147 451.545 76.28C451.171 76.0347 450.723 75.912 450.201 75.912C449.678 75.912 449.225 76.0347 448.841 76.28C448.467 76.5147 448.179 76.84 447.977 77.256C447.774 77.6613 447.673 78.1307 447.673 78.664C447.673 79.1867 447.769 79.656 447.961 80.072C448.163 80.4773 448.451 80.8027 448.825 81.048C449.198 81.2827 449.657 81.4 450.201 81.4ZM456.564 83V74.312H458.324V78.04H458.164C458.164 77.1547 458.281 76.4187 458.516 75.832C458.751 75.2347 459.097 74.7867 459.556 74.488C460.025 74.1893 460.607 74.04 461.3 74.04H461.396C462.431 74.04 463.215 74.376 463.748 75.048C464.281 75.7093 464.548 76.7013 464.548 78.024V83H462.324V77.832C462.324 77.2987 462.169 76.8667 461.86 76.536C461.561 76.2053 461.145 76.04 460.612 76.04C460.068 76.04 459.625 76.2107 459.284 76.552C458.953 76.8827 458.788 77.3307 458.788 77.896V83H456.564ZM470.168 83V74.312H472.392V83H470.168ZM468.952 75.976V74.312H472.392V75.976H468.952ZM470.984 73.272C470.547 73.272 470.221 73.16 470.008 72.936C469.805 72.7013 469.704 72.4133 469.704 72.072C469.704 71.7093 469.805 71.416 470.008 71.192C470.221 70.968 470.547 70.856 470.984 70.856C471.421 70.856 471.741 70.968 471.944 71.192C472.147 71.416 472.248 71.7093 472.248 72.072C472.248 72.4133 472.147 72.7013 471.944 72.936C471.741 73.16 471.421 73.272 470.984 73.272ZM474.635 83V74.312H476.395V78.04H476.235C476.235 77.1547 476.353 76.4187 476.587 75.832C476.822 75.2347 477.169 74.7867 477.627 74.488C478.097 74.1893 478.678 74.04 479.371 74.04H479.467C480.502 74.04 481.286 74.376 481.819 75.048C482.353 75.7093 482.619 76.7013 482.619 78.024V83H480.395V77.832C480.395 77.2987 480.241 76.8667 479.931 76.536C479.633 76.2053 479.217 76.04 478.683 76.04C478.139 76.04 477.697 76.2107 477.355 76.552C477.025 76.8827 476.859 77.3307 476.859 77.896V83H474.635ZM491.423 83.288C490.815 83.288 490.255 83.176 489.743 82.952C489.231 82.728 488.789 82.4133 488.415 82.008C488.042 81.6027 487.754 81.1333 487.551 80.6C487.349 80.056 487.247 79.4693 487.247 78.84V78.504C487.247 77.8853 487.343 77.304 487.535 76.76C487.738 76.216 488.015 75.7413 488.367 75.336C488.73 74.9307 489.162 74.616 489.663 74.392C490.175 74.1573 490.741 74.04 491.359 74.04C492.042 74.04 492.639 74.1893 493.151 74.488C493.674 74.776 494.09 75.2133 494.399 75.8C494.709 76.3867 494.879 77.1227 494.911 78.008L494.255 77.24V71.32H496.479V83H494.719V79.304H495.103C495.071 80.1893 494.89 80.9307 494.559 81.528C494.229 82.1147 493.791 82.5573 493.247 82.856C492.714 83.144 492.106 83.288 491.423 83.288ZM491.919 81.416C492.357 81.416 492.757 81.32 493.119 81.128C493.482 80.9253 493.77 80.6373 493.983 80.264C494.207 79.88 494.319 79.432 494.319 78.92V78.28C494.319 77.768 494.207 77.3413 493.983 77C493.759 76.648 493.466 76.3813 493.103 76.2C492.741 76.008 492.346 75.912 491.919 75.912C491.439 75.912 491.013 76.0293 490.639 76.264C490.277 76.488 489.989 76.808 489.775 77.224C489.573 77.64 489.471 78.1253 489.471 78.68C489.471 79.2347 489.578 79.72 489.791 80.136C490.005 80.5413 490.293 80.856 490.655 81.08C491.029 81.304 491.45 81.416 491.919 81.416ZM499.107 83V74.312H501.331V83H499.107ZM497.891 75.976V74.312H501.331V75.976H497.891ZM499.923 73.272C499.486 73.272 499.16 73.16 498.947 72.936C498.744 72.7013 498.643 72.4133 498.643 72.072C498.643 71.7093 498.744 71.416 498.947 71.192C499.16 70.968 499.486 70.856 499.923 70.856C500.36 70.856 500.68 70.968 500.883 71.192C501.086 71.416 501.187 71.7093 501.187 72.072C501.187 72.4133 501.086 72.7013 500.883 72.936C500.68 73.16 500.36 73.272 499.923 73.272ZM503.574 83V74.312H505.334V77.992H505.286C505.286 76.744 505.553 75.8 506.086 75.16C506.619 74.52 507.403 74.2 508.438 74.2H508.758V76.136H508.15C507.403 76.136 506.822 76.3387 506.406 76.744C506.001 77.1387 505.798 77.7147 505.798 78.472V83H503.574ZM513.751 83.304C513.005 83.304 512.349 83.176 511.783 82.92C511.229 82.664 510.765 82.3227 510.391 81.896C510.029 81.4587 509.751 80.9733 509.559 80.44C509.378 79.9067 509.287 79.3627 509.287 78.808V78.504C509.287 77.928 509.378 77.3733 509.559 76.84C509.751 76.296 510.029 75.816 510.391 75.4C510.765 74.9733 511.223 74.6373 511.767 74.392C512.311 74.136 512.941 74.008 513.655 74.008C514.594 74.008 515.378 74.216 516.007 74.632C516.647 75.0373 517.127 75.576 517.447 76.248C517.767 76.9093 517.927 77.624 517.927 78.392V79.192H510.231V77.832H516.535L515.847 78.504C515.847 77.9493 515.767 77.4747 515.607 77.08C515.447 76.6853 515.202 76.3813 514.871 76.168C514.551 75.9547 514.146 75.848 513.655 75.848C513.165 75.848 512.749 75.96 512.407 76.184C512.066 76.408 511.805 76.7333 511.623 77.16C511.453 77.576 511.367 78.0773 511.367 78.664C511.367 79.208 511.453 79.6933 511.623 80.12C511.794 80.536 512.055 80.8667 512.407 81.112C512.759 81.3467 513.207 81.464 513.751 81.464C514.295 81.464 514.738 81.3573 515.079 81.144C515.421 80.92 515.639 80.648 515.735 80.328H517.783C517.655 80.9253 517.41 81.448 517.047 81.896C516.685 82.344 516.221 82.6907 515.655 82.936C515.101 83.1813 514.466 83.304 513.751 83.304ZM523.321 83.304C522.564 83.304 521.908 83.176 521.353 82.92C520.809 82.664 520.351 82.3227 519.977 81.896C519.615 81.4693 519.343 80.9893 519.161 80.456C518.98 79.9227 518.889 79.3787 518.889 78.824V78.52C518.889 77.9333 518.98 77.3733 519.161 76.84C519.353 76.296 519.636 75.816 520.009 75.4C520.383 74.9733 520.841 74.6373 521.385 74.392C521.94 74.136 522.58 74.008 523.305 74.008C524.063 74.008 524.74 74.1573 525.337 74.456C525.935 74.744 526.409 75.1493 526.761 75.672C527.124 76.1947 527.327 76.8027 527.369 77.496H525.209C525.156 77.048 524.964 76.6747 524.633 76.376C524.313 76.0773 523.871 75.928 523.305 75.928C522.815 75.928 522.404 76.0453 522.073 76.28C521.753 76.5147 521.513 76.84 521.353 77.256C521.193 77.6613 521.113 78.1307 521.113 78.664C521.113 79.176 521.188 79.64 521.337 80.056C521.497 80.472 521.737 80.7973 522.057 81.032C522.388 81.2667 522.809 81.384 523.321 81.384C523.705 81.384 524.036 81.3147 524.313 81.176C524.591 81.0373 524.809 80.8453 524.969 80.6C525.14 80.3547 525.247 80.0773 525.289 79.768H527.449C527.407 80.472 527.199 81.0907 526.825 81.624C526.463 82.1467 525.977 82.5573 525.369 82.856C524.772 83.1547 524.089 83.304 523.321 83.304ZM532.687 83.112C531.887 83.112 531.226 83.0107 530.703 82.808C530.191 82.5947 529.807 82.2427 529.551 81.752C529.295 81.2507 529.167 80.5787 529.167 79.736L529.183 71.864H531.263L531.247 79.88C531.247 80.3067 531.359 80.6373 531.583 80.872C531.818 81.096 532.148 81.208 532.575 81.208H533.935V83.112H532.687ZM527.791 75.944V74.312H533.935V75.944H527.791ZM405.36 115.304C404.602 115.304 403.946 115.176 403.392 114.92C402.848 114.664 402.389 114.323 402.016 113.896C401.653 113.469 401.381 112.989 401.2 112.456C401.018 111.923 400.928 111.379 400.928 110.824V110.52C400.928 109.933 401.018 109.373 401.2 108.84C401.392 108.296 401.674 107.816 402.048 107.4C402.421 106.973 402.88 106.637 403.424 106.392C403.978 106.136 404.618 106.008 405.344 106.008C406.101 106.008 406.778 106.157 407.376 106.456C407.973 106.744 408.448 107.149 408.8 107.672C409.162 108.195 409.365 108.803 409.408 109.496H407.248C407.194 109.048 407.002 108.675 406.672 108.376C406.352 108.077 405.909 107.928 405.344 107.928C404.853 107.928 404.442 108.045 404.112 108.28C403.792 108.515 403.552 108.84 403.392 109.256C403.232 109.661 403.152 110.131 403.152 110.664C403.152 111.176 403.226 111.64 403.376 112.056C403.536 112.472 403.776 112.797 404.096 113.032C404.426 113.267 404.848 113.384 405.36 113.384C405.744 113.384 406.074 113.315 406.352 113.176C406.629 113.037 406.848 112.845 407.008 112.6C407.178 112.355 407.285 112.077 407.328 111.768H409.488C409.445 112.472 409.237 113.091 408.864 113.624C408.501 114.147 408.016 114.557 407.408 114.856C406.81 115.155 406.128 115.304 405.36 115.304ZM415.125 115.304C414.357 115.304 413.68 115.181 413.093 114.936C412.507 114.691 412.011 114.36 411.605 113.944C411.2 113.517 410.891 113.037 410.677 112.504C410.475 111.971 410.373 111.416 410.373 110.84V110.504C410.373 109.907 410.48 109.341 410.693 108.808C410.917 108.264 411.232 107.784 411.637 107.368C412.053 106.941 412.555 106.611 413.141 106.376C413.728 106.131 414.389 106.008 415.125 106.008C415.861 106.008 416.523 106.131 417.109 106.376C417.696 106.611 418.192 106.941 418.597 107.368C419.013 107.784 419.328 108.264 419.541 108.808C419.755 109.341 419.861 109.907 419.861 110.504V110.84C419.861 111.416 419.755 111.971 419.541 112.504C419.339 113.037 419.035 113.517 418.629 113.944C418.224 114.36 417.728 114.691 417.141 114.936C416.555 115.181 415.883 115.304 415.125 115.304ZM415.125 113.4C415.669 113.4 416.128 113.283 416.501 113.048C416.875 112.803 417.157 112.477 417.349 112.072C417.541 111.656 417.637 111.187 417.637 110.664C417.637 110.131 417.536 109.661 417.333 109.256C417.141 108.84 416.853 108.515 416.469 108.28C416.096 108.035 415.648 107.912 415.125 107.912C414.603 107.912 414.149 108.035 413.765 108.28C413.392 108.515 413.104 108.84 412.901 109.256C412.699 109.661 412.597 110.131 412.597 110.664C412.597 111.187 412.693 111.656 412.885 112.072C413.088 112.477 413.376 112.803 413.749 113.048C414.123 113.283 414.581 113.4 415.125 113.4ZM421.489 115V106.312H423.249V110.04H423.089C423.089 109.155 423.206 108.419 423.441 107.832C423.675 107.235 424.022 106.787 424.481 106.488C424.95 106.189 425.531 106.04 426.225 106.04H426.321C427.355 106.04 428.139 106.376 428.673 107.048C429.206 107.709 429.473 108.701 429.473 110.024V115H427.249V109.832C427.249 109.299 427.094 108.867 426.785 108.536C426.486 108.205 426.07 108.04 425.537 108.04C424.993 108.04 424.55 108.211 424.209 108.552C423.878 108.883 423.713 109.331 423.713 109.896V115H421.489ZM434.696 115.272C433.501 115.272 432.562 115.021 431.88 114.52C431.208 114.008 430.856 113.304 430.824 112.408H432.824C432.856 112.707 433.021 112.979 433.32 113.224C433.618 113.469 434.088 113.592 434.728 113.592C435.261 113.592 435.682 113.496 435.992 113.304C436.312 113.112 436.472 112.851 436.472 112.52C436.472 112.232 436.349 112.003 436.104 111.832C435.869 111.661 435.464 111.549 434.888 111.496L434.12 111.416C433.149 111.309 432.402 111.032 431.88 110.584C431.357 110.136 431.096 109.539 431.096 108.792C431.096 108.195 431.245 107.693 431.544 107.288C431.842 106.883 432.253 106.579 432.776 106.376C433.309 106.163 433.917 106.056 434.6 106.056C435.666 106.056 436.53 106.291 437.192 106.76C437.853 107.229 438.2 107.917 438.232 108.824H436.232C436.21 108.525 436.061 108.269 435.784 108.056C435.506 107.843 435.106 107.736 434.584 107.736C434.114 107.736 433.752 107.827 433.496 108.008C433.24 108.189 433.112 108.424 433.112 108.712C433.112 108.989 433.213 109.203 433.416 109.352C433.629 109.501 433.97 109.603 434.44 109.656L435.208 109.736C436.232 109.843 437.032 110.125 437.608 110.584C438.194 111.043 438.488 111.661 438.488 112.44C438.488 113.016 438.328 113.517 438.008 113.944C437.698 114.36 437.261 114.685 436.696 114.92C436.13 115.155 435.464 115.272 434.696 115.272ZM442.965 115.272C441.962 115.272 441.184 114.941 440.629 114.28C440.085 113.619 439.813 112.637 439.813 111.336V106.296H442.037V111.528C442.037 112.061 442.186 112.488 442.485 112.808C442.784 113.117 443.189 113.272 443.701 113.272C444.213 113.272 444.629 113.107 444.949 112.776C445.28 112.445 445.445 111.997 445.445 111.432V106.296H447.669V115H445.909V111.304H446.085C446.085 112.179 445.973 112.909 445.749 113.496C445.525 114.083 445.189 114.525 444.741 114.824C444.293 115.123 443.733 115.272 443.061 115.272H442.965ZM449.904 115V106.312H451.664V110.04H451.504C451.504 109.165 451.616 108.435 451.84 107.848C452.064 107.251 452.394 106.803 452.832 106.504C453.28 106.195 453.834 106.04 454.496 106.04H454.592C455.264 106.04 455.818 106.195 456.256 106.504C456.704 106.803 457.034 107.251 457.248 107.848C457.472 108.435 457.584 109.165 457.584 110.04H457.024C457.024 109.165 457.136 108.435 457.36 107.848C457.594 107.251 457.93 106.803 458.368 106.504C458.816 106.195 459.37 106.04 460.032 106.04H460.128C460.8 106.04 461.36 106.195 461.808 106.504C462.256 106.803 462.592 107.251 462.816 107.848C463.05 108.435 463.168 109.165 463.168 110.04V115H460.944V109.832C460.944 109.288 460.805 108.856 460.528 108.536C460.25 108.205 459.856 108.04 459.344 108.04C458.832 108.04 458.421 108.211 458.112 108.552C457.802 108.883 457.648 109.331 457.648 109.896V115H455.424V109.832C455.424 109.288 455.285 108.856 455.008 108.536C454.73 108.205 454.336 108.04 453.824 108.04C453.312 108.04 452.901 108.211 452.592 108.552C452.282 108.883 452.128 109.331 452.128 109.896V115H449.904ZM469.112 115.304C468.366 115.304 467.71 115.176 467.144 114.92C466.59 114.664 466.126 114.323 465.752 113.896C465.39 113.459 465.112 112.973 464.92 112.44C464.739 111.907 464.648 111.363 464.648 110.808V110.504C464.648 109.928 464.739 109.373 464.92 108.84C465.112 108.296 465.39 107.816 465.752 107.4C466.126 106.973 466.584 106.637 467.128 106.392C467.672 106.136 468.302 106.008 469.016 106.008C469.955 106.008 470.739 106.216 471.368 106.632C472.008 107.037 472.488 107.576 472.808 108.248C473.128 108.909 473.288 109.624 473.288 110.392V111.192H465.592V109.832H471.896L471.208 110.504C471.208 109.949 471.128 109.475 470.968 109.08C470.808 108.685 470.563 108.381 470.232 108.168C469.912 107.955 469.507 107.848 469.016 107.848C468.526 107.848 468.11 107.96 467.768 108.184C467.427 108.408 467.166 108.733 466.984 109.16C466.814 109.576 466.728 110.077 466.728 110.664C466.728 111.208 466.814 111.693 466.984 112.12C467.155 112.536 467.416 112.867 467.768 113.112C468.12 113.347 468.568 113.464 469.112 113.464C469.656 113.464 470.099 113.357 470.44 113.144C470.782 112.92 471 112.648 471.096 112.328H473.144C473.016 112.925 472.771 113.448 472.408 113.896C472.046 114.344 471.582 114.691 471.016 114.936C470.462 115.181 469.827 115.304 469.112 115.304ZM474.826 115V106.312H476.586V109.992H476.538C476.538 108.744 476.805 107.8 477.338 107.16C477.872 106.52 478.656 106.2 479.69 106.2H480.01V108.136H479.402C478.656 108.136 478.074 108.339 477.658 108.744C477.253 109.139 477.05 109.715 477.05 110.472V115H474.826ZM487.463 115.272C486.269 115.272 485.33 115.021 484.647 114.52C483.975 114.008 483.623 113.304 483.591 112.408H485.591C485.623 112.707 485.789 112.979 486.087 113.224C486.386 113.469 486.855 113.592 487.495 113.592C488.029 113.592 488.45 113.496 488.759 113.304C489.079 113.112 489.239 112.851 489.239 112.52C489.239 112.232 489.117 112.003 488.871 111.832C488.637 111.661 488.231 111.549 487.655 111.496L486.887 111.416C485.917 111.309 485.17 111.032 484.647 110.584C484.125 110.136 483.863 109.539 483.863 108.792C483.863 108.195 484.013 107.693 484.311 107.288C484.61 106.883 485.021 106.579 485.543 106.376C486.077 106.163 486.685 106.056 487.367 106.056C488.434 106.056 489.298 106.291 489.959 106.76C490.621 107.229 490.967 107.917 490.999 108.824H488.999C488.978 108.525 488.829 108.269 488.551 108.056C488.274 107.843 487.874 107.736 487.351 107.736C486.882 107.736 486.519 107.827 486.263 108.008C486.007 108.189 485.879 108.424 485.879 108.712C485.879 108.989 485.981 109.203 486.183 109.352C486.397 109.501 486.738 109.603 487.207 109.656L487.975 109.736C488.999 109.843 489.799 110.125 490.375 110.584C490.962 111.043 491.255 111.661 491.255 112.44C491.255 113.016 491.095 113.517 490.775 113.944C490.466 114.36 490.029 114.685 489.463 114.92C488.898 115.155 488.231 115.272 487.463 115.272ZM492.772 118.2V106.312H494.532V110.056L494.26 110.04C494.303 109.155 494.484 108.413 494.804 107.816C495.135 107.219 495.572 106.776 496.116 106.488C496.66 106.189 497.268 106.04 497.94 106.04C498.559 106.04 499.114 106.152 499.604 106.376C500.106 106.6 500.532 106.915 500.884 107.32C501.247 107.725 501.524 108.2 501.716 108.744C501.908 109.277 502.004 109.853 502.004 110.472V110.808C502.004 111.437 501.908 112.024 501.716 112.568C501.535 113.101 501.263 113.576 500.9 113.992C500.548 114.397 500.122 114.717 499.62 114.952C499.119 115.176 498.559 115.288 497.94 115.288C497.29 115.288 496.692 115.155 496.148 114.888C495.615 114.611 495.183 114.189 494.852 113.624C494.522 113.048 494.335 112.307 494.292 111.4L494.996 112.472V118.2H492.772ZM497.38 113.416C497.86 113.416 498.276 113.299 498.628 113.064C498.991 112.829 499.274 112.504 499.476 112.088C499.679 111.661 499.78 111.181 499.78 110.648C499.78 110.093 499.679 109.613 499.476 109.208C499.274 108.803 498.991 108.488 498.628 108.264C498.276 108.029 497.86 107.912 497.38 107.912C496.943 107.912 496.538 108.008 496.164 108.2C495.802 108.392 495.503 108.675 495.268 109.048C495.044 109.421 494.932 109.869 494.932 110.392V111.032C494.932 111.533 495.05 111.96 495.284 112.312C495.519 112.664 495.823 112.936 496.196 113.128C496.57 113.32 496.964 113.416 497.38 113.416ZM507.528 115.304C506.781 115.304 506.125 115.176 505.56 114.92C505.005 114.664 504.541 114.323 504.168 113.896C503.805 113.459 503.528 112.973 503.336 112.44C503.155 111.907 503.064 111.363 503.064 110.808V110.504C503.064 109.928 503.155 109.373 503.336 108.84C503.528 108.296 503.805 107.816 504.168 107.4C504.541 106.973 505 106.637 505.544 106.392C506.088 106.136 506.717 106.008 507.432 106.008C508.371 106.008 509.155 106.216 509.784 106.632C510.424 107.037 510.904 107.576 511.224 108.248C511.544 108.909 511.704 109.624 511.704 110.392V111.192H504.008V109.832H510.312L509.624 110.504C509.624 109.949 509.544 109.475 509.384 109.08C509.224 108.685 508.979 108.381 508.648 108.168C508.328 107.955 507.923 107.848 507.432 107.848C506.941 107.848 506.525 107.96 506.184 108.184C505.843 108.408 505.581 108.733 505.4 109.16C505.229 109.576 505.144 110.077 505.144 110.664C505.144 111.208 505.229 111.693 505.4 112.12C505.571 112.536 505.832 112.867 506.184 113.112C506.536 113.347 506.984 113.464 507.528 113.464C508.072 113.464 508.515 113.357 508.856 113.144C509.197 112.92 509.416 112.648 509.512 112.328H511.56C511.432 112.925 511.187 113.448 510.824 113.896C510.461 114.344 509.997 114.691 509.432 114.936C508.877 115.181 508.243 115.304 507.528 115.304ZM513.242 115V106.312H515.002V110.04H514.842C514.842 109.155 514.959 108.419 515.194 107.832C515.428 107.235 515.775 106.787 516.234 106.488C516.703 106.189 517.284 106.04 517.978 106.04H518.074C519.108 106.04 519.892 106.376 520.426 107.048C520.959 107.709 521.226 108.701 521.226 110.024V115H519.002V109.832C519.002 109.299 518.847 108.867 518.538 108.536C518.239 108.205 517.823 108.04 517.29 108.04C516.746 108.04 516.303 108.211 515.962 108.552C515.631 108.883 515.466 109.331 515.466 109.896V115H513.242ZM526.897 115.288C526.289 115.288 525.729 115.176 525.217 114.952C524.705 114.728 524.262 114.413 523.889 114.008C523.515 113.603 523.227 113.133 523.025 112.6C522.822 112.056 522.721 111.469 522.721 110.84V110.504C522.721 109.885 522.817 109.304 523.009 108.76C523.211 108.216 523.489 107.741 523.841 107.336C524.203 106.931 524.635 106.616 525.137 106.392C525.649 106.157 526.214 106.04 526.833 106.04C527.515 106.04 528.113 106.189 528.625 106.488C529.147 106.776 529.563 107.213 529.873 107.8C530.182 108.387 530.353 109.123 530.385 110.008L529.729 109.24V103.32H531.953V115H530.193V111.304H530.577C530.545 112.189 530.363 112.931 530.033 113.528C529.702 114.115 529.265 114.557 528.721 114.856C528.187 115.144 527.579 115.288 526.897 115.288ZM527.393 113.416C527.83 113.416 528.23 113.32 528.593 113.128C528.955 112.925 529.243 112.637 529.457 112.264C529.681 111.88 529.793 111.432 529.793 110.92V110.28C529.793 109.768 529.681 109.341 529.457 109C529.233 108.648 528.939 108.381 528.577 108.2C528.214 108.008 527.819 107.912 527.393 107.912C526.913 107.912 526.486 108.029 526.113 108.264C525.75 108.488 525.462 108.808 525.249 109.224C525.046 109.64 524.945 110.125 524.945 110.68C524.945 111.235 525.051 111.72 525.265 112.136C525.478 112.541 525.766 112.856 526.129 113.08C526.502 113.304 526.923 113.416 527.393 113.416ZM534.58 115V106.312H536.804V115H534.58ZM533.364 107.976V106.312H536.804V107.976H533.364ZM535.396 105.272C534.959 105.272 534.634 105.16 534.42 104.936C534.218 104.701 534.116 104.413 534.116 104.072C534.116 103.709 534.218 103.416 534.42 103.192C534.634 102.968 534.959 102.856 535.396 102.856C535.834 102.856 536.154 102.968 536.356 103.192C536.559 103.416 536.66 103.709 536.66 104.072C536.66 104.413 536.559 104.701 536.356 104.936C536.154 105.16 535.834 105.272 535.396 105.272ZM539.047 115V106.312H540.807V110.04H540.647C540.647 109.155 540.765 108.419 540.999 107.832C541.234 107.235 541.581 106.787 542.039 106.488C542.509 106.189 543.09 106.04 543.783 106.04H543.879C544.914 106.04 545.698 106.376 546.231 107.048C546.765 107.709 547.031 108.701 547.031 110.024V115H544.807V109.832C544.807 109.299 544.653 108.867 544.343 108.536C544.045 108.205 543.629 108.04 543.095 108.04C542.551 108.04 542.109 108.211 541.767 108.552C541.437 108.883 541.271 109.331 541.271 109.896V115H539.047ZM552.494 118.424C552.078 118.424 551.652 118.408 551.214 118.376C550.788 118.344 550.388 118.301 550.014 118.248V116.392C550.398 116.435 550.809 116.472 551.246 116.504C551.684 116.547 552.094 116.568 552.478 116.568C553.193 116.568 553.769 116.483 554.206 116.312C554.654 116.141 554.98 115.869 555.182 115.496C555.396 115.133 555.502 114.669 555.502 114.104V112.392L555.982 111.304C555.95 112.104 555.785 112.787 555.486 113.352C555.188 113.907 554.782 114.333 554.27 114.632C553.758 114.92 553.166 115.064 552.494 115.064C551.897 115.064 551.353 114.952 550.862 114.728C550.382 114.504 549.966 114.195 549.614 113.8C549.273 113.405 549.006 112.941 548.814 112.408C548.622 111.875 548.526 111.304 548.526 110.696V110.36C548.526 109.752 548.622 109.187 548.814 108.664C549.017 108.131 549.3 107.667 549.662 107.272C550.025 106.877 550.457 106.573 550.958 106.36C551.46 106.147 552.014 106.04 552.622 106.04C553.337 106.04 553.956 106.195 554.478 106.504C555.012 106.813 555.428 107.261 555.726 107.848C556.025 108.435 556.19 109.155 556.222 110.008L555.838 110.072V106.312H557.598V113.976C557.598 115.032 557.417 115.885 557.054 116.536C556.692 117.187 556.132 117.661 555.374 117.96C554.628 118.269 553.668 118.424 552.494 118.424ZM553.134 113.16C553.561 113.16 553.95 113.064 554.302 112.872C554.654 112.68 554.937 112.403 555.15 112.04C555.364 111.677 555.47 111.24 555.47 110.728V110.168C555.47 109.677 555.358 109.261 555.134 108.92C554.921 108.579 554.638 108.323 554.286 108.152C553.934 107.971 553.55 107.88 553.134 107.88C552.665 107.88 552.249 107.992 551.886 108.216C551.534 108.429 551.257 108.733 551.054 109.128C550.852 109.523 550.75 109.992 550.75 110.536C550.75 111.069 550.852 111.533 551.054 111.928C551.257 112.323 551.534 112.627 551.886 112.84C552.249 113.053 552.665 113.16 553.134 113.16Z" fill="white"/>
<path d="M447.232 15.048C446.229 15.048 445.387 14.8987 444.704 14.6C444.032 14.2907 443.52 13.8587 443.168 13.304C442.827 12.7387 442.656 12.072 442.656 11.304H444.704C444.704 11.6347 444.789 11.9493 444.96 12.248C445.131 12.5467 445.397 12.792 445.76 12.984C446.133 13.1653 446.624 13.256 447.232 13.256C448.032 13.256 448.64 13.1013 449.056 12.792C449.472 12.4827 449.68 12.0987 449.68 11.64C449.68 11.224 449.499 10.8773 449.136 10.6C448.784 10.3227 448.235 10.152 447.488 10.088L446.592 10.008C445.493 9.90133 444.619 9.57067 443.968 9.016C443.317 8.45067 442.992 7.65067 442.992 6.616C442.992 5.90133 443.152 5.29867 443.472 4.808C443.803 4.31733 444.272 3.94933 444.88 3.704C445.499 3.448 446.229 3.32 447.072 3.32C447.947 3.32 448.688 3.464 449.296 3.752C449.915 4.04 450.384 4.456 450.704 5C451.035 5.53333 451.2 6.184 451.2 6.952H449.152C449.152 6.62133 449.072 6.31733 448.912 6.04C448.763 5.76267 448.533 5.53867 448.224 5.368C447.925 5.19733 447.541 5.112 447.072 5.112C446.645 5.112 446.283 5.176 445.984 5.304C445.685 5.432 445.456 5.608 445.296 5.832C445.136 6.056 445.056 6.31733 445.056 6.616C445.056 6.98933 445.189 7.32 445.456 7.608C445.733 7.896 446.176 8.06667 446.784 8.12L447.68 8.2C448.907 8.30667 449.888 8.648 450.624 9.224C451.371 9.8 451.744 10.6053 451.744 11.64C451.744 12.3547 451.563 12.968 451.2 13.48C450.848 13.9813 450.336 14.3707 449.664 14.648C448.992 14.9147 448.181 15.048 447.232 15.048ZM446.256 17.064V14.728H448.112V17.064H446.256ZM446.192 4.104V1.768H448.048V4.104H446.192ZM453.142 15V12.76C453.142 12.2693 453.217 11.8427 453.366 11.48C453.526 11.1173 453.782 10.7973 454.134 10.52C454.497 10.232 454.971 9.96 455.558 9.704L457.542 8.824C458.033 8.6 458.406 8.328 458.662 8.008C458.929 7.67733 459.062 7.256 459.062 6.744C459.062 6.17867 458.891 5.73067 458.55 5.4C458.219 5.05867 457.745 4.888 457.126 4.888C456.507 4.888 456.027 5.05867 455.686 5.4C455.355 5.74133 455.19 6.216 455.19 6.824H452.998C452.998 6.09867 453.153 5.448 453.462 4.872C453.771 4.28533 454.23 3.82667 454.838 3.496C455.446 3.15467 456.209 2.984 457.126 2.984C458.043 2.984 458.806 3.14933 459.414 3.48C460.022 3.81067 460.481 4.25333 460.79 4.808C461.099 5.352 461.254 5.96 461.254 6.632V6.84C461.254 7.71467 461.009 8.44533 460.518 9.032C460.027 9.608 459.307 10.1093 458.358 10.536L456.374 11.416C456.001 11.576 455.739 11.7467 455.59 11.928C455.441 12.0987 455.366 12.3333 455.366 12.632V13.656L454.822 13.064H461.302V15H453.142ZM466.981 15.304C466.064 15.304 465.274 15.1227 464.613 14.76C463.962 14.3973 463.461 13.9173 463.109 13.32C462.768 12.712 462.597 12.0507 462.597 11.336H464.789C464.789 11.7413 464.88 12.0987 465.061 12.408C465.253 12.7173 465.514 12.9627 465.845 13.144C466.176 13.3147 466.56 13.4 466.997 13.4C467.456 13.4 467.85 13.304 468.181 13.112C468.512 12.92 468.762 12.6587 468.933 12.328C469.114 11.9973 469.205 11.6187 469.205 11.192C469.205 10.776 469.114 10.4027 468.933 10.072C468.762 9.73067 468.512 9.464 468.181 9.272C467.861 9.06933 467.472 8.968 467.013 8.968C466.629 8.968 466.266 9.04267 465.925 9.192C465.584 9.34133 465.317 9.53867 465.125 9.784H463.029L463.621 3.32H470.389V5.256H464.613L465.413 4.632L465.029 8.664L464.485 8.504C464.794 8.152 465.173 7.85867 465.621 7.624C466.069 7.38933 466.634 7.272 467.317 7.272C468.181 7.272 468.917 7.448 469.525 7.8C470.133 8.152 470.597 8.62133 470.917 9.208C471.237 9.784 471.397 10.4133 471.397 11.096V11.304C471.397 11.9973 471.226 12.648 470.885 13.256C470.544 13.864 470.042 14.36 469.381 14.744C468.73 15.1173 467.93 15.304 466.981 15.304ZM472.497 11.48V9.528H478.977V11.48H472.497ZM484.702 15.048C483.699 15.048 482.857 14.8987 482.174 14.6C481.502 14.2907 480.99 13.8587 480.638 13.304C480.297 12.7387 480.126 12.072 480.126 11.304H482.174C482.174 11.6347 482.259 11.9493 482.43 12.248C482.601 12.5467 482.867 12.792 483.23 12.984C483.603 13.1653 484.094 13.256 484.702 13.256C485.502 13.256 486.11 13.1013 486.526 12.792C486.942 12.4827 487.15 12.0987 487.15 11.64C487.15 11.224 486.969 10.8773 486.606 10.6C486.254 10.3227 485.705 10.152 484.958 10.088L484.062 10.008C482.963 9.90133 482.089 9.57067 481.438 9.016C480.787 8.45067 480.462 7.65067 480.462 6.616C480.462 5.90133 480.622 5.29867 480.942 4.808C481.273 4.31733 481.742 3.94933 482.35 3.704C482.969 3.448 483.699 3.32 484.542 3.32C485.417 3.32 486.158 3.464 486.766 3.752C487.385 4.04 487.854 4.456 488.174 5C488.505 5.53333 488.67 6.184 488.67 6.952H486.622C486.622 6.62133 486.542 6.31733 486.382 6.04C486.233 5.76267 486.003 5.53867 485.694 5.368C485.395 5.19733 485.011 5.112 484.542 5.112C484.115 5.112 483.753 5.176 483.454 5.304C483.155 5.432 482.926 5.608 482.766 5.832C482.606 6.056 482.526 6.31733 482.526 6.616C482.526 6.98933 482.659 7.32 482.926 7.608C483.203 7.896 483.646 8.06667 484.254 8.12L485.15 8.2C486.377 8.30667 487.358 8.648 488.094 9.224C488.841 9.8 489.214 10.6053 489.214 11.64C489.214 12.3547 489.033 12.968 488.67 13.48C488.318 13.9813 487.806 14.3707 487.134 14.648C486.462 14.9147 485.651 15.048 484.702 15.048ZM483.726 17.064V14.728H485.582V17.064H483.726ZM483.662 4.104V1.768H485.518V4.104H483.662ZM492.532 15V4.728L493.236 5.272H490.148V3.32H494.788V15H492.532ZM497.089 15V12.76C497.089 12.2693 497.163 11.8427 497.313 11.48C497.473 11.1173 497.729 10.7973 498.081 10.52C498.443 10.232 498.918 9.96 499.505 9.704L501.489 8.824C501.979 8.6 502.353 8.328 502.609 8.008C502.875 7.67733 503.009 7.256 503.009 6.744C503.009 6.17867 502.838 5.73067 502.497 5.4C502.166 5.05867 501.691 4.888 501.073 4.888C500.454 4.888 499.974 5.05867 499.633 5.4C499.302 5.74133 499.137 6.216 499.137 6.824H496.945C496.945 6.09867 497.099 5.448 497.409 4.872C497.718 4.28533 498.177 3.82667 498.785 3.496C499.393 3.15467 500.155 2.984 501.073 2.984C501.99 2.984 502.753 3.14933 503.361 3.48C503.969 3.81067 504.427 4.25333 504.737 4.808C505.046 5.352 505.201 5.96 505.201 6.632V6.84C505.201 7.71467 504.955 8.44533 504.465 9.032C503.974 9.608 503.254 10.1093 502.305 10.536L500.321 11.416C499.947 11.576 499.686 11.7467 499.537 11.928C499.387 12.0987 499.313 12.3333 499.313 12.632V13.656L498.769 13.064H505.249V15H497.089ZM510.928 15.304C510.011 15.304 509.221 15.1227 508.56 14.76C507.909 14.3973 507.408 13.9173 507.056 13.32C506.715 12.712 506.544 12.0507 506.544 11.336H508.736C508.736 11.7413 508.827 12.0987 509.008 12.408C509.2 12.7173 509.461 12.9627 509.792 13.144C510.123 13.3147 510.507 13.4 510.944 13.4C511.403 13.4 511.797 13.304 512.128 13.112C512.459 12.92 512.709 12.6587 512.88 12.328C513.061 11.9973 513.152 11.6187 513.152 11.192C513.152 10.776 513.061 10.4027 512.88 10.072C512.709 9.73067 512.459 9.464 512.128 9.272C511.808 9.06933 511.419 8.968 510.96 8.968C510.576 8.968 510.213 9.04267 509.872 9.192C509.531 9.34133 509.264 9.53867 509.072 9.784H506.976L507.568 3.32H514.336V5.256H508.56L509.36 4.632L508.976 8.664L508.432 8.504C508.741 8.152 509.12 7.85867 509.568 7.624C510.016 7.38933 510.581 7.272 511.264 7.272C512.128 7.272 512.864 7.448 513.472 7.8C514.08 8.152 514.544 8.62133 514.864 9.208C515.184 9.784 515.344 10.4133 515.344 11.096V11.304C515.344 11.9973 515.173 12.648 514.832 13.256C514.491 13.864 513.989 14.36 513.328 14.744C512.677 15.1173 511.877 15.304 510.928 15.304Z" fill="white"/>
<rect x="431" y="30" width="96" height="5" fill="white"/>
<path d="M789.784 83V73H792.056V83H789.784ZM786.408 73.32V71.32H795.432V73.32H786.408ZM796.749 83V71.32H798.973V78.136H798.589C798.589 77.2613 798.701 76.52 798.925 75.912C799.149 75.304 799.48 74.84 799.917 74.52C800.365 74.2 800.931 74.04 801.613 74.04H801.709C802.701 74.04 803.453 74.3813 803.965 75.064C804.477 75.7467 804.733 76.7387 804.733 78.04V83H802.509V77.832C802.509 77.2773 802.349 76.84 802.029 76.52C801.72 76.2 801.309 76.04 800.797 76.04C800.253 76.04 799.811 76.2213 799.469 76.584C799.139 76.936 798.973 77.4 798.973 77.976V83H796.749ZM812.068 83V80.424H811.7V77.56C811.7 77.0587 811.578 76.6853 811.332 76.44C811.087 76.1947 810.708 76.072 810.196 76.072C809.93 76.072 809.61 76.0773 809.236 76.088C808.863 76.0987 808.484 76.1147 808.1 76.136C807.727 76.1467 807.391 76.1627 807.092 76.184V74.296C807.338 74.2747 807.615 74.2533 807.924 74.232C808.234 74.2107 808.548 74.2 808.868 74.2C809.199 74.1893 809.508 74.184 809.796 74.184C810.692 74.184 811.434 74.3013 812.02 74.536C812.618 74.7707 813.066 75.1387 813.364 75.64C813.674 76.1413 813.828 76.7973 813.828 77.608V83H812.068ZM809.268 83.224C808.639 83.224 808.084 83.112 807.604 82.888C807.135 82.664 806.767 82.344 806.5 81.928C806.244 81.512 806.116 81.0107 806.116 80.424C806.116 79.784 806.271 79.2613 806.58 78.856C806.9 78.4507 807.343 78.1467 807.908 77.944C808.484 77.7413 809.156 77.64 809.924 77.64H811.94V78.968H809.892C809.38 78.968 808.986 79.096 808.708 79.352C808.442 79.5973 808.308 79.9173 808.308 80.312C808.308 80.7067 808.442 81.0267 808.708 81.272C808.986 81.5173 809.38 81.64 809.892 81.64C810.202 81.64 810.484 81.5867 810.74 81.48C811.007 81.3627 811.226 81.1707 811.396 80.904C811.578 80.6267 811.679 80.2533 811.7 79.784L812.244 80.408C812.191 81.016 812.042 81.528 811.796 81.944C811.562 82.36 811.231 82.68 810.804 82.904C810.388 83.1173 809.876 83.224 809.268 83.224ZM819.667 83.112C818.867 83.112 818.205 83.0107 817.683 82.808C817.171 82.5947 816.787 82.2427 816.531 81.752C816.275 81.2507 816.147 80.5787 816.147 79.736L816.163 71.864H818.243L818.227 79.88C818.227 80.3067 818.339 80.6373 818.563 80.872C818.797 81.096 819.128 81.208 819.555 81.208H820.915V83.112H819.667ZM814.771 75.944V74.312H820.915V75.944H814.771ZM826.01 83V74.312H828.234V83H826.01ZM824.794 75.976V74.312H828.234V75.976H824.794ZM826.826 73.272C826.389 73.272 826.064 73.16 825.85 72.936C825.648 72.7013 825.546 72.4133 825.546 72.072C825.546 71.7093 825.648 71.416 825.85 71.192C826.064 70.968 826.389 70.856 826.826 70.856C827.264 70.856 827.584 70.968 827.786 71.192C827.989 71.416 828.09 71.7093 828.09 72.072C828.09 72.4133 827.989 72.7013 827.786 72.936C827.584 73.16 827.264 73.272 826.826 73.272ZM833.629 83.272C832.435 83.272 831.496 83.0213 830.813 82.52C830.141 82.008 829.789 81.304 829.757 80.408H831.757C831.789 80.7067 831.955 80.9787 832.253 81.224C832.552 81.4693 833.021 81.592 833.661 81.592C834.195 81.592 834.616 81.496 834.925 81.304C835.245 81.112 835.405 80.8507 835.405 80.52C835.405 80.232 835.283 80.0027 835.037 79.832C834.803 79.6613 834.397 79.5493 833.821 79.496L833.053 79.416C832.083 79.3093 831.336 79.032 830.813 78.584C830.291 78.136 830.029 77.5387 830.029 76.792C830.029 76.1947 830.179 75.6933 830.477 75.288C830.776 74.8827 831.187 74.5787 831.709 74.376C832.243 74.1627 832.851 74.056 833.533 74.056C834.6 74.056 835.464 74.2907 836.125 74.76C836.787 75.2293 837.133 75.9173 837.165 76.824H835.165C835.144 76.5253 834.995 76.2693 834.717 76.056C834.44 75.8427 834.04 75.736 833.517 75.736C833.048 75.736 832.685 75.8267 832.429 76.008C832.173 76.1893 832.045 76.424 832.045 76.712C832.045 76.9893 832.147 77.2027 832.349 77.352C832.563 77.5013 832.904 77.6027 833.373 77.656L834.141 77.736C835.165 77.8427 835.965 78.1253 836.541 78.584C837.128 79.0427 837.421 79.6613 837.421 80.44C837.421 81.016 837.261 81.5173 836.941 81.944C836.632 82.36 836.195 82.6853 835.629 82.92C835.064 83.1547 834.397 83.272 833.629 83.272ZM846.04 83.048C845.037 83.048 844.194 82.8987 843.512 82.6C842.84 82.2907 842.328 81.8587 841.976 81.304C841.634 80.7387 841.464 80.072 841.464 79.304H843.512C843.512 79.6347 843.597 79.9493 843.768 80.248C843.938 80.5467 844.205 80.792 844.568 80.984C844.941 81.1653 845.432 81.256 846.04 81.256C846.84 81.256 847.448 81.1013 847.864 80.792C848.28 80.4827 848.488 80.0987 848.488 79.64C848.488 79.224 848.306 78.8773 847.944 78.6C847.592 78.3227 847.042 78.152 846.296 78.088L845.4 78.008C844.301 77.9013 843.426 77.5707 842.776 77.016C842.125 76.4507 841.8 75.6507 841.8 74.616C841.8 73.9013 841.96 73.2987 842.28 72.808C842.61 72.3173 843.08 71.9493 843.688 71.704C844.306 71.448 845.037 71.32 845.88 71.32C846.754 71.32 847.496 71.464 848.104 71.752C848.722 72.04 849.192 72.456 849.512 73C849.842 73.5333 850.008 74.184 850.008 74.952H847.96C847.96 74.6213 847.88 74.3173 847.72 74.04C847.57 73.7627 847.341 73.5387 847.032 73.368C846.733 73.1973 846.349 73.112 845.88 73.112C845.453 73.112 845.09 73.176 844.792 73.304C844.493 73.432 844.264 73.608 844.104 73.832C843.944 74.056 843.864 74.3173 843.864 74.616C843.864 74.9893 843.997 75.32 844.264 75.608C844.541 75.896 844.984 76.0667 845.592 76.12L846.488 76.2C847.714 76.3067 848.696 76.648 849.432 77.224C850.178 77.8 850.552 78.6053 850.552 79.64C850.552 80.3547 850.37 80.968 850.008 81.48C849.656 81.9813 849.144 82.3707 848.472 82.648C847.8 82.9147 846.989 83.048 846.04 83.048ZM845.064 85.064V82.728H846.92V85.064H845.064ZM845 72.104V69.768H846.856V72.104H845ZM851.95 83V80.76C851.95 80.2693 852.024 79.8427 852.174 79.48C852.334 79.1173 852.59 78.7973 852.942 78.52C853.304 78.232 853.779 77.96 854.366 77.704L856.35 76.824C856.84 76.6 857.214 76.328 857.47 76.008C857.736 75.6773 857.87 75.256 857.87 74.744C857.87 74.1787 857.699 73.7307 857.358 73.4C857.027 73.0587 856.552 72.888 855.934 72.888C855.315 72.888 854.835 73.0587 854.494 73.4C854.163 73.7413 853.998 74.216 853.998 74.824H851.806C851.806 74.0987 851.96 73.448 852.27 72.872C852.579 72.2853 853.038 71.8267 853.646 71.496C854.254 71.1547 855.016 70.984 855.934 70.984C856.851 70.984 857.614 71.1493 858.222 71.48C858.83 71.8107 859.288 72.2533 859.598 72.808C859.907 73.352 860.062 73.96 860.062 74.632V74.84C860.062 75.7147 859.816 76.4453 859.326 77.032C858.835 77.608 858.115 78.1093 857.166 78.536L855.182 79.416C854.808 79.576 854.547 79.7467 854.398 79.928C854.248 80.0987 854.174 80.3333 854.174 80.632V81.656L853.63 81.064H860.11V83H851.95ZM867.098 83.08V81.256H870.026C870.559 81.256 870.965 81.112 871.242 80.824C871.519 80.5253 871.658 80.12 871.658 79.608C871.658 79.096 871.519 78.7013 871.242 78.424C870.965 78.136 870.559 77.992 870.026 77.992H867.098V76.6H869.866C870.645 76.6 871.338 76.696 871.946 76.888C872.565 77.0693 873.045 77.3787 873.386 77.816C873.738 78.2533 873.914 78.84 873.914 79.576V79.8C873.914 80.4933 873.759 81.0853 873.45 81.576C873.151 82.056 872.698 82.4293 872.09 82.696C871.493 82.952 870.751 83.08 869.866 83.08H867.098ZM865.194 83.08V71.24H867.418V83.08H865.194ZM867.098 77.624V76.232H869.594C870.138 76.232 870.538 76.088 870.794 75.8C871.05 75.512 871.178 75.128 871.178 74.648C871.178 74.168 871.05 73.784 870.794 73.496C870.538 73.208 870.138 73.064 869.594 73.064H867.098V71.24H869.386C870.709 71.24 871.711 71.5173 872.394 72.072C873.087 72.6267 873.434 73.4213 873.434 74.456V74.68C873.434 75.4053 873.258 75.9867 872.906 76.424C872.565 76.8507 872.09 77.16 871.482 77.352C870.874 77.5333 870.175 77.624 869.386 77.624H867.098ZM876.13 83V74.312H878.354V83H876.13ZM874.914 75.976V74.312H878.354V75.976H874.914ZM876.946 73.272C876.508 73.272 876.183 73.16 875.97 72.936C875.767 72.7013 875.666 72.4133 875.666 72.072C875.666 71.7093 875.767 71.416 875.97 71.192C876.183 70.968 876.508 70.856 876.946 70.856C877.383 70.856 877.703 70.968 877.906 71.192C878.108 71.416 878.21 71.7093 878.21 72.072C878.21 72.4133 878.108 72.7013 877.906 72.936C877.703 73.16 877.383 73.272 876.946 73.272ZM880.709 83V71.32H882.933V83H880.709ZM879.621 72.984V71.32H882.933V72.984H879.621ZM885.264 83V71.32H887.488V83H885.264ZM884.176 72.984V71.32H887.488V72.984H884.176ZM890.123 83V74.312H892.347V83H890.123ZM888.907 75.976V74.312H892.347V75.976H888.907ZM890.939 73.272C890.501 73.272 890.176 73.16 889.963 72.936C889.76 72.7013 889.659 72.4133 889.659 72.072C889.659 71.7093 889.76 71.416 889.963 71.192C890.176 70.968 890.501 70.856 890.939 70.856C891.376 70.856 891.696 70.968 891.899 71.192C892.101 71.416 892.203 71.7093 892.203 72.072C892.203 72.4133 892.101 72.7013 891.899 72.936C891.696 73.16 891.376 73.272 890.939 73.272ZM898.766 83.304C897.998 83.304 897.321 83.1813 896.734 82.936C896.147 82.6907 895.651 82.36 895.246 81.944C894.841 81.5173 894.531 81.0373 894.318 80.504C894.115 79.9707 894.014 79.416 894.014 78.84V78.504C894.014 77.9067 894.121 77.3413 894.334 76.808C894.558 76.264 894.873 75.784 895.278 75.368C895.694 74.9413 896.195 74.6107 896.782 74.376C897.369 74.1307 898.03 74.008 898.766 74.008C899.502 74.008 900.163 74.1307 900.75 74.376C901.337 74.6107 901.833 74.9413 902.238 75.368C902.654 75.784 902.969 76.264 903.182 76.808C903.395 77.3413 903.502 77.9067 903.502 78.504V78.84C903.502 79.416 903.395 79.9707 903.182 80.504C902.979 81.0373 902.675 81.5173 902.27 81.944C901.865 82.36 901.369 82.6907 900.782 82.936C900.195 83.1813 899.523 83.304 898.766 83.304ZM898.766 81.4C899.31 81.4 899.769 81.2827 900.142 81.048C900.515 80.8027 900.798 80.4773 900.99 80.072C901.182 79.656 901.278 79.1867 901.278 78.664C901.278 78.1307 901.177 77.6613 900.974 77.256C900.782 76.84 900.494 76.5147 900.11 76.28C899.737 76.0347 899.289 75.912 898.766 75.912C898.243 75.912 897.79 76.0347 897.406 76.28C897.033 76.5147 896.745 76.84 896.542 77.256C896.339 77.6613 896.238 78.1307 896.238 78.664C896.238 79.1867 896.334 79.656 896.526 80.072C896.729 80.4773 897.017 80.8027 897.39 81.048C897.763 81.2827 898.222 81.4 898.766 81.4ZM905.129 83V74.312H906.889V78.04H906.729C906.729 77.1547 906.847 76.4187 907.081 75.832C907.316 75.2347 907.663 74.7867 908.121 74.488C908.591 74.1893 909.172 74.04 909.865 74.04H909.961C910.996 74.04 911.78 74.376 912.313 75.048C912.847 75.7093 913.113 76.7013 913.113 78.024V83H910.889V77.832C910.889 77.2987 910.735 76.8667 910.425 76.536C910.127 76.2053 909.711 76.04 909.177 76.04C908.633 76.04 908.191 76.2107 907.849 76.552C907.519 76.8827 907.353 77.3307 907.353 77.896V83H905.129ZM922.493 83.304C921.725 83.304 921.048 83.1813 920.461 82.936C919.875 82.6907 919.379 82.36 918.973 81.944C918.568 81.5173 918.259 81.0373 918.045 80.504C917.843 79.9707 917.741 79.416 917.741 78.84V78.504C917.741 77.9067 917.848 77.3413 918.061 76.808C918.285 76.264 918.6 75.784 919.005 75.368C919.421 74.9413 919.923 74.6107 920.509 74.376C921.096 74.1307 921.757 74.008 922.493 74.008C923.229 74.008 923.891 74.1307 924.477 74.376C925.064 74.6107 925.56 74.9413 925.965 75.368C926.381 75.784 926.696 76.264 926.909 76.808C927.123 77.3413 927.229 77.9067 927.229 78.504V78.84C927.229 79.416 927.123 79.9707 926.909 80.504C926.707 81.0373 926.403 81.5173 925.997 81.944C925.592 82.36 925.096 82.6907 924.509 82.936C923.923 83.1813 923.251 83.304 922.493 83.304ZM922.493 81.4C923.037 81.4 923.496 81.2827 923.869 81.048C924.243 80.8027 924.525 80.4773 924.717 80.072C924.909 79.656 925.005 79.1867 925.005 78.664C925.005 78.1307 924.904 77.6613 924.701 77.256C924.509 76.84 924.221 76.5147 923.837 76.28C923.464 76.0347 923.016 75.912 922.493 75.912C921.971 75.912 921.517 76.0347 921.133 76.28C920.76 76.5147 920.472 76.84 920.269 77.256C920.067 77.6613 919.965 78.1307 919.965 78.664C919.965 79.1867 920.061 79.656 920.253 80.072C920.456 80.4773 920.744 80.8027 921.117 81.048C921.491 81.2827 921.949 81.4 922.493 81.4ZM929.065 83V74.104C929.065 73.112 929.337 72.3813 929.881 71.912C930.435 71.432 931.251 71.192 932.329 71.192H933.417V72.904H932.169C931.838 72.904 931.582 72.9947 931.401 73.176C931.23 73.3467 931.145 73.592 931.145 73.912V83H929.065ZM927.977 76.088V74.456H933.561V76.088H927.977ZM784.099 115.112C783.299 115.112 782.638 115.011 782.115 114.808C781.603 114.595 781.219 114.243 780.963 113.752C780.707 113.251 780.579 112.579 780.579 111.736L780.595 103.864H782.675L782.659 111.88C782.659 112.307 782.771 112.637 782.995 112.872C783.23 113.096 783.561 113.208 783.987 113.208H785.347V115.112H784.099ZM779.203 107.944V106.312H785.347V107.944H779.203ZM786.894 115V103.32H789.118V110.136H788.734C788.734 109.261 788.846 108.52 789.07 107.912C789.294 107.304 789.625 106.84 790.062 106.52C790.51 106.2 791.075 106.04 791.758 106.04H791.854C792.846 106.04 793.598 106.381 794.11 107.064C794.622 107.747 794.878 108.739 794.878 110.04V115H792.654V109.832C792.654 109.277 792.494 108.84 792.174 108.52C791.865 108.2 791.454 108.04 790.942 108.04C790.398 108.04 789.955 108.221 789.614 108.584C789.283 108.936 789.118 109.4 789.118 109.976V115H786.894ZM800.837 115.304C800.09 115.304 799.434 115.176 798.869 114.92C798.314 114.664 797.85 114.323 797.477 113.896C797.114 113.459 796.837 112.973 796.645 112.44C796.464 111.907 796.373 111.363 796.373 110.808V110.504C796.373 109.928 796.464 109.373 796.645 108.84C796.837 108.296 797.114 107.816 797.477 107.4C797.85 106.973 798.309 106.637 798.853 106.392C799.397 106.136 800.026 106.008 800.741 106.008C801.68 106.008 802.464 106.216 803.093 106.632C803.733 107.037 804.213 107.576 804.533 108.248C804.853 108.909 805.013 109.624 805.013 110.392V111.192H797.317V109.832H803.621L802.933 110.504C802.933 109.949 802.853 109.475 802.693 109.08C802.533 108.685 802.288 108.381 801.957 108.168C801.637 107.955 801.232 107.848 800.741 107.848C800.25 107.848 799.834 107.96 799.493 108.184C799.152 108.408 798.89 108.733 798.709 109.16C798.538 109.576 798.453 110.077 798.453 110.664C798.453 111.208 798.538 111.693 798.709 112.12C798.88 112.536 799.141 112.867 799.493 113.112C799.845 113.347 800.293 113.464 800.837 113.464C801.381 113.464 801.824 113.357 802.165 113.144C802.506 112.92 802.725 112.648 802.821 112.328H804.869C804.741 112.925 804.496 113.448 804.133 113.896C803.77 114.344 803.306 114.691 802.741 114.936C802.186 115.181 801.552 115.304 800.837 115.304ZM813.076 118.424C812.66 118.424 812.233 118.408 811.796 118.376C811.369 118.344 810.969 118.301 810.596 118.248V116.392C810.98 116.435 811.391 116.472 811.828 116.504C812.265 116.547 812.676 116.568 813.06 116.568C813.775 116.568 814.351 116.483 814.788 116.312C815.236 116.141 815.561 115.869 815.764 115.496C815.977 115.133 816.084 114.669 816.084 114.104V112.392L816.564 111.304C816.532 112.104 816.367 112.787 816.068 113.352C815.769 113.907 815.364 114.333 814.852 114.632C814.34 114.92 813.748 115.064 813.076 115.064C812.479 115.064 811.935 114.952 811.444 114.728C810.964 114.504 810.548 114.195 810.196 113.8C809.855 113.405 809.588 112.941 809.396 112.408C809.204 111.875 809.108 111.304 809.108 110.696V110.36C809.108 109.752 809.204 109.187 809.396 108.664C809.599 108.131 809.881 107.667 810.244 107.272C810.607 106.877 811.039 106.573 811.54 106.36C812.041 106.147 812.596 106.04 813.204 106.04C813.919 106.04 814.537 106.195 815.06 106.504C815.593 106.813 816.009 107.261 816.308 107.848C816.607 108.435 816.772 109.155 816.804 110.008L816.42 110.072V106.312H818.18V113.976C818.18 115.032 817.999 115.885 817.636 116.536C817.273 117.187 816.713 117.661 815.956 117.96C815.209 118.269 814.249 118.424 813.076 118.424ZM813.716 113.16C814.143 113.16 814.532 113.064 814.884 112.872C815.236 112.68 815.519 112.403 815.732 112.04C815.945 111.677 816.052 111.24 816.052 110.728V110.168C816.052 109.677 815.94 109.261 815.716 108.92C815.503 108.579 815.22 108.323 814.868 108.152C814.516 107.971 814.132 107.88 813.716 107.88C813.247 107.88 812.831 107.992 812.468 108.216C812.116 108.429 811.839 108.733 811.636 109.128C811.433 109.523 811.332 109.992 811.332 110.536C811.332 111.069 811.433 111.533 811.636 111.928C811.839 112.323 812.116 112.627 812.468 112.84C812.831 113.053 813.247 113.16 813.716 113.16ZM820.398 115V103.32H822.622V115H820.398ZM819.31 104.984V103.32H822.622V104.984H819.31ZM829.017 115.304C828.249 115.304 827.572 115.181 826.985 114.936C826.398 114.691 825.902 114.36 825.497 113.944C825.092 113.517 824.782 113.037 824.569 112.504C824.366 111.971 824.265 111.416 824.265 110.84V110.504C824.265 109.907 824.372 109.341 824.585 108.808C824.809 108.264 825.124 107.784 825.529 107.368C825.945 106.941 826.446 106.611 827.033 106.376C827.62 106.131 828.281 106.008 829.017 106.008C829.753 106.008 830.414 106.131 831.001 106.376C831.588 106.611 832.084 106.941 832.489 107.368C832.905 107.784 833.22 108.264 833.433 108.808C833.646 109.341 833.753 109.907 833.753 110.504V110.84C833.753 111.416 833.646 111.971 833.433 112.504C833.23 113.037 832.926 113.517 832.521 113.944C832.116 114.36 831.62 114.691 831.033 114.936C830.446 115.181 829.774 115.304 829.017 115.304ZM829.017 113.4C829.561 113.4 830.02 113.283 830.393 113.048C830.766 112.803 831.049 112.477 831.241 112.072C831.433 111.656 831.529 111.187 831.529 110.664C831.529 110.131 831.428 109.661 831.225 109.256C831.033 108.84 830.745 108.515 830.361 108.28C829.988 108.035 829.54 107.912 829.017 107.912C828.494 107.912 828.041 108.035 827.657 108.28C827.284 108.515 826.996 108.84 826.793 109.256C826.59 109.661 826.489 110.131 826.489 110.664C826.489 111.187 826.585 111.656 826.777 112.072C826.98 112.477 827.268 112.803 827.641 113.048C828.014 113.283 828.473 113.4 829.017 113.4ZM840.484 115.288C839.77 115.288 839.14 115.139 838.596 114.84C838.052 114.531 837.626 114.083 837.316 113.496C837.007 112.909 836.836 112.2 836.804 111.368H837.14V115H835.38V103.32H837.604V109.16L837.012 110.072C837.055 109.176 837.231 108.429 837.54 107.832C837.86 107.235 838.287 106.787 838.82 106.488C839.354 106.189 839.956 106.04 840.628 106.04C841.226 106.04 841.77 106.152 842.26 106.376C842.751 106.6 843.172 106.915 843.524 107.32C843.876 107.715 844.143 108.179 844.324 108.712C844.516 109.245 844.612 109.827 844.612 110.456V110.792C844.612 111.421 844.516 112.008 844.324 112.552C844.132 113.096 843.855 113.576 843.492 113.992C843.13 114.397 842.692 114.717 842.18 114.952C841.679 115.176 841.114 115.288 840.484 115.288ZM839.988 113.416C840.468 113.416 840.884 113.299 841.236 113.064C841.599 112.819 841.882 112.488 842.084 112.072C842.287 111.656 842.388 111.176 842.388 110.632C842.388 110.077 842.287 109.597 842.084 109.192C841.882 108.787 841.599 108.472 841.236 108.248C840.884 108.024 840.468 107.912 839.988 107.912C839.551 107.912 839.146 108.008 838.772 108.2C838.41 108.392 838.111 108.675 837.876 109.048C837.652 109.421 837.54 109.869 837.54 110.392V111.032C837.54 111.533 837.658 111.96 837.892 112.312C838.127 112.664 838.431 112.936 838.804 113.128C839.178 113.32 839.572 113.416 839.988 113.416ZM851.512 115V112.424H851.144V109.56C851.144 109.059 851.021 108.685 850.776 108.44C850.53 108.195 850.152 108.072 849.64 108.072C849.373 108.072 849.053 108.077 848.68 108.088C848.306 108.099 847.928 108.115 847.544 108.136C847.17 108.147 846.834 108.163 846.536 108.184V106.296C846.781 106.275 847.058 106.253 847.368 106.232C847.677 106.211 847.992 106.2 848.312 106.2C848.642 106.189 848.952 106.184 849.24 106.184C850.136 106.184 850.877 106.301 851.464 106.536C852.061 106.771 852.509 107.139 852.808 107.64C853.117 108.141 853.272 108.797 853.272 109.608V115H851.512ZM848.712 115.224C848.082 115.224 847.528 115.112 847.048 114.888C846.578 114.664 846.21 114.344 845.944 113.928C845.688 113.512 845.56 113.011 845.56 112.424C845.56 111.784 845.714 111.261 846.024 110.856C846.344 110.451 846.786 110.147 847.352 109.944C847.928 109.741 848.6 109.64 849.368 109.64H851.384V110.968H849.336C848.824 110.968 848.429 111.096 848.152 111.352C847.885 111.597 847.752 111.917 847.752 112.312C847.752 112.707 847.885 113.027 848.152 113.272C848.429 113.517 848.824 113.64 849.336 113.64C849.645 113.64 849.928 113.587 850.184 113.48C850.45 113.363 850.669 113.171 850.84 112.904C851.021 112.627 851.122 112.253 851.144 111.784L851.688 112.408C851.634 113.016 851.485 113.528 851.24 113.944C851.005 114.36 850.674 114.68 850.248 114.904C849.832 115.117 849.32 115.224 848.712 115.224ZM855.446 115V103.32H857.67V115H855.446ZM854.358 104.984V103.32H857.67V104.984H854.358ZM863.022 118.2V106.312H864.782V110.056L864.51 110.04C864.553 109.155 864.734 108.413 865.054 107.816C865.385 107.219 865.822 106.776 866.366 106.488C866.91 106.189 867.518 106.04 868.19 106.04C868.809 106.04 869.363 106.152 869.854 106.376C870.355 106.6 870.782 106.915 871.134 107.32C871.497 107.725 871.774 108.2 871.966 108.744C872.158 109.277 872.254 109.853 872.254 110.472V110.808C872.254 111.437 872.158 112.024 871.966 112.568C871.785 113.101 871.513 113.576 871.15 113.992C870.798 114.397 870.371 114.717 869.87 114.952C869.369 115.176 868.809 115.288 868.19 115.288C867.539 115.288 866.942 115.155 866.398 114.888C865.865 114.611 865.433 114.189 865.102 113.624C864.771 113.048 864.585 112.307 864.542 111.4L865.246 112.472V118.2H863.022ZM867.63 113.416C868.11 113.416 868.526 113.299 868.878 113.064C869.241 112.829 869.523 112.504 869.726 112.088C869.929 111.661 870.03 111.181 870.03 110.648C870.03 110.093 869.929 109.613 869.726 109.208C869.523 108.803 869.241 108.488 868.878 108.264C868.526 108.029 868.11 107.912 867.63 107.912C867.193 107.912 866.787 108.008 866.414 108.2C866.051 108.392 865.753 108.675 865.518 109.048C865.294 109.421 865.182 109.869 865.182 110.392V111.032C865.182 111.533 865.299 111.96 865.534 112.312C865.769 112.664 866.073 112.936 866.446 113.128C866.819 113.32 867.214 113.416 867.63 113.416ZM878.066 115.304C877.298 115.304 876.62 115.181 876.034 114.936C875.447 114.691 874.951 114.36 874.546 113.944C874.14 113.517 873.831 113.037 873.618 112.504C873.415 111.971 873.314 111.416 873.314 110.84V110.504C873.314 109.907 873.42 109.341 873.634 108.808C873.858 108.264 874.172 107.784 874.578 107.368C874.994 106.941 875.495 106.611 876.082 106.376C876.668 106.131 877.33 106.008 878.066 106.008C878.802 106.008 879.463 106.131 880.05 106.376C880.636 106.611 881.132 106.941 881.538 107.368C881.954 107.784 882.268 108.264 882.482 108.808C882.695 109.341 882.802 109.907 882.802 110.504V110.84C882.802 111.416 882.695 111.971 882.482 112.504C882.279 113.037 881.975 113.517 881.57 113.944C881.164 114.36 880.668 114.691 880.082 114.936C879.495 115.181 878.823 115.304 878.066 115.304ZM878.066 113.4C878.61 113.4 879.068 113.283 879.442 113.048C879.815 112.803 880.098 112.477 880.29 112.072C880.482 111.656 880.578 111.187 880.578 110.664C880.578 110.131 880.476 109.661 880.274 109.256C880.082 108.84 879.794 108.515 879.41 108.28C879.036 108.035 878.588 107.912 878.066 107.912C877.543 107.912 877.09 108.035 876.706 108.28C876.332 108.515 876.044 108.84 875.842 109.256C875.639 109.661 875.538 110.131 875.538 110.664C875.538 111.187 875.634 111.656 875.826 112.072C876.028 112.477 876.316 112.803 876.69 113.048C877.063 113.283 877.522 113.4 878.066 113.4ZM884.429 118.2V106.312H886.189V110.056L885.917 110.04C885.96 109.155 886.141 108.413 886.461 107.816C886.792 107.219 887.229 106.776 887.773 106.488C888.317 106.189 888.925 106.04 889.597 106.04C890.216 106.04 890.77 106.152 891.261 106.376C891.762 106.6 892.189 106.915 892.541 107.32C892.904 107.725 893.181 108.2 893.373 108.744C893.565 109.277 893.661 109.853 893.661 110.472V110.808C893.661 111.437 893.565 112.024 893.373 112.568C893.192 113.101 892.92 113.576 892.557 113.992C892.205 114.397 891.778 114.717 891.277 114.952C890.776 115.176 890.216 115.288 889.597 115.288C888.946 115.288 888.349 115.155 887.805 114.888C887.272 114.611 886.84 114.189 886.509 113.624C886.178 113.048 885.992 112.307 885.949 111.4L886.653 112.472V118.2H884.429ZM889.037 113.416C889.517 113.416 889.933 113.299 890.285 113.064C890.648 112.829 890.93 112.504 891.133 112.088C891.336 111.661 891.437 111.181 891.437 110.648C891.437 110.093 891.336 109.613 891.133 109.208C890.93 108.803 890.648 108.488 890.285 108.264C889.933 108.029 889.517 107.912 889.037 107.912C888.6 107.912 888.194 108.008 887.821 108.2C887.458 108.392 887.16 108.675 886.925 109.048C886.701 109.421 886.589 109.869 886.589 110.392V111.032C886.589 111.533 886.706 111.96 886.941 112.312C887.176 112.664 887.48 112.936 887.853 113.128C888.226 113.32 888.621 113.416 889.037 113.416ZM898.256 115.272C897.254 115.272 896.475 114.941 895.92 114.28C895.376 113.619 895.104 112.637 895.104 111.336V106.296H897.328V111.528C897.328 112.061 897.478 112.488 897.776 112.808C898.075 113.117 898.48 113.272 898.992 113.272C899.504 113.272 899.92 113.107 900.24 112.776C900.571 112.445 900.736 111.997 900.736 111.432V106.296H902.96V115H901.2V111.304H901.376C901.376 112.179 901.264 112.909 901.04 113.496C900.816 114.083 900.48 114.525 900.032 114.824C899.584 115.123 899.024 115.272 898.352 115.272H898.256ZM905.307 115V103.32H907.531V115H905.307ZM904.219 104.984V103.32H907.531V104.984H904.219ZM915.014 115V112.424H914.646V109.56C914.646 109.059 914.524 108.685 914.278 108.44C914.033 108.195 913.654 108.072 913.142 108.072C912.876 108.072 912.556 108.077 912.182 108.088C911.809 108.099 911.43 108.115 911.046 108.136C910.673 108.147 910.337 108.163 910.038 108.184V106.296C910.284 106.275 910.561 106.253 910.87 106.232C911.18 106.211 911.494 106.2 911.814 106.2C912.145 106.189 912.454 106.184 912.742 106.184C913.638 106.184 914.38 106.301 914.966 106.536C915.564 106.771 916.012 107.139 916.31 107.64C916.62 108.141 916.774 108.797 916.774 109.608V115H915.014ZM912.214 115.224C911.585 115.224 911.03 115.112 910.55 114.888C910.081 114.664 909.713 114.344 909.446 113.928C909.19 113.512 909.062 113.011 909.062 112.424C909.062 111.784 909.217 111.261 909.526 110.856C909.846 110.451 910.289 110.147 910.854 109.944C911.43 109.741 912.102 109.64 912.87 109.64H914.886V110.968H912.838C912.326 110.968 911.932 111.096 911.654 111.352C911.388 111.597 911.254 111.917 911.254 112.312C911.254 112.707 911.388 113.027 911.654 113.272C911.932 113.517 912.326 113.64 912.838 113.64C913.148 113.64 913.43 113.587 913.686 113.48C913.953 113.363 914.172 113.171 914.342 112.904C914.524 112.627 914.625 112.253 914.646 111.784L915.19 112.408C915.137 113.016 914.988 113.528 914.742 113.944C914.508 114.36 914.177 114.68 913.75 114.904C913.334 115.117 912.822 115.224 912.214 115.224ZM922.612 115.112C921.812 115.112 921.151 115.011 920.628 114.808C920.116 114.595 919.732 114.243 919.476 113.752C919.22 113.251 919.092 112.579 919.092 111.736L919.108 103.864H921.188L921.172 111.88C921.172 112.307 921.284 112.637 921.508 112.872C921.743 113.096 922.074 113.208 922.5 113.208H923.86V115.112H922.612ZM917.716 107.944V106.312H923.86V107.944H917.716ZM925.823 115V106.312H928.047V115H925.823ZM924.607 107.976V106.312H928.047V107.976H924.607ZM926.639 105.272C926.202 105.272 925.876 105.16 925.663 104.936C925.46 104.701 925.359 104.413 925.359 104.072C925.359 103.709 925.46 103.416 925.663 103.192C925.876 102.968 926.202 102.856 926.639 102.856C927.076 102.856 927.396 102.968 927.599 103.192C927.802 103.416 927.903 103.709 927.903 104.072C927.903 104.413 927.802 104.701 927.599 104.936C927.396 105.16 927.076 105.272 926.639 105.272ZM934.466 115.304C933.698 115.304 933.021 115.181 932.434 114.936C931.848 114.691 931.352 114.36 930.946 113.944C930.541 113.517 930.232 113.037 930.018 112.504C929.816 111.971 929.714 111.416 929.714 110.84V110.504C929.714 109.907 929.821 109.341 930.034 108.808C930.258 108.264 930.573 107.784 930.978 107.368C931.394 106.941 931.896 106.611 932.482 106.376C933.069 106.131 933.73 106.008 934.466 106.008C935.202 106.008 935.864 106.131 936.45 106.376C937.037 106.611 937.533 106.941 937.938 107.368C938.354 107.784 938.669 108.264 938.882 108.808C939.096 109.341 939.202 109.907 939.202 110.504V110.84C939.202 111.416 939.096 111.971 938.882 112.504C938.68 113.037 938.376 113.517 937.97 113.944C937.565 114.36 937.069 114.691 936.482 114.936C935.896 115.181 935.224 115.304 934.466 115.304ZM934.466 113.4C935.01 113.4 935.469 113.283 935.842 113.048C936.216 112.803 936.498 112.477 936.69 112.072C936.882 111.656 936.978 111.187 936.978 110.664C936.978 110.131 936.877 109.661 936.674 109.256C936.482 108.84 936.194 108.515 935.81 108.28C935.437 108.035 934.989 107.912 934.466 107.912C933.944 107.912 933.49 108.035 933.106 108.28C932.733 108.515 932.445 108.84 932.242 109.256C932.04 109.661 931.938 110.131 931.938 110.664C931.938 111.187 932.034 111.656 932.226 112.072C932.429 112.477 932.717 112.803 933.09 113.048C933.464 113.283 933.922 113.4 934.466 113.4ZM940.83 115V106.312H942.59V110.04H942.43C942.43 109.155 942.547 108.419 942.782 107.832C943.016 107.235 943.363 106.787 943.822 106.488C944.291 106.189 944.872 106.04 945.566 106.04H945.662C946.696 106.04 947.48 106.376 948.014 107.048C948.547 107.709 948.814 108.701 948.814 110.024V115H946.59V109.832C946.59 109.299 946.435 108.867 946.126 108.536C945.827 108.205 945.411 108.04 944.878 108.04C944.334 108.04 943.891 108.211 943.55 108.552C943.219 108.883 943.054 109.331 943.054 109.896V115H940.83Z" fill="white"/>
<path d="M846.896 15.304C846 15.304 845.227 15.1333 844.576 14.792C843.936 14.4507 843.445 13.9973 843.104 13.432C842.763 12.856 842.592 12.216 842.592 11.512H844.784C844.784 12.0773 844.971 12.536 845.344 12.888C845.728 13.2293 846.245 13.4 846.896 13.4C847.333 13.4 847.707 13.32 848.016 13.16C848.336 12.9893 848.581 12.76 848.752 12.472C848.923 12.1733 849.008 11.832 849.008 11.448C849.008 10.872 848.821 10.4027 848.448 10.04C848.075 9.66667 847.563 9.48 846.912 9.48C846.592 9.48 846.309 9.52267 846.064 9.608C845.829 9.69333 845.621 9.80533 845.44 9.944L844.4 8.152L848.24 5.528L848.096 5.256H843.072V3.32H850.704V5.656L846.752 8.28L845.52 8.056C845.723 7.992 845.941 7.944 846.176 7.912C846.411 7.86933 846.667 7.848 846.944 7.848C847.829 7.848 848.587 8.00267 849.216 8.312C849.856 8.61067 850.347 9.02667 850.688 9.56C851.029 10.0933 851.2 10.7067 851.2 11.4V11.608C851.2 12.28 851.029 12.8987 850.688 13.464C850.347 14.0187 849.856 14.4667 849.216 14.808C848.576 15.1387 847.803 15.304 846.896 15.304ZM854.656 15V4.728L855.36 5.272H852.272V3.32H856.912V15H854.656ZM859.085 15V12.44H861.581V15H859.085ZM863.189 15V12.76C863.189 12.2693 863.264 11.8427 863.413 11.48C863.573 11.1173 863.829 10.7973 864.181 10.52C864.544 10.232 865.019 9.96 865.605 9.704L867.589 8.824C868.08 8.6 868.453 8.328 868.709 8.008C868.976 7.67733 869.109 7.256 869.109 6.744C869.109 6.17867 868.939 5.73067 868.597 5.4C868.267 5.05867 867.792 4.888 867.173 4.888C866.555 4.888 866.075 5.05867 865.733 5.4C865.403 5.74133 865.237 6.216 865.237 6.824H863.045C863.045 6.09867 863.2 5.448 863.509 4.872C863.819 4.28533 864.277 3.82667 864.885 3.496C865.493 3.15467 866.256 2.984 867.173 2.984C868.091 2.984 868.853 3.14933 869.461 3.48C870.069 3.81067 870.528 4.25333 870.837 4.808C871.147 5.352 871.301 5.96 871.301 6.632V6.84C871.301 7.71467 871.056 8.44533 870.565 9.032C870.075 9.608 869.355 10.1093 868.405 10.536L866.421 11.416C866.048 11.576 865.787 11.7467 865.637 11.928C865.488 12.0987 865.413 12.3333 865.413 12.632V13.656L864.869 13.064H871.349V15H863.189ZM875.845 15L880.149 3.32H881.989L877.685 15H875.845ZM875.013 9.688C874.394 9.688 873.882 9.54933 873.477 9.272C873.071 8.984 872.767 8.60533 872.565 8.136C872.373 7.66667 872.277 7.15467 872.277 6.6V6.184C872.277 5.576 872.378 5.04267 872.581 4.584C872.783 4.11467 873.087 3.752 873.493 3.496C873.909 3.22933 874.415 3.096 875.013 3.096C875.631 3.096 876.143 3.22933 876.549 3.496C876.954 3.752 877.258 4.11467 877.461 4.584C877.663 5.04267 877.765 5.576 877.765 6.184V6.6C877.765 7.15467 877.663 7.66667 877.461 8.136C877.269 8.60533 876.97 8.984 876.565 9.272C876.17 9.54933 875.653 9.688 875.013 9.688ZM875.013 8.2C875.397 8.2 875.679 8.06133 875.861 7.784C876.053 7.496 876.149 7.03733 876.149 6.408C876.149 5.72533 876.053 5.25067 875.861 4.984C875.669 4.71733 875.386 4.584 875.013 4.584C874.639 4.584 874.357 4.71733 874.165 4.984C873.983 5.25067 873.893 5.72 873.893 6.392C873.893 7.02133 873.983 7.48 874.165 7.768C874.357 8.056 874.639 8.2 875.013 8.2ZM882.741 15.24C882.122 15.24 881.61 15.1013 881.205 14.824C880.799 14.536 880.495 14.1573 880.293 13.688C880.101 13.2187 880.005 12.7067 880.005 12.152V11.736C880.005 11.128 880.106 10.5947 880.309 10.136C880.511 9.66667 880.815 9.304 881.221 9.048C881.637 8.78133 882.143 8.648 882.741 8.648C883.359 8.648 883.871 8.78133 884.277 9.048C884.682 9.304 884.986 9.66667 885.189 10.136C885.391 10.5947 885.493 11.128 885.493 11.736V12.152C885.493 12.7067 885.391 13.2187 885.189 13.688C884.997 14.1573 884.698 14.536 884.293 14.824C883.898 15.1013 883.381 15.24 882.741 15.24ZM882.741 13.752C883.125 13.752 883.407 13.6133 883.589 13.336C883.781 13.048 883.877 12.5893 883.877 11.96C883.877 11.2773 883.781 10.8027 883.589 10.536C883.397 10.2693 883.114 10.136 882.741 10.136C882.367 10.136 882.085 10.2693 881.893 10.536C881.711 10.8027 881.621 11.272 881.621 11.944C881.621 12.5733 881.711 13.032 881.893 13.32C882.085 13.608 882.367 13.752 882.741 13.752Z" fill="white"/>
<rect x="835" y="30" width="58" height="5" fill="white"/>
</svg>
