<svg width="119" height="26" viewBox="0 0 119 26" fill="none" xmlns="http://www.w3.org/2000/svg">
<circle cx="44" cy="13" r="13" fill="white" fill-opacity="0.1"/>
<path d="M41.3978 19.125C46.681 19.125 49.5711 14.7474 49.5711 10.9577C49.5711 10.8352 49.5711 10.711 49.5659 10.5885C50.1286 10.1812 50.6142 9.67688 51 9.09925C50.4744 9.33099 49.9174 9.48373 49.3471 9.5525C49.9478 9.19343 50.3978 8.62847 50.6132 7.96262C50.0489 8.29698 49.4311 8.5317 48.7871 8.6565C48.3542 8.19539 47.7812 7.88992 47.1571 7.78741C46.5329 7.68489 45.8924 7.79105 45.3347 8.08944C44.777 8.38783 44.3332 8.8618 44.0721 9.43792C43.8111 10.0141 43.7473 10.6602 43.8906 11.2762C42.7485 11.219 41.6312 10.9223 40.6112 10.4054C39.5911 9.88851 38.6911 9.16298 37.9695 8.27587C37.6032 8.90857 37.4914 9.65697 37.6568 10.3691C37.8223 11.0812 38.2525 11.7037 38.8602 12.1101C38.4048 12.0946 37.9595 11.9724 37.56 11.7531V11.7925C37.5608 12.4553 37.7904 13.0975 38.21 13.6105C38.6296 14.1236 39.2135 14.476 39.863 14.6082C39.6165 14.6762 39.3618 14.71 39.1061 14.7089C38.9259 14.7094 38.746 14.6927 38.5689 14.659C38.7524 15.2295 39.1099 15.7284 39.5911 16.0857C40.0723 16.4429 40.6532 16.6407 41.2525 16.6514C40.2345 17.4509 38.977 17.8846 37.6825 17.8825C37.4544 17.8835 37.2265 17.8703 37 17.8431C38.3138 18.6807 39.8396 19.1255 41.3978 19.125V19.125Z" fill="white"/>
<circle cx="75" cy="13" r="13" fill="white" fill-opacity="0.1"/>
<path d="M80.9647 10.5367C80.958 10.0318 80.8635 9.53185 80.6854 9.05934C80.5309 8.66077 80.2951 8.2988 79.9928 7.99656C79.6906 7.69431 79.3286 7.45844 78.93 7.304C78.4636 7.12891 77.9708 7.03423 77.4727 7.024C76.8314 6.99534 76.628 6.98734 75 6.98734C73.372 6.98734 73.1634 6.98734 72.5267 7.024C72.0288 7.0343 71.5363 7.12898 71.07 7.304C70.6714 7.45833 70.3094 7.69416 70.0071 7.99642C69.7049 8.29868 69.469 8.66071 69.3147 9.05934C69.1393 9.52542 69.0448 10.0181 69.0354 10.516C69.0067 11.158 68.998 11.3613 68.998 12.9893C68.998 14.6173 68.998 14.8253 69.0354 15.4627C69.0454 15.9613 69.1394 16.4533 69.3147 16.9207C69.4693 17.3192 69.7053 17.6811 70.0077 17.9832C70.31 18.2853 70.6721 18.5211 71.0707 18.6753C71.5357 18.8575 72.0283 18.9589 72.5274 18.9753C73.1694 19.004 73.3727 19.0127 75.0007 19.0127C76.6287 19.0127 76.8374 19.0127 77.474 18.9753C77.9721 18.9655 78.465 18.8711 78.9314 18.696C79.3298 18.5414 79.6917 18.3055 79.9939 18.0032C80.2962 17.701 80.5321 17.3391 80.6867 16.9407C80.862 16.474 80.956 15.982 80.966 15.4827C80.9947 14.8413 81.0034 14.638 81.0034 13.0093C81.002 11.3813 81.002 11.1747 80.9647 10.5367V10.5367ZM74.996 16.068C73.2934 16.068 71.914 14.6887 71.914 12.986C71.914 11.2833 73.2934 9.904 74.996 9.904C75.8134 9.904 76.5974 10.2287 77.1754 10.8067C77.7533 11.3847 78.078 12.1686 78.078 12.986C78.078 13.8034 77.7533 14.5873 77.1754 15.1653C76.5974 15.7433 75.8134 16.068 74.996 16.068V16.068ZM78.2007 10.5087C78.1063 10.5088 78.0128 10.4902 77.9256 10.4541C77.8384 10.4181 77.7591 10.3651 77.6923 10.2984C77.6256 10.2316 77.5727 10.1524 77.5366 10.0651C77.5005 9.97789 77.482 9.8844 77.482 9.79C77.482 9.69567 77.5006 9.60226 77.5367 9.51511C77.5728 9.42796 77.6257 9.34877 77.6924 9.28206C77.7591 9.21536 77.8383 9.16245 77.9255 9.12635C78.0126 9.09025 78.106 9.07167 78.2004 9.07167C78.2947 9.07167 78.3881 9.09025 78.4753 9.12635C78.5624 9.16245 78.6416 9.21536 78.7083 9.28206C78.775 9.34877 78.8279 9.42796 78.864 9.51511C78.9001 9.60226 78.9187 9.69567 78.9187 9.79C78.9187 10.1873 78.5974 10.5087 78.2007 10.5087Z" fill="white"/>
<path d="M74.9959 14.988C76.1016 14.988 76.9979 14.0917 76.9979 12.986C76.9979 11.8803 76.1016 10.984 74.9959 10.984C73.8902 10.984 72.9939 11.8803 72.9939 12.986C72.9939 14.0917 73.8902 14.988 74.9959 14.988Z" fill="white"/>
<circle cx="13" cy="13" r="13" fill="white" fill-opacity="0.1"/>
<path d="M18.0601 9.46C17.3955 9.31386 16.7944 8.96095 16.3428 8.45192C15.8913 7.94289 15.6126 7.30391 15.5468 6.62666V6.33333H13.2468V15.4467C13.2472 15.851 13.1205 16.2453 12.8844 16.5736C12.6483 16.9019 12.3149 17.1477 11.9315 17.276C11.548 17.4043 11.1339 17.4087 10.7477 17.2886C10.3616 17.1685 10.0231 16.9299 9.7801 16.6067C9.5624 16.3206 9.42909 15.9792 9.39525 15.6213C9.36141 15.2634 9.42839 14.9032 9.58862 14.5813C9.74884 14.2595 9.99592 13.9889 10.3019 13.8002C10.6079 13.6114 10.9606 13.5121 11.3201 13.5133C11.5189 13.5122 11.7168 13.5414 11.9068 13.6V11.2667C11.6857 11.2393 11.4628 11.2281 11.2401 11.2333C10.4196 11.2553 9.62338 11.516 8.94882 11.9835C8.27426 12.4511 7.75069 13.1052 7.44221 13.8658C7.13374 14.6263 7.05375 15.4604 7.21204 16.2657C7.37033 17.071 7.76004 17.8128 8.33343 18.4C8.92109 18.9975 9.67309 19.4068 10.4939 19.5759C11.3147 19.745 12.1672 19.6663 12.9432 19.3497C13.7192 19.0332 14.3835 18.4931 14.8518 17.7982C15.3202 17.1032 15.5713 16.2847 15.5734 15.4467V10.78C16.5011 11.4426 17.6134 11.7971 18.7534 11.7933V9.52666C18.5295 9.52759 18.3061 9.50524 18.0868 9.46H18.0601Z" fill="white"/>
<circle cx="106" cy="13" r="13" fill="white" fill-opacity="0.1"/>
<path d="M112.395 9.802C112.319 9.52027 112.171 9.26334 111.965 9.05678C111.759 8.85022 111.502 8.70124 111.221 8.62467C110.177 8.338 106 8.33333 106 8.33333C106 8.33333 101.824 8.32867 100.779 8.60267C100.498 8.68276 100.242 8.83385 100.036 9.04142C99.8295 9.24899 99.6802 9.50608 99.602 9.788C99.3266 10.832 99.324 12.9973 99.324 12.9973C99.324 12.9973 99.3213 15.1733 99.5946 16.2067C99.748 16.778 100.198 17.2293 100.77 17.3833C101.825 17.67 105.99 17.6747 105.99 17.6747C105.99 17.6747 110.167 17.6793 111.211 17.406C111.492 17.3296 111.749 17.1809 111.956 16.9748C112.162 16.7687 112.312 16.5122 112.389 16.2307C112.665 15.1873 112.667 13.0227 112.667 13.0227C112.667 13.0227 112.68 10.846 112.395 9.802V9.802ZM104.664 15.0033L104.667 11.0033L108.139 13.0067L104.664 15.0033V15.0033Z" fill="white"/>
</svg>
