<svg width="14" height="14" viewBox="0 0 14 14" fill="none" xmlns="http://www.w3.org/2000/svg">
<path d="M13.6315 5.11934C13.5896 4.99592 13.5125 4.88747 13.4096 4.80738C13.3068 4.72729 13.1828 4.67908 13.0528 4.66868L9.25218 4.36668L7.60751 0.72601C7.55514 0.608751 7.46994 0.509157 7.36221 0.439248C7.25448 0.369339 7.12882 0.332102 7.0004 0.332031C6.87197 0.331961 6.74627 0.36906 6.63846 0.438851C6.53066 0.508642 6.44535 0.608142 6.39285 0.725343L4.74818 4.36668L0.947514 4.66868C0.819817 4.67879 0.697739 4.72548 0.595884 4.80316C0.494028 4.88084 0.416709 4.98622 0.373176 5.1067C0.329643 5.22717 0.321739 5.35763 0.35041 5.48248C0.379082 5.60733 0.443114 5.72127 0.534847 5.81068L3.34351 8.54868L2.35018 12.85C2.32002 12.9802 2.32969 13.1165 2.37793 13.2411C2.42617 13.3657 2.51076 13.473 2.62072 13.549C2.73067 13.6249 2.86093 13.6661 2.99457 13.6671C3.12821 13.6681 3.25908 13.629 3.37018 13.5547L7.00018 11.1347L10.6302 13.5547C10.7437 13.6301 10.8777 13.6689 11.0139 13.6659C11.1502 13.6629 11.2823 13.6183 11.3924 13.538C11.5026 13.4577 11.5855 13.3456 11.63 13.2167C11.6746 13.0879 11.6786 12.9485 11.6415 12.8173L10.4222 8.55068L13.4462 5.82934C13.6442 5.65068 13.7168 5.37201 13.6315 5.11934V5.11934Z" fill="white"/>
</svg>
