<svg width="26" height="26" viewBox="0 0 26 26" fill="none" xmlns="http://www.w3.org/2000/svg">
<circle cx="13" cy="13" r="13" fill="white" fill-opacity="0.1"/>
<path d="M18.0601 9.46C17.3955 9.31386 16.7944 8.96095 16.3428 8.45192C15.8913 7.94289 15.6126 7.30391 15.5468 6.62666V6.33333H13.2468V15.4467C13.2472 15.851 13.1205 16.2453 12.8844 16.5736C12.6483 16.9019 12.3149 17.1477 11.9315 17.276C11.548 17.4043 11.1339 17.4087 10.7477 17.2886C10.3616 17.1685 10.0231 16.9299 9.7801 16.6067C9.5624 16.3206 9.42909 15.9792 9.39525 15.6213C9.36141 15.2634 9.42839 14.9032 9.58862 14.5813C9.74884 14.2595 9.99592 13.9889 10.3019 13.8002C10.6079 13.6114 10.9606 13.5121 11.3201 13.5133C11.5189 13.5122 11.7168 13.5414 11.9068 13.6V11.2667C11.6857 11.2393 11.4628 11.2281 11.2401 11.2333C10.4196 11.2553 9.62338 11.516 8.94882 11.9835C8.27426 12.4511 7.75069 13.1052 7.44221 13.8658C7.13374 14.6263 7.05375 15.4604 7.21204 16.2657C7.37033 17.071 7.76004 17.8128 8.33343 18.4C8.92109 18.9975 9.67309 19.4068 10.4939 19.5759C11.3147 19.745 12.1672 19.6663 12.9432 19.3497C13.7192 19.0332 14.3835 18.4931 14.8518 17.7982C15.3202 17.1032 15.5713 16.2847 15.5734 15.4467V10.78C16.5011 11.4426 17.6134 11.7971 18.7534 11.7933V9.52666C18.5295 9.52759 18.3061 9.50524 18.0868 9.46H18.0601Z" fill="white"/>
</svg>
