<svg width="20" height="20" viewBox="0 0 20 20" fill="none" xmlns="http://www.w3.org/2000/svg">
<path d="M12.7496 4.62477C12.1163 4.62466 11.5082 4.8732 11.0562 5.31691C10.6042 5.76061 10.3445 6.36402 10.3329 6.99727L10.3096 8.30977C10.3082 8.38024 10.292 8.44962 10.2619 8.51337C10.2319 8.57712 10.1887 8.63379 10.1351 8.67967C10.0816 8.72555 10.019 8.75959 9.95144 8.77957C9.88385 8.79955 9.8128 8.80501 9.74294 8.7956L8.44211 8.61894C6.73044 8.3856 5.09044 7.59727 3.51711 6.28644C3.01878 9.04477 3.99211 10.9556 6.33628 12.4298L7.79211 13.3448C7.86128 13.3882 7.91875 13.448 7.95948 13.5188C8.00022 13.5896 8.02298 13.6694 8.02577 13.751C8.02857 13.8327 8.01131 13.9137 7.97552 13.9872C7.93973 14.0606 7.88648 14.1242 7.82044 14.1723L6.49378 15.1414C7.28294 15.1906 8.03211 15.1556 8.65378 15.0323C12.5854 14.2473 15.1996 11.2889 15.1996 6.40894C15.1996 6.0106 14.3563 4.62477 12.7496 4.62477V4.62477ZM8.66628 6.96644C8.68082 6.16315 8.93202 5.38199 9.38841 4.72079C9.8448 4.05958 10.4861 3.5477 11.232 3.24924C11.978 2.95078 12.7954 2.879 13.5819 3.04289C14.3684 3.20678 15.0891 3.59906 15.6538 4.1706C16.2463 4.16644 16.7504 4.31644 17.8779 3.6331C17.5988 4.99977 17.4613 5.5931 16.8663 6.40894C16.8663 12.7773 12.9521 15.8739 8.98044 16.6664C6.25711 17.2098 2.29711 16.3173 1.16211 15.1323C1.74044 15.0873 4.09044 14.8348 5.44878 13.8406C4.29961 13.0831 -0.274557 10.3914 2.73128 3.15477C4.14211 4.80227 5.57294 5.92394 7.02294 6.51894C7.98794 6.91477 8.22461 6.90644 8.66711 6.96727L8.66628 6.96644Z" fill="white"/>
</svg>
