<svg width="26" height="26" viewBox="0 0 26 26" fill="none" xmlns="http://www.w3.org/2000/svg">
<circle cx="13" cy="13" r="13" fill="white" fill-opacity="0.1"/>
<path d="M10.3977 19.125C15.681 19.125 18.5711 14.7474 18.5711 10.9577C18.5711 10.8352 18.5711 10.711 18.5659 10.5885C19.1286 10.1812 19.6142 9.67688 20 9.09925C19.4744 9.33099 18.9174 9.48373 18.3471 9.5525C18.9478 9.19343 19.3978 8.62847 19.6132 7.96262C19.0489 8.29698 18.4311 8.5317 17.7871 8.6565C17.3542 8.19539 16.7812 7.88992 16.1571 7.78741C15.5329 7.68489 14.8924 7.79105 14.3347 8.08944C13.777 8.38783 13.3332 8.8618 13.0721 9.43792C12.8111 10.0141 12.7473 10.6602 12.8906 11.2762C11.7485 11.219 10.6312 10.9223 9.61116 10.4054C8.59111 9.88851 7.6911 9.16298 6.9695 8.27587C6.60317 8.90857 6.49138 9.65697 6.65682 10.3691C6.82225 11.0812 7.25252 11.7037 7.86025 12.1101C7.40485 12.0946 6.95946 11.9724 6.56 11.7531V11.7925C6.56079 12.4553 6.79039 13.0975 7.21001 13.6105C7.62964 14.1236 8.21353 14.476 8.863 14.6082C8.61648 14.6762 8.36183 14.71 8.10613 14.7089C7.92586 14.7094 7.74596 14.6927 7.56887 14.659C7.75244 15.2295 8.10986 15.7284 8.59109 16.0857C9.07232 16.4429 9.65324 16.6407 10.2525 16.6514C9.23449 17.4509 7.97698 17.8846 6.6825 17.8825C6.45441 17.8835 6.22647 17.8703 6 17.8431C7.31383 18.6807 8.83964 19.1255 10.3977 19.125Z" fill="white"/>
</svg>
