<svg width="48" height="32" viewBox="0 0 48 32" fill="none" xmlns="http://www.w3.org/2000/svg">
<path d="M48 21.2C48 22.4 45.6 23.2 42.8 23.6C41 20.2 37.4 17.6 33.2 15.8C33.6 15.2 34 14.8 34.4 14.2H36C42.2 14 48 17.8 48 21.2ZM13.6 14H12C5.8 14 0 17.8 0 21.2C0 22.4 2.4 23.2 5.2 23.6C7 20.2 10.6 17.6 14.8 15.8L13.6 14ZM24 16C28.4 16 32 12.4 32 8C32 3.6 28.4 0 24 0C19.6 0 16 3.6 16 8C16 12.4 19.6 16 24 16ZM24 18C15.8 18 8 23.2 8 28C8 32 24 32 24 32C24 32 40 32 40 28C40 23.2 32.2 18 24 18ZM35.4 12H36C39.4 12 42 9.4 42 6C42 2.6 39.4 0 36 0C35 0 34.2 0.2 33.4 0.6C35 2.6 36 5.2 36 8C36 9.4 35.8 10.8 35.4 12ZM12 12H12.6C12.2 10.8 12 9.4 12 8C12 5.2 13 2.6 14.6 0.6C13.8 0.2 13 0 12 0C8.6 0 6 2.6 6 6C6 9.4 8.6 12 12 12Z" fill="white"/>
</svg>
