<svg width="401" height="430" viewBox="0 0 401 430" fill="none" xmlns="http://www.w3.org/2000/svg">
<g filter="url(#filter0_b_1468_709)">
<rect width="399" height="267" rx="10" fill="white" fill-opacity="0.05"/>
</g>
<path d="M31.616 70.9H27.066L26.198 73H23.874L28.242 63.2H30.482L34.864 73H32.484L31.616 70.9ZM30.902 69.178L29.348 65.426L27.794 69.178H30.902ZM43.178 65.468V73H41.106V72.104C40.8167 72.4307 40.4714 72.6827 40.07 72.86C39.6687 73.028 39.2347 73.112 38.768 73.112C37.7787 73.112 36.9947 72.8273 36.416 72.258C35.8374 71.6887 35.548 70.844 35.548 69.724V65.468H37.732V69.402C37.732 70.6153 38.2407 71.222 39.258 71.222C39.7807 71.222 40.2007 71.054 40.518 70.718C40.8354 70.3727 40.994 69.864 40.994 69.192V65.468H43.178ZM52.8734 62.612V73H50.7874V72.132C50.246 72.7853 49.462 73.112 48.4354 73.112C47.726 73.112 47.082 72.9533 46.5034 72.636C45.934 72.3187 45.486 71.866 45.1594 71.278C44.8327 70.69 44.6694 70.0087 44.6694 69.234C44.6694 68.4593 44.8327 67.778 45.1594 67.19C45.486 66.602 45.934 66.1493 46.5034 65.832C47.082 65.5147 47.726 65.356 48.4354 65.356C49.3967 65.356 50.148 65.6593 50.6894 66.266V62.612H52.8734ZM48.8134 71.32C49.364 71.32 49.8214 71.1333 50.1854 70.76C50.5494 70.3773 50.7314 69.8687 50.7314 69.234C50.7314 68.5993 50.5494 68.0953 50.1854 67.722C49.8214 67.3393 49.364 67.148 48.8134 67.148C48.2534 67.148 47.7914 67.3393 47.4274 67.722C47.0634 68.0953 46.8814 68.5993 46.8814 69.234C46.8814 69.8687 47.0634 70.3773 47.4274 70.76C47.7914 71.1333 48.2534 71.32 48.8134 71.32ZM54.8947 65.468H57.0787V73H54.8947V65.468ZM55.9867 64.418C55.5854 64.418 55.2587 64.3013 55.0067 64.068C54.7547 63.8347 54.6287 63.5453 54.6287 63.2C54.6287 62.8547 54.7547 62.5653 55.0067 62.332C55.2587 62.0987 55.5854 61.982 55.9867 61.982C56.3881 61.982 56.7147 62.094 56.9667 62.318C57.2187 62.542 57.3447 62.822 57.3447 63.158C57.3447 63.522 57.2187 63.8253 56.9667 64.068C56.7147 64.3013 56.3881 64.418 55.9867 64.418ZM66.4837 69.262C66.4837 69.29 66.4697 69.486 66.4417 69.85H60.7437C60.8463 70.3167 61.089 70.6853 61.4717 70.956C61.8543 71.2267 62.3303 71.362 62.8997 71.362C63.2917 71.362 63.637 71.306 63.9357 71.194C64.2437 71.0727 64.5283 70.886 64.7897 70.634L65.9517 71.894C65.2423 72.706 64.2063 73.112 62.8437 73.112C61.9943 73.112 61.243 72.9487 60.5897 72.622C59.9363 72.286 59.4323 71.824 59.0777 71.236C58.723 70.648 58.5457 69.9807 58.5457 69.234C58.5457 68.4967 58.7183 67.834 59.0637 67.246C59.4183 66.6487 59.899 66.1867 60.5057 65.86C61.1217 65.524 61.8077 65.356 62.5637 65.356C63.301 65.356 63.9683 65.5147 64.5657 65.832C65.163 66.1493 65.6297 66.6067 65.9657 67.204C66.311 67.792 66.4837 68.478 66.4837 69.262ZM62.5777 67.008C62.083 67.008 61.6677 67.148 61.3317 67.428C60.9957 67.708 60.7903 68.0907 60.7157 68.576H64.4257C64.351 68.1 64.1457 67.722 63.8097 67.442C63.4737 67.1527 63.063 67.008 62.5777 67.008ZM72.5157 65.356C73.449 65.356 74.2004 65.636 74.7697 66.196C75.3484 66.756 75.6377 67.5867 75.6377 68.688V73H73.4537V69.024C73.4537 68.4267 73.323 67.9833 73.0617 67.694C72.8004 67.3953 72.4224 67.246 71.9277 67.246C71.377 67.246 70.9384 67.4187 70.6117 67.764C70.285 68.1 70.1217 68.604 70.1217 69.276V73H67.9377V65.468H70.0237V66.35C70.313 66.0327 70.6724 65.79 71.1017 65.622C71.531 65.4447 72.0024 65.356 72.5157 65.356ZM81.3394 73.112C80.5367 73.112 79.8134 72.9487 79.1694 72.622C78.5347 72.286 78.0354 71.824 77.6714 71.236C77.3167 70.648 77.1394 69.9807 77.1394 69.234C77.1394 68.4873 77.3167 67.82 77.6714 67.232C78.0354 66.644 78.5347 66.1867 79.1694 65.86C79.8134 65.524 80.5367 65.356 81.3394 65.356C82.1327 65.356 82.8234 65.524 83.4114 65.86C84.0087 66.1867 84.4427 66.658 84.7134 67.274L83.0194 68.184C82.6274 67.4933 82.0627 67.148 81.3254 67.148C80.7561 67.148 80.2847 67.3347 79.9114 67.708C79.5381 68.0813 79.3514 68.59 79.3514 69.234C79.3514 69.878 79.5381 70.3867 79.9114 70.76C80.2847 71.1333 80.7561 71.32 81.3254 71.32C82.0721 71.32 82.6367 70.9747 83.0194 70.284L84.7134 71.208C84.4427 71.8053 84.0087 72.272 83.4114 72.608C82.8234 72.944 82.1327 73.112 81.3394 73.112ZM93.2532 69.262C93.2532 69.29 93.2392 69.486 93.2112 69.85H87.5132C87.6159 70.3167 87.8585 70.6853 88.2412 70.956C88.6239 71.2267 89.0999 71.362 89.6692 71.362C90.0612 71.362 90.4065 71.306 90.7052 71.194C91.0132 71.0727 91.2979 70.886 91.5592 70.634L92.7212 71.894C92.0119 72.706 90.9759 73.112 89.6132 73.112C88.7639 73.112 88.0125 72.9487 87.3592 72.622C86.7059 72.286 86.2019 71.824 85.8472 71.236C85.4925 70.648 85.3152 69.9807 85.3152 69.234C85.3152 68.4967 85.4879 67.834 85.8332 67.246C86.1879 66.6487 86.6685 66.1867 87.2752 65.86C87.8912 65.524 88.5772 65.356 89.3332 65.356C90.0705 65.356 90.7379 65.5147 91.3352 65.832C91.9325 66.1493 92.3992 66.6067 92.7352 67.204C93.0805 67.792 93.2532 68.478 93.2532 69.262ZM89.3472 67.008C88.8525 67.008 88.4372 67.148 88.1012 67.428C87.7652 67.708 87.5599 68.0907 87.4852 68.576H91.1952C91.1205 68.1 90.9152 67.722 90.5792 67.442C90.2432 67.1527 89.8325 67.008 89.3472 67.008Z" fill="white"/>
<circle cx="27.8263" cy="29.0124" r="4.14461" fill="#FC165B"/>
<circle cx="41.088" cy="29.0124" r="4.14461" fill="#FCA016"/>
<circle cx="54.3516" cy="29.0124" r="4.14461" fill="#16FCA9"/>
<g filter="url(#filter1_b_1468_709)">
<rect x="2" y="325" width="123" height="105" rx="10" fill="white" fill-opacity="0.05"/>
</g>
<g filter="url(#filter2_b_1468_709)">
<rect x="140" y="325" width="123" height="105" rx="10" fill="white" fill-opacity="0.05"/>
</g>
<g filter="url(#filter3_b_1468_709)">
<rect x="278" y="325" width="123" height="105" rx="10" fill="white" fill-opacity="0.05"/>
</g>
<path d="M184.47 396.2H188.6C189.636 396.2 190.555 396.405 191.358 396.816C192.161 397.227 192.781 397.805 193.22 398.552C193.668 399.289 193.892 400.139 193.892 401.1C193.892 402.061 193.668 402.915 193.22 403.662C192.781 404.399 192.161 404.973 191.358 405.384C190.555 405.795 189.636 406 188.6 406H184.47V396.2ZM188.516 404.782C189.309 404.782 190.005 404.628 190.602 404.32C191.209 404.012 191.675 403.583 192.002 403.032C192.329 402.472 192.492 401.828 192.492 401.1C192.492 400.372 192.329 399.733 192.002 399.182C191.675 398.622 191.209 398.188 190.602 397.88C190.005 397.572 189.309 397.418 188.516 397.418H185.87V404.782H188.516ZM198.542 398.51C199.569 398.51 200.353 398.762 200.894 399.266C201.445 399.77 201.72 400.521 201.72 401.52V406H200.446V405.02C200.222 405.365 199.9 405.631 199.48 405.818C199.07 405.995 198.58 406.084 198.01 406.084C197.18 406.084 196.512 405.883 196.008 405.482C195.514 405.081 195.266 404.553 195.266 403.9C195.266 403.247 195.504 402.724 195.98 402.332C196.456 401.931 197.212 401.73 198.248 401.73H200.376V401.464C200.376 400.885 200.208 400.442 199.872 400.134C199.536 399.826 199.042 399.672 198.388 399.672C197.95 399.672 197.52 399.747 197.1 399.896C196.68 400.036 196.326 400.227 196.036 400.47L195.476 399.462C195.859 399.154 196.316 398.921 196.848 398.762C197.38 398.594 197.945 398.51 198.542 398.51ZM198.234 405.048C198.748 405.048 199.191 404.936 199.564 404.712C199.938 404.479 200.208 404.152 200.376 403.732V402.696H198.304C197.166 402.696 196.596 403.079 196.596 403.844C196.596 404.217 196.741 404.511 197.03 404.726C197.32 404.941 197.721 405.048 198.234 405.048ZM204.208 398.58H205.552V406H204.208V398.58ZM204.88 397.152C204.618 397.152 204.399 397.068 204.222 396.9C204.054 396.732 203.97 396.527 203.97 396.284C203.97 396.041 204.054 395.836 204.222 395.668C204.399 395.491 204.618 395.402 204.88 395.402C205.141 395.402 205.356 395.486 205.524 395.654C205.701 395.813 205.79 396.013 205.79 396.256C205.79 396.508 205.701 396.723 205.524 396.9C205.356 397.068 205.141 397.152 204.88 397.152ZM208.118 395.612H209.462V406H208.118V395.612ZM218.594 398.58L214.996 406.742C214.679 407.498 214.305 408.03 213.876 408.338C213.456 408.646 212.947 408.8 212.35 408.8C211.986 408.8 211.631 408.739 211.286 408.618C210.95 408.506 210.67 408.338 210.446 408.114L211.02 407.106C211.403 407.47 211.846 407.652 212.35 407.652C212.677 407.652 212.947 407.563 213.162 407.386C213.386 407.218 213.587 406.924 213.764 406.504L214.002 405.986L210.726 398.58H212.126L214.716 404.516L217.278 398.58H218.594Z" fill="white" fill-opacity="0.6"/>
<path d="M49.416 397.418H46.056V396.2H54.162V397.418H50.802V406H49.416V397.418ZM57.9032 406.084C57.1658 406.084 56.5032 405.921 55.9152 405.594C55.3272 405.267 54.8652 404.819 54.5292 404.25C54.2025 403.671 54.0392 403.018 54.0392 402.29C54.0392 401.562 54.2025 400.913 54.5292 400.344C54.8652 399.765 55.3272 399.317 55.9152 399C56.5032 398.673 57.1658 398.51 57.9032 398.51C58.6405 398.51 59.2985 398.673 59.8772 399C60.4652 399.317 60.9225 399.765 61.2492 400.344C61.5852 400.913 61.7532 401.562 61.7532 402.29C61.7532 403.018 61.5852 403.671 61.2492 404.25C60.9225 404.819 60.4652 405.267 59.8772 405.594C59.2985 405.921 58.6405 406.084 57.9032 406.084ZM57.9032 404.908C58.3792 404.908 58.8038 404.801 59.1772 404.586C59.5598 404.362 59.8585 404.054 60.0732 403.662C60.2878 403.261 60.3952 402.803 60.3952 402.29C60.3952 401.777 60.2878 401.324 60.0732 400.932C59.8585 400.531 59.5598 400.223 59.1772 400.008C58.8038 399.793 58.3792 399.686 57.9032 399.686C57.4272 399.686 56.9978 399.793 56.6152 400.008C56.2418 400.223 55.9432 400.531 55.7192 400.932C55.5045 401.324 55.3972 401.777 55.3972 402.29C55.3972 402.803 55.5045 403.261 55.7192 403.662C55.9432 404.054 56.2418 404.362 56.6152 404.586C56.9978 404.801 57.4272 404.908 57.9032 404.908ZM67.7839 405.566C67.5879 405.734 67.3452 405.865 67.0559 405.958C66.7666 406.042 66.4679 406.084 66.1599 406.084C65.4132 406.084 64.8346 405.883 64.4239 405.482C64.0132 405.081 63.8079 404.507 63.8079 403.76V399.686H62.5479V398.58H63.8079V396.956H65.1519V398.58H67.2799V399.686H65.1519V403.704C65.1519 404.105 65.2499 404.413 65.4459 404.628C65.6512 404.843 65.9406 404.95 66.3139 404.95C66.7246 404.95 67.0746 404.833 67.3639 404.6L67.7839 405.566ZM72.1108 398.51C73.1374 398.51 73.9214 398.762 74.4628 399.266C75.0134 399.77 75.2888 400.521 75.2888 401.52V406H74.0148V405.02C73.7908 405.365 73.4688 405.631 73.0488 405.818C72.6381 405.995 72.1481 406.084 71.5788 406.084C70.7481 406.084 70.0808 405.883 69.5768 405.482C69.0821 405.081 68.8348 404.553 68.8348 403.9C68.8348 403.247 69.0728 402.724 69.5488 402.332C70.0248 401.931 70.7808 401.73 71.8168 401.73H73.9448V401.464C73.9448 400.885 73.7768 400.442 73.4408 400.134C73.1048 399.826 72.6101 399.672 71.9568 399.672C71.5181 399.672 71.0888 399.747 70.6688 399.896C70.2488 400.036 69.8941 400.227 69.6048 400.47L69.0448 399.462C69.4274 399.154 69.8848 398.921 70.4168 398.762C70.9488 398.594 71.5134 398.51 72.1108 398.51ZM71.8028 405.048C72.3161 405.048 72.7594 404.936 73.1328 404.712C73.5061 404.479 73.7768 404.152 73.9448 403.732V402.696H71.8728C70.7341 402.696 70.1648 403.079 70.1648 403.844C70.1648 404.217 70.3094 404.511 70.5988 404.726C70.8881 404.941 71.2894 405.048 71.8028 405.048ZM77.776 395.612H79.12V406H77.776V395.612Z" fill="white" fill-opacity="0.6"/>
<path opacity="0.3" d="M196.5 267C196.5 265.328 197.828 264 199.5 264V261C196.172 261 193.5 263.672 193.5 267H196.5ZM199.5 264C201.172 264 202.5 265.328 202.5 267H205.5C205.5 263.672 202.828 261 199.5 261V264ZM202.5 267C202.5 268.672 201.172 270 199.5 270V273C202.828 273 205.5 270.328 205.5 267H202.5ZM199.5 270C197.828 270 196.5 268.672 196.5 267H193.5C193.5 270.328 196.172 273 199.5 273V270ZM198 271.5V296H201V271.5H198ZM198 296V325H201V296H198Z" fill="white" fill-opacity="0.1"/>
<path d="M199.5 262.5C197 262.5 195 264.5 195 267C195 269.5 197 271.5 199.5 271.5C202 271.5 204 269.5 204 267C204 264.5 202 262.5 199.5 262.5Z" fill="#6016FC"/>
<path d="M196.5 267C196.5 265.328 197.828 264 199.5 264V261C196.172 261 193.5 263.672 193.5 267H196.5ZM199.5 264C201.172 264 202.5 265.328 202.5 267H205.5C205.5 263.672 202.828 261 199.5 261V264ZM202.5 267C202.5 268.672 201.172 270 199.5 270V273C202.828 273 205.5 270.328 205.5 267H202.5ZM199.5 270C197.828 270 196.5 268.672 196.5 267H193.5C193.5 270.328 196.172 273 199.5 273V270ZM198 271.5V281H201V271.5H198ZM179.5 299.5H74V302.5H179.5V299.5ZM62.5 311V325H65.5V311H62.5ZM74 299.5C67.6487 299.5 62.5 304.649 62.5 311H65.5C65.5 306.306 69.3056 302.5 74 302.5V299.5ZM198 281C198 291.217 189.717 299.5 179.5 299.5V302.5C191.374 302.5 201 292.874 201 281H198Z" fill="white" fill-opacity="0.1"/>
<path opacity="0.3" d="M196.5 267C196.5 265.328 197.828 264 199.5 264V261C196.172 261 193.5 263.672 193.5 267H196.5ZM199.5 264C201.172 264 202.5 265.328 202.5 267H205.5C205.5 263.672 202.828 261 199.5 261V264ZM202.5 267C202.5 268.672 201.172 270 199.5 270V273C202.828 273 205.5 270.328 205.5 267H202.5ZM199.5 270C197.828 270 196.5 268.672 196.5 267H193.5C193.5 270.328 196.172 273 199.5 273V270ZM198 271.5V281H201V271.5H198ZM219.5 302.5H329.5V299.5H219.5V302.5ZM338 311V325H341V311H338ZM329.5 302.5C334.194 302.5 338 306.306 338 311H341C341 304.649 335.851 299.5 329.5 299.5V302.5ZM198 281C198 292.874 207.626 302.5 219.5 302.5V299.5C209.283 299.5 201 291.217 201 281H198Z" fill="white" fill-opacity="0.1"/>
<path d="M320.556 406L320.542 398.86L317 404.81H316.356L312.814 398.902V406H311.47V396.2H312.618L316.706 403.088L320.738 396.2H321.886L321.9 406H320.556ZM327.823 406.084C327.086 406.084 326.423 405.921 325.835 405.594C325.247 405.267 324.785 404.819 324.449 404.25C324.122 403.671 323.959 403.018 323.959 402.29C323.959 401.562 324.122 400.913 324.449 400.344C324.785 399.765 325.247 399.317 325.835 399C326.423 398.673 327.086 398.51 327.823 398.51C328.56 398.51 329.218 398.673 329.797 399C330.385 399.317 330.842 399.765 331.169 400.344C331.505 400.913 331.673 401.562 331.673 402.29C331.673 403.018 331.505 403.671 331.169 404.25C330.842 404.819 330.385 405.267 329.797 405.594C329.218 405.921 328.56 406.084 327.823 406.084ZM327.823 404.908C328.299 404.908 328.724 404.801 329.097 404.586C329.48 404.362 329.778 404.054 329.993 403.662C330.208 403.261 330.315 402.803 330.315 402.29C330.315 401.777 330.208 401.324 329.993 400.932C329.778 400.531 329.48 400.223 329.097 400.008C328.724 399.793 328.299 399.686 327.823 399.686C327.347 399.686 326.918 399.793 326.535 400.008C326.162 400.223 325.863 400.531 325.639 400.932C325.424 401.324 325.317 401.777 325.317 402.29C325.317 402.803 325.424 403.261 325.639 403.662C325.863 404.054 326.162 404.362 326.535 404.586C326.918 404.801 327.347 404.908 327.823 404.908ZM337.494 398.51C338.436 398.51 339.183 398.785 339.734 399.336C340.294 399.877 340.574 400.675 340.574 401.73V406H339.23V401.884C339.23 401.165 339.057 400.624 338.712 400.26C338.366 399.896 337.872 399.714 337.228 399.714C336.5 399.714 335.926 399.929 335.506 400.358C335.086 400.778 334.876 401.385 334.876 402.178V406H333.532V398.58H334.82V399.7C335.09 399.317 335.454 399.023 335.912 398.818C336.378 398.613 336.906 398.51 337.494 398.51ZM347.233 405.566C347.037 405.734 346.794 405.865 346.505 405.958C346.216 406.042 345.917 406.084 345.609 406.084C344.862 406.084 344.284 405.883 343.873 405.482C343.462 405.081 343.257 404.507 343.257 403.76V399.686H341.997V398.58H343.257V396.956H344.601V398.58H346.729V399.686H344.601V403.704C344.601 404.105 344.699 404.413 344.895 404.628C345.1 404.843 345.39 404.95 345.763 404.95C346.174 404.95 346.524 404.833 346.813 404.6L347.233 405.566ZM352.82 398.51C353.763 398.51 354.509 398.785 355.06 399.336C355.62 399.877 355.9 400.675 355.9 401.73V406H354.556V401.884C354.556 401.165 354.383 400.624 354.038 400.26C353.693 399.896 353.198 399.714 352.554 399.714C351.826 399.714 351.252 399.929 350.832 400.358C350.412 400.778 350.202 401.385 350.202 402.178V406H348.858V395.612H350.202V399.63C350.482 399.275 350.846 399 351.294 398.804C351.751 398.608 352.26 398.51 352.82 398.51ZM358.387 395.612H359.731V406H358.387V395.612ZM368.863 398.58L365.265 406.742C364.948 407.498 364.575 408.03 364.145 408.338C363.725 408.646 363.217 408.8 362.619 408.8C362.255 408.8 361.901 408.739 361.555 408.618C361.219 408.506 360.939 408.338 360.715 408.114L361.289 407.106C361.672 407.47 362.115 407.652 362.619 407.652C362.946 407.652 363.217 407.563 363.431 407.386C363.655 407.218 363.856 406.924 364.033 406.504L364.271 405.986L360.995 398.58H362.395L364.985 404.516L367.547 398.58H368.863Z" fill="white" fill-opacity="0.5"/>
<path d="M206.75 358C207.612 358 208.439 358.342 209.048 358.952C209.658 359.561 210 360.388 210 361.25V372.75C210 373.612 209.658 374.439 209.048 375.048C208.439 375.658 207.612 376 206.75 376H195.25C194.388 376 193.561 375.658 192.952 375.048C192.342 374.439 192 373.612 192 372.75V361.25C192 360.388 192.342 359.561 192.952 358.952C193.561 358.342 194.388 358 195.25 358H206.75ZM206.75 359.5H195.25C194.786 359.5 194.341 359.684 194.013 360.013C193.684 360.341 193.5 360.786 193.5 361.25V372.75C193.5 373.716 194.284 374.5 195.25 374.5H206.75C207.214 374.5 207.659 374.316 207.987 373.987C208.316 373.659 208.5 373.214 208.5 372.75V361.25C208.5 360.786 208.316 360.341 207.987 360.013C207.659 359.684 207.214 359.5 206.75 359.5ZM202.25 363C202.449 363 202.64 363.079 202.78 363.22C202.921 363.36 203 363.551 203 363.75V366.5H204.5V363.75C204.5 363.551 204.579 363.36 204.72 363.22C204.86 363.079 205.051 363 205.25 363C205.449 363 205.64 363.079 205.78 363.22C205.921 363.36 206 363.551 206 363.75V370.22C206 370.419 205.921 370.61 205.78 370.75C205.64 370.891 205.449 370.97 205.25 370.97C205.051 370.97 204.86 370.891 204.72 370.75C204.579 370.61 204.5 370.419 204.5 370.22V368H202.25C202.051 368 201.86 367.921 201.72 367.78C201.579 367.64 201.5 367.449 201.5 367.25V363.75C201.5 363.551 201.579 363.36 201.72 363.22C201.86 363.079 202.051 363 202.25 363ZM196.5 363.744C196.847 363.362 197.415 363 198.25 363C199.402 363 200.144 363.792 200.405 364.661C200.658 365.508 200.505 366.556 199.785 367.279C199.535 367.519 199.27 367.743 198.992 367.949L198.952 367.98C198.672 368.196 198.422 368.392 198.202 368.61C197.947 368.866 197.738 369.145 197.617 369.5H199.75C199.949 369.5 200.14 369.579 200.28 369.72C200.421 369.86 200.5 370.051 200.5 370.25C200.5 370.449 200.421 370.64 200.28 370.78C200.14 370.921 199.949 371 199.75 371H196.75C196.551 371 196.36 370.921 196.22 370.78C196.079 370.64 196 370.449 196 370.25C196 369.003 196.524 368.167 197.144 367.549C197.44 367.253 197.762 367.004 198.034 366.793L198.037 366.791C198.323 366.57 198.545 366.398 198.722 366.221C198.994 365.947 199.089 365.496 198.968 365.091C198.853 364.71 198.598 364.5 198.25 364.5C197.897 364.5 197.715 364.637 197.61 364.753C197.549 364.821 197.499 364.898 197.463 364.982L197.461 364.985C197.398 365.172 197.264 365.327 197.088 365.416C196.911 365.505 196.707 365.521 196.519 365.46C196.331 365.4 196.174 365.267 196.084 365.091C195.993 364.916 195.975 364.712 196.034 364.523L196.069 364.427C196.172 364.176 196.317 363.945 196.499 363.744H196.5Z" fill="white" fill-opacity="0.6"/>
<path d="M65.4786 364.632C66.348 364.632 67.0536 365.374 67.0536 366.289V369.368H67.05V369.605C67.05 369.794 66.9789 369.974 66.8523 370.108C66.7257 370.241 66.554 370.316 66.375 370.316C66.196 370.316 66.0243 370.241 65.8977 370.108C65.7711 369.974 65.7 369.794 65.7 369.605V367.474H65.7036V366.289C65.7036 366.227 65.6799 366.166 65.6377 366.122C65.5955 366.078 65.5383 366.053 65.4786 366.053H60.5268C60.4671 366.053 60.4099 366.078 60.3677 366.122C60.3255 366.166 60.3018 366.227 60.3018 366.289V369.368H60.3V369.605C60.3 369.794 60.2289 369.974 60.1023 370.108C59.9757 370.241 59.804 370.316 59.625 370.316C59.446 370.316 59.2743 370.241 59.1477 370.108C59.0211 369.974 58.95 369.794 58.95 369.605V367.474H58.9518V366.289C58.9518 365.374 59.6565 364.632 60.5268 364.632H65.4786ZM70.65 366.289V369.605C70.65 369.794 70.7211 369.974 70.8477 370.108C70.9743 370.241 71.146 370.316 71.325 370.316C71.504 370.316 71.6757 370.241 71.8023 370.108C71.9289 369.974 72 369.794 72 369.605V366.289C72 365.85 71.8341 365.428 71.5387 365.117C71.2433 364.806 70.8427 364.632 70.425 364.632H67.3875C67.6962 365.025 67.8978 365.515 67.9437 366.053H70.425C70.4847 366.053 70.5419 366.078 70.5841 366.122C70.6263 366.166 70.65 366.227 70.65 366.289ZM54 369.605C54 369.794 54.0711 369.974 54.1977 370.108C54.3243 370.241 54.496 370.316 54.675 370.316C54.854 370.316 55.0257 370.241 55.1523 370.108C55.2789 369.974 55.35 369.794 55.35 369.605V366.289C55.35 366.227 55.3737 366.166 55.4159 366.122C55.4581 366.078 55.5153 366.053 55.575 366.053H58.0617C58.1065 365.531 58.3004 365.035 58.6179 364.632H55.575C55.1573 364.632 54.7567 364.806 54.4613 365.117C54.1659 365.428 54 365.85 54 366.289V369.605ZM63 358C63.7161 358 64.4028 358.299 64.9092 358.832C65.4155 359.365 65.7 360.088 65.7 360.842C65.7 361.596 65.4155 362.319 64.9092 362.852C64.4028 363.385 63.7161 363.684 63 363.684C62.2839 363.684 61.5972 363.385 61.0908 362.852C60.5845 362.319 60.3 361.596 60.3 360.842C60.3 360.088 60.5845 359.365 61.0908 358.832C61.5972 358.299 62.2839 358 63 358ZM63 359.421C62.642 359.421 62.2986 359.571 62.0454 359.837C61.7922 360.104 61.65 360.465 61.65 360.842C61.65 361.219 61.7922 361.58 62.0454 361.847C62.2986 362.113 62.642 362.263 63 362.263C63.358 362.263 63.7014 362.113 63.9546 361.847C64.2078 361.58 64.35 361.219 64.35 360.842C64.35 360.465 64.2078 360.104 63.9546 359.837C63.7014 359.571 63.358 359.421 63 359.421ZM68.85 358.947C69.4467 358.947 70.019 359.197 70.441 359.641C70.8629 360.085 71.1 360.688 71.1 361.316C71.1 361.944 70.8629 362.546 70.441 362.991C70.019 363.435 69.4467 363.684 68.85 363.684C68.2533 363.684 67.681 363.435 67.259 362.991C66.8371 362.546 66.6 361.944 66.6 361.316C66.6 360.688 66.8371 360.085 67.259 359.641C67.681 359.197 68.2533 358.947 68.85 358.947ZM68.85 360.368C68.6113 360.368 68.3824 360.468 68.2136 360.646C68.0448 360.824 67.95 361.065 67.95 361.316C67.95 361.567 68.0448 361.808 68.2136 361.986C68.3824 362.163 68.6113 362.263 68.85 362.263C69.0887 362.263 69.3176 362.163 69.4864 361.986C69.6552 361.808 69.75 361.567 69.75 361.316C69.75 361.065 69.6552 360.824 69.4864 360.646C69.3176 360.468 69.0887 360.368 68.85 360.368ZM57.15 358.947C57.7467 358.947 58.319 359.197 58.741 359.641C59.1629 360.085 59.4 360.688 59.4 361.316C59.4 361.944 59.1629 362.546 58.741 362.991C58.319 363.435 57.7467 363.684 57.15 363.684C56.5533 363.684 55.981 363.435 55.559 362.991C55.1371 362.546 54.9 361.944 54.9 361.316C54.9 360.688 55.1371 360.085 55.559 359.641C55.981 359.197 56.5533 358.947 57.15 358.947ZM57.15 360.368C56.9113 360.368 56.6824 360.468 56.5136 360.646C56.3448 360.824 56.25 361.065 56.25 361.316C56.25 361.567 56.3448 361.808 56.5136 361.986C56.6824 362.163 56.9113 362.263 57.15 362.263C57.3887 362.263 57.6176 362.163 57.7864 361.986C57.9552 361.808 58.05 361.567 58.05 361.316C58.05 361.065 57.9552 360.824 57.7864 360.646C57.6176 360.468 57.3887 360.368 57.15 360.368ZM54.675 371.263C54.496 371.263 54.3243 371.338 54.1977 371.471C54.0711 371.605 54 371.785 54 371.974V372.447C54 373.39 54.3556 374.293 54.9885 374.959C55.6214 375.626 56.4799 376 57.375 376H68.625C69.5201 376 70.3786 375.626 71.0115 374.959C71.6444 374.293 72 373.39 72 372.447V371.974C72 371.785 71.9289 371.605 71.8023 371.471C71.6757 371.338 71.504 371.263 71.325 371.263H54.675ZM57.375 374.579C56.8769 374.579 56.3963 374.386 56.025 374.036C55.6538 373.687 55.4179 373.205 55.3626 372.684H70.6374C70.5821 373.205 70.3462 373.687 69.975 374.036C69.6037 374.386 69.1231 374.579 68.625 374.579H57.375Z" fill="white" fill-opacity="0.6"/>
<path d="M344.75 358C345.612 358 346.439 358.342 347.048 358.952C347.658 359.561 348 360.388 348 361.25V372.75C348 373.612 347.658 374.439 347.048 375.048C346.439 375.658 345.612 376 344.75 376H333.25C332.388 376 331.561 375.658 330.952 375.048C330.342 374.439 330 373.612 330 372.75V361.25C330 360.388 330.342 359.561 330.952 358.952C331.561 358.342 332.388 358 333.25 358H344.75ZM344.75 359.5H333.25C332.786 359.5 332.341 359.684 332.013 360.013C331.684 360.341 331.5 360.786 331.5 361.25V372.75C331.5 373.716 332.284 374.5 333.25 374.5H344.75C345.214 374.5 345.659 374.316 345.987 373.987C346.316 373.659 346.5 373.214 346.5 372.75V361.25C346.5 360.786 346.316 360.341 345.987 360.013C345.659 359.684 345.214 359.5 344.75 359.5ZM334.75 368.5C335.082 368.5 335.399 368.632 335.634 368.866C335.868 369.101 336 369.418 336 369.75C336 370.082 335.868 370.399 335.634 370.634C335.399 370.868 335.082 371 334.75 371C334.418 371 334.101 370.868 333.866 370.634C333.632 370.399 333.5 370.082 333.5 369.75C333.5 369.418 333.632 369.101 333.866 368.866C334.101 368.632 334.418 368.5 334.75 368.5ZM339 368.5C339.332 368.5 339.649 368.632 339.884 368.866C340.118 369.101 340.25 369.418 340.25 369.75C340.25 370.082 340.118 370.399 339.884 370.634C339.649 370.868 339.332 371 339 371C338.668 371 338.351 370.868 338.116 370.634C337.882 370.399 337.75 370.082 337.75 369.75C337.75 369.418 337.882 369.101 338.116 368.866C338.351 368.632 338.668 368.5 339 368.5ZM334.75 363.5C335.082 363.5 335.399 363.632 335.634 363.866C335.868 364.101 336 364.418 336 364.75C336 365.082 335.868 365.399 335.634 365.634C335.399 365.868 335.082 366 334.75 366C334.418 366 334.101 365.868 333.866 365.634C333.632 365.399 333.5 365.082 333.5 364.75C333.5 364.418 333.632 364.101 333.866 363.866C334.101 363.632 334.418 363.5 334.75 363.5ZM339 363.5C339.332 363.5 339.649 363.632 339.884 363.866C340.118 364.101 340.25 364.418 340.25 364.75C340.25 365.082 340.118 365.399 339.884 365.634C339.649 365.868 339.332 366 339 366C338.668 366 338.351 365.868 338.116 365.634C337.882 365.399 337.75 365.082 337.75 364.75C337.75 364.418 337.882 364.101 338.116 363.866C338.351 363.632 338.668 363.5 339 363.5ZM343.25 363.5C343.582 363.5 343.899 363.632 344.134 363.866C344.368 364.101 344.5 364.418 344.5 364.75C344.5 365.082 344.368 365.399 344.134 365.634C343.899 365.868 343.582 366 343.25 366C342.918 366 342.601 365.868 342.366 365.634C342.132 365.399 342 365.082 342 364.75C342 364.418 342.132 364.101 342.366 363.866C342.601 363.632 342.918 363.5 343.25 363.5Z" fill="white" fill-opacity="0.6"/>
<rect x="24" y="102" width="71" height="54" fill="white" fill-opacity="0.2"/>
<rect x="24" y="172" width="71" height="54" fill="white" fill-opacity="0.2"/>
<rect x="117" y="102" width="71" height="54" fill="white" fill-opacity="0.2"/>
<rect x="117" y="172" width="71" height="54" fill="white" fill-opacity="0.2"/>
<rect x="210" y="102" width="71" height="54" fill="white" fill-opacity="0.2"/>
<rect x="210" y="172" width="71" height="54" fill="white" fill-opacity="0.2"/>
<rect x="303" y="102" width="71" height="54" fill="white" fill-opacity="0.2"/>
<rect x="303" y="172" width="71" height="54" fill="white" fill-opacity="0.2"/>
<defs>
<filter id="filter0_b_1468_709" x="-74" y="-74" width="547" height="415" filterUnits="userSpaceOnUse" color-interpolation-filters="sRGB">
<feFlood flood-opacity="0" result="BackgroundImageFix"/>
<feGaussianBlur in="BackgroundImage" stdDeviation="37"/>
<feComposite in2="SourceAlpha" operator="in" result="effect1_backgroundBlur_1468_709"/>
<feBlend mode="normal" in="SourceGraphic" in2="effect1_backgroundBlur_1468_709" result="shape"/>
</filter>
<filter id="filter1_b_1468_709" x="-72" y="251" width="271" height="253" filterUnits="userSpaceOnUse" color-interpolation-filters="sRGB">
<feFlood flood-opacity="0" result="BackgroundImageFix"/>
<feGaussianBlur in="BackgroundImage" stdDeviation="37"/>
<feComposite in2="SourceAlpha" operator="in" result="effect1_backgroundBlur_1468_709"/>
<feBlend mode="normal" in="SourceGraphic" in2="effect1_backgroundBlur_1468_709" result="shape"/>
</filter>
<filter id="filter2_b_1468_709" x="66" y="251" width="271" height="253" filterUnits="userSpaceOnUse" color-interpolation-filters="sRGB">
<feFlood flood-opacity="0" result="BackgroundImageFix"/>
<feGaussianBlur in="BackgroundImage" stdDeviation="37"/>
<feComposite in2="SourceAlpha" operator="in" result="effect1_backgroundBlur_1468_709"/>
<feBlend mode="normal" in="SourceGraphic" in2="effect1_backgroundBlur_1468_709" result="shape"/>
</filter>
<filter id="filter3_b_1468_709" x="204" y="251" width="271" height="253" filterUnits="userSpaceOnUse" color-interpolation-filters="sRGB">
<feFlood flood-opacity="0" result="BackgroundImageFix"/>
<feGaussianBlur in="BackgroundImage" stdDeviation="37"/>
<feComposite in2="SourceAlpha" operator="in" result="effect1_backgroundBlur_1468_709"/>
<feBlend mode="normal" in="SourceGraphic" in2="effect1_backgroundBlur_1468_709" result="shape"/>
</filter>
</defs>
</svg>
