<svg width="26" height="26" viewBox="0 0 26 26" fill="none" xmlns="http://www.w3.org/2000/svg">
<circle cx="13" cy="13" r="13" fill="white" fill-opacity="0.1"/>
<path d="M19.3953 9.802C19.3194 9.52027 19.171 9.26334 18.9649 9.05678C18.7588 8.85022 18.5022 8.70124 18.2206 8.62467C17.1766 8.338 13 8.33333 13 8.33333C13 8.33333 8.82398 8.32867 7.77931 8.60267C7.49793 8.68276 7.24186 8.83385 7.03569 9.04142C6.82952 9.24899 6.68017 9.50608 6.60198 9.788C6.32664 10.832 6.32398 12.9973 6.32398 12.9973C6.32398 12.9973 6.32131 15.1733 6.59464 16.2067C6.74798 16.778 7.19798 17.2293 7.76998 17.3833C8.82464 17.67 12.99 17.6747 12.99 17.6747C12.99 17.6747 17.1666 17.6793 18.2106 17.406C18.4923 17.3296 18.7491 17.1809 18.9557 16.9748C19.1623 16.7687 19.3116 16.5122 19.3886 16.2307C19.6646 15.1873 19.6666 13.0227 19.6666 13.0227C19.6666 13.0227 19.68 10.846 19.3953 9.802ZM11.664 15.0033L11.6673 11.0033L15.1386 13.0067L11.664 15.0033Z" fill="white"/>
</svg>
